<?xml version="1.0" encoding="UTF-8" standalone="no"?>
<svg
   xmlns:dc="http://purl.org/dc/elements/1.1/"
   xmlns:cc="http://creativecommons.org/ns#"
   xmlns:rdf="http://www.w3.org/1999/02/22-rdf-syntax-ns#"
   xmlns:svg="http://www.w3.org/2000/svg"
   xmlns="http://www.w3.org/2000/svg"
   xmlns:sodipodi="http://sodipodi.sourceforge.net/DTD/sodipodi-0.dtd"
   xmlns:inkscape="http://www.inkscape.org/namespaces/inkscape"
   width="576px"
   height="432px"
   viewBox="0 0 576 432"
   id="svg2"
   version="1.1"
   inkscape:version="0.91 r13725"
   sodipodi:docname="attenuationR.svg"
   inkscape:export-filename="/home/alice/Documents/Etudes/SPI_M2_S1/US_CND/cr_cnd/ondes_volumes/figures/attenuationR.png"
   inkscape:export-xdpi="120"
   inkscape:export-ydpi="120">
  <metadata
     id="metadata186">
    <rdf:RDF>
      <cc:Work
         rdf:about="">
        <dc:format>image/svg+xml</dc:format>
        <dc:type
           rdf:resource="http://purl.org/dc/dcmitype/StillImage" />
      </cc:Work>
    </rdf:RDF>
  </metadata>
  <sodipodi:namedview
     pagecolor="#ffffff"
     bordercolor="#666666"
     borderopacity="1"
     objecttolerance="10"
     gridtolerance="10"
     guidetolerance="10"
     inkscape:pageopacity="0"
     inkscape:pageshadow="2"
     inkscape:window-width="1366"
     inkscape:window-height="718"
     id="namedview184"
     showgrid="false"
     inkscape:zoom="1.0925926"
     inkscape:cx="322.07419"
     inkscape:cy="213.87796"
     inkscape:window-x="0"
     inkscape:window-y="24"
     inkscape:window-maximized="1"
     inkscape:current-layer="svg2" />
  <title
     id="title4">glps_renderer figure</title>
  <desc
     id="desc6">
Creator: GL2PS 1.3.8, (C) 1999-2012 C. Geuzaine
For: Octave
CreationDate: Wed Feb 17 15:37:20 2016
</desc>
  <defs
     id="defs8" />
  <polygon
     style="fill:#ffffff;shape-rendering:crispEdges;stroke-width:2;stroke-miterlimit:4;stroke-dasharray:none"
     id="polygon12"
     points="521.28,384.48 521.28,384.48 521.28,32.4 " />
  <polygon
     style="fill:#ffffff;shape-rendering:crispEdges;stroke-width:2;stroke-miterlimit:4;stroke-dasharray:none"
     id="polygon14"
     points="521.28,384.48 521.28,32.4 521.28,32.4 " />
  <polygon
     style="fill:#ffffff;shape-rendering:crispEdges;stroke-width:2;stroke-miterlimit:4;stroke-dasharray:none"
     id="polygon16"
     points="74.88,32.4 74.88,32.4 521.28,32.4 " />
  <polygon
     style="fill:#ffffff;shape-rendering:crispEdges;stroke-width:2;stroke-miterlimit:4;stroke-dasharray:none"
     id="polygon18"
     points="74.88,32.4 521.28,32.4 521.28,32.4 " />
  <polygon
     style="fill:#ffffff;shape-rendering:crispEdges;stroke-width:2;stroke-miterlimit:4;stroke-dasharray:none"
     id="polygon20"
     points="74.88,32.4 74.88,384.48 521.28,384.48 " />
  <polygon
     style="fill:#ffffff;shape-rendering:crispEdges;stroke-width:2;stroke-miterlimit:4;stroke-dasharray:none"
     id="polygon22"
     points="74.88,32.4 521.28,384.48 521.28,32.4 " />
  <polyline
     style="fill:none;stroke:#000000;stroke-width:2;stroke-dasharray:none;shape-rendering:crispEdges;stroke-miterlimit:4"
     id="polyline24"
     points="74.88,384.48 521.28,384.48" />
  <polyline
     style="fill:none;stroke:#000000;stroke-width:2;stroke-dasharray:none;shape-rendering:crispEdges;stroke-miterlimit:4"
     id="polyline26"
     points="74.88,32.4 521.28,32.4" />
  <polyline
     style="fill:none;stroke:#000000;stroke-width:2;stroke-dasharray:none;shape-rendering:crispEdges;stroke-miterlimit:4"
     id="polyline28"
     points="74.88,32.4 521.28,32.4" />
  <polyline
     style="fill:none;stroke:#000000;stroke-width:2;stroke-dasharray:none;shape-rendering:crispEdges;stroke-miterlimit:4"
     id="polyline30"
     points="74.88,384.48 521.28,384.48" />
  <polyline
     style="fill:none;stroke:#000000;stroke-width:2;stroke-dasharray:none;shape-rendering:crispEdges;stroke-miterlimit:4"
     id="polyline32"
     points="74.88,384.48 74.88,32.4" />
  <polyline
     style="fill:none;stroke:#000000;stroke-width:2;stroke-dasharray:none;shape-rendering:crispEdges;stroke-miterlimit:4"
     id="polyline34"
     points="521.28,384.48 521.28,32.4" />
  <polyline
     style="fill:none;stroke:#000000;stroke-width:2;stroke-dasharray:none;shape-rendering:crispEdges;stroke-miterlimit:4"
     id="polyline36"
     points="521.28,384.48 521.28,32.4" />
  <polyline
     style="fill:none;stroke:#000000;stroke-width:2;stroke-dasharray:none;shape-rendering:crispEdges;stroke-miterlimit:4"
     id="polyline38"
     points="74.88,384.48 74.88,32.4 74.88,32.4" />
  <polyline
     style="fill:none;stroke:#000000;stroke-width:2;stroke-dasharray:none;shape-rendering:crispEdges;stroke-miterlimit:4"
     id="polyline40"
     points="521.28,32.4 521.28,32.4" />
  <polyline
     style="fill:none;stroke:#000000;stroke-width:2;stroke-dasharray:none;shape-rendering:crispEdges;stroke-miterlimit:4"
     id="polyline42"
     points="521.28,384.48 521.28,384.48" />
  <polyline
     style="fill:none;stroke:#000000;stroke-width:2;stroke-dasharray:none;shape-rendering:crispEdges;stroke-miterlimit:4"
     id="polyline44"
     points="74.88,384.48 74.88,384.48 74.88,380.015" />
  <polyline
     style="fill:none;stroke:#000000;stroke-width:2;stroke-dasharray:none;shape-rendering:crispEdges;stroke-miterlimit:4"
     id="polyline46"
     points="74.88,32.4 74.88,36.865" />
  <polyline
     style="fill:none;stroke:#000000;stroke-width:2;stroke-dasharray:none;shape-rendering:crispEdges;stroke-miterlimit:4"
     id="polyline48"
     points="149.28,384.48 149.28,380.015" />
  <polyline
     style="fill:none;stroke:#000000;stroke-width:2;stroke-dasharray:none;shape-rendering:crispEdges;stroke-miterlimit:4"
     id="polyline50"
     points="149.28,32.4 149.28,36.865" />
  <polyline
     style="fill:none;stroke:#000000;stroke-width:2;stroke-dasharray:none;shape-rendering:crispEdges;stroke-miterlimit:4"
     id="polyline52"
     points="223.68,384.48 223.68,380.015" />
  <polyline
     style="fill:none;stroke:#000000;stroke-width:2;stroke-dasharray:none;shape-rendering:crispEdges;stroke-miterlimit:4"
     id="polyline54"
     points="223.68,32.4 223.68,36.865" />
  <polyline
     style="fill:none;stroke:#000000;stroke-width:2;stroke-dasharray:none;shape-rendering:crispEdges;stroke-miterlimit:4"
     id="polyline56"
     points="298.08,384.48 298.08,380.015" />
  <polyline
     style="fill:none;stroke:#000000;stroke-width:2;stroke-dasharray:none;shape-rendering:crispEdges;stroke-miterlimit:4"
     id="polyline58"
     points="298.08,32.4 298.08,36.865" />
  <polyline
     style="fill:none;stroke:#000000;stroke-width:2;stroke-dasharray:none;shape-rendering:crispEdges;stroke-miterlimit:4"
     id="polyline60"
     points="372.48,384.48 372.48,380.015" />
  <polyline
     style="fill:none;stroke:#000000;stroke-width:2;stroke-dasharray:none;shape-rendering:crispEdges;stroke-miterlimit:4"
     id="polyline62"
     points="372.48,32.4 372.48,36.865" />
  <polyline
     style="fill:none;stroke:#000000;stroke-width:2;stroke-dasharray:none;shape-rendering:crispEdges;stroke-miterlimit:4"
     id="polyline64"
     points="446.88,384.48 446.88,380.015" />
  <polyline
     style="fill:none;stroke:#000000;stroke-width:2;stroke-dasharray:none;shape-rendering:crispEdges;stroke-miterlimit:4"
     id="polyline66"
     points="446.88,32.4 446.88,36.865" />
  <polyline
     style="fill:none;stroke:#000000;stroke-width:2;stroke-dasharray:none;shape-rendering:crispEdges;stroke-miterlimit:4"
     id="polyline68"
     points="521.28,384.48 521.28,380.015" />
  <polyline
     style="fill:none;stroke:#000000;stroke-width:2;stroke-dasharray:none;shape-rendering:crispEdges;stroke-miterlimit:4"
     id="polyline70"
     points="521.28,32.4 521.28,36.865" />
  <text
     style="font-size:17.5px;font-family:sans-serif;baseline-shift:-10px;text-anchor:middle;fill:#000000;shape-rendering:crispEdges;-inkscape-font-specification:sans-serif;font-weight:normal;font-style:normal;font-stretch:normal;font-variant:normal;stroke-width:2;stroke-miterlimit:4;stroke-dasharray:none"
     id="text72"
     baseline-shift="-10"
     font-size="10"
     y="389.48099"
     x="74.879997">40</text>
  <text
     style="font-size:17.5px;font-family:sans-serif;baseline-shift:-10px;text-anchor:middle;fill:#000000;shape-rendering:crispEdges;-inkscape-font-specification:sans-serif;font-weight:normal;font-style:normal;font-stretch:normal;font-variant:normal;stroke-width:2;stroke-miterlimit:4;stroke-dasharray:none"
     id="text74"
     baseline-shift="-10"
     font-size="10"
     y="389.48099"
     x="149.28">45</text>
  <text
     style="font-size:17.5px;font-family:sans-serif;baseline-shift:-10px;text-anchor:middle;fill:#000000;shape-rendering:crispEdges;-inkscape-font-specification:sans-serif;font-weight:normal;font-style:normal;font-stretch:normal;font-variant:normal;stroke-width:2;stroke-miterlimit:4;stroke-dasharray:none"
     id="text76"
     baseline-shift="-10"
     font-size="10"
     y="389.48099"
     x="223.67999">50</text>
  <text
     style="font-size:17.5px;font-family:sans-serif;baseline-shift:-10px;text-anchor:middle;fill:#000000;shape-rendering:crispEdges;-inkscape-font-specification:sans-serif;font-weight:normal;font-style:normal;font-stretch:normal;font-variant:normal;stroke-width:2;stroke-miterlimit:4;stroke-dasharray:none"
     id="text78"
     baseline-shift="-10"
     font-size="10"
     y="389.48099"
     x="298.07999">55</text>
  <text
     style="font-size:17.5px;font-family:sans-serif;baseline-shift:-10px;text-anchor:middle;fill:#000000;shape-rendering:crispEdges;-inkscape-font-specification:sans-serif;font-weight:normal;font-style:normal;font-stretch:normal;font-variant:normal;stroke-width:2;stroke-miterlimit:4;stroke-dasharray:none"
     id="text80"
     baseline-shift="-10"
     font-size="10"
     y="389.48099"
     x="372.48001">60</text>
  <text
     style="font-size:17.5px;font-family:sans-serif;baseline-shift:-10px;text-anchor:middle;fill:#000000;shape-rendering:crispEdges;-inkscape-font-specification:sans-serif;font-weight:normal;font-style:normal;font-stretch:normal;font-variant:normal;stroke-width:2;stroke-miterlimit:4;stroke-dasharray:none"
     id="text82"
     baseline-shift="-10"
     font-size="10"
     y="389.48099"
     x="446.88">65</text>
  <text
     style="font-size:17.5px;font-family:sans-serif;baseline-shift:-10px;text-anchor:middle;fill:#000000;shape-rendering:crispEdges;-inkscape-font-specification:sans-serif;font-weight:normal;font-style:normal;font-stretch:normal;font-variant:normal;stroke-width:2;stroke-miterlimit:4;stroke-dasharray:none"
     id="text84"
     baseline-shift="-10"
     font-size="10"
     y="389.48099"
     x="521.28003">70</text>
  <polyline
     style="fill:none;stroke:#000000;stroke-width:2;stroke-dasharray:none;shape-rendering:crispEdges;stroke-miterlimit:4"
     id="polyline86"
     points="74.88,384.48 79.348,384.48" />
  <polyline
     style="fill:none;stroke:#000000;stroke-width:2;stroke-dasharray:none;shape-rendering:crispEdges;stroke-miterlimit:4"
     id="polyline88"
     points="521.28,384.48 516.812,384.48" />
  <polyline
     style="fill:none;stroke:#000000;stroke-width:2;stroke-dasharray:none;shape-rendering:crispEdges;stroke-miterlimit:4"
     id="polyline90"
     points="74.88,334.183 79.348,334.183" />
  <polyline
     style="fill:none;stroke:#000000;stroke-width:2;stroke-dasharray:none;shape-rendering:crispEdges;stroke-miterlimit:4"
     id="polyline92"
     points="521.28,334.183 516.812,334.183" />
  <polyline
     style="fill:none;stroke:#000000;stroke-width:2;stroke-dasharray:none;shape-rendering:crispEdges;stroke-miterlimit:4"
     id="polyline94"
     points="74.88,283.886 79.348,283.886" />
  <polyline
     style="fill:none;stroke:#000000;stroke-width:2;stroke-dasharray:none;shape-rendering:crispEdges;stroke-miterlimit:4"
     id="polyline96"
     points="521.28,283.886 516.812,283.886" />
  <polyline
     style="fill:none;stroke:#000000;stroke-width:2;stroke-dasharray:none;shape-rendering:crispEdges;stroke-miterlimit:4"
     id="polyline98"
     points="74.88,233.589 79.348,233.589" />
  <polyline
     style="fill:none;stroke:#000000;stroke-width:2;stroke-dasharray:none;shape-rendering:crispEdges;stroke-miterlimit:4"
     id="polyline100"
     points="521.28,233.589 516.812,233.589" />
  <polyline
     style="fill:none;stroke:#000000;stroke-width:2;stroke-dasharray:none;shape-rendering:crispEdges;stroke-miterlimit:4"
     id="polyline102"
     points="74.88,183.291 79.348,183.291" />
  <polyline
     style="fill:none;stroke:#000000;stroke-width:2;stroke-dasharray:none;shape-rendering:crispEdges;stroke-miterlimit:4"
     id="polyline104"
     points="521.28,183.291 516.812,183.291" />
  <polyline
     style="fill:none;stroke:#000000;stroke-width:2;stroke-dasharray:none;shape-rendering:crispEdges;stroke-miterlimit:4"
     id="polyline106"
     points="74.88,132.994 79.348,132.994" />
  <polyline
     style="fill:none;stroke:#000000;stroke-width:2;stroke-dasharray:none;shape-rendering:crispEdges;stroke-miterlimit:4"
     id="polyline108"
     points="521.28,132.994 516.812,132.994" />
  <polyline
     style="fill:none;stroke:#000000;stroke-width:2;stroke-dasharray:none;shape-rendering:crispEdges;stroke-miterlimit:4"
     id="polyline110"
     points="74.88,82.6971 79.348,82.6971" />
  <polyline
     style="fill:none;stroke:#000000;stroke-width:2;stroke-dasharray:none;shape-rendering:crispEdges;stroke-miterlimit:4"
     id="polyline112"
     points="521.28,82.6971 516.812,82.6971" />
  <polyline
     style="fill:none;stroke:#000000;stroke-width:2;stroke-dasharray:none;shape-rendering:crispEdges;stroke-miterlimit:4"
     id="polyline114"
     points="74.88,32.4 79.348,32.4" />
  <polyline
     style="fill:none;stroke:#000000;stroke-width:2;stroke-dasharray:none;shape-rendering:crispEdges;stroke-miterlimit:4"
     id="polyline116"
     points="521.28,32.4 516.812,32.4" />
  <text
     style="font-size:17.5px;font-family:sans-serif;baseline-shift:-5px;text-anchor:end;fill:#000000;shape-rendering:crispEdges;-inkscape-font-specification:sans-serif;font-weight:normal;font-style:normal;font-stretch:normal;font-variant:normal;stroke-width:2;stroke-miterlimit:4;stroke-dasharray:none"
     id="text118"
     baseline-shift="-5"
     font-size="10"
     y="384.48001"
     x="69.875504">-60</text>
  <text
     style="font-size:17.5px;font-family:sans-serif;baseline-shift:-5px;text-anchor:end;fill:#000000;shape-rendering:crispEdges;-inkscape-font-specification:sans-serif;font-weight:normal;font-style:normal;font-stretch:normal;font-variant:normal;stroke-width:2;stroke-miterlimit:4;stroke-dasharray:none"
     id="text120"
     baseline-shift="-5"
     font-size="10"
     y="334.18301"
     x="69.875504">-40</text>
  <text
     style="font-size:17.5px;font-family:sans-serif;baseline-shift:-5px;text-anchor:end;fill:#000000;shape-rendering:crispEdges;-inkscape-font-specification:sans-serif;font-weight:normal;font-style:normal;font-stretch:normal;font-variant:normal;stroke-width:2;stroke-miterlimit:4;stroke-dasharray:none"
     id="text122"
     baseline-shift="-5"
     font-size="10"
     y="283.88599"
     x="69.875504">-20</text>
  <text
     style="font-size:17.5px;font-family:sans-serif;baseline-shift:-5px;text-anchor:end;fill:#000000;shape-rendering:crispEdges;-inkscape-font-specification:sans-serif;font-weight:normal;font-style:normal;font-stretch:normal;font-variant:normal;stroke-width:2;stroke-miterlimit:4;stroke-dasharray:none"
     id="text124"
     baseline-shift="-5"
     font-size="10"
     y="233.589"
     x="69.875504">0</text>
  <text
     style="font-size:17.5px;font-family:sans-serif;baseline-shift:-5px;text-anchor:end;fill:#000000;shape-rendering:crispEdges;-inkscape-font-specification:sans-serif;font-weight:normal;font-style:normal;font-stretch:normal;font-variant:normal;stroke-width:2;stroke-miterlimit:4;stroke-dasharray:none"
     id="text126"
     baseline-shift="-5"
     font-size="10"
     y="183.291"
     x="69.875504">20</text>
  <text
     style="font-size:17.5px;font-family:sans-serif;baseline-shift:-5px;text-anchor:end;fill:#000000;shape-rendering:crispEdges;-inkscape-font-specification:sans-serif;font-weight:normal;font-style:normal;font-stretch:normal;font-variant:normal;stroke-width:2;stroke-miterlimit:4;stroke-dasharray:none"
     id="text128"
     baseline-shift="-5"
     font-size="10"
     y="132.994"
     x="69.875504">40</text>
  <text
     style="font-size:17.5px;font-family:sans-serif;baseline-shift:-5px;text-anchor:end;fill:#000000;shape-rendering:crispEdges;-inkscape-font-specification:sans-serif;font-weight:normal;font-style:normal;font-stretch:normal;font-variant:normal;stroke-width:2;stroke-miterlimit:4;stroke-dasharray:none"
     id="text130"
     baseline-shift="-5"
     font-size="10"
     y="82.697098"
     x="69.875504">60</text>
  <text
     style="font-size:17.5px;font-family:sans-serif;baseline-shift:-5px;text-anchor:end;fill:#000000;shape-rendering:crispEdges;-inkscape-font-specification:sans-serif;font-weight:normal;font-style:normal;font-stretch:normal;font-variant:normal;stroke-width:2;stroke-miterlimit:4;stroke-dasharray:none"
     id="text132"
     baseline-shift="-5"
     font-size="10"
     y="32.400002"
     x="69.875504">80</text>
  <text
     style="font-style:normal;font-variant:normal;font-weight:normal;font-stretch:normal;font-size:17.5px;font-family:sans-serif;-inkscape-font-specification:sans-serif;baseline-shift:0px;text-anchor:middle;fill:#000000;shape-rendering:crispEdges;stroke-width:2;stroke-miterlimit:4;stroke-dasharray:none"
     id="text136"
     baseline-shift="0"
     transform="matrix(0,-1,1,0,0,0)"
     font-size="10"
     y="37.061943"
     x="-208.44">Amplitude (unité arbitraire)</text>
  <polyline
     style="fill:none;stroke:#0000ff;stroke-width:2;shape-rendering:crispEdges;stroke-miterlimit:4;stroke-dasharray:none"
     id="polyline138"
     points="74.4337,209.698 74.5824,210.955 74.88,203.41 75.1776,208.44 75.4752,203.41 75.7728,208.44 76.0704,208.44 76.368,213.47 76.6656,213.47 76.9631,215.985 77.2608,215.985 77.5584,223.529 77.856,218.499 78.1536,226.044 78.4512,228.559 78.7488,231.074 79.0464,221.014 79.3439,228.559 79.6416,226.044 79.9392,223.529 80.2368,218.499 80.5344,223.529 80.832,218.499 81.1296,213.47 81.4272,213.47 81.7248,210.955 82.0223,208.44 82.32,208.44 82.6176,208.44 82.9152,208.44 83.2128,208.44 83.5104,210.955 83.808,208.44 84.1056,213.47 84.4032,213.47 84.7007,213.47 84.9984,218.499 85.296,215.985 85.5936,223.529 85.8912,223.529 86.1888,221.014 86.4864,221.014 86.784,226.044 87.0815,226.044 87.3792,223.529 87.6768,221.014 87.9744,218.499 88.272,215.985 88.5696,218.499 88.8672,210.955 89.1648,208.44 89.4624,210.955 89.7599,208.44 90.0576,208.44 90.3552,203.41 90.6528,208.44 90.9504,205.925 91.248,213.47 91.5456,213.47 91.8432,218.499 92.1407,221.014 92.4384,218.499 92.736,218.499 93.0336,223.529 93.3312,218.499 93.6288,223.529 93.9264,223.529 94.224,228.559 94.5216,223.529 94.8192,223.529 95.1168,215.985 95.4144,213.47 95.712,215.985 96.0095,213.47 96.3072,210.955 96.6048,215.985 96.9024,208.44 97.2,205.925 97.4976,213.47 97.7952,208.44 98.0928,215.985 98.3904,215.985 98.688,221.014 98.9856,218.499 99.2832,218.499 99.5808,221.014 99.8784,218.499 100.176,218.499 100.474,218.499 100.771,215.985 101.069,218.499 101.366,221.014 101.664,213.47 101.962,213.47 102.259,218.499 102.557,218.499 102.854,213.47 103.152,213.47 103.45,213.47 103.747,215.985 104.045,215.985 104.342,213.47 104.64,218.499 104.938,221.014 105.235,218.499 105.533,223.529 105.83,221.014 106.128,218.499 106.426,218.499 106.723,221.014 107.021,218.499 107.318,218.499 107.616,223.529 107.914,213.47 108.211,215.985 108.509,218.499 108.806,218.499 109.104,210.955 109.402,213.47 109.699,208.44 109.997,213.47 110.294,213.47 110.592,213.47 110.89,213.47 111.187,215.985 111.485,213.47 111.782,223.529 112.08,221.014 112.378,221.014 112.675,226.044 112.973,223.529 113.27,226.044 113.568,228.559 113.866,223.529 114.163,223.529 114.461,221.014 114.758,215.985 115.056,210.955 115.354,210.955 115.651,213.47 115.949,208.44 116.246,213.47 116.544,208.44 116.842,208.44 117.139,208.44 117.437,210.955 117.734,205.925 118.032,213.47 118.33,213.47 118.627,213.47 118.925,215.985 119.222,223.529 119.52,228.559 119.818,223.529 120.115,228.559 120.413,226.044 120.71,226.044 121.008,233.589 121.306,221.014 121.603,223.529 121.901,226.044 122.198,218.499 122.496,213.47 122.794,218.499 123.091,210.955 123.389,208.44 123.686,205.925 123.984,208.44 124.282,208.44 124.579,205.925 124.877,205.925 125.174,208.44 125.472,208.44 125.77,208.44 126.067,213.47 126.365,215.985 126.662,221.014 126.96,221.014 127.258,226.044 127.555,223.529 127.853,228.559 128.15,228.559 128.448,228.559 128.746,226.044 129.043,226.044 129.341,223.529 129.638,218.499 129.936,223.529 130.234,213.47 130.531,210.955 130.829,208.44 131.126,205.925 131.424,203.41 131.722,208.44 132.019,205.925 132.317,203.41 132.614,203.41 132.912,213.47 133.21,213.47 133.507,210.955 133.805,215.985 134.102,213.47 134.4,221.014 134.698,228.559 134.995,226.044 135.293,228.559 135.59,233.589 135.888,226.044 136.186,226.044 136.483,223.529 136.781,223.529 137.078,218.499 137.376,215.985 137.674,223.529 137.971,223.529 138.269,213.47 138.566,208.44 138.864,210.955 139.162,208.44 139.459,208.44 139.757,208.44 140.054,205.925 140.352,205.925 140.65,208.44 140.947,205.925 141.245,205.925 141.542,210.955 141.84,210.955 142.138,208.44 142.435,208.44 142.733,208.44 143.03,213.47 143.328,218.499 143.626,221.014 143.923,215.985 144.221,223.529 144.518,231.074 144.816,236.103 145.114,236.103 145.411,243.648 145.709,243.648 146.006,243.648 146.304,248.678 146.602,253.707 146.899,253.707 147.197,246.163 147.494,246.163 147.792,236.103 148.09,223.529 148.387,215.985 148.685,198.381 148.982,185.806 149.28,163.173 149.578,153.113 149.875,140.539 150.173,143.054 150.47,132.994 150.768,130.479 151.066,138.024 151.363,153.113 151.661,168.202 151.958,193.351 152.256,221.014 152.554,248.678 152.851,281.371 153.149,306.519 153.446,321.609 153.744,349.272 154.042,354.302 154.339,354.302 154.637,344.242 154.934,329.153 155.232,298.975 155.53,261.252 155.827,228.559 156.125,188.321 156.422,150.598 156.72,112.875 157.018,92.7566 157.315,62.5783 157.613,55.0337 157.91,52.5189 158.208,67.608 158.506,82.6971 158.803,120.42 159.101,150.598 159.398,188.321 159.696,236.103 159.994,271.311 160.291,314.064 160.589,339.213 160.886,361.846 161.184,374.421 161.482,374.421 161.779,366.876 162.077,344.242 162.374,314.064 162.672,288.915 162.97,243.648 163.267,205.925 163.565,165.687 163.862,130.479 164.16,102.816 164.458,82.6971 164.755,72.6377 165.053,77.6674 165.35,82.6971 165.648,105.331 165.946,127.965 166.243,158.143 166.541,190.836 166.838,226.044 167.136,261.252 167.434,283.886 167.731,309.034 168.029,324.123 168.326,334.183 168.624,334.183 168.922,319.094 169.219,309.034 169.517,288.915 169.814,263.767 170.112,238.618 170.41,208.44 170.707,185.806 171.005,160.658 171.302,143.054 171.6,132.994 171.898,122.935 172.195,127.965 172.493,138.024 172.79,145.569 173.088,163.173 173.386,188.321 173.683,200.895 173.981,221.014 174.278,241.133 174.576,256.222 174.874,271.311 175.171,278.856 175.469,281.371 175.766,278.856 176.064,271.311 176.362,261.252 176.659,253.707 176.957,238.618 177.254,223.529 177.552,210.955 177.85,198.381 178.147,180.777 178.445,180.777 178.742,173.232 179.04,170.717 179.338,173.232 179.635,180.777 179.933,183.291 180.23,198.381 180.528,208.44 180.826,213.47 181.123,228.559 181.421,233.589 181.718,238.618 182.016,241.133 182.314,243.648 182.611,241.133 182.909,243.648 183.206,238.618 183.504,238.618 183.802,226.044 184.099,226.044 184.397,213.47 184.694,205.925 184.992,205.925 185.29,203.41 185.587,195.866 185.885,195.866 186.182,203.41 186.48,200.895 186.778,203.41 187.075,208.44 187.373,213.47 187.67,218.499 187.968,223.529 188.266,226.044 188.563,231.074 188.861,223.529 189.158,226.044 189.456,233.589 189.754,226.044 190.051,223.529 190.349,223.529 190.646,223.529 190.944,218.499 191.242,215.985 191.539,210.955 191.837,213.47 192.134,208.44 192.432,203.41 192.73,205.925 193.027,205.925 193.325,208.44 193.622,208.44 193.92,208.44 194.218,213.47 194.515,208.44 194.813,213.47 195.11,223.529 195.408,223.529 195.706,218.499 196.003,226.044 196.301,218.499 196.598,228.559 196.896,226.044 197.194,226.044 197.491,218.499 197.789,221.014 198.086,221.014 198.384,213.47 198.682,210.955 198.979,213.47 199.277,210.955 199.574,210.955 199.872,213.47 200.17,208.44 200.467,213.47 200.765,208.44 201.062,213.47 201.36,218.499 201.658,208.44 201.955,215.985 202.253,213.47 202.55,221.014 202.848,226.044 203.146,221.014 203.443,223.529 203.741,221.014 204.038,223.529 204.336,218.499 204.634,221.014 204.931,223.529 205.229,223.529 205.526,218.499 205.824,213.47 206.122,218.499 206.419,210.955 206.717,213.47 207.014,213.47 207.312,210.955 207.61,210.955 207.907,213.47 208.205,218.499 208.502,215.985 208.8,218.499 209.098,218.499 209.395,213.47 209.693,223.529 209.99,223.529 210.288,215.985 210.586,221.014 210.883,218.499 211.181,221.014 211.478,221.014 211.776,221.014 212.074,221.014 212.371,213.47 212.669,223.529 212.966,215.985 213.264,213.47 213.562,223.529 213.859,213.47 214.157,213.47 214.454,213.47 214.752,213.47 215.05,213.47 215.347,210.955 215.645,208.44 215.942,213.47 216.24,213.47 216.538,208.44 216.835,215.985 217.133,213.47 217.43,218.499 217.728,215.985 218.026,221.014 218.323,221.014 218.621,221.014 218.918,223.529 219.216,218.499 219.514,218.499 219.811,221.014 220.109,223.529 220.406,223.529 220.704,215.985 221.002,215.985 221.299,215.985 221.597,213.47 221.894,213.47 222.192,213.47 222.49,215.985 222.787,218.499 223.085,213.47 223.382,210.955 223.68,213.47 223.978,213.47 224.275,221.014 224.573,215.985 224.87,210.955 225.168,221.014 225.466,223.529 225.763,221.014 226.061,221.014 226.358,215.985 226.656,221.014 226.954,218.499 227.251,210.955 227.549,218.499 227.846,213.47 228.144,215.985 228.442,215.985 228.739,213.47 229.037,215.985 229.334,213.47 229.632,213.47 229.93,213.47 230.227,221.014 230.525,221.014 230.822,218.499 231.12,221.014 231.418,218.499 231.715,221.014 232.013,218.499 232.31,223.529 232.608,218.499 232.906,221.014 233.203,221.014 233.501,215.985 233.798,218.499 234.096,218.499 234.394,215.985 234.691,213.47 234.989,215.985 235.286,213.47 235.584,213.47 235.882,215.985 236.179,213.47 236.477,213.47 236.774,215.985 237.072,218.499 237.37,215.985 237.667,213.47 237.965,221.014 238.262,213.47 238.56,213.47 238.858,213.47 239.155,213.47 239.453,213.47 239.75,218.499 240.048,213.47 240.346,215.985 240.643,215.985 240.941,208.44 241.238,215.985 241.536,215.985 241.834,218.499 242.131,223.529 242.429,223.529 242.726,228.559 243.024,223.529 243.322,228.559 243.619,228.559 243.917,233.589 244.214,231.074 244.512,231.074 244.81,228.559 245.107,226.044 245.405,223.529 245.702,221.014 246,218.499 246.298,215.985 246.595,213.47 246.893,208.44 247.19,205.925 247.488,203.41 247.786,210.955 248.083,213.47 248.381,208.44 248.678,208.44 248.976,208.44 249.274,218.499 249.571,213.47 249.869,215.985 250.166,218.499 250.464,208.44 250.762,205.925 251.059,198.381 251.357,195.866 251.654,195.866 251.952,188.321 252.25,180.777 252.547,183.291 252.845,178.262 253.142,190.836 253.44,193.351 253.738,200.895 254.035,210.955 254.333,228.559 254.63,243.648 254.928,261.252 255.226,271.311 255.523,283.886 255.821,296.46 256.118,304.005 256.416,304.005 256.714,296.46 257.011,288.915 257.309,273.826 257.606,256.222 257.904,243.648 258.202,221.014 258.499,195.866 258.797,175.747 259.094,153.113 259.392,138.024 259.69,122.935 259.987,112.875 260.285,117.905 260.582,112.875 260.88,127.965 261.178,143.054 261.475,158.143 261.773,183.291 262.07,200.895 262.368,231.074 262.666,243.648 262.963,266.282 263.261,288.915 263.558,296.46 263.856,309.034 264.154,314.064 264.451,311.549 264.749,301.49 265.046,293.945 265.344,273.826 265.642,253.707 265.939,233.589 266.237,213.47 266.534,190.836 266.832,168.202 267.13,155.628 267.427,145.569 267.725,140.539 268.022,132.994 268.32,132.994 268.618,148.083 268.915,158.143 269.213,173.232 269.51,188.321 269.808,213.47 270.106,231.074 270.403,246.163 270.701,263.767 270.998,278.856 271.296,281.371 271.594,288.915 271.891,283.886 272.189,281.371 272.486,266.282 272.784,253.707 273.082,241.133 273.379,228.559 273.677,208.44 273.974,195.866 274.272,180.777 274.57,165.687 274.867,158.143 275.165,160.658 275.462,158.143 275.76,163.173 276.058,175.747 276.355,183.291 276.653,193.351 276.95,210.955 277.248,223.529 277.546,233.589 277.843,243.648 278.141,253.707 278.438,253.707 278.736,258.737 279.034,261.252 279.331,256.222 279.629,253.707 279.926,243.648 280.224,233.589 280.522,226.044 280.819,213.47 281.117,203.41 281.414,193.351 281.712,193.351 282.01,188.321 282.307,188.321 282.605,185.806 282.902,193.351 283.2,185.806 283.498,198.381 283.795,203.41 284.093,208.44 284.39,215.985 284.688,223.529 284.986,228.559 285.283,233.589 285.581,233.589 285.878,238.618 286.176,238.618 286.474,238.618 286.771,228.559 287.069,228.559 287.366,221.014 287.664,223.529 287.962,213.47 288.259,210.955 288.557,203.41 288.854,205.925 289.152,203.41 289.45,205.925 289.747,213.47 290.045,213.47 290.342,213.47 290.64,210.955 290.938,213.47 291.235,215.985 291.533,223.529 291.83,223.529 292.128,223.529 292.426,228.559 292.723,223.529 293.021,226.044 293.318,223.529 293.616,223.529 293.914,221.014 294.211,218.499 294.509,213.47 294.806,213.47 295.104,205.925 295.402,208.44 295.699,208.44 295.997,208.44 296.294,213.47 296.592,213.47 296.89,210.955 297.187,223.529 297.485,215.985 297.782,218.499 298.08,218.499 298.378,226.044 298.675,231.074 298.973,226.044 299.27,228.559 299.568,226.044 299.866,226.044 300.163,226.044 300.461,223.529 300.758,213.47 301.056,218.499 301.354,205.925 301.651,205.925 301.949,205.925 302.246,203.41 302.544,195.866 302.842,193.351 303.139,198.381 303.437,203.41 303.734,198.381 304.032,208.44 304.33,208.44 304.627,213.47 304.925,223.529 305.222,223.529 305.52,233.589 305.818,233.589 306.115,238.618 306.413,238.618 306.71,243.648 307.008,241.133 307.306,238.618 307.603,233.589 307.901,233.589 308.198,233.589 308.496,218.499 308.794,213.47 309.091,210.955 309.389,200.895 309.686,198.381 309.984,193.351 310.282,188.321 310.579,183.291 310.877,183.291 311.174,188.321 311.472,190.836 311.77,193.351 312.067,203.41 312.365,210.955 312.662,215.985 312.96,223.529 313.258,233.589 313.555,238.618 313.853,238.618 314.15,241.133 314.448,243.648 314.746,246.163 315.043,246.163 315.341,238.618 315.638,233.589 315.936,226.044 316.234,213.47 316.531,213.47 316.829,208.44 317.126,203.41 317.424,198.381 317.722,193.351 318.019,185.806 318.317,193.351 318.614,198.381 318.912,200.895 319.21,198.381 319.507,213.47 319.805,215.985 320.102,221.014 320.4,226.044 320.698,228.559 320.995,231.074 321.293,233.589 321.59,236.103 321.888,231.074 322.186,233.589 322.483,221.014 322.781,226.044 323.078,221.014 323.376,213.47 323.674,213.47 323.971,208.44 324.269,210.955 324.566,203.41 324.864,203.41 325.162,198.381 325.459,200.895 325.757,208.44 326.054,213.47 326.352,213.47 326.65,215.985 326.947,215.985 327.245,228.559 327.542,226.044 327.84,223.529 328.138,226.044 328.435,226.044 328.733,233.589 329.03,218.499 329.328,221.014 329.626,218.499 329.923,210.955 330.221,208.44 330.518,208.44 330.816,213.47 331.114,203.41 331.411,208.44 331.709,208.44 332.006,203.41 332.304,208.44 332.602,218.499 332.899,210.955 333.197,215.985 333.494,218.499 333.792,221.014 334.09,223.529 334.387,226.044 334.685,231.074 334.982,226.044 335.28,221.014 335.578,226.044 335.875,215.985 336.173,218.499 336.47,213.47 336.768,218.499 337.066,218.499 337.363,213.47 337.661,208.44 337.958,208.44 338.256,210.955 338.554,213.47 338.851,213.47 339.149,210.955 339.446,213.47 339.744,221.014 340.042,221.014 340.339,218.499 340.637,223.529 340.934,221.014 341.232,223.529 341.53,221.014 341.827,218.499 342.125,218.499 342.422,215.985 342.72,213.47 343.018,210.955 343.315,213.47 343.613,203.41 343.91,205.925 344.208,213.47 344.506,210.955 344.803,213.47 345.101,218.499 345.398,215.985 345.696,213.47 345.994,218.499 346.291,226.044 346.589,223.529 346.886,231.074 347.184,233.589 347.482,228.559 347.779,226.044 348.077,228.559 348.374,228.559 348.672,218.499 348.97,223.529 349.267,208.44 349.565,213.47 349.862,203.41 350.16,203.41 350.458,203.41 350.755,203.41 351.053,200.895 351.35,208.44 351.648,203.41 351.946,210.955 352.243,213.47 352.541,215.985 352.838,223.529 353.136,231.074 353.434,231.074 353.731,231.074 354.029,228.559 354.326,231.074 354.624,228.559 354.922,233.589 355.219,223.529 355.517,228.559 355.814,218.499 356.112,218.499 356.41,213.47 356.707,210.955 357.005,203.41 357.302,205.925 357.6,200.895 357.898,203.41 358.195,205.925 358.493,203.41 358.79,203.41 359.088,208.44 359.386,210.955 359.683,213.47 359.981,215.985 360.278,221.014 360.576,223.529 360.874,228.559 361.171,223.529 361.469,226.044 361.766,221.014 362.064,226.044 362.362,223.529 362.659,223.529 362.957,221.014 363.254,218.499 363.552,221.014 363.85,218.499 364.147,223.529 364.445,218.499 364.742,218.499 365.04,215.985 365.338,213.47 365.635,215.985 365.933,218.499 366.23,213.47 366.528,213.47 366.826,215.985 367.123,213.47 367.421,218.499 367.718,218.499 368.016,218.499 368.314,213.47 368.611,213.47 368.909,210.955 369.206,215.985 369.504,213.47 369.802,213.47 370.099,218.499 370.397,218.499 370.694,223.529 370.992,221.014 371.29,215.985 371.587,218.499 371.885,213.47 372.182,208.44 372.48,213.47 372.778,213.47 373.075,208.44 373.373,208.44 373.67,210.955 373.968,210.955 374.266,203.41 374.563,208.44 374.861,210.955 375.158,215.985 375.456,221.014 375.754,226.044 376.051,231.074 376.349,236.103 376.646,238.618 376.944,241.133 377.242,241.133 377.539,238.618 377.837,236.103 378.134,233.589 378.432,231.074 378.73,223.529 379.027,210.955 379.325,205.925 379.622,200.895 379.92,188.321 380.218,188.321 380.515,183.291 380.813,180.777 381.11,178.262 381.408,183.291 381.706,185.806 382.003,195.866 382.301,203.41 382.598,210.955 382.896,221.014 383.194,233.589 383.491,243.648 383.789,251.193 384.086,258.737 384.384,258.737 384.682,263.767 384.979,261.252 385.277,251.193 385.574,246.163 385.872,238.618 386.17,228.559 386.467,213.47 386.765,203.41 387.062,195.866 387.36,188.321 387.658,175.747 387.955,178.262 388.253,173.232 388.55,175.747 388.848,183.291 389.146,188.321 389.443,195.866 389.741,208.44 390.038,218.499 390.336,223.529 390.634,241.133 390.931,248.678 391.229,243.648 391.526,258.737 391.824,248.678 392.122,251.193 392.419,251.193 392.717,243.648 393.014,231.074 393.312,223.529 393.61,215.985 393.907,208.44 394.205,200.895 394.502,195.866 394.8,188.321 395.098,183.291 395.395,190.836 395.693,193.351 395.99,193.351 396.288,198.381 396.586,205.925 396.883,215.985 397.181,223.529 397.478,233.589 397.776,233.589 398.074,238.618 398.371,238.618 398.669,241.133 398.966,241.133 399.264,238.618 399.562,228.559 399.859,228.559 400.157,223.529 400.454,213.47 400.752,205.925 401.05,200.895 401.347,195.866 401.645,200.895 401.942,193.351 402.24,193.351 402.538,198.381 402.835,200.895 403.133,208.44 403.43,210.955 403.728,213.47 404.026,218.499 404.323,223.529 404.621,223.529 404.918,233.589 405.216,231.074 405.514,233.589 405.811,233.589 406.109,228.559 406.406,228.559 406.704,223.529 407.002,218.499 407.299,218.499 407.597,213.47 407.894,215.985 408.192,208.44 408.49,205.925 408.787,205.925 409.085,213.47 409.382,213.47 409.68,210.955 409.978,213.47 410.275,208.44 410.573,213.47 410.87,213.47 411.168,213.47 411.466,218.499 411.763,215.985 412.061,221.014 412.358,218.499 412.656,221.014 412.954,218.499 413.251,213.47 413.549,218.499 413.846,215.985 414.144,213.47 414.442,221.014 414.739,221.014 415.037,215.985 415.334,223.529 415.632,218.499 415.93,221.014 416.227,223.529 416.525,223.529 416.822,223.529 417.12,215.985 417.418,218.499 417.715,218.499 418.013,210.955 418.31,221.014 418.608,213.47 418.906,208.44 419.203,213.47 419.501,208.44 419.798,208.44 420.096,210.955 420.394,213.47 420.691,210.955 420.989,213.47 421.286,213.47 421.584,215.985 421.882,221.014 422.179,218.499 422.477,223.529 422.774,223.529 423.072,223.529 423.37,223.529 423.667,226.044 423.965,223.529 424.262,223.529 424.56,218.499 424.858,218.499 425.155,221.014 425.453,218.499 425.75,208.44 426.048,213.47 426.346,218.499 426.643,208.44 426.941,213.47 427.238,210.955 427.536,210.955 427.834,213.47 428.131,213.47 428.429,215.985 428.726,213.47 429.024,215.985 429.322,215.985 429.619,215.985 429.917,218.499 430.214,218.499 430.512,221.014 430.81,223.529 431.107,223.529 431.405,221.014 431.702,215.985 432,223.529 432.298,223.529 432.595,218.499 432.893,218.499 433.19,213.47 433.488,213.47 433.786,223.529 434.083,218.499 434.381,221.014 434.678,218.499 434.976,215.985 435.274,221.014 435.571,215.985 435.869,218.499 436.166,215.985 436.464,213.47 436.762,215.985 437.059,215.985 437.357,210.955 437.654,213.47 437.952,213.47 438.25,213.47 438.547,213.47 438.845,208.44 439.142,205.925 439.44,210.955 439.738,213.47 440.035,215.985 440.333,223.529 440.63,213.47 440.928,223.529 441.226,226.044 441.523,221.014 441.821,223.529 442.118,221.014 442.416,228.559 442.714,218.499 443.011,226.044 443.309,223.529 443.606,215.985 443.904,223.529 444.202,213.47 444.499,208.44 444.797,210.955 445.094,213.47 445.392,210.955 445.69,203.41 445.987,208.44 446.285,210.955 446.582,213.47 446.88,213.47 447.178,215.985 447.475,213.47 447.773,213.47 448.07,213.47 448.368,218.499 448.666,223.529 448.963,226.044 449.261,226.044 449.558,223.529 449.856,223.529 450.154,223.529 450.451,223.529 450.749,218.499 451.046,223.529 451.344,221.014 451.642,215.985 451.939,215.985 452.237,213.47 452.534,213.47 452.832,208.44 453.13,213.47 453.427,213.47 453.725,208.44 454.022,210.955 454.32,213.47 454.618,213.47 454.915,213.47 455.213,210.955 455.51,213.47 455.808,218.499 456.106,213.47 456.403,218.499 456.701,221.014 456.998,215.985 457.296,218.499 457.594,223.529 457.891,226.044 458.189,223.529 458.486,221.014 458.784,221.014 459.082,221.014 459.379,218.499 459.677,218.499 459.974,218.499 460.272,215.985 460.57,213.47 460.867,213.47 461.165,210.955 461.462,215.985 461.76,213.47 462.058,213.47 462.355,210.955 462.653,218.499 462.95,213.47 463.248,210.955 463.546,213.47 463.843,213.47 464.141,218.499 464.438,218.499 464.736,213.47 465.034,218.499 465.331,218.499 465.629,218.499 465.926,218.499 466.224,223.529 466.522,221.014 466.819,221.014 467.117,218.499 467.414,221.014 467.712,221.014 468.01,215.985 468.307,215.985 468.605,215.985 468.902,213.47 469.2,215.985 469.498,213.47 469.795,215.985 470.093,218.499 470.39,215.985 470.688,218.499 470.986,213.47 471.283,223.529 471.581,210.955 471.878,218.499 472.176,215.985 472.474,218.499 472.771,218.499 473.069,215.985 473.366,213.47 473.664,218.499 473.962,213.47 474.259,221.014 474.557,215.985 474.854,218.499 475.152,213.47 475.45,221.014 475.747,223.529 476.045,221.014 476.342,213.47 476.64,218.499 476.938,218.499 477.235,210.955 477.533,221.014 477.83,213.47 478.128,215.985 478.426,213.47 478.723,223.529 479.021,213.47 479.318,213.47 479.616,213.47 479.914,213.47 480.211,213.47 480.509,215.985 480.806,208.44 481.104,213.47 481.402,213.47 481.699,215.985 481.997,218.499 482.294,221.014 482.592,218.499 482.89,223.529 483.187,221.014 483.485,223.529 483.782,221.014 484.08,221.014 484.378,221.014 484.675,221.014 484.973,223.529 485.27,218.499 485.568,215.985 485.866,215.985 486.163,213.47 486.461,213.47 486.758,215.985 487.056,210.955 487.354,210.955 487.651,213.47 487.949,208.44 488.246,208.44 488.544,213.47 488.842,213.47 489.139,215.985 489.437,218.499 489.734,215.985 490.032,223.529 490.33,218.499 490.627,218.499 490.925,223.529 491.222,223.529 491.52,223.529 491.818,221.014 492.115,223.529 492.413,221.014 492.71,221.014 493.008,221.014 493.306,215.985 493.603,213.47 493.901,210.955 494.198,210.955 494.496,210.955 494.794,210.955 495.091,208.44 495.389,213.47 495.686,208.44 495.984,210.955 496.282,215.985 496.579,221.014 496.877,221.014 497.174,223.529 497.472,221.014 497.77,223.529 498.067,223.529 498.365,221.014 498.662,218.499 498.96,223.529 499.258,223.529 499.555,218.499 499.853,223.529 500.15,218.499 500.448,213.47 500.746,215.985 501.043,213.47 501.341,213.47 501.638,208.44 501.936,215.985 502.234,213.47 502.531,213.47 502.829,210.955 503.126,215.985 503.424,210.955 503.722,221.014 504.019,213.47 504.317,223.529 504.614,223.529 504.912,218.499 505.21,223.529 505.507,226.044 505.805,221.014 506.102,223.529 506.4,223.529 506.698,218.499 506.995,218.499 507.293,213.47 507.59,221.014 507.888,213.47 508.186,215.985 508.483,210.955 508.781,208.44 509.078,213.47 509.376,210.955 509.674,203.41 509.971,208.44 510.269,213.47 510.566,213.47 510.864,215.985 511.162,218.499 511.459,221.014 511.757,221.014 512.054,223.529 512.352,221.014 512.65,226.044 512.947,223.529 513.245,226.044 513.542,221.014 513.84,223.529 514.138,223.529 514.435,218.499 514.733,218.499 515.03,218.499 515.328,218.499 515.626,218.499 515.923,218.499 516.221,213.47 516.518,218.499 516.816,215.985 517.114,213.47 517.411,215.985 517.709,213.47 518.006,213.47 518.304,213.47 518.602,210.955 518.899,213.47 519.197,210.955 519.494,208.44 519.792,218.499 520.09,218.499 520.387,218.499 520.685,218.499 520.982,221.014 521.28,221.014 521.578,221.014 521.726,222.272" />
  <polyline
     style="fill:none;stroke:#ff0000;stroke-width:2;shape-rendering:crispEdges;stroke-miterlimit:4;stroke-dasharray:none"
     id="polyline140"
     points="140.268,32.0479 140.352,32.1272 140.65,32.4089 140.947,32.6901 141.245,32.9709 141.542,33.2514 141.84,33.5315 142.138,33.8112 142.435,34.0904 142.733,34.3693 143.03,34.6478 143.328,34.9259 143.626,35.2037 143.923,35.481 144.221,35.7579 144.518,36.0345 144.816,36.3107 145.114,36.5865 145.411,36.8619 145.709,37.1369 146.006,37.4115 146.304,37.6858 146.602,37.9596 146.899,38.2331 147.197,38.5062 147.494,38.7789 147.792,39.0512 148.09,39.3232 148.387,39.5948 148.685,39.866 148.982,40.1368 149.28,40.4072 149.578,40.6773 149.875,40.947 150.173,41.2163 150.47,41.4852 150.768,41.7538 151.066,42.0219 151.363,42.2898 151.661,42.5572 151.958,42.8242 152.256,43.0909 152.554,43.3572 152.851,43.6232 153.149,43.8887 153.446,44.1539 153.744,44.4187 154.042,44.6832 154.339,44.9473 154.637,45.211 154.934,45.4743 155.232,45.7373 155.53,45.9999 155.827,46.2621 156.125,46.524 156.422,46.7855 156.72,47.0467 157.018,47.3075 157.315,47.5679 157.613,47.8279 157.91,48.0876 158.208,48.3469 158.506,48.6059 158.803,48.8645 159.101,49.1227 159.398,49.3806 159.696,49.6381 159.994,49.8953 160.291,50.1521 160.589,50.4085 160.886,50.6646 161.184,50.9203 161.482,51.1757 161.779,51.4307 162.077,51.6853 162.374,51.9396 162.672,52.1935 162.97,52.4471 163.267,52.7004 163.565,52.9532 163.862,53.2057 164.16,53.4579 164.458,53.7097 164.755,53.9612 165.053,54.2123 165.35,54.4631 165.648,54.7135 165.946,54.9636 166.243,55.2133 166.541,55.4626 166.838,55.7116 167.136,55.9603 167.434,56.2086 167.731,56.4566 168.029,56.7042 168.326,56.9515 168.624,57.1984 168.922,57.445 169.219,57.6913 169.517,57.9372 169.814,58.1827 170.112,58.4279 170.41,58.6728 170.707,58.9173 171.005,59.1615 171.302,59.4053 171.6,59.6488 171.898,59.892 172.195,60.1348 172.493,60.3773 172.79,60.6194 173.088,60.8613 173.386,61.1027 173.683,61.3438 173.981,61.5847 174.278,61.8251 174.576,62.0652 174.874,62.305 175.171,62.5444 175.469,62.7835 175.766,63.0223 176.064,63.2608 176.362,63.4989 176.659,63.7367 176.957,63.9741 177.254,64.2112 177.552,64.448 177.85,64.6844 178.147,64.9206 178.445,65.1564 178.742,65.3918 179.04,65.627 179.338,65.8618 179.635,66.0963 179.933,66.3304 180.23,66.5642 180.528,66.7977 180.826,67.0309 181.123,67.2637 181.421,67.4962 181.718,67.7284 182.016,67.9603 182.314,68.1918 182.611,68.4231 182.909,68.6539 183.206,68.8845 183.504,69.1147 183.802,69.3447 184.099,69.5743 184.397,69.8036 184.694,70.0325 184.992,70.2612 185.29,70.4895 185.587,70.7175 185.885,70.9452 186.182,71.1726 186.48,71.3996 186.778,71.6264 187.075,71.8528 187.373,72.0789 187.67,72.3047 187.968,72.5302 188.266,72.7553 188.563,72.9801 188.861,73.2047 189.158,73.4289 189.456,73.6528 189.754,73.8763 190.051,74.0996 190.349,74.3226 190.646,74.5452 190.944,74.7676 191.242,74.9896 191.539,75.2113 191.837,75.4327 192.134,75.6538 192.432,75.8746 192.73,76.0951 193.027,76.3152 193.325,76.5351 193.622,76.7546 193.92,76.9739 194.218,77.1928 194.515,77.4115 194.813,77.6298 195.11,77.8478 195.408,78.0656 195.706,78.283 196.003,78.5001 196.301,78.7169 196.598,78.9334 196.896,79.1496 197.194,79.3655 197.491,79.5811 197.789,79.7964 198.086,80.0114 198.384,80.2261 198.682,80.4405 198.979,80.6545 199.277,80.8683 199.574,81.0818 199.872,81.295 200.17,81.5079 200.467,81.7206 200.765,81.9329 201.062,82.1449 201.36,82.3566 201.658,82.568 201.955,82.7791 202.253,82.9899 202.55,83.2005 202.848,83.4107 203.146,83.6207 203.443,83.8303 203.741,84.0397 204.038,84.2487 204.336,84.4575 204.634,84.666 204.931,84.8741 205.229,85.0821 205.526,85.2897 205.824,85.497 206.122,85.704 206.419,85.9108 206.717,86.1172 207.014,86.3234 207.312,86.5292 207.61,86.7348 207.907,86.9401 208.205,87.1451 208.502,87.3499 208.8,87.5543 209.098,87.7584 209.395,87.9623 209.693,88.1659 209.99,88.3692 210.288,88.5722 210.586,88.7749 210.883,88.9773 211.181,89.1795 211.478,89.3814 211.776,89.583 212.074,89.7843 212.371,89.9853 212.669,90.1861 212.966,90.3865 213.264,90.5867 213.562,90.7867 213.859,90.9863 214.157,91.1856 214.454,91.3847 214.752,91.5835 215.05,91.782 215.347,91.9803 215.645,92.1782 215.942,92.3759 216.24,92.5733 216.538,92.7704 216.835,92.9673 217.133,93.1639 217.43,93.3602 217.728,93.5562 218.026,93.752 218.323,93.9475 218.621,94.1427 218.918,94.3376 219.216,94.5323 219.514,94.7267 219.811,94.9208 220.109,95.1147 220.406,95.3083 220.704,95.5016 221.002,95.6946 221.299,95.8874 221.597,96.0799 221.894,96.2721 222.192,96.4641 222.49,96.6558 222.787,96.8472 223.085,97.0384 223.382,97.2292 223.68,97.4199 223.978,97.6102 224.275,97.8003 224.573,97.9901 224.87,98.1797 225.168,98.369 225.466,98.558 225.763,98.7468 226.061,98.9353 226.358,99.1235 226.656,99.3115 226.954,99.4992 227.251,99.6867 227.549,99.8739 227.846,100.061 228.144,100.247 228.442,100.434 228.739,100.62 229.037,100.806 229.334,100.992 229.632,101.177 229.93,101.362 230.227,101.547 230.525,101.731 230.822,101.916 231.12,102.1 231.418,102.284 231.715,102.467 232.013,102.651 232.31,102.834 232.608,103.016 232.906,103.199 233.203,103.381 233.501,103.563 233.798,103.745 234.096,103.926 234.394,104.108 234.691,104.289 234.989,104.47 235.286,104.65 235.584,104.83 235.882,105.01 236.179,105.19 236.477,105.37 236.774,105.549 237.072,105.728 237.37,105.906 237.667,106.085 237.965,106.263 238.262,106.441 238.56,106.619 238.858,106.796 239.155,106.974 239.453,107.151 239.75,107.327 240.048,107.504 240.346,107.68 240.643,107.856 240.941,108.032 241.238,108.208 241.536,108.383 241.834,108.558 242.131,108.733 242.429,108.907 242.726,109.082 243.024,109.256 243.322,109.429 243.619,109.603 243.917,109.776 244.214,109.949 244.512,110.122 244.81,110.295 245.107,110.467 245.405,110.639 245.702,110.811 246,110.983 246.298,111.154 246.595,111.325 246.893,111.496 247.19,111.667 247.488,111.837 247.786,112.008 248.083,112.178 248.381,112.347 248.678,112.517 248.976,112.686 249.274,112.855 249.571,113.024 249.869,113.192 250.166,113.361 250.464,113.529 250.762,113.697 251.059,113.864 251.357,114.032 251.654,114.199 251.952,114.366 252.25,114.532 252.547,114.699 252.845,114.865 253.142,115.031 253.44,115.197 253.738,115.362 254.035,115.527 254.333,115.692 254.63,115.857 254.928,116.022 255.226,116.186 255.523,116.35 255.821,116.514 256.118,116.678 256.416,116.841 256.714,117.005 257.011,117.168 257.309,117.33 257.606,117.493 257.904,117.655 258.202,117.817 258.499,117.979 258.797,118.141 259.094,118.302 259.392,118.463 259.69,118.624 259.987,118.785 260.285,118.945 260.582,119.106 260.88,119.266 261.178,119.425 261.475,119.585 261.773,119.744 262.07,119.904 262.368,120.062 262.666,120.221 262.963,120.38 263.261,120.538 263.558,120.696 263.856,120.854 264.154,121.011 264.451,121.169 264.749,121.326 265.046,121.483 265.344,121.64 265.642,121.796 265.939,121.952 266.237,122.108 266.534,122.264 266.832,122.42 267.13,122.575 267.427,122.731 267.725,122.885 268.022,123.04 268.32,123.195 268.618,123.349 268.915,123.503 269.213,123.657 269.51,123.811 269.808,123.964 270.106,124.118 270.403,124.271 270.701,124.423 270.998,124.576 271.296,124.728 271.594,124.881 271.891,125.033 272.189,125.184 272.486,125.336 272.784,125.487 273.082,125.638 273.379,125.789 273.677,125.94 273.974,126.09 274.272,126.241 274.57,126.391 274.867,126.541 275.165,126.69 275.462,126.84 275.76,126.989 276.058,127.138 276.355,127.287 276.653,127.435 276.95,127.584 277.248,127.732 277.546,127.88 277.843,128.028 278.141,128.175 278.438,128.323 278.736,128.47 279.034,128.617 279.331,128.763 279.629,128.91 279.926,129.056 280.224,129.203 280.522,129.348 280.819,129.494 281.117,129.64 281.414,129.785 281.712,129.93 282.01,130.075 282.307,130.22 282.605,130.364 282.902,130.509 283.2,130.653 283.498,130.797 283.795,130.94 284.093,131.084 284.39,131.227 284.688,131.37 284.986,131.513 285.283,131.656 285.581,131.798 285.878,131.941 286.176,132.083 286.474,132.225 286.771,132.366 287.069,132.508 287.366,132.649 287.664,132.79 287.962,132.931 288.259,133.072 288.557,133.212 288.854,133.353 289.152,133.493 289.45,133.633 289.747,133.772 290.045,133.912 290.342,134.051 290.64,134.19 290.938,134.329 291.235,134.468 291.533,134.607 291.83,134.745 292.128,134.883 292.426,135.021 292.723,135.159 293.021,135.297 293.318,135.434 293.616,135.571 293.914,135.708 294.211,135.845 294.509,135.982 294.806,136.118 295.104,136.254 295.402,136.391 295.699,136.526 295.997,136.662 296.294,136.798 296.592,136.933 296.89,137.068 297.187,137.203 297.485,137.338 297.782,137.472 298.08,137.607 298.378,137.741 298.675,137.875 298.973,138.009 299.27,138.142 299.568,138.276 299.866,138.409 300.163,138.542 300.461,138.675 300.758,138.808 301.056,138.94 301.354,139.072 301.651,139.204 301.949,139.336 302.246,139.468 302.544,139.6 302.842,139.731 303.139,139.862 303.437,139.993 303.734,140.124 304.032,140.255 304.33,140.385 304.627,140.516 304.925,140.646 305.222,140.776 305.52,140.905 305.818,141.035 306.115,141.164 306.413,141.294 306.71,141.423 307.008,141.551 307.306,141.68 307.603,141.809 307.901,141.937 308.198,142.065 308.496,142.193 308.794,142.321 309.091,142.448 309.389,142.576 309.686,142.703 309.984,142.83 310.282,142.957 310.579,143.084 310.877,143.21 311.174,143.336 311.472,143.463 311.77,143.589 312.067,143.714 312.365,143.84 312.662,143.966 312.96,144.091 313.258,144.216 313.555,144.341 313.853,144.466 314.15,144.59 314.448,144.715 314.746,144.839 315.043,144.963 315.341,145.087 315.638,145.211 315.936,145.334 316.234,145.458 316.531,145.581 316.829,145.704 317.126,145.827 317.424,145.949 317.722,146.072 318.019,146.194 318.317,146.316 318.614,146.438 318.912,146.56 319.21,146.682 319.507,146.803 319.805,146.925 320.102,147.046 320.4,147.167 320.698,147.288 320.995,147.408 321.293,147.529 321.59,147.649 321.888,147.769 322.186,147.889 322.483,148.009 322.781,148.129 323.078,148.248 323.376,148.367 323.674,148.487 323.971,148.605 324.269,148.724 324.566,148.843 324.864,148.961 325.162,149.08 325.459,149.198 325.757,149.316 326.054,149.434 326.352,149.551 326.65,149.669 326.947,149.786 327.245,149.903 327.542,150.02 327.84,150.137 328.138,150.254 328.435,150.37 328.733,150.487 329.03,150.603 329.328,150.719 329.626,150.835 329.923,150.95 330.221,151.066 330.518,151.181 330.816,151.296 331.114,151.411 331.411,151.526 331.709,151.641 332.006,151.756 332.304,151.87 332.602,151.984 332.899,152.098 333.197,152.212 333.494,152.326 333.792,152.44 334.09,152.553 334.387,152.666 334.685,152.779 334.982,152.892 335.28,153.005 335.578,153.118 335.875,153.23 336.173,153.343 336.47,153.455 336.768,153.567 337.066,153.679 337.363,153.79 337.661,153.902 337.958,154.013 338.256,154.125 338.554,154.236 338.851,154.347 339.149,154.457 339.446,154.568 339.744,154.679 340.042,154.789 340.339,154.899 340.637,155.009 340.934,155.119 341.232,155.229 341.53,155.338 341.827,155.448 342.125,155.557 342.422,155.666 342.72,155.775 343.018,155.884 343.315,155.992 343.613,156.101 343.91,156.209 344.208,156.317 344.506,156.425 344.803,156.533 345.101,156.641 345.398,156.748 345.696,156.856 345.994,156.963 346.291,157.07 346.589,157.177 346.886,157.284 347.184,157.391 347.482,157.497 347.779,157.603 348.077,157.71 348.374,157.816 348.672,157.922 348.97,158.027 349.267,158.133 349.565,158.239 349.862,158.344 350.16,158.449 350.458,158.554 350.755,158.659 351.053,158.764 351.35,158.868 351.648,158.973 351.946,159.077 352.243,159.181 352.541,159.285 352.838,159.389 353.136,159.493 353.434,159.597 353.731,159.7 354.029,159.803 354.326,159.906 354.624,160.009 354.922,160.112 355.219,160.215 355.517,160.318 355.814,160.42 356.112,160.522 356.41,160.624 356.707,160.726 357.005,160.828 357.302,160.93 357.6,161.032 357.898,161.133 358.195,161.234 358.493,161.335 358.79,161.436 359.088,161.537 359.386,161.638 359.683,161.739 359.981,161.839 360.278,161.939 360.576,162.04 360.874,162.14 361.171,162.239 361.469,162.339 361.766,162.439 362.064,162.538 362.362,162.638 362.659,162.737 362.957,162.836 363.254,162.935 363.552,163.034 363.85,163.132 364.147,163.231 364.445,163.329 364.742,163.427 365.04,163.525 365.338,163.623 365.635,163.721 365.933,163.819 366.23,163.916 366.528,164.014 366.826,164.111 367.123,164.208 367.421,164.305 367.718,164.402 368.016,164.499 368.314,164.595 368.611,164.692 368.909,164.788 369.206,164.884 369.504,164.98 369.802,165.076 370.099,165.172 370.397,165.268 370.694,165.363 370.992,165.458 371.29,165.554 371.587,165.649 371.885,165.744 372.182,165.839 372.48,165.933 372.778,166.028 373.075,166.122 373.373,166.217 373.67,166.311 373.968,166.405 374.266,166.499 374.563,166.593 374.861,166.686 375.158,166.78 375.456,166.873 375.754,166.966 376.051,167.06 376.349,167.153 376.646,167.245 376.944,167.338 377.242,167.431 377.539,167.523 377.837,167.616 378.134,167.708 378.432,167.8 378.73,167.892 379.027,167.984 379.325,168.076 379.622,168.167 379.92,168.259 380.218,168.35 380.515,168.441 380.813,168.532 381.11,168.623 381.408,168.714 381.706,168.805 382.003,168.895 382.301,168.986 382.598,169.076 382.896,169.166 383.194,169.256 383.491,169.346 383.789,169.436 384.086,169.526 384.384,169.615 384.682,169.705 384.979,169.794 385.277,169.883 385.574,169.972 385.872,170.061 386.17,170.15 386.467,170.239 386.765,170.327 387.062,170.416 387.36,170.504 387.658,170.592 387.955,170.68 388.253,170.768 388.55,170.856 388.848,170.944 389.146,171.031 389.443,171.119 389.741,171.206 390.038,171.293 390.336,171.38 390.634,171.467 390.931,171.554 391.229,171.641 391.526,171.727 391.824,171.814 392.122,171.9 392.419,171.986 392.717,172.073 393.014,172.159 393.312,172.244 393.61,172.33 393.907,172.416 394.205,172.501 394.502,172.587 394.8,172.672 395.098,172.757 395.395,172.842 395.693,172.927 395.99,173.012 396.288,173.097 396.586,173.181 396.883,173.266 397.181,173.35 397.478,173.434 397.776,173.518 398.074,173.602 398.371,173.686 398.669,173.77 398.966,173.853 399.264,173.937 399.562,174.02 399.859,174.104 400.157,174.187 400.454,174.27 400.752,174.353 401.05,174.436 401.347,174.518 401.645,174.601 401.942,174.683 402.24,174.766 402.538,174.848 402.835,174.93 403.133,175.012 403.43,175.094 403.728,175.176 404.026,175.257 404.323,175.339 404.621,175.42 404.918,175.502 405.216,175.583 405.514,175.664 405.811,175.745 406.109,175.826 406.406,175.907 406.704,175.987 407.002,176.068 407.299,176.148 407.597,176.228 407.894,176.309 408.192,176.389 408.49,176.469 408.787,176.548 409.085,176.628 409.382,176.708 409.68,176.787 409.978,176.867 410.275,176.946 410.573,177.025 410.87,177.104 411.168,177.183 411.466,177.262 411.763,177.341 412.061,177.42 412.358,177.498 412.656,177.576 412.954,177.655 413.251,177.733 413.549,177.811 413.846,177.889 414.144,177.967 414.442,178.045 414.739,178.122 415.037,178.2 415.334,178.277 415.632,178.355 415.93,178.432 416.227,178.509 416.525,178.586 416.822,178.663 417.12,178.74 417.418,178.816 417.715,178.893 418.013,178.969 418.31,179.046 418.608,179.122 418.906,179.198 419.203,179.274 419.501,179.35 419.798,179.426 420.096,179.502 420.394,179.577 420.691,179.653 420.989,179.728 421.286,179.803 421.584,179.879 421.882,179.954 422.179,180.029 422.477,180.103 422.774,180.178 423.072,180.253 423.37,180.327 423.667,180.402 423.965,180.476 424.262,180.551 424.56,180.625 424.858,180.699 425.155,180.773 425.453,180.846 425.75,180.92 426.048,180.994 426.346,181.067 426.643,181.141 426.941,181.214 427.238,181.287 427.536,181.36 427.834,181.433 428.131,181.506 428.429,181.579 428.726,181.652 429.024,181.724 429.322,181.797 429.619,181.869 429.917,181.942 430.214,182.014 430.512,182.086 430.81,182.158 431.107,182.23 431.405,182.302 431.702,182.373 432,182.445 432.298,182.516 432.595,182.588 432.893,182.659 433.19,182.73 433.488,182.801 433.786,182.872 434.083,182.943 434.381,183.014 434.678,183.085 434.976,183.155 435.274,183.226 435.571,183.296 435.869,183.367 436.166,183.437 436.464,183.507 436.762,183.577 437.059,183.647 437.357,183.717 437.654,183.786 437.952,183.856 438.25,183.926 438.547,183.995 438.845,184.064 439.142,184.134 439.44,184.203 439.738,184.272 440.035,184.341 440.333,184.41 440.63,184.478 440.928,184.547 441.226,184.616 441.523,184.684 441.821,184.752 442.118,184.821 442.416,184.889 442.714,184.957 443.011,185.025 443.309,185.093 443.606,185.161 443.904,185.228 444.202,185.296 444.499,185.363 444.797,185.431 445.094,185.498 445.392,185.565 445.69,185.632 445.987,185.7 446.285,185.766 446.582,185.833 446.88,185.9 447.178,185.967 447.475,186.033 447.773,186.1 448.07,186.166 448.368,186.232 448.666,186.299 448.963,186.365 449.261,186.431 449.558,186.497 449.856,186.563 450.154,186.628 450.451,186.694 450.749,186.76 451.046,186.825 451.344,186.89 451.642,186.956 451.939,187.021 452.237,187.086 452.534,187.151 452.832,187.216 453.13,187.281 453.427,187.345 453.725,187.41 454.022,187.475 454.32,187.539 454.618,187.603 454.915,187.668 455.213,187.732 455.51,187.796 455.808,187.86 456.106,187.924 456.403,187.988 456.701,188.052 456.998,188.115 457.296,188.179 457.594,188.242 457.891,188.306 458.189,188.369 458.486,188.432 458.784,188.495 459.082,188.558 459.379,188.621 459.677,188.684 459.974,188.747 460.272,188.81 460.57,188.872 460.867,188.935 461.165,188.997 461.462,189.059 461.76,189.122 462.058,189.184 462.355,189.246 462.653,189.308 462.95,189.37 463.248,189.432 463.546,189.493 463.843,189.555 464.141,189.617 464.438,189.678 464.736,189.739 465.034,189.801 465.331,189.862 465.629,189.923 465.926,189.984 466.224,190.045 466.522,190.106 466.819,190.167 467.117,190.227 467.414,190.288 467.712,190.349 468.01,190.409 468.307,190.469 468.605,190.53 468.902,190.59 469.2,190.65 469.498,190.71 469.795,190.77 470.093,190.83 470.39,190.89 470.688,190.949 470.986,191.009 471.283,191.068 471.581,191.128 471.878,191.187 472.176,191.247 472.474,191.306 472.771,191.365 473.069,191.424 473.366,191.483 473.664,191.542 473.962,191.6 474.259,191.659 474.557,191.718 474.854,191.776 475.152,191.835 475.45,191.893 475.747,191.951 476.045,192.01 476.342,192.068 476.64,192.126 476.938,192.184 477.235,192.242 477.533,192.299 477.83,192.357 478.128,192.415 478.426,192.472 478.723,192.53 479.021,192.587 479.318,192.645 479.616,192.702 479.914,192.759 480.211,192.816 480.509,192.873 480.806,192.93 481.104,192.987 481.402,193.044 481.699,193.1 481.997,193.157 482.294,193.213 482.592,193.27 482.89,193.326 483.187,193.382 483.485,193.439 483.782,193.495 484.08,193.551 484.378,193.607 484.675,193.663 484.973,193.718 485.27,193.774 485.568,193.83 485.866,193.885 486.163,193.941 486.461,193.996 486.758,194.052 487.056,194.107 487.354,194.162 487.651,194.217 487.949,194.272 488.246,194.327 488.544,194.382 488.842,194.437 489.139,194.492 489.437,194.546 489.734,194.601 490.032,194.656 490.33,194.71 490.627,194.764 490.925,194.819 491.222,194.873 491.52,194.927 491.818,194.981 492.115,195.035 492.413,195.089 492.71,195.143 493.008,195.196 493.306,195.25 493.603,195.304 493.901,195.357 494.198,195.411 494.496,195.464 494.794,195.517 495.091,195.57 495.389,195.624 495.686,195.677 495.984,195.73 496.282,195.783 496.579,195.835 496.877,195.888 497.174,195.941 497.472,195.994 497.77,196.046 498.067,196.099 498.365,196.151 498.662,196.203 498.96,196.256 499.258,196.308 499.555,196.36 499.853,196.412 500.15,196.464 500.448,196.516 500.746,196.568 501.043,196.619 501.341,196.671 501.638,196.723 501.936,196.774 502.234,196.826 502.531,196.877 502.829,196.928 503.126,196.98 503.424,197.031 503.722,197.082 504.019,197.133 504.317,197.184 504.614,197.235 504.912,197.286 505.21,197.336 505.507,197.387 505.805,197.438 506.102,197.488 506.4,197.539 506.698,197.589 506.995,197.639 507.293,197.69 507.59,197.74 507.888,197.79 508.186,197.84 508.483,197.89 508.781,197.94 509.078,197.99 509.376,198.04 509.674,198.089 509.971,198.139 510.269,198.188 510.566,198.238 510.864,198.287 511.162,198.337 511.459,198.386 511.757,198.435 512.054,198.484 512.352,198.533 512.65,198.582 512.947,198.631 513.245,198.68 513.542,198.729 513.84,198.778 514.138,198.826 514.435,198.875 514.733,198.924 515.03,198.972 515.328,199.02 515.626,199.069 515.923,199.117 516.221,199.165 516.518,199.213 516.816,199.261 517.114,199.309 517.411,199.357 517.709,199.405 518.006,199.453 518.304,199.501 518.602,199.548 518.899,199.596 519.197,199.643 519.494,199.691 519.792,199.738 520.09,199.786 520.387,199.833 520.685,199.88 520.982,199.927 521.28,199.974 521.578,200.021 521.726,200.045" />
  <polygon
     style="fill:#ffffff;shape-rendering:crispEdges;stroke-width:2;stroke-miterlimit:4;stroke-dasharray:none"
     id="polygon142"
     points="518.534,67.3803 518.534,67.3803 518.534,35.1458 " />
  <polygon
     style="fill:#ffffff;shape-rendering:crispEdges;stroke-width:2;stroke-miterlimit:4;stroke-dasharray:none"
     id="polygon144"
     points="518.534,67.3803 518.534,35.1458 518.534,35.1458 " />
  <polygon
     style="fill:#ffffff;shape-rendering:crispEdges;stroke-width:2;stroke-miterlimit:4;stroke-dasharray:none"
     id="polygon146"
     points="366.275,35.1458 366.275,35.1458 518.534,35.1458 " />
  <polygon
     style="fill:#ffffff;shape-rendering:crispEdges;stroke-width:2;stroke-miterlimit:4;stroke-dasharray:none"
     id="polygon148"
     points="366.275,35.1458 518.534,35.1458 518.534,35.1458 " />
  <polygon
     style="fill:#ffffff;shape-rendering:crispEdges;stroke-width:2;stroke-miterlimit:4;stroke-dasharray:none"
     id="polygon150"
     points="366.275,35.1458 366.275,67.3803 518.534,67.3803 " />
  <polyline
     style="fill:none;stroke:#000000;stroke-width:2;stroke-dasharray:none;shape-rendering:crispEdges;stroke-miterlimit:4"
     id="polyline170"
     points="518.534,35.1458 518.534,35.1458" />
  <polyline
     style="fill:none;stroke:#000000;stroke-width:2;stroke-dasharray:none;shape-rendering:crispEdges;stroke-miterlimit:4"
     id="polyline172"
     points="518.534,67.3803 518.534,67.3803" />
  <polyline
     style="fill:none;stroke:#000000;stroke-width:2;stroke-dasharray:none;shape-rendering:crispEdges;stroke-miterlimit:4"
     id="polyline174"
     points="366.275,67.3803 366.275,67.3803" />
  <g
     id="g4415"
     transform="translate(-93.355932,0)"
     style="stroke-width:2;stroke-miterlimit:4;stroke-dasharray:none">
    <text
       x="392.35999"
       y="43.204399"
       font-size="10"
       baseline-shift="-5"
       id="text176"
       style="font-style:normal;font-variant:normal;font-weight:normal;font-stretch:normal;font-size:17.5px;font-family:sans-serif;-inkscape-font-specification:sans-serif;baseline-shift:-5px;text-anchor:start;fill:#000000;shape-rendering:crispEdges;stroke-width:2;stroke-miterlimit:4;stroke-dasharray:none">Signal expérimental</text>
    <text
       x="392.35999"
       y="59.321701"
       font-size="10"
       baseline-shift="-5"
       id="text178"
       style="font-style:normal;font-variant:normal;font-weight:normal;font-stretch:normal;font-size:17.5px;font-family:sans-serif;-inkscape-font-specification:sans-serif;baseline-shift:-5px;text-anchor:start;fill:#000000;shape-rendering:crispEdges;stroke-width:2;stroke-miterlimit:4;stroke-dasharray:none">Régression exponentielle</text>
    <polyline
       points="369.02,43.2044 389.614,43.2044"
       id="polyline180"
       style="fill:none;stroke:#0000ff;stroke-width:2;shape-rendering:crispEdges;stroke-miterlimit:4;stroke-dasharray:none" />
    <polyline
       points="369.02,59.3217 389.614,59.3217"
       id="polyline182"
       style="fill:none;stroke:#ff0000;stroke-width:2;shape-rendering:crispEdges;stroke-miterlimit:4;stroke-dasharray:none" />
  </g>
  <g
     id="g4410"
     style="stroke-width:2;stroke-miterlimit:4;stroke-dasharray:none">
    <path
       inkscape:export-ydpi="120"
       inkscape:export-xdpi="120"
       style="font-style:normal;font-variant:normal;font-weight:normal;font-stretch:normal;letter-spacing:normal;word-spacing:normal;text-anchor:start;fill:#000000;fill-opacity:1;fill-rule:evenodd;stroke:none;stroke-width:2;stroke-linecap:butt;stroke-linejoin:miter;stroke-miterlimit:4;stroke-dasharray:none;stroke-dashoffset:0;stroke-opacity:1"
       inkscape:connector-curvature="0"
       d="m 311.33236,408.88226 0.01,-0.0483 0.01,-0.0532 0.0145,-0.0532 0.0145,-0.0532 0.0145,-0.058 0.0145,-0.058 0.029,-0.11593 0.0289,-0.12076 0.0289,-0.12076 0.029,-0.11593 0.0289,-0.12076 0.01,-0.0532 0.0145,-0.058 0.0145,-0.0532 0.01,-0.0532 0.0145,-0.0483 0.01,-0.0483 0.01,-0.0483 0.01,-0.0387 0.01,-0.0435 0.005,-0.0338 0.01,-0.0338 0.005,-0.0338 0.005,-0.0241 0,-0.0241 0.005,-0.0145 0,-0.01 0,-0.005 c 1e-5,-0.40575 -0.28498,-0.64726 -0.69556,-0.64726 -0.0725,0 -0.74389,0.0193 -0.96608,0.8598 l -3.4634,13.94051 c -0.0676,0.28499 -0.0676,0.32846 -0.0676,0.3816 0,0.35745 0.26567,0.6521 0.67142,0.6521 0.5072,0 0.79219,-0.43956 0.84532,-0.50718 0.0918,-0.21737 0.40575,-1.47327 1.3187,-5.17819 0.77286,0.64727 1.85004,0.74872 2.33308,0.74872 1.6858,0 2.62773,-1.08201 3.20255,-1.75827 0.21736,1.08684 1.10616,1.75827 2.16401,1.75827 0.84532,0 1.39599,-0.55067 1.78241,-1.32353 0.40576,-0.86464 0.72456,-2.33792 0.72456,-2.38138 0,-0.24153 -0.21737,-0.24153 -0.28499,-0.24153 -0.24152,0 -0.26567,0.0966 -0.34296,0.43474 -0.40575,1.56504 -0.84532,2.98035 -1.82589,2.98035 -0.64727,0 -0.72455,-0.62312 -0.72455,-1.10616 0,-0.53134 0.28982,-1.66166 0.48303,-2.49731 l 0.67143,-2.60841 c 0.0773,-0.36228 0.30914,-1.27523 0.41058,-1.63751 0.12076,-0.55066 0.36228,-1.4636 0.36228,-1.60368 0,-0.43957 -0.34296,-0.65211 -0.69557,-0.65211 -0.12076,0 -0.74872,0.0241 -0.94193,0.84049 l -1.13514,4.50192 c -0.28499,1.20277 -0.55067,2.21232 -0.62795,2.45384 -0.0193,0.12076 -1.17379,2.30893 -3.12044,2.30893 -1.20276,0 -1.78241,-0.79218 -1.78241,-2.08673 0,-0.70524 0.16423,-1.37666 0.33812,-2.05292 z"
       id="path4462" />
    <text
       sodipodi:linespacing="125%"
       id="text4406"
       y="416.44067"
       x="213.25424"
       style="font-style:normal;font-variant:normal;font-weight:normal;font-stretch:normal;font-size:17.5px;line-height:125%;font-family:Sans;-inkscape-font-specification:Sans;text-align:start;letter-spacing:0px;word-spacing:0px;writing-mode:lr-tb;text-anchor:start;fill:#000000;fill-opacity:1;stroke:none;stroke-width:2;stroke-linecap:butt;stroke-linejoin:miter;stroke-opacity:1;stroke-miterlimit:4;stroke-dasharray:none"
       xml:space="preserve"><tspan
         y="416.44067"
         x="213.25424"
         id="tspan4408"
         sodipodi:role="line">Temps (en   s)</tspan></text>
  </g>
</svg>
