<?xml version="1.0" encoding="UTF-8" standalone="no"?>
<svg
   xmlns:dc="http://purl.org/dc/elements/1.1/"
   xmlns:cc="http://creativecommons.org/ns#"
   xmlns:rdf="http://www.w3.org/1999/02/22-rdf-syntax-ns#"
   xmlns:svg="http://www.w3.org/2000/svg"
   xmlns="http://www.w3.org/2000/svg"
   xmlns:sodipodi="http://sodipodi.sourceforge.net/DTD/sodipodi-0.dtd"
   xmlns:inkscape="http://www.inkscape.org/namespaces/inkscape"
   width="576px"
   height="432px"
   viewBox="0 0 576 432"
   id="svg2"
   version="1.1"
   inkscape:version="0.91 r13725"
   sodipodi:docname="attenuationR.svg">
  <metadata
     id="metadata178">
    <rdf:RDF>
      <cc:Work
         rdf:about="">
        <dc:format>image/svg+xml</dc:format>
        <dc:type
           rdf:resource="http://purl.org/dc/dcmitype/StillImage" />
      </cc:Work>
    </rdf:RDF>
  </metadata>
  <sodipodi:namedview
     pagecolor="#ffffff"
     bordercolor="#666666"
     borderopacity="1"
     objecttolerance="10"
     gridtolerance="10"
     guidetolerance="10"
     inkscape:pageopacity="0"
     inkscape:pageshadow="2"
     inkscape:window-width="1366"
     inkscape:window-height="718"
     id="namedview176"
     showgrid="false"
     inkscape:zoom="1.0925926"
     inkscape:cx="269.30014"
     inkscape:cy="164.7203"
     inkscape:window-x="0"
     inkscape:window-y="24"
     inkscape:window-maximized="1"
     inkscape:current-layer="svg2" />
  <title
     id="title4">glps_renderer figure</title>
  <desc
     id="desc6">
Creator: GL2PS 1.3.8, (C) 1999-2012 C. Geuzaine
For: Octave
CreationDate: Wed Feb 17 14:53:11 2016
</desc>
  <defs
     id="defs8" />
  <polygon
     style="fill:#ffffff;shape-rendering:crispEdges;stroke-width:2;stroke-miterlimit:4.14620447;stroke-dasharray:none"
     id="polygon12"
     points="521.28,384.48 521.28,384.48 521.28,32.4 "
     inkscape:export-xdpi="120"
     inkscape:export-ydpi="120" />
  <polygon
     style="fill:#ffffff;shape-rendering:crispEdges;stroke-width:2;stroke-miterlimit:4.14620447;stroke-dasharray:none"
     id="polygon14"
     points="521.28,384.48 521.28,32.4 521.28,32.4 "
     inkscape:export-xdpi="120"
     inkscape:export-ydpi="120" />
  <polygon
     style="fill:#ffffff;shape-rendering:crispEdges;stroke-width:2;stroke-miterlimit:4.14620447;stroke-dasharray:none"
     id="polygon16"
     points="74.88,32.4 74.88,32.4 521.28,32.4 "
     inkscape:export-xdpi="120"
     inkscape:export-ydpi="120" />
  <polygon
     style="fill:#ffffff;shape-rendering:crispEdges;stroke-width:2;stroke-miterlimit:4.14620447;stroke-dasharray:none"
     id="polygon18"
     points="74.88,32.4 521.28,32.4 521.28,32.4 "
     inkscape:export-xdpi="120"
     inkscape:export-ydpi="120" />
  <polygon
     style="fill:#ffffff;shape-rendering:crispEdges;stroke-width:2;stroke-miterlimit:4.14620447;stroke-dasharray:none"
     id="polygon20"
     points="74.88,32.4 74.88,384.48 521.28,384.48 "
     inkscape:export-xdpi="120"
     inkscape:export-ydpi="120" />
  <polygon
     style="fill:#ffffff;shape-rendering:crispEdges;stroke-width:2;stroke-miterlimit:4.14620447;stroke-dasharray:none"
     id="polygon22"
     points="74.88,32.4 521.28,384.48 521.28,32.4 "
     inkscape:export-xdpi="120"
     inkscape:export-ydpi="120" />
  <polyline
     style="fill:none;stroke:#000000;stroke-width:2;stroke-dasharray:none;shape-rendering:crispEdges;stroke-miterlimit:4.14620447"
     id="polyline24"
     points="74.88,384.48 521.28,384.48"
     inkscape:export-xdpi="120"
     inkscape:export-ydpi="120" />
  <polyline
     style="fill:none;stroke:#000000;stroke-width:2;stroke-dasharray:none;shape-rendering:crispEdges;stroke-miterlimit:4.14620447"
     id="polyline26"
     points="74.88,32.4 521.28,32.4"
     inkscape:export-xdpi="120"
     inkscape:export-ydpi="120" />
  <polyline
     style="fill:none;stroke:#000000;stroke-width:2;stroke-dasharray:none;shape-rendering:crispEdges;stroke-miterlimit:4.14620447"
     id="polyline28"
     points="74.88,32.4 521.28,32.4"
     inkscape:export-xdpi="120"
     inkscape:export-ydpi="120" />
  <polyline
     style="fill:none;stroke:#000000;stroke-width:2;stroke-dasharray:none;shape-rendering:crispEdges;stroke-miterlimit:4.14620447"
     id="polyline30"
     points="74.88,384.48 521.28,384.48"
     inkscape:export-xdpi="120"
     inkscape:export-ydpi="120" />
  <polyline
     style="fill:none;stroke:#000000;stroke-width:2;stroke-dasharray:none;shape-rendering:crispEdges;stroke-miterlimit:4.14620447"
     id="polyline32"
     points="74.88,384.48 74.88,32.4"
     inkscape:export-xdpi="120"
     inkscape:export-ydpi="120" />
  <polyline
     style="fill:none;stroke:#000000;stroke-width:2;stroke-dasharray:none;shape-rendering:crispEdges;stroke-miterlimit:4.14620447"
     id="polyline34"
     points="521.28,384.48 521.28,32.4"
     inkscape:export-xdpi="120"
     inkscape:export-ydpi="120" />
  <polyline
     style="fill:none;stroke:#000000;stroke-width:2;stroke-dasharray:none;shape-rendering:crispEdges;stroke-miterlimit:4.14620447"
     id="polyline36"
     points="521.28,384.48 521.28,32.4"
     inkscape:export-xdpi="120"
     inkscape:export-ydpi="120" />
  <polyline
     style="fill:none;stroke:#000000;stroke-width:2;stroke-dasharray:none;shape-rendering:crispEdges;stroke-miterlimit:4.14620447"
     id="polyline38"
     points="74.88,384.48 74.88,32.4 74.88,32.4"
     inkscape:export-xdpi="120"
     inkscape:export-ydpi="120" />
  <polyline
     style="fill:none;stroke:#000000;stroke-width:2;stroke-dasharray:none;shape-rendering:crispEdges;stroke-miterlimit:4.14620447"
     id="polyline40"
     points="521.28,32.4 521.28,32.4"
     inkscape:export-xdpi="120"
     inkscape:export-ydpi="120" />
  <polyline
     style="fill:none;stroke:#000000;stroke-width:2;stroke-dasharray:none;shape-rendering:crispEdges;stroke-miterlimit:4.14620447"
     id="polyline42"
     points="521.28,384.48 521.28,384.48"
     inkscape:export-xdpi="120"
     inkscape:export-ydpi="120" />
  <polyline
     style="fill:none;stroke:#000000;stroke-width:2;stroke-dasharray:none;shape-rendering:crispEdges;stroke-miterlimit:4.14620447"
     id="polyline44"
     points="74.88,384.48 74.88,384.48"
     inkscape:export-xdpi="120"
     inkscape:export-ydpi="120" />
  <polyline
     style="fill:none;stroke:#000000;stroke-width:2;stroke-dasharray:none;shape-rendering:crispEdges;stroke-miterlimit:4.14620447"
     id="polyline46"
     points="106.766,384.48 106.766,380.015"
     inkscape:export-xdpi="120"
     inkscape:export-ydpi="120" />
  <polyline
     style="fill:none;stroke:#000000;stroke-width:2;stroke-dasharray:none;shape-rendering:crispEdges;stroke-miterlimit:4.14620447"
     id="polyline48"
     points="106.766,32.4 106.766,36.865"
     inkscape:export-xdpi="120"
     inkscape:export-ydpi="120" />
  <polyline
     style="fill:none;stroke:#000000;stroke-width:2;stroke-dasharray:none;shape-rendering:crispEdges;stroke-miterlimit:4.14620447"
     id="polyline50"
     points="170.537,384.48 170.537,380.015"
     inkscape:export-xdpi="120"
     inkscape:export-ydpi="120" />
  <polyline
     style="fill:none;stroke:#000000;stroke-width:2;stroke-dasharray:none;shape-rendering:crispEdges;stroke-miterlimit:4.14620447"
     id="polyline52"
     points="170.537,32.4 170.537,36.865"
     inkscape:export-xdpi="120"
     inkscape:export-ydpi="120" />
  <polyline
     style="fill:none;stroke:#000000;stroke-width:2;stroke-dasharray:none;shape-rendering:crispEdges;stroke-miterlimit:4.14620447"
     id="polyline54"
     points="234.309,384.48 234.309,380.015"
     inkscape:export-xdpi="120"
     inkscape:export-ydpi="120" />
  <polyline
     style="fill:none;stroke:#000000;stroke-width:2;stroke-dasharray:none;shape-rendering:crispEdges;stroke-miterlimit:4.14620447"
     id="polyline56"
     points="234.309,32.4 234.309,36.865"
     inkscape:export-xdpi="120"
     inkscape:export-ydpi="120" />
  <polyline
     style="fill:none;stroke:#000000;stroke-width:2;stroke-dasharray:none;shape-rendering:crispEdges;stroke-miterlimit:4.14620447"
     id="polyline58"
     points="298.08,384.48 298.08,380.015"
     inkscape:export-xdpi="120"
     inkscape:export-ydpi="120" />
  <polyline
     style="fill:none;stroke:#000000;stroke-width:2;stroke-dasharray:none;shape-rendering:crispEdges;stroke-miterlimit:4.14620447"
     id="polyline60"
     points="298.08,32.4 298.08,36.865"
     inkscape:export-xdpi="120"
     inkscape:export-ydpi="120" />
  <polyline
     style="fill:none;stroke:#000000;stroke-width:2;stroke-dasharray:none;shape-rendering:crispEdges;stroke-miterlimit:4.14620447"
     id="polyline62"
     points="361.851,384.48 361.851,380.015"
     inkscape:export-xdpi="120"
     inkscape:export-ydpi="120" />
  <polyline
     style="fill:none;stroke:#000000;stroke-width:2;stroke-dasharray:none;shape-rendering:crispEdges;stroke-miterlimit:4.14620447"
     id="polyline64"
     points="361.851,32.4 361.851,36.865"
     inkscape:export-xdpi="120"
     inkscape:export-ydpi="120" />
  <polyline
     style="fill:none;stroke:#000000;stroke-width:2;stroke-dasharray:none;shape-rendering:crispEdges;stroke-miterlimit:4.14620447"
     id="polyline66"
     points="425.623,384.48 425.623,380.015"
     inkscape:export-xdpi="120"
     inkscape:export-ydpi="120" />
  <polyline
     style="fill:none;stroke:#000000;stroke-width:2;stroke-dasharray:none;shape-rendering:crispEdges;stroke-miterlimit:4.14620447"
     id="polyline68"
     points="425.623,32.4 425.623,36.865"
     inkscape:export-xdpi="120"
     inkscape:export-ydpi="120" />
  <polyline
     style="fill:none;stroke:#000000;stroke-width:2;stroke-dasharray:none;shape-rendering:crispEdges;stroke-miterlimit:4.14620447"
     id="polyline70"
     points="489.394,384.48 489.394,380.015"
     inkscape:export-xdpi="120"
     inkscape:export-ydpi="120" />
  <polyline
     style="fill:none;stroke:#000000;stroke-width:2;stroke-dasharray:none;shape-rendering:crispEdges;stroke-miterlimit:4.14620447"
     id="polyline72"
     points="489.394,32.4 489.394,36.865"
     inkscape:export-xdpi="120"
     inkscape:export-ydpi="120" />
  <text
     style="font-size:15px;font-family:Helvetica;baseline-shift:-10px;text-anchor:middle;fill:#000000;shape-rendering:crispEdges;stroke-width:2;stroke-miterlimit:4.14620447;stroke-dasharray:none"
     id="text74"
     baseline-shift="-10"
     font-size="10"
     y="389.48099"
     x="106.766"
     inkscape:export-xdpi="120"
     inkscape:export-ydpi="120">80</text>
  <text
     style="font-size:15px;font-family:Helvetica;baseline-shift:-10px;text-anchor:middle;fill:#000000;shape-rendering:crispEdges;stroke-width:2;stroke-miterlimit:4.14620447;stroke-dasharray:none"
     id="text76"
     baseline-shift="-10"
     font-size="10"
     y="389.48099"
     x="170.537"
     inkscape:export-xdpi="120"
     inkscape:export-ydpi="120">90</text>
  <text
     style="font-size:15px;font-family:Helvetica;baseline-shift:-10px;text-anchor:middle;fill:#000000;shape-rendering:crispEdges;stroke-width:2;stroke-miterlimit:4.14620447;stroke-dasharray:none"
     id="text78"
     baseline-shift="-10"
     font-size="10"
     y="389.48099"
     x="234.30901"
     inkscape:export-xdpi="120"
     inkscape:export-ydpi="120">100</text>
  <text
     style="font-size:15px;font-family:Helvetica;baseline-shift:-10px;text-anchor:middle;fill:#000000;shape-rendering:crispEdges;stroke-width:2;stroke-miterlimit:4.14620447;stroke-dasharray:none"
     id="text80"
     baseline-shift="-10"
     font-size="10"
     y="389.48099"
     x="298.07999"
     inkscape:export-xdpi="120"
     inkscape:export-ydpi="120">110</text>
  <text
     style="font-size:15px;font-family:Helvetica;baseline-shift:-10px;text-anchor:middle;fill:#000000;shape-rendering:crispEdges;stroke-width:2;stroke-miterlimit:4.14620447;stroke-dasharray:none"
     id="text82"
     baseline-shift="-10"
     font-size="10"
     y="389.48099"
     x="361.85101"
     inkscape:export-xdpi="120"
     inkscape:export-ydpi="120">120</text>
  <text
     style="font-size:15px;font-family:Helvetica;baseline-shift:-10px;text-anchor:middle;fill:#000000;shape-rendering:crispEdges;stroke-width:2;stroke-miterlimit:4.14620447;stroke-dasharray:none"
     id="text84"
     baseline-shift="-10"
     font-size="10"
     y="389.48099"
     x="425.62299"
     inkscape:export-xdpi="120"
     inkscape:export-ydpi="120">130</text>
  <text
     style="font-size:15px;font-family:Helvetica;baseline-shift:-10px;text-anchor:middle;fill:#000000;shape-rendering:crispEdges;stroke-width:2;stroke-miterlimit:4.14620447;stroke-dasharray:none"
     id="text86"
     baseline-shift="-10"
     font-size="10"
     y="389.48099"
     x="489.39401"
     inkscape:export-xdpi="120"
     inkscape:export-ydpi="120">140</text>
  <polyline
     style="fill:none;stroke:#000000;stroke-width:2;stroke-dasharray:none;shape-rendering:crispEdges;stroke-miterlimit:4.14620447"
     id="polyline88"
     points="74.88,356.314 79.348,356.314"
     inkscape:export-xdpi="120"
     inkscape:export-ydpi="120" />
  <polyline
     style="fill:none;stroke:#000000;stroke-width:2;stroke-dasharray:none;shape-rendering:crispEdges;stroke-miterlimit:4.14620447"
     id="polyline90"
     points="521.28,356.314 516.812,356.314"
     inkscape:export-xdpi="120"
     inkscape:export-ydpi="120" />
  <polyline
     style="fill:none;stroke:#000000;stroke-width:2;stroke-dasharray:none;shape-rendering:crispEdges;stroke-miterlimit:4.14620447"
     id="polyline92"
     points="74.88,299.981 79.348,299.981"
     inkscape:export-xdpi="120"
     inkscape:export-ydpi="120" />
  <polyline
     style="fill:none;stroke:#000000;stroke-width:2;stroke-dasharray:none;shape-rendering:crispEdges;stroke-miterlimit:4.14620447"
     id="polyline94"
     points="521.28,299.981 516.812,299.981"
     inkscape:export-xdpi="120"
     inkscape:export-ydpi="120" />
  <polyline
     style="fill:none;stroke:#000000;stroke-width:2;stroke-dasharray:none;shape-rendering:crispEdges;stroke-miterlimit:4.14620447"
     id="polyline96"
     points="74.88,243.648 79.348,243.648"
     inkscape:export-xdpi="120"
     inkscape:export-ydpi="120" />
  <polyline
     style="fill:none;stroke:#000000;stroke-width:2;stroke-dasharray:none;shape-rendering:crispEdges;stroke-miterlimit:4.14620447"
     id="polyline98"
     points="521.28,243.648 516.812,243.648"
     inkscape:export-xdpi="120"
     inkscape:export-ydpi="120" />
  <polyline
     style="fill:none;stroke:#000000;stroke-width:2;stroke-dasharray:none;shape-rendering:crispEdges;stroke-miterlimit:4.14620447"
     id="polyline100"
     points="74.88,187.315 79.348,187.315"
     inkscape:export-xdpi="120"
     inkscape:export-ydpi="120" />
  <polyline
     style="fill:none;stroke:#000000;stroke-width:2;stroke-dasharray:none;shape-rendering:crispEdges;stroke-miterlimit:4.14620447"
     id="polyline102"
     points="521.28,187.315 516.812,187.315"
     inkscape:export-xdpi="120"
     inkscape:export-ydpi="120" />
  <polyline
     style="fill:none;stroke:#000000;stroke-width:2;stroke-dasharray:none;shape-rendering:crispEdges;stroke-miterlimit:4.14620447"
     id="polyline104"
     points="74.88,130.982 79.348,130.982"
     inkscape:export-xdpi="120"
     inkscape:export-ydpi="120" />
  <polyline
     style="fill:none;stroke:#000000;stroke-width:2;stroke-dasharray:none;shape-rendering:crispEdges;stroke-miterlimit:4.14620447"
     id="polyline106"
     points="521.28,130.982 516.812,130.982"
     inkscape:export-xdpi="120"
     inkscape:export-ydpi="120" />
  <polyline
     style="fill:none;stroke:#000000;stroke-width:2;stroke-dasharray:none;shape-rendering:crispEdges;stroke-miterlimit:4.14620447"
     id="polyline108"
     points="74.88,74.6496 79.348,74.6496"
     inkscape:export-xdpi="120"
     inkscape:export-ydpi="120" />
  <polyline
     style="fill:none;stroke:#000000;stroke-width:2;stroke-dasharray:none;shape-rendering:crispEdges;stroke-miterlimit:4.14620447"
     id="polyline110"
     points="521.28,74.6496 516.812,74.6496"
     inkscape:export-xdpi="120"
     inkscape:export-ydpi="120" />
  <text
     style="font-size:15px;font-family:Helvetica;baseline-shift:-5px;text-anchor:end;fill:#000000;shape-rendering:crispEdges;stroke-width:2;stroke-miterlimit:4.14620447;stroke-dasharray:none"
     id="text112"
     baseline-shift="-5"
     font-size="10"
     y="356.314"
     x="69.875504"
     inkscape:export-xdpi="120"
     inkscape:export-ydpi="120">-40</text>
  <text
     style="font-size:15px;font-family:Helvetica;baseline-shift:-5px;text-anchor:end;fill:#000000;shape-rendering:crispEdges;stroke-width:2;stroke-miterlimit:4.14620447;stroke-dasharray:none"
     id="text114"
     baseline-shift="-5"
     font-size="10"
     y="299.98099"
     x="69.875504"
     inkscape:export-xdpi="120"
     inkscape:export-ydpi="120">-20</text>
  <text
     style="font-size:15px;font-family:Helvetica;baseline-shift:-5px;text-anchor:end;fill:#000000;shape-rendering:crispEdges;stroke-width:2;stroke-miterlimit:4.14620447;stroke-dasharray:none"
     id="text116"
     baseline-shift="-5"
     font-size="10"
     y="243.64799"
     x="69.875504"
     inkscape:export-xdpi="120"
     inkscape:export-ydpi="120">0</text>
  <text
     style="font-size:15px;font-family:Helvetica;baseline-shift:-5px;text-anchor:end;fill:#000000;shape-rendering:crispEdges;stroke-width:2;stroke-miterlimit:4.14620447;stroke-dasharray:none"
     id="text118"
     baseline-shift="-5"
     font-size="10"
     y="187.315"
     x="69.875504"
     inkscape:export-xdpi="120"
     inkscape:export-ydpi="120">20</text>
  <text
     style="font-size:15px;font-family:Helvetica;baseline-shift:-5px;text-anchor:end;fill:#000000;shape-rendering:crispEdges;stroke-width:2;stroke-miterlimit:4.14620447;stroke-dasharray:none"
     id="text120"
     baseline-shift="-5"
     font-size="10"
     y="130.98199"
     x="69.875504"
     inkscape:export-xdpi="120"
     inkscape:export-ydpi="120">40</text>
  <text
     style="font-size:15px;font-family:Helvetica;baseline-shift:-5px;text-anchor:end;fill:#000000;shape-rendering:crispEdges;stroke-width:2;stroke-miterlimit:4.14620447;stroke-dasharray:none"
     id="text122"
     baseline-shift="-5"
     font-size="10"
     y="74.649597"
     x="69.875504"
     inkscape:export-xdpi="120"
     inkscape:export-ydpi="120">60</text>
  <text
     style="font-style:normal;font-variant:normal;font-weight:normal;font-stretch:normal;font-size:17.5px;font-family:sans-serif;-inkscape-font-specification:sans-serif;baseline-shift:0px;text-anchor:middle;fill:#000000;shape-rendering:crispEdges;stroke-width:2;stroke-miterlimit:4.14620447;stroke-dasharray:none"
     id="text126"
     baseline-shift="0"
     transform="matrix(0,-1,1,0,0,0)"
     font-size="10"
     y="42.109314"
     x="-211.02873"
     inkscape:export-xdpi="120"
     inkscape:export-ydpi="120">Amplitude (unité arbitraire)</text>
  <polyline
     style="fill:none;stroke:#0000ff;stroke-width:2;shape-rendering:crispEdges;stroke-miterlimit:4.14620447;stroke-dasharray:none"
     id="polyline128"
     points="74.4336,224.636 74.6249,226.748 74.88,221.115 75.1351,223.932 75.3901,226.748 75.6452,226.748 75.9004,221.115 76.1554,221.115 76.4105,221.115 76.6656,229.565 76.9206,229.565 77.1758,226.748 77.4308,223.932 77.6859,221.115 77.941,223.932 78.196,221.115 78.4512,226.748 78.7063,223.932 78.9613,221.115 79.2164,226.748 79.4715,226.748 79.7266,226.748 79.9817,229.565 80.2368,223.932 80.4919,226.748 80.7469,226.748 81.002,223.932 81.2571,223.932 81.5122,226.748 81.7673,221.115 82.0224,223.932 82.2775,221.115 82.5325,221.115 82.7876,223.932 83.0427,218.298 83.2978,223.932 83.5529,221.115 83.808,221.115 84.063,221.115 84.3182,223.932 84.5732,221.115 84.8283,221.115 85.0834,226.748 85.3385,226.748 85.5936,226.748 85.8487,232.381 86.1038,226.748 86.3589,226.748 86.6139,223.932 86.869,232.381 87.1241,232.381 87.3792,232.381 87.6343,226.748 87.8894,221.115 88.1444,223.932 88.3995,226.748 88.6546,221.115 88.9097,221.115 89.1648,223.932 89.4199,218.298 89.6749,221.115 89.93,221.115 90.1851,218.298 90.4402,223.932 90.6953,223.932 90.9503,221.115 91.2054,232.381 91.4605,221.115 91.7156,221.115 91.9707,221.115 92.2258,226.748 92.4809,221.115 92.736,221.115 92.991,221.115 93.2461,226.748 93.5012,221.115 93.7563,226.748 94.0114,223.932 94.2665,223.932 94.5216,221.115 94.7767,226.748 95.0318,221.115 95.2868,223.932 95.5419,226.748 95.797,226.748 96.0521,226.748 96.3072,223.932 96.5623,232.381 96.8174,221.115 97.0724,229.565 97.3275,232.381 97.5826,223.932 97.8377,226.748 98.0928,232.381 98.3479,226.748 98.603,221.115 98.858,226.748 99.1131,221.115 99.3682,221.115 99.6233,218.298 99.8784,221.115 100.133,218.298 100.389,221.115 100.644,215.482 100.899,215.482 101.154,223.932 101.409,215.482 101.664,223.932 101.919,226.748 102.174,223.932 102.429,232.381 102.684,232.381 102.939,229.565 103.195,232.381 103.45,232.381 103.705,229.565 103.96,232.381 104.215,229.565 104.47,229.565 104.725,232.381 104.98,218.298 105.235,229.565 105.49,223.932 105.745,223.932 106,218.298 106.256,215.482 106.511,218.298 106.766,209.848 107.021,215.482 107.276,209.848 107.531,215.482 107.786,215.482 108.041,221.115 108.296,221.115 108.551,223.932 108.806,223.932 109.061,232.381 109.317,226.748 109.572,235.198 109.827,238.015 110.082,240.831 110.337,229.565 110.592,238.015 110.847,235.198 111.102,232.381 111.357,226.748 111.612,232.381 111.867,226.748 112.122,221.115 112.378,221.115 112.633,218.298 112.888,215.482 113.143,215.482 113.398,215.482 113.653,215.482 113.908,215.482 114.163,218.298 114.418,215.482 114.673,221.115 114.928,221.115 115.184,221.115 115.439,226.748 115.694,223.932 115.949,232.381 116.204,232.381 116.459,229.565 116.714,229.565 116.969,235.198 117.224,235.198 117.479,232.381 117.734,229.565 117.989,226.748 118.245,223.932 118.5,226.748 118.755,218.298 119.01,215.482 119.265,218.298 119.52,215.482 119.775,215.482 120.03,209.848 120.285,215.482 120.54,212.665 120.795,221.115 121.05,221.115 121.306,226.748 121.561,229.565 121.816,226.748 122.071,226.748 122.326,232.381 122.581,226.748 122.836,232.381 123.091,232.381 123.346,238.015 123.601,232.381 123.856,232.381 124.112,223.932 124.367,221.115 124.622,223.932 124.877,221.115 125.132,218.298 125.387,223.932 125.642,215.482 125.897,212.665 126.152,221.115 126.407,215.482 126.662,223.932 126.917,223.932 127.173,229.565 127.428,226.748 127.683,226.748 127.938,229.565 128.193,226.748 128.448,226.748 128.703,226.748 128.958,223.932 129.213,226.748 129.468,229.565 129.723,221.115 129.978,221.115 130.234,226.748 130.489,226.748 130.744,221.115 130.999,221.115 131.254,221.115 131.509,223.932 131.764,223.932 132.019,221.115 132.274,226.748 132.529,229.565 132.784,226.748 133.04,232.381 133.295,229.565 133.55,226.748 133.805,226.748 134.06,229.565 134.315,226.748 134.57,226.748 134.825,232.381 135.08,221.115 135.335,223.932 135.59,226.748 135.845,226.748 136.101,218.298 136.356,221.115 136.611,215.482 136.866,221.115 137.121,221.115 137.376,221.115 137.631,221.115 137.886,223.932 138.141,221.115 138.396,232.381 138.651,229.565 138.906,229.565 139.162,235.198 139.417,232.381 139.672,235.198 139.927,238.015 140.182,232.381 140.437,232.381 140.692,229.565 140.947,223.932 141.202,218.298 141.457,218.298 141.712,221.115 141.967,215.482 142.223,221.115 142.478,215.482 142.733,215.482 142.988,215.482 143.243,218.298 143.498,212.665 143.753,221.115 144.008,221.115 144.263,221.115 144.518,223.932 144.773,232.381 145.029,238.015 145.284,232.381 145.539,238.015 145.794,235.198 146.049,235.198 146.304,243.648 146.559,229.565 146.814,232.381 147.069,235.198 147.324,226.748 147.579,221.115 147.835,226.748 148.09,218.298 148.345,215.482 148.6,212.665 148.855,215.482 149.11,215.482 149.365,212.665 149.62,212.665 149.875,215.482 150.13,215.482 150.385,215.482 150.64,221.115 150.896,223.932 151.151,229.565 151.406,229.565 151.661,235.198 151.916,232.381 152.171,238.015 152.426,238.015 152.681,238.015 152.936,235.198 153.191,235.198 153.446,232.381 153.701,226.748 153.957,232.381 154.212,221.115 154.467,218.298 154.722,215.482 154.977,212.665 155.232,209.848 155.487,215.482 155.742,212.665 155.997,209.848 156.252,209.848 156.507,221.115 156.762,221.115 157.018,218.298 157.273,223.932 157.528,221.115 157.783,229.565 158.038,238.015 158.293,235.198 158.548,238.015 158.803,243.648 159.058,235.198 159.313,235.198 159.568,232.381 159.824,232.381 160.079,226.748 160.334,223.932 160.589,232.381 160.844,232.381 161.099,221.115 161.354,215.482 161.609,218.298 161.864,215.482 162.119,215.482 162.374,215.482 162.629,212.665 162.885,212.665 163.14,215.482 163.395,212.665 163.65,212.665 163.905,218.298 164.16,218.298 164.415,215.482 164.67,215.482 164.925,215.482 165.18,221.115 165.435,226.748 165.69,229.565 165.946,223.932 166.201,232.381 166.456,240.831 166.711,246.465 166.966,246.465 167.221,254.915 167.476,254.915 167.731,254.915 167.986,260.548 168.241,266.181 168.496,266.181 168.752,257.731 169.007,257.731 169.262,246.465 169.517,232.381 169.772,223.932 170.027,204.215 170.282,190.132 170.537,164.782 170.792,153.516 171.047,139.432 171.302,142.249 171.557,130.982 171.812,128.166 172.068,136.616 172.323,153.516 172.578,170.415 172.833,198.582 173.088,229.565 173.343,260.548 173.598,297.164 173.853,325.331 174.108,342.23 174.363,373.213 174.618,378.847 174.874,378.847 175.129,367.58 175.384,350.68 175.639,316.881 175.894,274.631 176.149,238.015 176.404,192.948 176.659,150.699 176.914,108.449 177.169,85.9161 177.424,52.1165 177.68,43.6666 177.935,40.8499 178.19,57.7498 178.445,74.6496 178.7,116.899 178.955,150.699 179.21,192.948 179.465,246.465 179.72,285.898 179.975,333.78 180.23,361.947 180.461,384.832"
     inkscape:export-xdpi="120"
     inkscape:export-ydpi="120" />
  <polyline
     style="fill:none;stroke:#0000ff;stroke-width:2;shape-rendering:crispEdges;stroke-miterlimit:4.14620447;stroke-dasharray:none"
     id="polyline130"
     points="181.332,384.832 181.506,367.58 181.761,333.78 182.016,305.614 182.271,254.915 182.526,212.665 182.781,167.599 183.036,128.166 183.291,97.1827 183.547,74.6496 183.802,63.3831 184.057,69.0163 184.312,74.6496 184.567,99.9994 184.822,125.349 185.077,159.149 185.332,195.765 185.587,235.198 185.842,274.631 186.097,299.981 186.352,328.147 186.608,345.047 186.863,356.314 187.118,356.314 187.373,339.414 187.628,328.147 187.883,305.614 188.138,277.448 188.393,249.281 188.648,215.482 188.903,190.132 189.158,161.965 189.413,142.249 189.669,130.982 189.924,119.716 190.179,125.349 190.434,136.616 190.689,145.066 190.944,164.782 191.199,192.948 191.454,207.032 191.709,229.565 191.964,252.098 192.219,268.998 192.474,285.898 192.73,294.348 192.985,297.164 193.24,294.348 193.495,285.898 193.75,274.631 194.005,266.181 194.26,249.281 194.515,232.381 194.77,218.298 195.025,204.215 195.28,184.499 195.535,184.499 195.791,176.049 196.046,173.232 196.301,176.049 196.556,184.499 196.811,187.315 197.066,204.215 197.321,215.482 197.576,221.115 197.831,238.015 198.086,243.648 198.341,249.281 198.597,252.098 198.852,254.915 199.107,252.098 199.362,254.915 199.617,249.281 199.872,249.281 200.127,235.198 200.382,235.198 200.637,221.115 200.892,212.665 201.147,212.665 201.402,209.848 201.658,201.398 201.913,201.398 202.168,209.848 202.423,207.032 202.678,209.848 202.933,215.482 203.188,221.115 203.443,226.748 203.698,232.381 203.953,235.198 204.208,240.831 204.464,232.381 204.719,235.198 204.974,243.648 205.229,235.198 205.484,232.381 205.739,232.381 205.994,232.381 206.249,226.748 206.504,223.932 206.759,218.298 207.014,221.115 207.269,215.482 207.525,209.848 207.78,212.665 208.035,212.665 208.29,215.482 208.545,215.482 208.8,215.482 209.055,221.115 209.31,215.482 209.565,221.115 209.82,232.381 210.075,232.381 210.331,226.748 210.586,235.198 210.841,226.748 211.096,238.015 211.351,235.198 211.606,235.198 211.861,226.748 212.116,229.565 212.371,229.565 212.626,221.115 212.881,218.298 213.136,221.115 213.392,218.298 213.647,218.298 213.902,221.115 214.157,215.482 214.412,221.115 214.667,215.482 214.922,221.115 215.177,226.748 215.432,215.482 215.687,223.932 215.942,221.115 216.197,229.565 216.452,235.198 216.708,229.565 216.963,232.381 217.218,229.565 217.473,232.381 217.728,226.748 217.983,229.565 218.238,232.381 218.493,232.381 218.748,226.748 219.003,221.115 219.258,226.748 219.514,218.298 219.769,221.115 220.024,221.115 220.279,218.298 220.534,218.298 220.789,221.115 221.044,226.748 221.299,223.932 221.554,226.748 221.809,226.748 222.064,221.115 222.32,232.381 222.575,232.381 222.83,223.932 223.085,229.565 223.34,226.748 223.595,229.565 223.85,229.565 224.105,229.565 224.36,229.565 224.615,221.115 224.87,232.381 225.125,223.932 225.381,221.115 225.636,232.381 225.891,221.115 226.146,221.115 226.401,221.115 226.656,221.115 226.911,221.115 227.166,218.298 227.421,215.482 227.676,221.115 227.931,221.115 228.187,215.482 228.442,223.932 228.697,221.115 228.952,226.748 229.207,223.932 229.462,229.565 229.717,229.565 229.972,229.565 230.227,232.381 230.482,226.748 230.737,226.748 230.992,229.565 231.248,232.381 231.503,232.381 231.758,223.932 232.013,223.932 232.268,223.932 232.523,221.115 232.778,221.115 233.033,221.115 233.288,223.932 233.543,226.748 233.798,221.115 234.053,218.298 234.309,221.115 234.564,221.115 234.819,229.565 235.074,223.932 235.329,218.298 235.584,229.565 235.839,232.381 236.094,229.565 236.349,229.565 236.604,223.932 236.859,229.565 237.114,226.748 237.37,218.298 237.625,226.748 237.88,221.115 238.135,223.932 238.39,223.932 238.645,221.115 238.9,223.932 239.155,221.115 239.41,221.115 239.665,221.115 239.92,229.565 240.175,229.565 240.431,226.748 240.686,229.565 240.941,226.748 241.196,229.565 241.451,226.748 241.706,232.381 241.961,226.748 242.216,229.565 242.471,229.565 242.726,223.932 242.981,226.748 243.237,226.748 243.492,223.932 243.747,221.115 244.002,223.932 244.257,221.115 244.512,221.115 244.767,223.932 245.022,221.115 245.277,221.115 245.532,223.932 245.787,226.748 246.042,223.932 246.298,221.115 246.553,229.565 246.808,221.115 247.063,221.115 247.318,221.115 247.573,221.115 247.828,221.115 248.083,226.748 248.338,221.115 248.593,223.932 248.848,223.932 249.104,215.482 249.359,223.932 249.614,223.932 249.869,226.748 250.124,232.381 250.379,232.381 250.634,238.015 250.889,232.381 251.144,238.015 251.399,238.015 251.654,243.648 251.91,240.831 252.165,240.831 252.42,238.015 252.675,235.198 252.93,232.381 253.185,229.565 253.44,226.748 253.695,223.932 253.95,221.115 254.205,215.482 254.46,212.665 254.715,209.848 254.97,218.298 255.226,221.115 255.481,215.482 255.736,215.482 255.991,215.482 256.246,226.748 256.501,221.115 256.756,223.932 257.011,226.748 257.266,215.482 257.521,212.665 257.776,204.215 258.031,201.398 258.287,201.398 258.542,192.948 258.797,184.499 259.052,187.315 259.307,181.682 259.562,195.765 259.817,198.582 260.072,207.032 260.327,218.298 260.582,238.015 260.837,254.915 261.092,274.631 261.348,285.898 261.603,299.981 261.858,314.064 262.113,322.514 262.368,322.514 262.623,314.064 262.878,305.614 263.133,288.714 263.388,268.998 263.643,254.915 263.898,229.565 264.154,201.398 264.409,178.865 264.664,153.516 264.919,136.616 265.174,119.716 265.429,108.449 265.684,114.083 265.939,108.449 266.194,125.349 266.449,142.249 266.704,159.149 266.96,187.315 267.215,207.032 267.47,240.831 267.725,254.915 267.98,280.264 268.235,305.614 268.49,314.064 268.745,328.147 269,333.78 269.255,330.964 269.51,319.697 269.765,311.247 270.021,288.714 270.276,266.181 270.531,243.648 270.786,221.115 271.041,195.765 271.296,170.415 271.551,156.332 271.806,145.066 272.061,139.432 272.316,130.982 272.571,130.982 272.827,147.882 273.082,159.149 273.337,176.049 273.592,192.948 273.847,221.115 274.102,240.831 274.357,257.731 274.612,277.448 274.867,294.348 275.122,297.164 275.377,305.614 275.632,299.981 275.888,297.164 276.143,280.264 276.398,266.181 276.653,252.098 276.908,238.015 277.163,215.482 277.418,201.398 277.673,184.499 277.928,167.599 278.183,159.149 278.438,161.965 278.693,159.149 278.949,164.782 279.204,178.865 279.459,187.315 279.714,198.582 279.969,218.298 280.224,232.381 280.479,243.648 280.734,254.915 280.989,266.181 281.244,266.181 281.499,271.814 281.754,274.631 282.01,268.998 282.265,266.181 282.52,254.915 282.775,243.648 283.03,235.198 283.285,221.115 283.54,209.848 283.795,198.582 284.05,198.582 284.305,192.948 284.56,192.948 284.815,190.132 285.071,198.582 285.326,190.132 285.581,204.215 285.836,209.848 286.091,215.482 286.346,223.932 286.601,232.381 286.856,238.015 287.111,243.648 287.366,243.648 287.621,249.281 287.877,249.281 288.132,249.281 288.387,238.015 288.642,238.015 288.897,229.565 289.152,232.381 289.407,221.115 289.662,218.298 289.917,209.848 290.172,212.665 290.427,209.848 290.682,212.665 290.938,221.115 291.193,221.115 291.448,221.115 291.703,218.298 291.958,221.115 292.213,223.932 292.468,232.381 292.723,232.381 292.978,232.381 293.233,238.015 293.488,232.381 293.744,235.198 293.999,232.381 294.254,232.381 294.509,229.565 294.764,226.748 295.019,221.115 295.274,221.115 295.529,212.665 295.784,215.482 296.039,215.482 296.294,215.482 296.549,221.115 296.805,221.115 297.06,218.298 297.315,232.381 297.57,223.932 297.825,226.748 298.08,226.748 298.335,235.198 298.59,240.831 298.845,235.198 299.1,238.015 299.355,235.198 299.61,235.198 299.866,235.198 300.121,232.381 300.376,221.115 300.631,226.748 300.886,212.665 301.141,212.665 301.396,212.665 301.651,209.848 301.906,201.398 302.161,198.582 302.416,204.215 302.672,209.848 302.927,204.215 303.182,215.482 303.437,215.482 303.692,221.115 303.947,232.381 304.202,232.381 304.457,243.648 304.712,243.648 304.967,249.281 305.222,249.281 305.477,254.915 305.733,252.098 305.988,249.281 306.243,243.648 306.498,243.648 306.753,243.648 307.008,226.748 307.263,221.115 307.518,218.298 307.773,207.032 308.028,204.215 308.283,198.582 308.538,192.948 308.794,187.315 309.049,187.315 309.304,192.948 309.559,195.765 309.814,198.582 310.069,209.848 310.324,218.298 310.579,223.932 310.834,232.381 311.089,243.648 311.344,249.281 311.6,249.281 311.855,252.098 312.11,254.915 312.365,257.731 312.62,257.731 312.875,249.281 313.13,243.648 313.385,235.198 313.64,221.115 313.895,221.115 314.15,215.482 314.405,209.848 314.661,204.215 314.916,198.582 315.171,190.132 315.426,198.582 315.681,204.215 315.936,207.032 316.191,204.215 316.446,221.115 316.701,223.932 316.956,229.565 317.211,235.198 317.466,238.015 317.722,240.831 317.977,243.648 318.232,246.465 318.487,240.831 318.742,243.648 318.997,229.565 319.252,235.198 319.507,229.565 319.762,221.115 320.017,221.115 320.272,215.482 320.527,218.298 320.783,209.848 321.038,209.848 321.293,204.215 321.548,207.032 321.803,215.482 322.058,221.115 322.313,221.115 322.568,223.932 322.823,223.932 323.078,238.015 323.333,235.198 323.589,232.381 323.844,235.198 324.099,235.198 324.354,243.648 324.609,226.748 324.864,229.565 325.119,226.748 325.374,218.298 325.629,215.482 325.884,215.482 326.139,221.115 326.394,209.848 326.65,215.482 326.905,215.482 327.16,209.848 327.415,215.482 327.67,226.748 327.925,218.298 328.18,223.932 328.435,226.748 328.69,229.565 328.945,232.381 329.2,235.198 329.456,240.831 329.711,235.198 329.966,229.565 330.221,235.198 330.476,223.932 330.731,226.748 330.986,221.115 331.241,226.748 331.496,226.748 331.751,221.115 332.006,215.482 332.261,215.482 332.517,218.298 332.772,221.115 333.027,221.115 333.282,218.298 333.537,221.115 333.792,229.565 334.047,229.565 334.302,226.748 334.557,232.381 334.812,229.565 335.067,232.381 335.322,229.565 335.578,226.748 335.833,226.748 336.088,223.932 336.343,221.115 336.598,218.298 336.853,221.115 337.108,209.848 337.363,212.665 337.618,221.115 337.873,218.298 338.128,221.115 338.384,226.748 338.639,223.932 338.894,221.115 339.149,226.748 339.404,235.198 339.659,232.381 339.914,240.831 340.169,243.648 340.424,238.015 340.679,235.198 340.934,238.015 341.189,238.015 341.445,226.748 341.7,232.381 341.955,215.482 342.21,221.115 342.465,209.848 342.72,209.848 342.975,209.848 343.23,209.848 343.485,207.032 343.74,215.482 343.995,209.848 344.25,218.298 344.506,221.115 344.761,223.932 345.016,232.381 345.271,240.831 345.526,240.831 345.781,240.831 346.036,238.015 346.291,240.831 346.546,238.015 346.801,243.648 347.056,232.381 347.312,238.015 347.567,226.748 347.822,226.748 348.077,221.115 348.332,218.298 348.587,209.848 348.842,212.665 349.097,207.032 349.352,209.848 349.607,212.665 349.862,209.848 350.117,209.848 350.373,215.482 350.628,218.298 350.883,221.115 351.138,223.932 351.393,229.565 351.648,232.381 351.903,238.015 352.158,232.381 352.413,235.198 352.668,229.565 352.923,235.198 353.178,232.381 353.434,232.381 353.689,229.565 353.944,226.748 354.199,229.565 354.454,226.748 354.709,232.381 354.964,226.748 355.219,226.748 355.474,223.932 355.729,221.115 355.984,223.932 356.24,226.748 356.495,221.115 356.75,221.115 357.005,223.932 357.26,221.115 357.515,226.748 357.77,226.748 358.025,226.748 358.28,221.115 358.535,221.115 358.79,218.298 359.045,223.932 359.301,221.115 359.556,221.115 359.811,226.748 360.066,226.748 360.321,232.381 360.576,229.565 360.831,223.932 361.086,226.748 361.341,221.115 361.596,215.482 361.851,221.115 362.107,221.115 362.362,215.482 362.617,215.482 362.872,218.298 363.127,218.298 363.382,209.848 363.637,215.482 363.892,218.298 364.147,223.932 364.402,229.565 364.657,235.198 364.912,240.831 365.167,246.465 365.423,249.281 365.678,252.098 365.933,252.098 366.188,249.281 366.443,246.465 366.698,243.648 366.953,240.831 367.208,232.381 367.463,218.298 367.718,212.665 367.973,207.032 368.229,192.948 368.484,192.948 368.739,187.315 368.994,184.499 369.249,181.682 369.504,187.315 369.759,190.132 370.014,201.398 370.269,209.848 370.524,218.298 370.779,229.565 371.035,243.648 371.29,254.915 371.545,263.365 371.8,271.814 372.055,271.814 372.31,277.448 372.565,274.631 372.82,263.365 373.075,257.731 373.33,249.281 373.585,238.015 373.84,221.115 374.096,209.848 374.351,201.398 374.606,192.948 374.861,178.865 375.116,181.682 375.371,176.049 375.626,178.865 375.881,187.315 376.136,192.948 376.391,201.398 376.646,215.482 376.901,226.748 377.157,232.381 377.412,252.098 377.667,260.548 377.922,254.915 378.177,271.814 378.432,260.548 378.687,263.365 378.942,263.365 379.197,254.915 379.452,240.831 379.707,232.381 379.962,223.932 380.218,215.482 380.473,207.032 380.728,201.398 380.983,192.948 381.238,187.315 381.493,195.765 381.748,198.582 382.003,198.582 382.258,204.215 382.513,212.665 382.768,223.932 383.023,232.381 383.279,243.648 383.534,243.648 383.789,249.281 384.044,249.281 384.299,252.098 384.554,252.098 384.809,249.281 385.064,238.015 385.319,238.015 385.574,232.381 385.829,221.115 386.085,212.665 386.34,207.032 386.595,201.398 386.85,207.032 387.105,198.582 387.36,198.582 387.615,204.215 387.87,207.032 388.125,215.482 388.38,218.298 388.635,221.115 388.89,226.748 389.146,232.381 389.401,232.381 389.656,243.648 389.911,240.831 390.166,243.648 390.421,243.648 390.676,238.015 390.931,238.015 391.186,232.381 391.441,226.748 391.696,226.748 391.952,221.115 392.207,223.932 392.462,215.482 392.717,212.665 392.972,212.665 393.227,221.115 393.482,221.115 393.737,218.298 393.992,221.115 394.247,215.482 394.502,221.115 394.758,221.115 395.013,221.115 395.268,226.748 395.523,223.932 395.778,229.565 396.033,226.748 396.288,229.565 396.543,226.748 396.798,221.115 397.053,226.748 397.308,223.932 397.563,221.115 397.819,229.565 398.074,229.565 398.329,223.932 398.584,232.381 398.839,226.748 399.094,229.565 399.349,232.381 399.604,232.381 399.859,232.381 400.114,223.932 400.369,226.748 400.624,226.748 400.88,218.298 401.135,229.565 401.39,221.115 401.645,215.482 401.9,221.115 402.155,215.482 402.41,215.482 402.665,218.298 402.92,221.115 403.175,218.298 403.43,221.115 403.685,221.115 403.94,223.932 404.196,229.565 404.451,226.748 404.706,232.381 404.961,232.381 405.216,232.381 405.471,232.381 405.726,235.198 405.981,232.381 406.236,232.381 406.491,226.748 406.746,226.748 407.002,229.565 407.257,226.748 407.512,215.482 407.767,221.115 408.022,226.748 408.277,215.482 408.532,221.115 408.787,218.298 409.042,218.298 409.297,221.115 409.552,221.115 409.807,223.932 410.063,221.115 410.318,223.932 410.573,223.932 410.828,223.932 411.083,226.748 411.338,226.748 411.593,229.565 411.848,232.381 412.103,232.381 412.358,229.565 412.613,223.932 412.869,232.381 413.124,232.381 413.379,226.748 413.634,226.748 413.889,221.115 414.144,221.115 414.399,232.381 414.654,226.748 414.909,229.565 415.164,226.748 415.419,223.932 415.675,229.565 415.93,223.932 416.185,226.748 416.44,223.932 416.695,221.115 416.95,223.932 417.205,223.932 417.46,218.298 417.715,221.115 417.97,221.115 418.225,221.115 418.48,221.115 418.736,215.482 418.991,212.665 419.246,218.298 419.501,221.115 419.756,223.932 420.011,232.381 420.266,221.115 420.521,232.381 420.776,235.198 421.031,229.565 421.286,232.381 421.542,229.565 421.797,238.015 422.052,226.748 422.307,235.198 422.562,232.381 422.817,223.932 423.072,232.381 423.327,221.115 423.582,215.482 423.837,218.298 424.092,221.115 424.347,218.298 424.602,209.848 424.858,215.482 425.113,218.298 425.368,221.115 425.623,221.115 425.878,223.932 426.133,221.115 426.388,221.115 426.643,221.115 426.898,226.748 427.153,232.381 427.408,235.198 427.664,235.198 427.919,232.381 428.174,232.381 428.429,232.381 428.684,232.381 428.939,226.748 429.194,232.381 429.449,229.565 429.704,223.932 429.959,223.932 430.214,221.115 430.469,221.115 430.725,215.482 430.98,221.115 431.235,221.115 431.49,215.482 431.745,218.298 432,221.115 432.255,221.115 432.51,221.115 432.765,218.298 433.02,221.115 433.275,226.748 433.531,221.115 433.786,226.748 434.041,229.565 434.296,223.932 434.551,226.748 434.806,232.381 435.061,235.198 435.316,232.381 435.571,229.565 435.826,229.565 436.081,229.565 436.336,226.748 436.592,226.748 436.847,226.748 437.102,223.932 437.357,221.115 437.612,221.115 437.867,218.298 438.122,223.932 438.377,221.115 438.632,221.115 438.887,218.298 439.142,226.748 439.398,221.115 439.653,218.298 439.908,221.115 440.163,221.115 440.418,226.748 440.673,226.748 440.928,221.115 441.183,226.748 441.438,226.748 441.693,226.748 441.948,226.748 442.203,232.381 442.458,229.565 442.714,229.565 442.969,226.748 443.224,229.565 443.479,229.565 443.734,223.932 443.989,223.932 444.244,223.932 444.499,221.115 444.754,223.932 445.009,221.115 445.264,223.932 445.52,226.748 445.775,223.932 446.03,226.748 446.285,221.115 446.54,232.381 446.795,218.298 447.05,226.748 447.305,223.932 447.56,226.748 447.815,226.748 448.07,223.932 448.325,221.115 448.581,226.748 448.836,221.115 449.091,229.565 449.346,223.932 449.601,226.748 449.856,221.115 450.111,229.565 450.366,232.381 450.621,229.565 450.876,221.115 451.131,226.748 451.386,226.748 451.642,218.298 451.897,229.565 452.152,221.115 452.407,223.932 452.662,221.115 452.917,232.381 453.172,221.115 453.427,221.115 453.682,221.115 453.937,221.115 454.192,221.115 454.448,223.932 454.703,215.482 454.958,221.115 455.213,221.115 455.468,223.932 455.723,226.748 455.978,229.565 456.233,226.748 456.488,232.381 456.743,229.565 456.998,232.381 457.254,229.565 457.509,229.565 457.764,229.565 458.019,229.565 458.274,232.381 458.529,226.748 458.784,223.932 459.039,223.932 459.294,221.115 459.549,221.115 459.804,223.932 460.059,218.298 460.315,218.298 460.57,221.115 460.825,215.482 461.08,215.482 461.335,221.115 461.59,221.115 461.845,223.932 462.1,226.748 462.355,223.932 462.61,232.381 462.865,226.748 463.12,226.748 463.376,232.381 463.631,232.381 463.886,232.381 464.141,229.565 464.396,232.381 464.651,229.565 464.906,229.565 465.161,229.565 465.416,223.932 465.671,221.115 465.926,218.298 466.181,218.298 466.437,218.298 466.692,218.298 466.947,215.482 467.202,221.115 467.457,215.482 467.712,218.298 467.967,223.932 468.222,229.565 468.477,229.565 468.732,232.381 468.987,229.565 469.242,232.381 469.498,232.381 469.753,229.565 470.008,226.748 470.263,232.381 470.518,232.381 470.773,226.748 471.028,232.381 471.283,226.748 471.538,221.115 471.793,223.932 472.048,221.115 472.304,221.115 472.559,215.482 472.814,223.932 473.069,221.115 473.324,221.115 473.579,218.298 473.834,223.932 474.089,218.298 474.344,229.565 474.599,221.115 474.854,232.381 475.109,232.381 475.365,226.748 475.62,232.381 475.875,235.198 476.13,229.565 476.385,232.381 476.64,232.381 476.895,226.748 477.15,226.748 477.405,221.115 477.66,229.565 477.915,221.115 478.171,223.932 478.426,218.298 478.681,215.482 478.936,221.115 479.191,218.298 479.446,209.848 479.701,215.482 479.956,221.115 480.211,221.115 480.466,223.932 480.721,226.748 480.976,229.565 481.232,229.565 481.487,232.381 481.742,229.565 481.997,235.198 482.252,232.381 482.507,235.198 482.762,229.565 483.017,232.381 483.272,232.381 483.527,226.748 483.782,226.748 484.038,226.748 484.293,226.748 484.548,226.748 484.803,226.748 485.058,221.115 485.313,226.748 485.568,223.932 485.823,221.115 486.078,223.932 486.333,221.115 486.588,221.115 486.843,221.115 487.099,218.298 487.354,221.115 487.609,218.298 487.864,215.482 488.119,226.748 488.374,226.748 488.629,226.748 488.884,226.748 489.139,229.565 489.394,229.565 489.649,229.565 489.904,232.381 490.159,226.748 490.415,232.381 490.67,232.381 490.925,232.381 491.18,235.198 491.435,232.381 491.69,229.565 491.945,226.748 492.2,229.565 492.455,226.748 492.71,221.115 492.965,221.115 493.221,221.115 493.476,215.482 493.731,221.115 493.986,221.115 494.241,218.298 494.496,221.115 494.751,218.298 495.006,221.115 495.261,215.482 495.516,226.748 495.771,221.115 496.026,223.932 496.282,226.748 496.537,221.115 496.792,221.115 497.047,232.381 497.302,226.748 497.557,232.381 497.812,221.115 498.067,235.198 498.322,229.565 498.577,229.565 498.832,232.381 499.088,226.748 499.343,232.381 499.598,232.381 499.853,221.115 500.108,226.748 500.363,223.932 500.618,226.748 500.873,226.748 501.128,221.115 501.383,226.748 501.638,223.932 501.893,221.115 502.149,221.115 502.404,221.115 502.659,221.115 502.914,223.932 503.169,226.748 503.424,223.932 503.679,223.932 503.934,226.748 504.189,229.565 504.444,226.748 504.699,223.932 504.954,229.565 505.21,226.748 505.465,223.932 505.72,223.932 505.975,221.115 506.23,223.932 506.485,221.115 506.74,226.748 506.995,221.115 507.25,221.115 507.505,215.482 507.76,226.748 508.016,221.115 508.271,221.115 508.526,232.381 508.781,226.748 509.036,226.748 509.291,223.932 509.546,229.565 509.801,226.748 510.056,232.381 510.311,226.748 510.566,221.115 510.821,232.381 511.077,221.115 511.332,226.748 511.587,221.115 511.842,221.115 512.097,223.932 512.352,215.482 512.607,223.932 512.862,215.482 513.117,215.482 513.372,221.115 513.627,221.115 513.882,226.748 514.138,223.932 514.393,223.932 514.648,221.115 514.903,232.381 515.158,229.565 515.413,232.381 515.668,232.381 515.923,232.381 516.178,226.748 516.433,223.932 516.688,226.748 516.944,221.115 517.199,221.115 517.454,215.482 517.709,215.482 517.964,215.482 518.219,215.482 518.474,223.932 518.729,215.482 518.984,221.115 519.239,223.932 519.494,226.748 519.749,232.381 520.005,232.381 520.26,235.198 520.515,232.381 520.77,238.015 521.025,232.381 521.28,232.381 521.535,232.381 521.726,232.381"
     inkscape:export-xdpi="120"
     inkscape:export-ydpi="120" />
  <polyline
     style="fill:none;stroke:#ff0000;stroke-width:2;shape-rendering:crispEdges;stroke-miterlimit:4.14620447;stroke-dasharray:none"
     id="polyline132"
     points="173.519,32.0479 173.598,32.1425 173.853,32.4451 174.108,32.7473 174.363,33.049 174.618,33.3503 174.874,33.6511 175.129,33.9515 175.384,34.2515 175.639,34.5511 175.894,34.8502 176.149,35.1489 176.404,35.4472 176.659,35.7451 176.914,36.0425 177.169,36.3394 177.424,36.636 177.68,36.9322 177.935,37.2279 178.19,37.5232 178.445,37.8181 178.7,38.1125 178.955,38.4066 179.21,38.7002 179.465,38.9934 179.72,39.2862 179.975,39.5786 180.23,39.8705 180.485,40.162 180.741,40.4531 180.996,40.7438 181.251,41.0341 181.506,41.3239 181.761,41.6134 182.016,41.9024 182.271,42.191 182.526,42.4792 182.781,42.767 183.036,43.0544 183.291,43.3414 183.547,43.6279 183.802,43.9141 184.057,44.1998 184.312,44.4851 184.567,44.7701 184.822,45.0546 185.077,45.3387 185.332,45.6224 185.587,45.9057 185.842,46.1885 186.097,46.471 186.352,46.7531 186.608,47.0348 186.863,47.3161 187.118,47.5969 187.373,47.8774 187.628,48.1575 187.883,48.4371 188.138,48.7164 188.393,48.9953 188.648,49.2737 188.903,49.5518 189.158,49.8295 189.413,50.1068 189.669,50.3837 189.924,50.6601 190.179,50.9362 190.434,51.2119 190.689,51.4872 190.944,51.7621 191.199,52.0366 191.454,52.3107 191.709,52.5845 191.964,52.8578 192.219,53.1307 192.474,53.4033 192.73,53.6755 192.985,53.9472 193.24,54.2186 193.495,54.4896 193.75,54.7603 194.005,55.0305 194.26,55.3003 194.515,55.5697 194.77,55.8388 195.025,56.1075 195.28,56.3758 195.535,56.6437 195.791,56.9112 196.046,57.1783 196.301,57.4451 196.556,57.7115 196.811,57.9775 197.066,58.2431 197.321,58.5084 197.576,58.7732 197.831,59.0377 198.086,59.3018 198.341,59.5655 198.597,59.8289 198.852,60.0919 199.107,60.3544 199.362,60.6166 199.617,60.8785 199.872,61.14 200.127,61.4011 200.382,61.6618 200.637,61.9221 200.892,62.1821 201.147,62.4417 201.402,62.7009 201.658,62.9598 201.913,63.2183 202.168,63.4764 202.423,63.7342 202.678,63.9916 202.933,64.2486 203.188,64.5052 203.443,64.7615 203.698,65.0174 203.953,65.2729 204.208,65.5281 204.464,65.783 204.719,66.0374 204.974,66.2915 205.229,66.5452 205.484,66.7986 205.739,67.0516 205.994,67.3042 206.249,67.5565 206.504,67.8084 206.759,68.06 207.014,68.3112 207.269,68.562 207.525,68.8125 207.78,69.0626 208.035,69.3124 208.29,69.5618 208.545,69.8108 208.8,70.0595 209.055,70.3078 209.31,70.5558 209.565,70.8034 209.82,71.0507 210.075,71.2976 210.331,71.5442 210.586,71.7904 210.841,72.0363 211.096,72.2817 211.351,72.5269 211.606,72.7717 211.861,73.0162 212.116,73.2603 212.371,73.504 212.626,73.7474 212.881,73.9905 213.136,74.2332 213.392,74.4756 213.647,74.7176 213.902,74.9593 214.157,75.2006 214.412,75.4416 214.667,75.6822 214.922,75.9225 215.177,76.1625 215.432,76.402 215.687,76.6413 215.942,76.8802 216.197,77.1188 216.452,77.3571 216.708,77.5949 216.963,77.8325 217.218,78.0697 217.473,78.3066 217.728,78.5431 217.983,78.7793 218.238,79.0152 218.493,79.2507 218.748,79.4859 219.003,79.7207 219.258,79.9553 219.514,80.1894 219.769,80.4233 220.024,80.6568 220.279,80.89 220.534,81.1228 220.789,81.3553 221.044,81.5875 221.299,81.8193 221.554,82.0508 221.809,82.282 222.064,82.5129 222.32,82.7434 222.575,82.9736 222.83,83.2034 223.085,83.433 223.34,83.6622 223.595,83.8911 223.85,84.1196 224.105,84.3478 224.36,84.5757 224.615,84.8033 224.87,85.0305 225.125,85.2574 225.381,85.484 225.636,85.7103 225.891,85.9362 226.146,86.1619 226.401,86.3871 226.656,86.6121 226.911,86.8368 227.166,87.0611 227.421,87.2852 227.676,87.5088 227.931,87.7322 228.187,87.9553 228.442,88.178 228.697,88.4004 228.952,88.6225 229.207,88.8443 229.462,89.0657 229.717,89.2869 229.972,89.5077 230.227,89.7282 230.482,89.9484 230.737,90.1683 230.992,90.3878 231.248,90.6071 231.503,90.826 231.758,91.0447 232.013,91.263 232.268,91.481 232.523,91.6987 232.778,91.916 233.033,92.1331 233.288,92.3499 233.543,92.5663 233.798,92.7825 234.053,92.9983 234.309,93.2138 234.564,93.429 234.819,93.6439 235.074,93.8585 235.329,94.0728 235.584,94.2868 235.839,94.5005 236.094,94.7138 236.349,94.9269 236.604,95.1396 236.859,95.3521 237.114,95.5643 237.37,95.7761 237.625,95.9876 237.88,96.1989 238.135,96.4098 238.39,96.6205 238.645,96.8308 238.9,97.0408 239.155,97.2506 239.41,97.46 239.665,97.6692 239.92,97.878 240.175,98.0865 240.431,98.2948 240.686,98.5027 240.941,98.7103 241.196,98.9177 241.451,99.1248 241.706,99.3315 241.961,99.538 242.216,99.7441 242.471,99.95 242.726,100.156 242.981,100.361 243.237,100.566 243.492,100.771 243.747,100.975 244.002,101.179 244.257,101.383 244.512,101.586 244.767,101.79 245.022,101.993 245.277,102.195 245.532,102.398 245.787,102.6 246.042,102.801 246.298,103.003 246.553,103.204 246.808,103.405 247.063,103.606 247.318,103.806 247.573,104.006 247.828,104.206 248.083,104.405 248.338,104.605 248.593,104.803 248.848,105.002 249.104,105.2 249.359,105.398 249.614,105.596 249.869,105.794 250.124,105.991 250.379,106.188 250.634,106.385 250.889,106.581 251.144,106.777 251.399,106.973 251.654,107.168 251.91,107.364 252.165,107.559 252.42,107.753 252.675,107.948 252.93,108.142 253.185,108.336 253.44,108.529 253.695,108.723 253.95,108.916 254.205,109.108 254.46,109.301 254.715,109.493 254.97,109.685 255.226,109.877 255.481,110.068 255.736,110.259 255.991,110.45 256.246,110.64 256.501,110.831 256.756,111.021 257.011,111.21 257.266,111.4 257.521,111.589 257.776,111.778 258.031,111.967 258.287,112.155 258.542,112.343 258.797,112.531 259.052,112.719 259.307,112.906 259.562,113.093 259.817,113.28 260.072,113.466 260.327,113.652 260.582,113.838 260.837,114.024 261.092,114.21 261.348,114.395 261.603,114.58 261.858,114.764 262.113,114.949 262.368,115.133 262.623,115.317 262.878,115.5 263.133,115.684 263.388,115.867 263.643,116.049 263.898,116.232 264.154,116.414 264.409,116.596 264.664,116.778 264.919,116.959 265.174,117.141 265.429,117.322 265.684,117.502 265.939,117.683 266.194,117.863 266.449,118.043 266.704,118.223 266.96,118.402 267.215,118.581 267.47,118.76 267.725,118.939 267.98,119.117 268.235,119.295 268.49,119.473 268.745,119.651 269,119.828 269.255,120.006 269.51,120.182 269.765,120.359 270.021,120.535 270.276,120.712 270.531,120.887 270.786,121.063 271.041,121.238 271.296,121.414 271.551,121.588 271.806,121.763 272.061,121.937 272.316,122.112 272.571,122.285 272.827,122.459 273.082,122.632 273.337,122.805 273.592,122.978 273.847,123.151 274.102,123.323 274.357,123.496 274.612,123.667 274.867,123.839 275.122,124.01 275.377,124.182 275.632,124.352 275.888,124.523 276.143,124.694 276.398,124.864 276.653,125.034 276.908,125.203 277.163,125.373 277.418,125.542 277.673,125.711 277.928,125.88 278.183,126.048 278.438,126.216 278.693,126.384 278.949,126.552 279.204,126.72 279.459,126.887 279.714,127.054 279.969,127.221 280.224,127.387 280.479,127.554 280.734,127.72 280.989,127.886 281.244,128.051 281.499,128.217 281.754,128.382 282.01,128.547 282.265,128.711 282.52,128.876 282.775,129.04 283.03,129.204 283.285,129.368 283.54,129.531 283.795,129.694 284.05,129.857 284.305,130.02 284.56,130.183 284.815,130.345 285.071,130.507 285.326,130.669 285.581,130.831 285.836,130.992 286.091,131.153 286.346,131.314 286.601,131.475 286.856,131.635 287.111,131.796 287.366,131.956 287.621,132.115 287.877,132.275 288.132,132.434 288.387,132.593 288.642,132.752 288.897,132.911 289.152,133.069 289.407,133.227 289.662,133.385 289.917,133.543 290.172,133.701 290.427,133.858 290.682,134.015 290.938,134.172 291.193,134.328 291.448,134.485 291.703,134.641 291.958,134.797 292.213,134.953 292.468,135.108 292.723,135.263 292.978,135.419 293.233,135.573 293.488,135.728 293.744,135.882 293.999,136.037 294.254,136.19 294.509,136.344 294.764,136.498 295.019,136.651 295.274,136.804 295.529,136.957 295.784,137.11 296.039,137.262 296.294,137.414 296.549,137.566 296.805,137.718 297.06,137.869 297.315,138.021 297.57,138.172 297.825,138.323 298.08,138.473 298.335,138.624 298.59,138.774 298.845,138.924 299.1,139.074 299.355,139.224 299.61,139.373 299.866,139.522 300.121,139.671 300.376,139.82 300.631,139.968 300.886,140.117 301.141,140.265 301.396,140.413 301.651,140.56 301.906,140.708 302.161,140.855 302.416,141.002 302.672,141.149 302.927,141.296 303.182,141.442 303.437,141.588 303.692,141.734 303.947,141.88 304.202,142.026 304.457,142.171 304.712,142.316 304.967,142.461 305.222,142.606 305.477,142.751 305.733,142.895 305.988,143.039 306.243,143.183 306.498,143.327 306.753,143.47 307.008,143.614 307.263,143.757 307.518,143.9 307.773,144.042 308.028,144.185 308.283,144.327 308.538,144.469 308.794,144.611 309.049,144.753 309.304,144.894 309.559,145.035 309.814,145.177 310.069,145.317 310.324,145.458 310.579,145.599 310.834,145.739 311.089,145.879 311.344,146.019 311.6,146.158 311.855,146.298 312.11,146.437 312.365,146.576 312.62,146.715 312.875,146.854 313.13,146.992 313.385,147.131 313.64,147.269 313.895,147.406 314.15,147.544 314.405,147.682 314.661,147.819 314.916,147.956 315.171,148.093 315.426,148.23 315.681,148.366 315.936,148.502 316.191,148.639 316.446,148.774 316.701,148.91 316.956,149.046 317.211,149.181 317.466,149.316 317.722,149.451 317.977,149.586 318.232,149.72 318.487,149.855 318.742,149.989 318.997,150.123 319.252,150.257 319.507,150.39 319.762,150.524 320.017,150.657 320.272,150.79 320.527,150.923 320.783,151.056 321.038,151.188 321.293,151.32 321.548,151.452 321.803,151.584 322.058,151.716 322.313,151.848 322.568,151.979 322.823,152.11 323.078,152.241 323.333,152.372 323.589,152.502 323.844,152.633 324.099,152.763 324.354,152.893 324.609,153.023 324.864,153.152 325.119,153.282 325.374,153.411 325.629,153.54 325.884,153.669 326.139,153.798 326.394,153.926 326.65,154.055 326.905,154.183 327.16,154.311 327.415,154.439 327.67,154.566 327.925,154.694 328.18,154.821 328.435,154.948 328.69,155.075 328.945,155.202 329.2,155.328 329.456,155.455 329.711,155.581 329.966,155.707 330.221,155.833 330.476,155.958 330.731,156.084 330.986,156.209 331.241,156.334 331.496,156.459 331.751,156.584 332.006,156.708 332.261,156.833 332.517,156.957 332.772,157.081 333.027,157.205 333.282,157.328 333.537,157.452 333.792,157.575 334.047,157.698 334.302,157.821 334.557,157.944 334.812,158.067 335.067,158.189 335.322,158.311 335.578,158.433 335.833,158.555 336.088,158.677 336.343,158.799 336.598,158.92 336.853,159.041 337.108,159.162 337.363,159.283 337.618,159.404 337.873,159.524 338.128,159.645 338.384,159.765 338.639,159.885 338.894,160.005 339.149,160.124 339.404,160.244 339.659,160.363 339.914,160.482 340.169,160.601 340.424,160.72 340.679,160.839 340.934,160.957 341.189,161.075 341.445,161.194 341.7,161.311 341.955,161.429 342.21,161.547 342.465,161.664 342.72,161.782 342.975,161.899 343.23,162.016 343.485,162.133 343.74,162.249 343.995,162.366 344.25,162.482 344.506,162.598 344.761,162.714 345.016,162.83 345.271,162.945 345.526,163.061 345.781,163.176 346.036,163.291 346.291,163.406 346.546,163.521 346.801,163.636 347.056,163.75 347.312,163.864 347.567,163.978 347.822,164.092 348.077,164.206 348.332,164.32 348.587,164.433 348.842,164.547 349.097,164.66 349.352,164.773 349.607,164.886 349.862,164.998 350.117,165.111 350.373,165.223 350.628,165.335 350.883,165.448 351.138,165.559 351.393,165.671 351.648,165.783 351.903,165.894 352.158,166.005 352.413,166.116 352.668,166.227 352.923,166.338 353.178,166.449 353.434,166.559 353.689,166.669 353.944,166.779 354.199,166.889 354.454,166.999 354.709,167.109 354.964,167.218 355.219,167.328 355.474,167.437 355.729,167.546 355.984,167.655 356.24,167.764 356.495,167.872 356.75,167.98 357.005,168.089 357.26,168.197 357.515,168.305 357.77,168.413 358.025,168.52 358.28,168.628 358.535,168.735 358.79,168.842 359.045,168.949 359.301,169.056 359.556,169.163 359.811,169.269 360.066,169.376 360.321,169.482 360.576,169.588 360.831,169.694 361.086,169.8 361.341,169.905 361.596,170.011 361.851,170.116 362.107,170.221 362.362,170.327 362.617,170.431 362.872,170.536 363.127,170.641 363.382,170.745 363.637,170.85 363.892,170.954 364.147,171.058 364.402,171.161 364.657,171.265 364.912,171.369 365.167,171.472 365.423,171.575 365.678,171.679 365.933,171.781 366.188,171.884 366.443,171.987 366.698,172.089 366.953,172.192 367.208,172.294 367.463,172.396 367.718,172.498 367.973,172.6 368.229,172.702 368.484,172.803 368.739,172.904 368.994,173.006 369.249,173.107 369.504,173.208 369.759,173.308 370.014,173.409 370.269,173.509 370.524,173.61 370.779,173.71 371.035,173.81 371.29,173.91 371.545,174.01 371.8,174.109 372.055,174.209 372.31,174.308 372.565,174.407 372.82,174.506 373.075,174.605 373.33,174.704 373.585,174.803 373.84,174.901 374.096,175 374.351,175.098 374.606,175.196 374.861,175.294 375.116,175.392 375.371,175.489 375.626,175.587 375.881,175.684 376.136,175.781 376.391,175.878 376.646,175.975 376.901,176.072 377.157,176.169 377.412,176.265 377.667,176.362 377.922,176.458 378.177,176.554 378.432,176.65 378.687,176.746 378.942,176.842 379.197,176.937 379.452,177.033 379.707,177.128 379.962,177.223 380.218,177.318 380.473,177.413 380.728,177.508 380.983,177.602 381.238,177.697 381.493,177.791 381.748,177.885 382.003,177.98 382.258,178.073 382.513,178.167 382.768,178.261 383.023,178.355 383.279,178.448 383.534,178.541 383.789,178.634 384.044,178.727 384.299,178.82 384.554,178.913 384.809,179.006 385.064,179.098 385.319,179.19 385.574,179.283 385.829,179.375 386.085,179.467 386.34,179.558 386.595,179.65 386.85,179.742 387.105,179.833 387.36,179.924 387.615,180.016 387.87,180.107 388.125,180.198 388.38,180.288 388.635,180.379 388.89,180.469 389.146,180.56 389.401,180.65 389.656,180.74 389.911,180.83 390.166,180.92 390.421,181.01 390.676,181.099 390.931,181.189 391.186,181.278 391.441,181.367 391.696,181.457 391.952,181.546 392.207,181.634 392.462,181.723 392.717,181.812 392.972,181.9 393.227,181.988 393.482,182.077 393.737,182.165 393.992,182.253 394.247,182.341 394.502,182.428 394.758,182.516 395.013,182.603 395.268,182.691 395.523,182.778 395.778,182.865 396.033,182.952 396.288,183.039 396.543,183.125 396.798,183.212 397.053,183.298 397.308,183.385 397.563,183.471 397.819,183.557 398.074,183.643 398.329,183.729 398.584,183.815 398.839,183.9 399.094,183.986 399.349,184.071 399.604,184.156 399.859,184.241 400.114,184.326 400.369,184.411 400.624,184.496 400.88,184.581 401.135,184.665 401.39,184.749 401.645,184.834 401.9,184.918 402.155,185.002 402.41,185.086 402.665,185.17 402.92,185.253 403.175,185.337 403.43,185.42 403.685,185.504 403.94,185.587 404.196,185.67 404.451,185.753 404.706,185.836 404.961,185.918 405.216,186.001 405.471,186.083 405.726,186.166 405.981,186.248 406.236,186.33 406.491,186.412 406.746,186.494 407.002,186.576 407.257,186.657 407.512,186.739 407.767,186.82 408.022,186.902 408.277,186.983 408.532,187.064 408.787,187.145 409.042,187.226 409.297,187.306 409.552,187.387 409.807,187.467 410.063,187.548 410.318,187.628 410.573,187.708 410.828,187.788 411.083,187.868 411.338,187.948 411.593,188.028 411.848,188.107 412.103,188.187 412.358,188.266 412.613,188.345 412.869,188.424 413.124,188.503 413.379,188.582 413.634,188.661 413.889,188.74 414.144,188.818 414.399,188.897 414.654,188.975 414.909,189.053 415.164,189.131 415.419,189.209 415.675,189.287 415.93,189.365 416.185,189.443 416.44,189.52 416.695,189.598 416.95,189.675 417.205,189.752 417.46,189.829 417.715,189.906 417.97,189.983 418.225,190.06 418.48,190.136 418.736,190.213 418.991,190.289 419.246,190.366 419.501,190.442 419.756,190.518 420.011,190.594 420.266,190.67 420.521,190.746 420.776,190.822 421.031,190.897 421.286,190.973 421.542,191.048 421.797,191.123 422.052,191.198 422.307,191.273 422.562,191.348 422.817,191.423 423.072,191.498 423.327,191.572 423.582,191.647 423.837,191.721 424.092,191.796 424.347,191.87 424.602,191.944 424.858,192.018 425.113,192.092 425.368,192.165 425.623,192.239 425.878,192.313 426.133,192.386 426.388,192.459 426.643,192.533 426.898,192.606 427.153,192.679 427.408,192.752 427.664,192.824 427.919,192.897 428.174,192.97 428.429,193.042 428.684,193.115 428.939,193.187 429.194,193.259 429.449,193.331 429.704,193.403 429.959,193.475 430.214,193.547 430.469,193.619 430.725,193.69 430.98,193.762 431.235,193.833 431.49,193.904 431.745,193.975 432,194.046 432.255,194.117 432.51,194.188 432.765,194.259 433.02,194.33 433.275,194.4 433.531,194.471 433.786,194.541 434.041,194.611 434.296,194.681 434.551,194.752 434.806,194.821 435.061,194.891 435.316,194.961 435.571,195.031 435.826,195.1 436.081,195.17 436.336,195.239 436.592,195.308 436.847,195.378 437.102,195.447 437.357,195.516 437.612,195.584 437.867,195.653 438.122,195.722 438.377,195.79 438.632,195.859 438.887,195.927 439.142,195.995 439.398,196.064 439.653,196.132 439.908,196.2 440.163,196.268 440.418,196.335 440.673,196.403 440.928,196.471 441.183,196.538 441.438,196.605 441.693,196.673 441.948,196.74 442.203,196.807 442.458,196.874 442.714,196.941 442.969,197.008 443.224,197.075 443.479,197.141 443.734,197.208 443.989,197.274 444.244,197.341 444.499,197.407 444.754,197.473 445.009,197.539 445.264,197.605 445.52,197.671 445.775,197.737 446.03,197.802 446.285,197.868 446.54,197.933 446.795,197.999 447.05,198.064 447.305,198.129 447.56,198.194 447.815,198.259 448.07,198.324 448.325,198.389 448.581,198.454 448.836,198.519 449.091,198.583 449.346,198.648 449.601,198.712 449.856,198.776 450.111,198.84 450.366,198.905 450.621,198.969 450.876,199.032 451.131,199.096 451.386,199.16 451.642,199.224 451.897,199.287 452.152,199.351 452.407,199.414 452.662,199.477 452.917,199.541 453.172,199.604 453.427,199.667 453.682,199.73 453.937,199.792 454.192,199.855 454.448,199.918 454.703,199.98 454.958,200.043 455.213,200.105 455.468,200.167 455.723,200.23 455.978,200.292 456.233,200.354 456.488,200.416 456.743,200.478 456.998,200.539 457.254,200.601 457.509,200.663 457.764,200.724 458.019,200.786 458.274,200.847 458.529,200.908 458.784,200.969 459.039,201.03 459.294,201.091 459.549,201.152 459.804,201.213 460.059,201.274 460.315,201.334 460.57,201.395 460.825,201.455 461.08,201.516 461.335,201.576 461.59,201.636 461.845,201.696 462.1,201.756 462.355,201.816 462.61,201.876 462.865,201.936 463.12,201.995 463.376,202.055 463.631,202.114 463.886,202.174 464.141,202.233 464.396,202.292 464.651,202.352 464.906,202.411 465.161,202.47 465.416,202.529 465.671,202.587 465.926,202.646 466.181,202.705 466.437,202.763 466.692,202.822 466.947,202.88 467.202,202.939 467.457,202.997 467.712,203.055 467.967,203.113 468.222,203.171 468.477,203.229 468.732,203.287 468.987,203.345 469.242,203.402 469.498,203.46 469.753,203.517 470.008,203.575 470.263,203.632 470.518,203.689 470.773,203.746 471.028,203.804 471.283,203.861 471.538,203.917 471.793,203.974 472.048,204.031 472.304,204.088 472.559,204.144 472.814,204.201 473.069,204.257 473.324,204.314 473.579,204.37 473.834,204.426 474.089,204.482 474.344,204.538 474.599,204.594 474.854,204.65 475.109,204.706 475.365,204.762 475.62,204.817 475.875,204.873 476.13,204.928 476.385,204.984 476.64,205.039 476.895,205.094 477.15,205.149 477.405,205.204 477.66,205.259 477.915,205.314 478.171,205.369 478.426,205.424 478.681,205.479 478.936,205.533 479.191,205.588 479.446,205.642 479.701,205.697 479.956,205.751 480.211,205.805 480.466,205.859 480.721,205.913 480.976,205.967 481.232,206.021 481.487,206.075 481.742,206.129 481.997,206.182 482.252,206.236 482.507,206.289 482.762,206.343 483.017,206.396 483.272,206.45 483.527,206.503 483.782,206.556 484.038,206.609 484.293,206.662 484.548,206.715 484.803,206.768 485.058,206.82 485.313,206.873 485.568,206.926 485.823,206.978 486.078,207.031 486.333,207.083 486.588,207.135 486.843,207.188 487.099,207.24 487.354,207.292 487.609,207.344 487.864,207.396 488.119,207.448 488.374,207.5 488.629,207.551 488.884,207.603 489.139,207.654 489.394,207.706 489.649,207.757 489.904,207.809 490.159,207.86 490.415,207.911 490.67,207.962 490.925,208.013 491.18,208.064 491.435,208.115 491.69,208.166 491.945,208.217 492.2,208.268 492.455,208.318 492.71,208.369 492.965,208.419 493.221,208.47 493.476,208.52 493.731,208.57 493.986,208.62 494.241,208.67 494.496,208.72 494.751,208.77 495.006,208.82 495.261,208.87 495.516,208.92 495.771,208.97 496.026,209.019 496.282,209.069 496.537,209.118 496.792,209.168 497.047,209.217 497.302,209.266 497.557,209.315 497.812,209.365 498.067,209.414 498.322,209.463 498.577,209.511 498.832,209.56 499.088,209.609 499.343,209.658 499.598,209.706 499.853,209.755 500.108,209.803 500.363,209.852 500.618,209.9 500.873,209.948 501.128,209.997 501.383,210.045 501.638,210.093 501.893,210.141 502.149,210.189 502.404,210.237 502.659,210.284 502.914,210.332 503.169,210.38 503.424,210.427 503.679,210.475 503.934,210.522 504.189,210.57 504.444,210.617 504.699,210.664 504.954,210.712 505.21,210.759 505.465,210.806 505.72,210.853 505.975,210.9 506.23,210.947 506.485,210.993 506.74,211.04 506.995,211.087 507.25,211.133 507.505,211.18 507.76,211.226 508.016,211.273 508.271,211.319 508.526,211.365 508.781,211.411 509.036,211.457 509.291,211.504 509.546,211.549 509.801,211.595 510.056,211.641 510.311,211.687 510.566,211.733 510.821,211.778 511.077,211.824 511.332,211.87 511.587,211.915 511.842,211.96 512.097,212.006 512.352,212.051 512.607,212.096 512.862,212.141 513.117,212.186 513.372,212.231 513.627,212.276 513.882,212.321 514.138,212.366 514.393,212.411 514.648,212.456 514.903,212.5 515.158,212.545 515.413,212.589 515.668,212.634 515.923,212.678 516.178,212.722 516.433,212.767 516.688,212.811 516.944,212.855 517.199,212.899 517.454,212.943 517.709,212.987 517.964,213.031 518.219,213.074 518.474,213.118 518.729,213.162 518.984,213.206 519.239,213.249 519.494,213.293 519.749,213.336 520.005,213.379 520.26,213.423 520.515,213.466 520.77,213.509 521.025,213.552 521.28,213.595 521.535,213.638 521.726,213.67"
     inkscape:export-xdpi="120"
     inkscape:export-ydpi="120" />
  <polygon
     style="fill:#ffffff;shape-rendering:crispEdges;stroke-width:2;stroke-miterlimit:4.14620447;stroke-dasharray:none"
     id="polygon134"
     points="518.534,67.3803 518.534,67.3803 518.534,35.1458 "
     inkscape:export-xdpi="120"
     inkscape:export-ydpi="120" />
  <polygon
     style="fill:#ffffff;shape-rendering:crispEdges;stroke-width:2;stroke-miterlimit:4.14620447;stroke-dasharray:none"
     id="polygon136"
     points="518.534,67.3803 518.534,35.1458 518.534,35.1458 "
     inkscape:export-xdpi="120"
     inkscape:export-ydpi="120" />
  <polygon
     style="fill:#ffffff;shape-rendering:crispEdges;stroke-width:2;stroke-miterlimit:4.14620447;stroke-dasharray:none"
     id="polygon138"
     points="366.275,35.1458 366.275,35.1458 518.534,35.1458 "
     inkscape:export-xdpi="120"
     inkscape:export-ydpi="120" />
  <polygon
     style="fill:#ffffff;shape-rendering:crispEdges;stroke-width:2;stroke-miterlimit:4.14620447;stroke-dasharray:none"
     id="polygon140"
     points="366.275,35.1458 518.534,35.1458 518.534,35.1458 "
     inkscape:export-xdpi="120"
     inkscape:export-ydpi="120" />
  <polygon
     style="fill:#ffffff;shape-rendering:crispEdges;stroke-width:2;stroke-miterlimit:4.14620447;stroke-dasharray:none"
     id="polygon142"
     points="366.275,67.3803 518.534,67.3803 366.275,35.1458 "
     transform="translate(-53.542373,4.3474576)"
     inkscape:export-xdpi="120"
     inkscape:export-ydpi="120" />
  <polygon
     style="fill:#ffffff;shape-rendering:crispEdges;stroke-width:2;stroke-miterlimit:4.14620447;stroke-dasharray:none"
     id="polygon144"
     points="366.275,35.1458 518.534,67.3803 518.534,35.1458 "
     inkscape:export-xdpi="120"
     inkscape:export-ydpi="120" />
  <polyline
     style="fill:none;stroke:#000000;stroke-width:2;stroke-dasharray:none;shape-rendering:crispEdges;stroke-miterlimit:4.14620447"
     id="polyline162"
     points="518.534,35.1458 518.534,35.1458"
     inkscape:export-xdpi="120"
     inkscape:export-ydpi="120" />
  <polyline
     style="fill:none;stroke:#000000;stroke-width:2;stroke-dasharray:none;shape-rendering:crispEdges;stroke-miterlimit:4.14620447"
     id="polyline164"
     points="518.534,67.3803 518.534,67.3803"
     inkscape:export-xdpi="120"
     inkscape:export-ydpi="120" />
  <polyline
     style="fill:none;stroke:#000000;stroke-width:2;stroke-dasharray:none;shape-rendering:crispEdges;stroke-miterlimit:4.14620447"
     id="polyline166"
     points="366.275,67.3803 366.275,67.3803"
     inkscape:export-xdpi="120"
     inkscape:export-ydpi="120" />
  <g
     id="g4428"
     transform="translate(35.237288,0.45762712)"
     style="stroke-width:2;stroke-miterlimit:4.14620447;stroke-dasharray:none"
     inkscape:export-xdpi="120"
     inkscape:export-ydpi="120">
    <text
       x="267.4278"
       y="42.746773"
       font-size="10"
       baseline-shift="-5"
       id="text168"
       style="font-style:normal;font-variant:normal;font-weight:normal;font-stretch:normal;font-size:17.5px;font-family:sans-serif;-inkscape-font-specification:sans-serif;baseline-shift:-5px;text-anchor:start;fill:#000000;shape-rendering:crispEdges;stroke-width:2;stroke-miterlimit:4.14620447;stroke-dasharray:none">Signal expérimental</text>
    <text
       x="267.4278"
       y="58.864075"
       font-size="10"
       baseline-shift="-5"
       id="text170"
       style="font-style:normal;font-variant:normal;font-weight:normal;font-stretch:normal;font-size:17.5px;font-family:sans-serif;-inkscape-font-specification:sans-serif;baseline-shift:-5px;text-anchor:start;fill:#000000;shape-rendering:crispEdges;stroke-width:2;stroke-miterlimit:4.14620447;stroke-dasharray:none">Régression exponentielle</text>
    <polyline
       transform="translate(-124.9322,-0.45762712)"
       points="369.02,43.2044 389.614,43.2044"
       id="polyline172"
       style="fill:none;stroke:#0000ff;stroke-width:2;shape-rendering:crispEdges;stroke-miterlimit:4.14620447;stroke-dasharray:none" />
    <polyline
       transform="translate(-124.9322,-0.45762712)"
       points="369.02,59.3217 389.614,59.3217"
       id="polyline174"
       style="fill:none;stroke:#ff0000;stroke-width:2;shape-rendering:crispEdges;stroke-miterlimit:4.14620447;stroke-dasharray:none" />
  </g>
  <text
     xml:space="preserve"
     style="font-style:normal;font-variant:normal;font-weight:bold;font-stretch:normal;font-size:40px;line-height:125%;font-family:Sans;-inkscape-font-specification:'Sans Bold';text-align:start;letter-spacing:0px;word-spacing:0px;writing-mode:lr-tb;text-anchor:start;fill:#000000;fill-opacity:1;stroke:none;stroke-width:2;stroke-linecap:butt;stroke-linejoin:miter;stroke-opacity:1;stroke-miterlimit:4.14620447;stroke-dasharray:none"
     x="278.2373"
     y="361.52542"
     id="text4390"
     sodipodi:linespacing="125%"
     inkscape:export-xdpi="120"
     inkscape:export-ydpi="120"><tspan
       sodipodi:role="line"
       id="tspan4392"
       x="278.2373"
       y="361.52542"> </tspan></text>
  <text
     xml:space="preserve"
     style="font-style:normal;font-variant:normal;font-weight:normal;font-stretch:normal;font-size:17.5px;line-height:125%;font-family:sans-serif;-inkscape-font-specification:sans-serif;text-align:start;letter-spacing:0px;word-spacing:0px;writing-mode:lr-tb;text-anchor:start;fill:#000000;fill-opacity:1;stroke:none;stroke-width:2;stroke-linecap:butt;stroke-linejoin:miter;stroke-opacity:1;stroke-miterlimit:4.14620447;stroke-dasharray:none"
     x="215.08475"
     y="421.01697"
     id="text4394"
     sodipodi:linespacing="125%"
     inkscape:export-xdpi="120"
     inkscape:export-ydpi="120"><tspan
       sodipodi:role="line"
       id="tspan4396"
       x="215.08475"
       y="421.01697">Temps (en    s)</tspan></text>
  <path
     id="path4462"
     d="m 318.93373,413.35133 0.01,-0.0483 0.01,-0.0532 0.0145,-0.0532 0.0145,-0.0532 0.0145,-0.058 0.0145,-0.058 0.029,-0.11593 0.0289,-0.12076 0.0289,-0.12076 0.029,-0.11593 0.0289,-0.12076 0.01,-0.0532 0.0145,-0.058 0.0145,-0.0532 0.01,-0.0532 0.0145,-0.0483 0.01,-0.0483 0.01,-0.0483 0.01,-0.0387 0.01,-0.0435 0.005,-0.0338 0.01,-0.0338 0.005,-0.0338 0.005,-0.0241 0,-0.0241 0.005,-0.0145 0,-0.01 0,-0.005 c 10e-6,-0.40575 -0.28498,-0.64726 -0.69556,-0.64726 -0.0725,0 -0.74389,0.0193 -0.96608,0.8598 l -3.4634,13.94051 c -0.0676,0.28499 -0.0676,0.32846 -0.0676,0.3816 0,0.35745 0.26567,0.6521 0.67142,0.6521 0.5072,0 0.79219,-0.43956 0.84532,-0.50718 0.0918,-0.21737 0.40575,-1.47327 1.3187,-5.17819 0.77286,0.64727 1.85004,0.74872 2.33308,0.74872 1.6858,0 2.62773,-1.08201 3.20255,-1.75827 0.21736,1.08684 1.10616,1.75827 2.16401,1.75827 0.84532,0 1.39599,-0.55067 1.78241,-1.32353 0.40576,-0.86464 0.72456,-2.33792 0.72456,-2.38138 0,-0.24153 -0.21737,-0.24153 -0.28499,-0.24153 -0.24152,0 -0.26567,0.0966 -0.34296,0.43474 -0.40575,1.56504 -0.84532,2.98035 -1.82589,2.98035 -0.64727,0 -0.72455,-0.62312 -0.72455,-1.10616 0,-0.53134 0.28982,-1.66166 0.48303,-2.49731 l 0.67143,-2.60841 c 0.0773,-0.36228 0.30914,-1.27523 0.41058,-1.63751 0.12076,-0.55066 0.36228,-1.4636 0.36228,-1.60368 0,-0.43957 -0.34296,-0.65211 -0.69557,-0.65211 -0.12076,0 -0.74872,0.0241 -0.94193,0.84049 l -1.13514,4.50192 c -0.28499,1.20277 -0.55067,2.21232 -0.62795,2.45384 -0.0193,0.12076 -1.17379,2.30893 -3.12044,2.30893 -1.20276,0 -1.78241,-0.79218 -1.78241,-2.08673 0,-0.70524 0.16423,-1.37666 0.33812,-2.05292 z"
     inkscape:connector-curvature="0"
     style="font-style:normal;font-variant:normal;font-weight:normal;font-stretch:normal;letter-spacing:normal;word-spacing:normal;text-anchor:start;fill:#000000;fill-opacity:1;fill-rule:evenodd;stroke:none;stroke-width:2;stroke-linecap:butt;stroke-linejoin:miter;stroke-miterlimit:4.14620447;stroke-dasharray:none;stroke-dashoffset:0;stroke-opacity:1"
     inkscape:export-xdpi="120"
     inkscape:export-ydpi="120" />
</svg>
