<?xml version="1.0" encoding="UTF-8" standalone="no"?>
<!-- Created with Inkscape (http://www.inkscape.org/) -->

<svg
   xmlns:dc="http://purl.org/dc/elements/1.1/"
   xmlns:cc="http://creativecommons.org/ns#"
   xmlns:rdf="http://www.w3.org/1999/02/22-rdf-syntax-ns#"
   xmlns:svg="http://www.w3.org/2000/svg"
   xmlns="http://www.w3.org/2000/svg"
   xmlns:sodipodi="http://sodipodi.sourceforge.net/DTD/sodipodi-0.dtd"
   xmlns:inkscape="http://www.inkscape.org/namespaces/inkscape"
   width="297mm"
   height="210mm"
   viewBox="0 0 1052.3622 744.09448"
   id="svg2"
   version="1.1"
   inkscape:version="0.91 r13725"
   sodipodi:docname="dessin.svg"
   inkscape:export-filename="/home/alice/Documents/Etudes/SPI_M2_S1/US_CND/cr_cnd/ondes_volumes/notations/dessin.png"
   inkscape:export-xdpi="120"
   inkscape:export-ydpi="120">
  <sodipodi:namedview
     id="base"
     pagecolor="#ffffff"
     bordercolor="#666666"
     borderopacity="1.0"
     inkscape:pageopacity="0.0"
     inkscape:pageshadow="2"
     inkscape:zoom="0.49497475"
     inkscape:cx="5.0787544"
     inkscape:cy="442.97277"
     inkscape:document-units="px"
     inkscape:current-layer="layer1"
     showgrid="false"
     showguides="true"
     inkscape:guide-bbox="true"
     inkscape:window-width="1366"
     inkscape:window-height="718"
     inkscape:window-x="0"
     inkscape:window-y="24"
     inkscape:window-maximized="1">
    <sodipodi:guide
       id="guide4136"
       orientation="0,1"
       position="497.14287,391.93919" />
    <sodipodi:guide
       id="guide4138"
       orientation="0,1"
       position="501.42858,224.28571" />
    <sodipodi:guide
       id="guide4140"
       orientation="1,0"
       position="428.30469,595.99" />
    <sodipodi:guide
       id="guide4142"
       orientation="1,0"
       position="588.57144,435" />
  </sodipodi:namedview>
  <defs
     id="defs4">
    <marker
       inkscape:stockid="Arrow1Mend"
       orient="auto"
       refY="0.0"
       refX="0.0"
       id="marker4612"
       style="overflow:visible;"
       inkscape:isstock="true">
      <path
         id="path4614"
         d="M 0.0,0.0 L 5.0,-5.0 L -12.5,0.0 L 5.0,5.0 L 0.0,0.0 z "
         style="fill-rule:evenodd;stroke:#008000;stroke-width:1pt;stroke-opacity:1;fill:#008000;fill-opacity:1"
         transform="scale(0.4) rotate(180) translate(10,0)" />
    </marker>
    <marker
       inkscape:stockid="Arrow1Mend"
       orient="auto"
       refY="0.0"
       refX="0.0"
       id="Arrow1Mend"
       style="overflow:visible;"
       inkscape:isstock="true">
      <path
         id="path4321"
         d="M 0.0,0.0 L 5.0,-5.0 L -12.5,0.0 L 5.0,5.0 L 0.0,0.0 z "
         style="fill-rule:evenodd;stroke:#ff0000;stroke-width:1pt;stroke-opacity:1;fill:#ff0000;fill-opacity:1"
         transform="scale(0.4) rotate(180) translate(10,0)" />
    </marker>
    <marker
       inkscape:stockid="Arrow2Lend"
       orient="auto"
       refY="0.0"
       refX="0.0"
       id="marker4286"
       style="overflow:visible;"
       inkscape:isstock="true">
      <path
         id="path4288"
         style="fill-rule:evenodd;stroke-width:0.625;stroke-linejoin:round;stroke:#ff0000;stroke-opacity:1;fill:#ff0000;fill-opacity:1"
         d="M 8.7185878,4.0337352 L -2.2072895,0.016013256 L 8.7185884,-4.0017078 C 6.9730900,-1.6296469 6.9831476,1.6157441 8.7185878,4.0337352 z "
         transform="scale(1.1) rotate(180) translate(1,0)" />
    </marker>
    <marker
       inkscape:stockid="Arrow1Send"
       orient="auto"
       refY="0.0"
       refX="0.0"
       id="Arrow1Send"
       style="overflow:visible;"
       inkscape:isstock="true">
      <path
         id="path4424"
         d="M 0.0,0.0 L 5.0,-5.0 L -12.5,0.0 L 5.0,5.0 L 0.0,0.0 z "
         style="fill-rule:evenodd;stroke:#ff0000;stroke-width:1pt;stroke-opacity:1;fill:#ff0000;fill-opacity:1"
         transform="scale(0.2) rotate(180) translate(6,0)" />
    </marker>
  </defs>
  <metadata
     id="metadata7">
    <rdf:RDF>
      <cc:Work
         rdf:about="">
        <dc:format>image/svg+xml</dc:format>
        <dc:type
           rdf:resource="http://purl.org/dc/dcmitype/StillImage" />
        <dc:title />
      </cc:Work>
    </rdf:RDF>
  </metadata>
  <g
     transform="translate(0,-308.26772)"
     id="layer1"
     inkscape:groupmode="layer"
     inkscape:label="Calque 1">
    <path
       style="fill:none;fill-rule:evenodd;stroke:#000000;stroke-width:3.75;stroke-linecap:butt;stroke-linejoin:miter;stroke-miterlimit:4;stroke-dasharray:none;stroke-opacity:1"
       d="m 315.71429,827.56587 451.42857,0"
       id="path4146"
       inkscape:connector-curvature="0"
       inkscape:export-xdpi="120"
       inkscape:export-ydpi="120" />
    <g
       style="stroke-width:3.75;stroke-miterlimit:4;stroke-dasharray:none"
       id="g4223"
       inkscape:export-xdpi="120"
       inkscape:export-ydpi="120">
      <path
         style="fill:none;fill-rule:evenodd;stroke:#000000;stroke-width:3.75;stroke-linecap:butt;stroke-linejoin:miter;stroke-opacity:1;stroke-miterlimit:4;stroke-dasharray:none"
         d="m 315.71429,660.42301 451.42857,0"
         id="path4144"
         inkscape:connector-curvature="0" />
      <g
         style="stroke-width:3.75;stroke-miterlimit:4;stroke-dasharray:none"
         id="g4168"
         transform="translate(130.62763,13.448876)">
        <path
           inkscape:connector-curvature="0"
           id="path4154"
           d="m 557.14286,496.64792 28.57143,-35.71429"
           style="fill:none;fill-rule:evenodd;stroke:#000000;stroke-width:3.75;stroke-linecap:butt;stroke-linejoin:miter;stroke-opacity:1;stroke-miterlimit:4;stroke-dasharray:none" />
        <path
           style="fill:none;fill-rule:evenodd;stroke:#000000;stroke-width:3.75;stroke-linecap:butt;stroke-linejoin:miter;stroke-opacity:1;stroke-miterlimit:4;stroke-dasharray:none"
           d="M 600,538.07649 628.57143,502.3622"
           id="path4156"
           inkscape:connector-curvature="0" />
        <path
           inkscape:connector-curvature="0"
           id="path4158"
           d="m 585.17857,461.29077 42.85715,41.25"
           style="fill:none;fill-rule:evenodd;stroke:#000000;stroke-width:3.75;stroke-linecap:butt;stroke-linejoin:miter;stroke-opacity:1;stroke-miterlimit:4;stroke-dasharray:none" />
      </g>
      <g
         style="stroke-width:3.75;stroke-miterlimit:4;stroke-dasharray:none"
         id="g4201">
        <path
           inkscape:connector-curvature="0"
           id="path4166"
           d="m 428.30468,482.13109 0,178.29192"
           style="fill:none;fill-rule:evenodd;stroke:#000000;stroke-width:3.75;stroke-linecap:butt;stroke-linejoin:miter;stroke-opacity:1;stroke-miterlimit:4;stroke-dasharray:none" />
        <g
           style="stroke-width:3.99088387;stroke-miterlimit:4;stroke-dasharray:none"
           transform="matrix(1,0,0,0.8829261,0,77.376835)"
           id="g4179">
          <g
             style="stroke-width:3.99088387;stroke-miterlimit:4;stroke-dasharray:none"
             id="g4173">
            <path
               style="fill:none;fill-rule:evenodd;stroke:#000000;stroke-width:3.99088387;stroke-linecap:butt;stroke-linejoin:miter;stroke-opacity:1;stroke-miterlimit:4;stroke-dasharray:none"
               d="m 428.29989,458.3925 163.11232,0"
               id="path4164"
               inkscape:connector-curvature="0" />
          </g>
          <path
             style="fill:none;fill-rule:evenodd;stroke:#000000;stroke-width:3.99088387;stroke-linecap:butt;stroke-linejoin:miter;stroke-opacity:1;stroke-miterlimit:4;stroke-dasharray:none"
             d="m 742.85714,660.42301 -314.55246,0"
             id="path4177"
             inkscape:connector-curvature="0" />
        </g>
      </g>
      <path
         style="opacity:1;fill:none;fill-opacity:1;stroke:#000000;stroke-width:3.75;stroke-miterlimit:4;stroke-dasharray:none;stroke-dashoffset:0;stroke-opacity:1"
         id="path4199"
         sodipodi:type="arc"
         sodipodi:cx="589.28577"
         sodipodi:cy="660.21942"
         sodipodi:rx="177.78883"
         sodipodi:ry="177.78883"
         sodipodi:start="4.712389"
         sodipodi:end="0"
         d="M 589.28577,482.43059 A 177.78883,177.78883 0 0 1 767.0746,660.21942"
         sodipodi:open="true" />
      <path
         style="fill:none;fill-rule:evenodd;stroke:#000000;stroke-width:3.75;stroke-linecap:butt;stroke-linejoin:miter;stroke-opacity:1;stroke-miterlimit:4;stroke-dasharray:none"
         d="M 711.42857,532.3622 588.57143,660.42301"
         id="path4208"
         inkscape:connector-curvature="0" />
      <path
         style="fill:none;fill-rule:evenodd;stroke:#000000;stroke-width:3.75;stroke-linecap:butt;stroke-linejoin:miter;stroke-miterlimit:4;stroke-dasharray:7.5,7.5;stroke-opacity:1;stroke-dashoffset:0"
         d="m 588.57143,483.79078 0,520.08412"
         id="path4210"
         inkscape:connector-curvature="0" />
      <path
         sodipodi:open="true"
         d="m 345.36298,761.2013 a 27.251734,26.149223 0 0 1 27.25173,26.14922"
         sodipodi:end="0"
         sodipodi:start="4.712389"
         sodipodi:ry="26.149223"
         sodipodi:rx="27.251734"
         sodipodi:cy="787.35052"
         sodipodi:cx="345.36298"
         sodipodi:type="arc"
         id="path4221"
         style="opacity:1;fill:none;fill-opacity:1;stroke:#000000;stroke-width:3.75098079;stroke-miterlimit:4;stroke-dasharray:none;stroke-dashoffset:0;stroke-opacity:1"
         transform="matrix(0.95041646,-0.31097998,0.34154811,0.93986429,0,0)" />
      <path
         transform="matrix(-0.93626583,0.35129231,-0.3021024,-0.95327548,0,0)"
         style="opacity:1;fill:none;fill-opacity:1;stroke:#008000;stroke-width:3.75254225;stroke-miterlimit:4;stroke-dasharray:none;stroke-dashoffset:0;stroke-opacity:1"
         id="path5059"
         sodipodi:type="arc"
         sodipodi:cx="-350.35635"
         sodipodi:cy="-842.41351"
         sodipodi:rx="19.67804"
         sodipodi:ry="21.029524"
         sodipodi:start="4.712389"
         sodipodi:end="0"
         d="m -350.35635,-863.44304 a 19.67804,21.029524 0 0 1 19.67804,21.02953"
         sodipodi:open="true" />
      <path
         sodipodi:open="true"
         d="m -300.31042,-885.71294 a 57.352821,55.032524 0 0 1 57.35282,55.03252"
         sodipodi:end="0"
         sodipodi:start="4.712389"
         sodipodi:ry="55.032524"
         sodipodi:rx="57.352821"
         sodipodi:cy="-830.68042"
         sodipodi:cx="-300.31042"
         sodipodi:type="arc"
         id="path5307"
         style="opacity:1;fill:none;fill-opacity:1;stroke:#ff0000;stroke-width:3.75098079;stroke-miterlimit:4;stroke-dasharray:none;stroke-dashoffset:0;stroke-opacity:1"
         transform="matrix(-0.95041646,0.31097998,-0.34154811,-0.93986429,0,0)" />
    </g>
    <g
       style="stroke-width:3.75;stroke-miterlimit:4;stroke-dasharray:none"
       transform="matrix(-1,0,0,-1,1176.2143,1489.2789)"
       id="g4240"
       inkscape:export-xdpi="120"
       inkscape:export-ydpi="120">
      <path
         inkscape:connector-curvature="0"
         id="path4242"
         d="m 315.71429,660.42301 451.42857,0"
         style="fill:none;fill-rule:evenodd;stroke:#000000;stroke-width:3.75;stroke-linecap:butt;stroke-linejoin:miter;stroke-miterlimit:4;stroke-dasharray:none;stroke-opacity:1" />
      <g
         style="stroke-width:3.75;stroke-miterlimit:4;stroke-dasharray:none"
         transform="translate(130.62763,13.448876)"
         id="g4244">
        <path
           style="fill:none;fill-rule:evenodd;stroke:#000000;stroke-width:3.75;stroke-linecap:butt;stroke-linejoin:miter;stroke-miterlimit:4;stroke-dasharray:none;stroke-opacity:1"
           d="m 557.14286,496.64792 28.57143,-35.71429"
           id="path4246"
           inkscape:connector-curvature="0" />
        <path
           inkscape:connector-curvature="0"
           id="path4248"
           d="M 600,538.07649 628.57143,502.3622"
           style="fill:none;fill-rule:evenodd;stroke:#000000;stroke-width:3.75;stroke-linecap:butt;stroke-linejoin:miter;stroke-miterlimit:4;stroke-dasharray:none;stroke-opacity:1" />
        <path
           style="fill:none;fill-rule:evenodd;stroke:#000000;stroke-width:3.75;stroke-linecap:butt;stroke-linejoin:miter;stroke-miterlimit:4;stroke-dasharray:none;stroke-opacity:1"
           d="m 585.17857,461.29077 42.85715,41.25"
           id="path4250"
           inkscape:connector-curvature="0" />
      </g>
      <g
         style="stroke-width:3.75;stroke-miterlimit:4;stroke-dasharray:none"
         id="g4252">
        <path
           style="fill:none;fill-rule:evenodd;stroke:#000000;stroke-width:3.75;stroke-linecap:butt;stroke-linejoin:miter;stroke-miterlimit:4;stroke-dasharray:none;stroke-opacity:1"
           d="m 428.30468,482.13109 0,178.29192"
           id="path4254"
           inkscape:connector-curvature="0" />
        <g
           style="stroke-width:3.99088387;stroke-miterlimit:4;stroke-dasharray:none"
           id="g4256"
           transform="matrix(1,0,0,0.8829261,0,77.376835)">
          <g
             style="stroke-width:3.99088387;stroke-miterlimit:4;stroke-dasharray:none"
             id="g4258">
            <path
               inkscape:connector-curvature="0"
               id="path4260"
               d="m 428.29989,458.3925 163.11232,0"
               style="fill:none;fill-rule:evenodd;stroke:#000000;stroke-width:3.99088387;stroke-linecap:butt;stroke-linejoin:miter;stroke-miterlimit:4;stroke-dasharray:none;stroke-opacity:1" />
          </g>
          <path
             inkscape:connector-curvature="0"
             id="path4262"
             d="m 742.85714,660.42301 -314.55246,0"
             style="fill:none;fill-rule:evenodd;stroke:#000000;stroke-width:3.99088387;stroke-linecap:butt;stroke-linejoin:miter;stroke-miterlimit:4;stroke-dasharray:none;stroke-opacity:1" />
        </g>
      </g>
      <path
         sodipodi:open="true"
         d="M 589.28577,482.43059 A 177.78883,177.78883 0 0 1 767.0746,660.21942"
         sodipodi:end="0"
         sodipodi:start="4.712389"
         sodipodi:ry="177.78883"
         sodipodi:rx="177.78883"
         sodipodi:cy="660.21942"
         sodipodi:cx="589.28577"
         sodipodi:type="arc"
         id="path4264"
         style="opacity:1;fill:none;fill-opacity:1;stroke:#000000;stroke-width:3.75;stroke-miterlimit:4;stroke-dasharray:none;stroke-dashoffset:0;stroke-opacity:1" />
    </g>
    <text
       sodipodi:linespacing="125%"
       id="text4276"
       y="570.93365"
       x="621.42859"
       style="font-style:normal;font-variant:normal;font-weight:bold;font-stretch:normal;font-size:40px;line-height:125%;font-family:Sans;-inkscape-font-specification:'Sans Bold';text-align:start;letter-spacing:0px;word-spacing:0px;writing-mode:lr-tb;text-anchor:start;fill:#000000;fill-opacity:1;stroke:none;stroke-width:3.75;stroke-linecap:butt;stroke-linejoin:miter;stroke-opacity:1;stroke-miterlimit:4;stroke-dasharray:none"
       xml:space="preserve"
       inkscape:export-xdpi="120"
       inkscape:export-ydpi="120"><tspan
         y="570.93365"
         x="621.42859"
         id="tspan4278"
         sodipodi:role="line" /></text>
    <path
       style="fill:#ff0000;fill-rule:evenodd;stroke:#ff0000;stroke-width:3.75;stroke-linecap:butt;stroke-linejoin:miter;stroke-opacity:1;marker-end:url(#Arrow1Mend);stroke-miterlimit:4;stroke-dasharray:none"
       d="m 588.57143,660.42301 -120,76.22491"
       id="path4403"
       inkscape:connector-curvature="0"
       inkscape:export-xdpi="120"
       inkscape:export-ydpi="120" />
    <path
       inkscape:connector-curvature="0"
       id="path4693"
       d="M 588.82315,659.623 488.79082,771.83965"
       style="fill:#008000;fill-rule:evenodd;stroke:#008000;stroke-width:3.75;stroke-linecap:butt;stroke-linejoin:miter;stroke-opacity:1;marker-end:url(#marker4612);stroke-miterlimit:4;stroke-dasharray:none"
       inkscape:export-xdpi="120"
       inkscape:export-ydpi="120" />
    <g
       id="g6156"
       transform="translate(305.06607,236.37569)"
       style="stroke-width:3.75;stroke-miterlimit:4;stroke-dasharray:none;stroke:none"
       inkscape:export-xdpi="120"
       inkscape:export-ydpi="120">
      <g
         word-spacing="normal"
         letter-spacing="normal"
         font-size-adjust="none"
         font-stretch="normal"
         font-weight="normal"
         font-variant="normal"
         font-style="normal"
         stroke-miterlimit="10.433"
         xml:space="preserve"
         transform="matrix(1.0629921,0,0,-1.0629921,-186.02362,789.27165)"
         id="g6158"
         style="font-style:normal;font-variant:normal;font-weight:normal;font-stretch:normal;letter-spacing:normal;word-spacing:normal;text-anchor:start;fill:none;fill-opacity:1;fill-rule:evenodd;stroke:none;stroke-linecap:butt;stroke-linejoin:miter;stroke-miterlimit:4;stroke-dasharray:none;stroke-dashoffset:0;stroke-opacity:1;stroke-width:3.52777786"><path
           id="path6160"
           d="m 478.19,431.11 0,0.31 -0.01,0.34 -0.02,0.36 -0.02,0.37 -0.03,0.39 -0.04,0.39 -0.04,0.41 -0.06,0.41 -0.07,0.42 -0.07,0.43 -0.09,0.42 -0.1,0.43 -0.12,0.42 -0.12,0.42 -0.14,0.41 -0.16,0.41 -0.17,0.4 -0.18,0.38 -0.2,0.37 -0.22,0.36 -0.23,0.34 -0.25,0.32 -0.28,0.3 -0.29,0.27 -0.31,0.25 -0.16,0.12 -0.17,0.1 -0.17,0.1 -0.18,0.1 -0.18,0.08 -0.19,0.08 -0.19,0.07 -0.2,0.06 -0.21,0.05 -0.21,0.05 -0.22,0.03 -0.22,0.02 -0.23,0.02 -0.23,0 -0.05,-1.09 c 2.44,0 2.73,-3.19 2.73,-6.03 0,-2.44 -0.39,-4.99 -1.59,-9.92 l -10.41,0 c 0.85,3.2 1.85,7.18 3.83,10.72 1.36,2.43 3.19,5.23 5.44,5.23 l 0.05,1.09 c -6.92,0 -14.6,-14.04 -14.6,-25.45 0,-4.69 1.44,-10.22 5.99,-10.22 l 0,1.1 c -1.66,0 -2.71,1.45 -2.71,6.07 0,2.1 0.3,4.99 1.6,9.86 l 10.37,0 c -0.54,-2.28 -1.59,-6.51 -3.5,-10.11 -1.73,-3.39 -3.62,-5.82 -5.76,-5.82 l 0,-1.1 c 7.01,0 14.59,14.3 14.59,25.46 z"
           inkscape:connector-curvature="0"
           style="fill:#000000;stroke-width:3.52777786;stroke-miterlimit:4;stroke-dasharray:none;stroke:none" /><path
           id="path6162"
           d="m 491.66,445.98 -0.01,0.05 0,0.06 -0.01,0.05 0,0.05 -0.02,0.06 -0.01,0.06 -0.02,0.05 -0.02,0.06 -0.02,0.05 -0.02,0.06 -0.03,0.06 -0.03,0.05 -0.03,0.05 -0.04,0.06 -0.04,0.05 -0.04,0.05 -0.04,0.05 -0.05,0.05 -0.05,0.04 -0.05,0.04 -0.06,0.04 -0.06,0.04 -0.06,0.04 -0.07,0.03 -0.06,0.03 -0.07,0.02 -0.08,0.03 -0.08,0.01 -0.08,0.02 -0.08,0.01 -0.09,0.01 -0.09,0 c -0.94,0 -1.95,-0.91 -1.95,-1.92 0,-0.6 0.45,-1.33 1.4,-1.33 1,0 1.96,0.98 1.96,1.92 z"
           inkscape:connector-curvature="0"
           style="fill:#000000;stroke-width:3.52777786;stroke-miterlimit:4;stroke-dasharray:none;stroke:none" /><path
           id="path6164"
           d="m 484.55,428.28 -0.06,-0.17 -0.05,-0.17 -0.03,-0.08 -0.02,-0.09 -0.03,-0.09 -0.02,-0.08 -0.02,-0.09 -0.02,-0.1 -0.02,-0.09 -0.02,-0.1 -0.01,-0.09 0,-0.05 -0.01,-0.06 0,-0.05 0,-0.05 -0.01,-0.06 0,-0.05 c 0,-1.64 1.39,-2.95 3.3,-2.95 3.49,0 5.03,4.79 5.03,5.32 0,0.46 -0.45,0.46 -0.56,0.46 -0.48,0 -0.53,-0.21 -0.67,-0.6 -0.8,-2.78 -2.33,-4.22 -3.69,-4.22 -0.7,0 -0.87,0.46 -0.87,1.22 0,0.8 0.25,1.47 0.56,2.24 0.34,0.93 0.73,1.87 1.11,2.78 0.31,0.84 1.58,4.01 1.72,4.44 0.09,0.34 0.2,0.76 0.2,1.11 0,1.64 -1.39,2.95 -3.31,2.95 -3.46,0 -5.05,-4.74 -5.05,-5.33 0,-0.45 0.48,-0.45 0.59,-0.45 0.49,0 0.52,0.17 0.63,0.56 0.9,3 2.44,4.25 3.72,4.25 0.56,0 0.87,-0.28 0.87,-1.22 0,-0.8 -0.2,-1.33 -1.08,-3.48 z"
           inkscape:connector-curvature="0"
           style="fill:#000000;stroke-width:3.52777786;stroke-miterlimit:4;stroke-dasharray:none;stroke:none" /></g>    </g>
    <g
       id="g8358"
       transform="matrix(0.87834322,0,0,0.87834322,339.40432,404.76849)"
       style="fill:#008000;stroke-width:4.26940166;stroke-miterlimit:4;stroke-dasharray:none;stroke:none"
       inkscape:export-xdpi="120"
       inkscape:export-ydpi="120">
      <g
         id="content"
         transform="matrix(1.0629921,0,0,-1.0629921,-186.02362,789.27165)"
         xml:space="preserve"
         stroke-miterlimit="10.433"
         font-style="normal"
         font-variant="normal"
         font-weight="normal"
         font-stretch="normal"
         font-size-adjust="none"
         letter-spacing="normal"
         word-spacing="normal"
         style="font-style:normal;font-variant:normal;font-weight:normal;font-stretch:normal;letter-spacing:normal;word-spacing:normal;text-anchor:start;fill:#008000;fill-opacity:1;fill-rule:evenodd;stroke:none;stroke-linecap:butt;stroke-linejoin:miter;stroke-miterlimit:4;stroke-dasharray:none;stroke-dashoffset:0;stroke-opacity:1;stroke-width:4.01640018"><path
           d="m 478.19,431.11 0,0.31 -0.01,0.34 -0.02,0.36 -0.02,0.37 -0.03,0.39 -0.04,0.39 -0.04,0.41 -0.06,0.41 -0.07,0.42 -0.07,0.43 -0.09,0.42 -0.1,0.43 -0.12,0.42 -0.12,0.42 -0.14,0.41 -0.16,0.41 -0.17,0.4 -0.18,0.38 -0.2,0.37 -0.22,0.36 -0.23,0.34 -0.25,0.32 -0.28,0.3 -0.29,0.27 -0.31,0.25 -0.16,0.12 -0.17,0.1 -0.17,0.1 -0.18,0.1 -0.18,0.08 -0.19,0.08 -0.19,0.07 -0.2,0.06 -0.21,0.05 -0.21,0.05 -0.22,0.03 -0.22,0.02 -0.23,0.02 -0.23,0 -0.05,-1.09 c 2.44,0 2.73,-3.19 2.73,-6.03 0,-2.44 -0.39,-4.99 -1.59,-9.92 l -10.41,0 c 0.85,3.2 1.85,7.18 3.83,10.72 1.36,2.43 3.19,5.23 5.44,5.23 l 0.05,1.09 c -6.92,0 -14.6,-14.04 -14.6,-25.45 0,-4.69 1.44,-10.22 5.99,-10.22 l 0,1.1 c -1.66,0 -2.71,1.45 -2.71,6.07 0,2.1 0.3,4.99 1.6,9.86 l 10.37,0 c -0.54,-2.28 -1.59,-6.51 -3.5,-10.11 -1.73,-3.39 -3.62,-5.82 -5.76,-5.82 l 0,-1.1 c 7.01,0 14.59,14.3 14.59,25.46 z"
           id="path8361"
           inkscape:connector-curvature="0"
           style="fill:#008000;stroke-width:4.01640018;stroke-miterlimit:4;stroke-dasharray:none;stroke:none" /><path
           d="m 497.3,445.28 0.01,0.04 0.01,0.05 0.01,0.04 0.01,0.05 0.01,0.04 0.01,0.04 0.01,0.04 0.01,0.04 0.02,0.07 0.02,0.07 0.02,0.06 0.02,0.06 0.02,0.06 0.02,0.05 0.02,0.05 0.02,0.04 0.02,0.04 0.03,0.04 0.02,0.04 0.03,0.03 0.02,0.03 0.03,0.02 0.04,0.03 0.03,0.02 0.03,0.02 0.04,0.02 0.04,0.01 0.05,0.02 0.04,0.01 0.05,0.01 0.05,0.01 0.06,0.01 0.06,0.01 0.06,0 0.07,0.01 0.07,0 c 0.17,0.04 1.39,0.04 2.09,0.04 2.12,0 3.03,0 3.89,-0.29 1.58,-0.48 1.64,-1.5 1.64,-2.75 0,-0.54 0,-1 -0.23,-2.81 l -0.08,-0.39 c 0,-0.34 0.25,-0.51 0.59,-0.51 0.53,0 0.6,0.31 0.67,0.86 l 0.94,6.65 c 0,0.5 -0.42,0.5 -1.05,0.5 l -21.43,0 c -0.86,0 -0.94,0 -1.18,-0.73 l -2.2,-6.17 c -0.03,-0.15 -0.17,-0.46 -0.17,-0.63 0,-0.14 0.06,-0.48 0.59,-0.48 0.46,0 0.52,0.17 0.74,0.82 2.01,5.58 3.17,5.93 8.47,5.93 l 1.45,0 c 1.05,0 1.08,-0.04 1.08,-0.35 0,-0.03 0,-0.2 -0.14,-0.73 l -4.6,-18.33 c -0.31,-1.28 -0.42,-1.64 -4.07,-1.64 -1.26,0 -1.57,0 -1.57,-0.77 0,-0.09 0.07,-0.48 0.6,-0.48 0.97,0 2.01,0.11 2.98,0.11 0.99,0 2.03,0.03 3,0.03 0.99,0 2.17,0 3.14,-0.03 0.94,-0.05 1.99,-0.11 2.92,-0.11 0.28,0 0.82,0 0.82,0.76 0,0.49 -0.36,0.49 -1.44,0.49 -0.66,0 -1.36,0.05 -2.02,0.08 -1.19,0.09 -1.25,0.23 -1.25,0.65 0,0.25 0,0.32 0.13,0.8 z"
           id="path8363"
           inkscape:connector-curvature="0"
           style="fill:#008000;stroke-width:4.01640018;stroke-miterlimit:4;stroke-dasharray:none;stroke:none" /><path
           d="m 481.53,387.79 -0.02,-0.09 -0.02,-0.09 -0.02,-0.08 -0.02,-0.08 -0.02,-0.07 -0.02,-0.07 -0.03,-0.07 -0.02,-0.06 -0.02,-0.06 -0.03,-0.06 -0.02,-0.05 -0.03,-0.05 -0.04,-0.05 -0.03,-0.04 -0.04,-0.04 -0.04,-0.04 -0.04,-0.03 -0.05,-0.03 -0.05,-0.03 -0.05,-0.02 -0.06,-0.03 -0.07,-0.02 -0.07,-0.02 -0.07,-0.01 -0.08,-0.02 -0.04,0 -0.05,-0.01 -0.04,-0.01 -0.05,0 -0.05,0 -0.05,-0.01 -0.05,0 -0.05,0 -0.06,-0.01 -0.06,0 -0.05,0 -0.07,0 -0.06,0 -0.06,0 c -0.45,0 -0.94,0 -0.94,-0.74 0,-0.39 0.31,-0.53 0.49,-0.53 0.9,0 2.06,0.14 3,0.14 1.18,0 2.5,-0.14 3.65,-0.14 0.31,0 0.7,0.11 0.7,0.77 0,0.5 -0.5,0.5 -0.9,0.5 -0.78,0 -1.72,0 -1.72,0.41 0,0.18 0.25,1.09 0.39,1.6 0.42,1.85 0.91,3.74 1.28,5.19 0.42,-0.69 1.5,-2.04 3.6,-2.04 l 0,0.96 c -2.47,0 -3.1,2.69 -3.1,3.04 0,0.14 0.06,0.39 0.1,0.53 l 1.74,7 c 2.02,2.68 3.77,3.2 4.88,3.2 1.36,0 2.55,-1.02 2.55,-3.38 0,-1.43 -0.77,-4.98 -1.82,-7.01 -0.87,-1.7 -2.57,-3.38 -4.35,-3.38 l 0,-0.96 c 4.24,0 8.95,4.7 8.95,9.89 0,4.07 -2.83,5.81 -5.22,5.81 -2.17,0 -4.02,-1.45 -4.95,-2.44 -0.6,1.99 -2.55,2.44 -3.6,2.44 -1.36,0 -2.18,-0.91 -2.75,-1.85 -0.7,-1.18 -1.25,-3.26 -1.25,-3.48 0,-0.45 0.49,-0.45 0.6,-0.45 0.48,0 0.51,0.11 0.76,1.04 0.52,2.04 1.19,3.77 2.55,3.77 0.91,0 1.14,-0.77 1.14,-1.7 0,-0.39 -0.06,-0.85 -0.11,-1.05 z"
           id="path8365"
           inkscape:connector-curvature="0"
           style="fill:#008000;stroke-width:4.01640018;stroke-miterlimit:4;stroke-dasharray:none;stroke:none" /><path
           d="m 509.27,415.18 0,0 0,0.01 0,0 0.01,0.01 0,0 0,0.01 0,0 0,0.01 0.01,0.01 0,0 0,0.02 0.01,0.02 0,0.02 0.01,0.02 0.01,0.02 0,0.02 0.01,0.02 0,0.02 0.01,0.03 0.01,0.04 0.01,0.05 0.01,0.02 0,0.03 0.01,0.02 0,0.02 0.01,0.02 0,0.02 0.01,0.01 0,0.02 0,0.01 0,0 0,0.01 0.01,0.01 0,0 0,0.01 0,0 0,0.01 0,0 0,0 0,0.01 0,0 c 0,0.18 -0.14,0.5 -0.56,0.5 -0.69,0 -3.6,-0.28 -4.46,-0.36 -0.25,-0.03 -0.73,-0.07 -0.73,-0.8 0,-0.48 0.48,-0.48 0.88,-0.48 1.67,0 1.67,-0.25 1.67,-0.54 0,-0.23 -0.08,-0.45 -0.14,-0.76 l -4.33,-17.2 c -0.11,-0.36 -0.14,-0.74 -0.14,-1.08 0,-2.24 1.98,-3.31 3.65,-3.31 0.85,0 1.89,0.28 2.8,1.84 0.74,1.28 1.22,3.34 1.22,3.48 0,0.46 -0.45,0.46 -0.56,0.46 -0.49,0 -0.55,-0.21 -0.69,-0.85 -0.45,-1.73 -1.13,-3.97 -2.63,-3.97 -0.93,0 -1.17,0.88 -1.17,1.71 0,0.39 0.1,1.04 0.21,1.43 z"
           id="path8367"
           inkscape:connector-curvature="0"
           style="fill:#008000;stroke-width:4.01640018;stroke-miterlimit:4;stroke-dasharray:none;stroke:none" /><path
           d="m 526.98,405.35 -0.07,0.11 -0.07,0.1 -0.08,0.11 -0.08,0.1 -0.08,0.1 -0.08,0.09 -0.09,0.1 -0.09,0.09 -0.09,0.09 -0.09,0.09 -0.1,0.09 -0.1,0.08 -0.1,0.08 -0.11,0.08 -0.1,0.07 -0.11,0.07 -0.12,0.07 -0.11,0.06 -0.12,0.06 -0.12,0.06 -0.13,0.05 -0.13,0.05 -0.13,0.05 -0.13,0.04 -0.14,0.03 -0.13,0.04 -0.14,0.02 -0.15,0.03 -0.15,0.01 -0.15,0.02 -0.15,0.01 -0.15,0 0,-0.97 c 2.43,0 3.11,-2.64 3.11,-3.03 0,-0.14 -0.08,-0.39 -0.11,-0.49 l -1.64,-6.51 c -0.24,-0.99 -1,-1.67 -1.77,-2.35 -0.31,-0.26 -1.72,-1.39 -3.22,-1.39 -1.28,0 -2.53,0.91 -2.53,3.38 0,1.86 1,5.69 1.81,7.08 1.6,2.79 3.38,3.31 4.35,3.31 l 0,0.97 c -4.46,0 -8.99,-4.91 -8.99,-9.92 0,-3.38 2.27,-5.78 5.27,-5.78 1.87,0 3.55,1.07 4.93,2.43 0.68,-2.09 2.69,-2.43 3.6,-2.43 1.25,0 2.12,0.76 2.75,1.84 0.77,1.36 1.22,3.34 1.22,3.48 0,0.46 -0.45,0.46 -0.55,0.46 -0.5,0 -0.53,-0.14 -0.77,-1.08 -0.42,-1.67 -1.09,-3.74 -2.54,-3.74 -0.91,0 -1.16,0.77 -1.16,1.71 0,0.59 0.28,1.86 0.53,2.76 0.24,0.94 0.6,2.36 0.77,3.13 l 0.69,2.65 c 0.21,0.91 0.62,2.55 0.62,2.72 0,0.77 -0.62,1.11 -1.17,1.11 -0.59,0 -1.41,-0.42 -1.61,-1.39 z"
           id="path8369"
           inkscape:connector-curvature="0"
           style="fill:#008000;stroke-width:4.01640018;stroke-miterlimit:4;stroke-dasharray:none;stroke:none" /><path
           d="m 551.61,406.4 0.01,0.03 0,0.02 0.01,0.03 0,0.03 0.01,0.04 0.01,0.03 0,0.03 0.01,0.03 0.01,0.04 0,0.03 0.01,0.04 0,0.03 0,0.03 0.01,0.04 0,0.03 0,0.03 c 0,0.22 -0.14,0.49 -0.46,0.49 -0.35,0 -1.81,-1.17 -2.51,-2.3 -0.34,0.7 -1.5,2.3 -3.74,2.3 l 0,-0.97 c 2.44,0 3.11,-2.69 3.11,-3.03 0,-0.17 -0.07,-0.39 -0.11,-0.52 l -1.64,-6.45 c -0.17,-0.59 -0.17,-0.66 -0.62,-1.22 -1.36,-1.61 -3,-2.55 -4.36,-2.55 -1.28,0 -2.53,0.91 -2.53,3.38 0,1.86 1,5.69 1.81,7.08 1.59,2.79 3.38,3.31 4.34,3.31 l 0,0.97 c -4.45,0 -8.98,-4.91 -8.98,-9.92 0,-3.38 2.27,-5.78 5.27,-5.78 1.98,0 3.62,1.25 4.39,1.9 -0.04,-0.09 -1.13,-4.48 -1.27,-5.08 -0.48,-1.92 -0.51,-1.95 -2.67,-1.98 -0.42,0 -0.91,0 -0.91,-0.77 0,-0.22 0.17,-0.5 0.52,-0.5 1.15,0 2.44,0.14 3.62,0.14 1.19,0 2.66,-0.14 3.74,-0.14 0.31,0 0.69,0.11 0.69,0.77 0,0.5 -0.49,0.5 -0.91,0.5 -0.77,0 -1.7,0 -1.7,0.41 0,0.1 0,0.18 0.17,0.76 z"
           id="path8371"
           inkscape:connector-curvature="0"
           style="fill:#008000;stroke-width:4.01640018;stroke-miterlimit:4;stroke-dasharray:none;stroke:none" /><path
           d="m 568.05,397.68 -0.02,-0.07 -0.02,-0.07 -0.01,-0.07 -0.02,-0.07 -0.02,-0.08 -0.02,-0.08 -0.02,-0.08 -0.02,-0.09 -0.04,-0.16 -0.05,-0.17 -0.04,-0.17 -0.02,-0.08 -0.02,-0.08 -0.02,-0.08 -0.02,-0.07 -0.02,-0.08 -0.01,-0.07 -0.02,-0.06 -0.02,-0.07 -0.02,-0.06 -0.01,-0.05 -0.02,-0.05 -0.01,-0.05 -0.01,-0.03 -0.02,-0.04 0,-0.01 -0.01,-0.02 0,-0.01 -0.01,-0.01 0,0 0,-0.01 -0.01,0 0,-0.01 c -0.67,-1.08 -2.06,-2.97 -4.22,-2.97 -2.4,0 -2.4,2.27 -2.4,2.89 0,2.07 0.96,4.54 1.95,7.08 0.28,0.71 0.48,1.22 0.48,1.78 0,1.82 -1.53,2.99 -3.31,2.99 -3.48,0 -5.05,-4.77 -5.05,-5.33 0,-0.45 0.49,-0.45 0.6,-0.45 0.48,0 0.51,0.17 0.62,0.56 0.83,2.86 2.38,4.25 3.72,4.25 0.59,0 0.88,-0.39 0.88,-1.22 0,-0.8 -0.29,-1.53 -0.63,-2.33 -1.87,-4.81 -1.87,-5.83 -1.87,-6.76 0,-0.6 0,-2.21 1.28,-3.32 1.01,-0.82 2.37,-1.1 3.59,-1.1 2.19,0 3.38,1.18 4.53,2.29 0.77,-2.23 3.1,-2.29 3.52,-2.29 1.19,0 2.09,0.68 2.75,1.84 0.76,1.36 1.25,3.37 1.25,3.48 0,0.46 -0.49,0.46 -0.58,0.46 -0.5,0 -0.53,-0.14 -0.78,-1.08 -0.41,-1.64 -1.08,-3.74 -2.53,-3.74 -0.91,0 -1.16,0.8 -1.16,1.71 0,0.59 0.28,1.86 0.53,2.76 0.24,0.94 0.58,2.36 0.77,3.13 l 0.79,3.11 c 0.21,0.87 0.6,2.4 0.6,2.58 0,0.68 -0.56,1.1 -1.16,1.1 -1.28,0 -1.53,-1.01 -1.81,-2.12 z"
           id="path8373"
           inkscape:connector-curvature="0"
           style="fill:#008000;stroke-width:4.01640018;stroke-miterlimit:4;stroke-dasharray:none;stroke:none" /><path
           d="m 584.65,399.98 0.09,0 0.11,0 0.11,0 0.13,0 0.13,0 0.14,0.01 0.15,0 0.15,0.01 0.17,0.01 0.16,0.01 0.18,0 0.18,0.02 0.18,0.01 0.19,0.01 0.38,0.04 0.4,0.04 0.4,0.05 0.41,0.06 0.41,0.07 0.4,0.08 0.19,0.04 0.2,0.05 0.19,0.05 0.19,0.05 0.18,0.06 0.18,0.06 c 2.58,0.91 3.07,2.58 3.07,3.63 0,1.92 -1.92,3.06 -4.33,3.06 l 0,-0.97 c 1.53,0 2.83,-0.77 2.83,-2.09 0,-3.38 -5.89,-3.38 -7.39,-3.38 l -1.71,0 c 1.43,5.05 5.3,5.47 6.27,5.47 l 0,0.97 c -4.17,0 -9.83,-3.2 -9.83,-9.16 0,-3.51 2.2,-6.54 6.28,-6.54 5.89,0 8.64,3.43 8.64,3.93 0,0.21 -0.31,0.6 -0.59,0.6 -0.21,0 -0.28,-0.08 -0.56,-0.36 -2.72,-3.21 -6.8,-3.21 -7.43,-3.21 -2.09,0 -3.48,1.39 -3.48,4.22 0,0.49 0,1.19 0.42,3.1 z"
           id="path8375"
           inkscape:connector-curvature="0"
           style="fill:#008000;stroke-width:4.01640018;stroke-miterlimit:4;stroke-dasharray:none;stroke:none" /></g>    </g>
    <g
       id="g8531"
       transform="matrix(0.94091381,0,0,0.94091381,239.17878,459.57982)"
       style="fill:#ff0000;stroke:none;stroke-width:3.98548726;stroke-miterlimit:4;stroke-dasharray:none"
       inkscape:export-xdpi="120"
       inkscape:export-ydpi="120">
      <g
         word-spacing="normal"
         letter-spacing="normal"
         font-size-adjust="none"
         font-stretch="normal"
         font-weight="normal"
         font-variant="normal"
         font-style="normal"
         stroke-miterlimit="10.433"
         xml:space="preserve"
         transform="matrix(1.0629921,0,0,-1.0629921,-186.02362,789.27165)"
         id="g8533"
         style="font-style:normal;font-variant:normal;font-weight:normal;font-stretch:normal;letter-spacing:normal;word-spacing:normal;text-anchor:start;fill:#ff0000;fill-opacity:1;fill-rule:evenodd;stroke:none;stroke-linecap:butt;stroke-linejoin:miter;stroke-miterlimit:4;stroke-dasharray:none;stroke-dashoffset:0;stroke-opacity:1;stroke-width:3.74931033"><path
           id="path8535"
           d="m 478.19,431.11 0,0.31 -0.01,0.34 -0.02,0.36 -0.02,0.37 -0.03,0.39 -0.04,0.39 -0.04,0.41 -0.06,0.41 -0.07,0.42 -0.07,0.43 -0.09,0.42 -0.1,0.43 -0.12,0.42 -0.12,0.42 -0.14,0.41 -0.16,0.41 -0.17,0.4 -0.18,0.38 -0.2,0.37 -0.22,0.36 -0.23,0.34 -0.25,0.32 -0.28,0.3 -0.29,0.27 -0.31,0.25 -0.16,0.12 -0.17,0.1 -0.17,0.1 -0.18,0.1 -0.18,0.08 -0.19,0.08 -0.19,0.07 -0.2,0.06 -0.21,0.05 -0.21,0.05 -0.22,0.03 -0.22,0.02 -0.23,0.02 -0.23,0 -0.05,-1.09 c 2.44,0 2.73,-3.19 2.73,-6.03 0,-2.44 -0.39,-4.99 -1.59,-9.92 l -10.41,0 c 0.85,3.2 1.85,7.18 3.83,10.72 1.36,2.43 3.19,5.23 5.44,5.23 l 0.05,1.09 c -6.92,0 -14.6,-14.04 -14.6,-25.45 0,-4.69 1.44,-10.22 5.99,-10.22 l 0,1.1 c -1.66,0 -2.71,1.45 -2.71,6.07 0,2.1 0.3,4.99 1.6,9.86 l 10.37,0 c -0.54,-2.28 -1.59,-6.51 -3.5,-10.11 -1.73,-3.39 -3.62,-5.82 -5.76,-5.82 l 0,-1.1 c 7.01,0 14.59,14.3 14.59,25.46 z"
           inkscape:connector-curvature="0"
           style="fill:#ff0000;stroke:none;stroke-width:3.74931033;stroke-miterlimit:4;stroke-dasharray:none" /><path
           id="path8537"
           d="m 494.72,445.14 0.03,0.11 0.03,0.11 0.02,0.11 0.03,0.1 0.03,0.09 0.03,0.1 0.04,0.08 0.04,0.08 0.04,0.08 0.04,0.07 0.05,0.07 0.06,0.06 0.06,0.06 0.07,0.06 0.07,0.05 0.09,0.05 0.09,0.04 0.1,0.04 0.11,0.04 0.12,0.03 0.07,0.02 0.06,0.01 0.07,0.01 0.08,0.02 0.07,0.01 0.08,0.01 0.08,0.01 0.09,0.01 0.09,0.01 0.09,0.01 0.1,0.01 0.1,0.01 0.1,0 0.11,0.01 0.11,0 0.11,0.01 0.12,0 0.12,0.01 0.13,0 0.13,0 0.13,0 0.14,0 0.15,0.01 0.14,0 c 1.08,0 1.43,0 1.43,0.76 0,0.03 -0.04,0.49 -0.6,0.49 -0.79,0 -1.73,-0.07 -2.58,-0.11 -0.87,-0.03 -1.9,-0.03 -2.78,-0.03 -0.73,0 -1.67,0.03 -2.4,0.03 -0.74,0 -1.57,0.11 -2.27,0.11 -0.2,0 -0.73,0 -0.73,-0.77 0,-0.48 0.42,-0.48 1.12,-0.48 0.03,0 0.69,0 1.31,-0.08 0.74,-0.06 0.82,-0.14 0.82,-0.49 0,-0.06 0,-0.23 -0.14,-0.76 l -4.64,-18.5 c -0.32,-1.19 -0.4,-1.47 -3.07,-1.47 -0.59,0 -1.04,0 -1.04,-0.74 0,-0.51 0.42,-0.51 1.04,-0.51 l 17.52,0 c 0.87,0 0.9,0.03 1.19,0.7 0.36,0.94 2.96,7.69 2.96,7.97 0,0.11 -0.07,0.5 -0.59,0.5 -0.42,0 -0.48,-0.19 -0.7,-0.73 -1.31,-3.32 -2.86,-7.19 -9.24,-7.19 l -3.93,0 c -1.08,0 -1.11,0.05 -1.11,0.36 0,0.03 0,0.2 0.14,0.72 z"
           inkscape:connector-curvature="0"
           style="fill:#ff0000;stroke:none;stroke-width:3.74931033;stroke-miterlimit:4;stroke-dasharray:none" /><path
           id="path8539"
           d="m 481.53,387.79 -0.02,-0.09 -0.02,-0.09 -0.02,-0.08 -0.02,-0.08 -0.02,-0.07 -0.02,-0.07 -0.03,-0.07 -0.02,-0.06 -0.02,-0.06 -0.03,-0.06 -0.02,-0.05 -0.03,-0.05 -0.04,-0.05 -0.03,-0.04 -0.04,-0.04 -0.04,-0.04 -0.04,-0.03 -0.05,-0.03 -0.05,-0.03 -0.05,-0.02 -0.06,-0.03 -0.07,-0.02 -0.07,-0.02 -0.07,-0.01 -0.08,-0.02 -0.04,0 -0.05,-0.01 -0.04,-0.01 -0.05,0 -0.05,0 -0.05,-0.01 -0.05,0 -0.05,0 -0.06,-0.01 -0.06,0 -0.05,0 -0.07,0 -0.06,0 -0.06,0 c -0.45,0 -0.94,0 -0.94,-0.74 0,-0.39 0.31,-0.53 0.49,-0.53 0.9,0 2.06,0.14 3,0.14 1.18,0 2.5,-0.14 3.65,-0.14 0.31,0 0.7,0.11 0.7,0.77 0,0.5 -0.5,0.5 -0.9,0.5 -0.78,0 -1.72,0 -1.72,0.41 0,0.18 0.25,1.09 0.39,1.6 0.42,1.85 0.91,3.74 1.28,5.19 0.42,-0.69 1.5,-2.04 3.6,-2.04 l 0,0.96 c -2.47,0 -3.1,2.69 -3.1,3.04 0,0.14 0.06,0.39 0.1,0.53 l 1.74,7 c 2.02,2.68 3.77,3.2 4.88,3.2 1.36,0 2.55,-1.02 2.55,-3.38 0,-1.43 -0.77,-4.98 -1.82,-7.01 -0.87,-1.7 -2.57,-3.38 -4.35,-3.38 l 0,-0.96 c 4.24,0 8.95,4.7 8.95,9.89 0,4.07 -2.83,5.81 -5.22,5.81 -2.17,0 -4.02,-1.45 -4.95,-2.44 -0.6,1.99 -2.55,2.44 -3.6,2.44 -1.36,0 -2.18,-0.91 -2.75,-1.85 -0.7,-1.18 -1.25,-3.26 -1.25,-3.48 0,-0.45 0.49,-0.45 0.6,-0.45 0.48,0 0.51,0.11 0.76,1.04 0.52,2.04 1.19,3.77 2.55,3.77 0.91,0 1.14,-0.77 1.14,-1.7 0,-0.39 -0.06,-0.85 -0.11,-1.05 z"
           inkscape:connector-curvature="0"
           style="fill:#ff0000;stroke:none;stroke-width:3.74931033;stroke-miterlimit:4;stroke-dasharray:none" /><path
           id="path8541"
           d="m 509.27,415.18 0,0 0,0.01 0,0 0.01,0.01 0,0 0,0.01 0,0 0,0.01 0.01,0.01 0,0 0,0.02 0.01,0.02 0,0.02 0.01,0.02 0.01,0.02 0,0.02 0.01,0.02 0,0.02 0.01,0.03 0.01,0.04 0.01,0.05 0.01,0.02 0,0.03 0.01,0.02 0,0.02 0.01,0.02 0,0.02 0.01,0.01 0,0.02 0,0.01 0,0 0,0.01 0.01,0.01 0,0 0,0.01 0,0 0,0.01 0,0 0,0 0,0.01 0,0 c 0,0.18 -0.14,0.5 -0.56,0.5 -0.69,0 -3.6,-0.28 -4.46,-0.36 -0.25,-0.03 -0.73,-0.07 -0.73,-0.8 0,-0.48 0.48,-0.48 0.88,-0.48 1.67,0 1.67,-0.25 1.67,-0.54 0,-0.23 -0.08,-0.45 -0.14,-0.76 l -4.33,-17.2 c -0.11,-0.36 -0.14,-0.74 -0.14,-1.08 0,-2.24 1.98,-3.31 3.65,-3.31 0.85,0 1.89,0.28 2.8,1.84 0.74,1.28 1.22,3.34 1.22,3.48 0,0.46 -0.45,0.46 -0.56,0.46 -0.49,0 -0.55,-0.21 -0.69,-0.85 -0.45,-1.73 -1.13,-3.97 -2.63,-3.97 -0.93,0 -1.17,0.88 -1.17,1.71 0,0.39 0.1,1.04 0.21,1.43 z"
           inkscape:connector-curvature="0"
           style="fill:#ff0000;stroke:none;stroke-width:3.74931033;stroke-miterlimit:4;stroke-dasharray:none" /><path
           id="path8543"
           d="m 526.98,405.35 -0.07,0.11 -0.07,0.1 -0.08,0.11 -0.08,0.1 -0.08,0.1 -0.08,0.09 -0.09,0.1 -0.09,0.09 -0.09,0.09 -0.09,0.09 -0.1,0.09 -0.1,0.08 -0.1,0.08 -0.11,0.08 -0.1,0.07 -0.11,0.07 -0.12,0.07 -0.11,0.06 -0.12,0.06 -0.12,0.06 -0.13,0.05 -0.13,0.05 -0.13,0.05 -0.13,0.04 -0.14,0.03 -0.13,0.04 -0.14,0.02 -0.15,0.03 -0.15,0.01 -0.15,0.02 -0.15,0.01 -0.15,0 0,-0.97 c 2.43,0 3.11,-2.64 3.11,-3.03 0,-0.14 -0.08,-0.39 -0.11,-0.49 l -1.64,-6.51 c -0.24,-0.99 -1,-1.67 -1.77,-2.35 -0.31,-0.26 -1.72,-1.39 -3.22,-1.39 -1.28,0 -2.53,0.91 -2.53,3.38 0,1.86 1,5.69 1.81,7.08 1.6,2.79 3.38,3.31 4.35,3.31 l 0,0.97 c -4.46,0 -8.99,-4.91 -8.99,-9.92 0,-3.38 2.27,-5.78 5.27,-5.78 1.87,0 3.55,1.07 4.93,2.43 0.68,-2.09 2.69,-2.43 3.6,-2.43 1.25,0 2.12,0.76 2.75,1.84 0.77,1.36 1.22,3.34 1.22,3.48 0,0.46 -0.45,0.46 -0.55,0.46 -0.5,0 -0.53,-0.14 -0.77,-1.08 -0.42,-1.67 -1.09,-3.74 -2.54,-3.74 -0.91,0 -1.16,0.77 -1.16,1.71 0,0.59 0.28,1.86 0.53,2.76 0.24,0.94 0.6,2.36 0.77,3.13 l 0.69,2.65 c 0.21,0.91 0.62,2.55 0.62,2.72 0,0.77 -0.62,1.11 -1.17,1.11 -0.59,0 -1.41,-0.42 -1.61,-1.39 z"
           inkscape:connector-curvature="0"
           style="fill:#ff0000;stroke:none;stroke-width:3.74931033;stroke-miterlimit:4;stroke-dasharray:none" /><path
           id="path8545"
           d="m 551.61,406.4 0.01,0.03 0,0.02 0.01,0.03 0,0.03 0.01,0.04 0.01,0.03 0,0.03 0.01,0.03 0.01,0.04 0,0.03 0.01,0.04 0,0.03 0,0.03 0.01,0.04 0,0.03 0,0.03 c 0,0.22 -0.14,0.49 -0.46,0.49 -0.35,0 -1.81,-1.17 -2.51,-2.3 -0.34,0.7 -1.5,2.3 -3.74,2.3 l 0,-0.97 c 2.44,0 3.11,-2.69 3.11,-3.03 0,-0.17 -0.07,-0.39 -0.11,-0.52 l -1.64,-6.45 c -0.17,-0.59 -0.17,-0.66 -0.62,-1.22 -1.36,-1.61 -3,-2.55 -4.36,-2.55 -1.28,0 -2.53,0.91 -2.53,3.38 0,1.86 1,5.69 1.81,7.08 1.59,2.79 3.38,3.31 4.34,3.31 l 0,0.97 c -4.45,0 -8.98,-4.91 -8.98,-9.92 0,-3.38 2.27,-5.78 5.27,-5.78 1.98,0 3.62,1.25 4.39,1.9 -0.04,-0.09 -1.13,-4.48 -1.27,-5.08 -0.48,-1.92 -0.51,-1.95 -2.67,-1.98 -0.42,0 -0.91,0 -0.91,-0.77 0,-0.22 0.17,-0.5 0.52,-0.5 1.15,0 2.44,0.14 3.62,0.14 1.19,0 2.66,-0.14 3.74,-0.14 0.31,0 0.69,0.11 0.69,0.77 0,0.5 -0.49,0.5 -0.91,0.5 -0.77,0 -1.7,0 -1.7,0.41 0,0.1 0,0.18 0.17,0.76 z"
           inkscape:connector-curvature="0"
           style="fill:#ff0000;stroke:none;stroke-width:3.74931033;stroke-miterlimit:4;stroke-dasharray:none" /><path
           id="path8547"
           d="m 568.05,397.68 -0.02,-0.07 -0.02,-0.07 -0.01,-0.07 -0.02,-0.07 -0.02,-0.08 -0.02,-0.08 -0.02,-0.08 -0.02,-0.09 -0.04,-0.16 -0.05,-0.17 -0.04,-0.17 -0.02,-0.08 -0.02,-0.08 -0.02,-0.08 -0.02,-0.07 -0.02,-0.08 -0.01,-0.07 -0.02,-0.06 -0.02,-0.07 -0.02,-0.06 -0.01,-0.05 -0.02,-0.05 -0.01,-0.05 -0.01,-0.03 -0.02,-0.04 0,-0.01 -0.01,-0.02 0,-0.01 -0.01,-0.01 0,0 0,-0.01 -0.01,0 0,-0.01 c -0.67,-1.08 -2.06,-2.97 -4.22,-2.97 -2.4,0 -2.4,2.27 -2.4,2.89 0,2.07 0.96,4.54 1.95,7.08 0.28,0.71 0.48,1.22 0.48,1.78 0,1.82 -1.53,2.99 -3.31,2.99 -3.48,0 -5.05,-4.77 -5.05,-5.33 0,-0.45 0.49,-0.45 0.6,-0.45 0.48,0 0.51,0.17 0.62,0.56 0.83,2.86 2.38,4.25 3.72,4.25 0.59,0 0.88,-0.39 0.88,-1.22 0,-0.8 -0.29,-1.53 -0.63,-2.33 -1.87,-4.81 -1.87,-5.83 -1.87,-6.76 0,-0.6 0,-2.21 1.28,-3.32 1.01,-0.82 2.37,-1.1 3.59,-1.1 2.19,0 3.38,1.18 4.53,2.29 0.77,-2.23 3.1,-2.29 3.52,-2.29 1.19,0 2.09,0.68 2.75,1.84 0.76,1.36 1.25,3.37 1.25,3.48 0,0.46 -0.49,0.46 -0.58,0.46 -0.5,0 -0.53,-0.14 -0.78,-1.08 -0.41,-1.64 -1.08,-3.74 -2.53,-3.74 -0.91,0 -1.16,0.8 -1.16,1.71 0,0.59 0.28,1.86 0.53,2.76 0.24,0.94 0.58,2.36 0.77,3.13 l 0.79,3.11 c 0.21,0.87 0.6,2.4 0.6,2.58 0,0.68 -0.56,1.1 -1.16,1.1 -1.28,0 -1.53,-1.01 -1.81,-2.12 z"
           inkscape:connector-curvature="0"
           style="fill:#ff0000;stroke:none;stroke-width:3.74931033;stroke-miterlimit:4;stroke-dasharray:none" /><path
           id="path8549"
           d="m 584.65,399.98 0.09,0 0.11,0 0.11,0 0.13,0 0.13,0 0.14,0.01 0.15,0 0.15,0.01 0.17,0.01 0.16,0.01 0.18,0 0.18,0.02 0.18,0.01 0.19,0.01 0.38,0.04 0.4,0.04 0.4,0.05 0.41,0.06 0.41,0.07 0.4,0.08 0.19,0.04 0.2,0.05 0.19,0.05 0.19,0.05 0.18,0.06 0.18,0.06 c 2.58,0.91 3.07,2.58 3.07,3.63 0,1.92 -1.92,3.06 -4.33,3.06 l 0,-0.97 c 1.53,0 2.83,-0.77 2.83,-2.09 0,-3.38 -5.89,-3.38 -7.39,-3.38 l -1.71,0 c 1.43,5.05 5.3,5.47 6.27,5.47 l 0,0.97 c -4.17,0 -9.83,-3.2 -9.83,-9.16 0,-3.51 2.2,-6.54 6.28,-6.54 5.89,0 8.64,3.43 8.64,3.93 0,0.21 -0.31,0.6 -0.59,0.6 -0.21,0 -0.28,-0.08 -0.56,-0.36 -2.72,-3.21 -6.8,-3.21 -7.43,-3.21 -2.09,0 -3.48,1.39 -3.48,4.22 0,0.49 0,1.19 0.42,3.1 z"
           inkscape:connector-curvature="0"
           style="fill:#ff0000;stroke:none;stroke-width:3.74931033;stroke-miterlimit:4;stroke-dasharray:none" /></g>    </g>
    <g
       id="g6176"
       transform="matrix(0.77046713,0,0,0.77046713,406.3284,189.25343)"
       style="stroke-width:4.86717714;stroke-miterlimit:4;stroke-dasharray:none;stroke:none"
       inkscape:export-xdpi="120"
       inkscape:export-ydpi="120">
      <g
         word-spacing="normal"
         letter-spacing="normal"
         font-size-adjust="none"
         font-stretch="normal"
         font-weight="normal"
         font-variant="normal"
         font-style="normal"
         stroke-miterlimit="10.433"
         xml:space="preserve"
         transform="matrix(1.0629921,0,0,-1.0629921,-186.02362,789.27165)"
         id="g6178"
         style="font-style:normal;font-variant:normal;font-weight:normal;font-stretch:normal;letter-spacing:normal;word-spacing:normal;text-anchor:start;fill:none;fill-opacity:1;fill-rule:evenodd;stroke:none;stroke-linecap:butt;stroke-linejoin:miter;stroke-miterlimit:4;stroke-dasharray:none;stroke-dashoffset:0;stroke-opacity:1;stroke-width:4.57875194"><path
           id="path6180"
           d="m 488.71,439.93 -30.46,0 -0.93,-11.22 1.25,0 c 0.68,8.04 1.43,9.68 8.95,9.68 0.91,0 2.2,0 2.7,-0.11 1.05,-0.19 1.05,-0.74 1.05,-1.89 l 0,-26.25 c 0,-1.71 0,-2.39 -5.23,-2.39 l -2,0 0,-1.55 c 2.04,0.16 7.12,0.16 9.42,0.16 2.29,0 7.42,0 9.47,-0.16 l 0,1.55 -2,0 c -5.24,0 -5.24,0.68 -5.24,2.39 l 0,26.25 c 0,1 0,1.7 0.91,1.89 0.54,0.11 1.89,0.11 2.84,0.11 7.52,0 8.27,-1.64 8.95,-9.68 l 1.25,0 z"
           inkscape:connector-curvature="0"
           style="fill:#000000;stroke-width:4.57875194;stroke-miterlimit:4;stroke-dasharray:none;stroke:none" /><path
           id="path6182"
           d="m 495.63,422.75 0,5.46 -6.92,-0.54 0,-1.55 c 3.49,0 3.89,-0.34 3.89,-2.78 l 0,-13.36 c 0,-2.23 -0.55,-2.23 -3.89,-2.23 l 0,-1.55 c 1.95,0.05 4.28,0.16 5.69,0.16 1.98,0 4.33,0 6.33,-0.16 l 0,1.55 -1.05,0 c -3.69,0 -3.8,0.54 -3.8,2.34 l 0,7.67 c 0,4.92 2.1,9.36 5.89,9.36 0.35,0 0.44,0 0.55,-0.05 -0.16,-0.04 -1.16,-0.64 -1.16,-1.93 0,-1.41 1.05,-2.14 2.16,-2.14 0.89,0 2.14,0.59 2.14,2.18 0,1.6 -1.55,3.03 -3.69,3.03 -3.64,0 -5.43,-3.32 -6.14,-5.46 z"
           inkscape:connector-curvature="0"
           style="fill:#000000;stroke-width:4.57875194;stroke-miterlimit:4;stroke-dasharray:none;stroke:none" /><path
           id="path6184"
           d="m 523.47,409.98 0.03,-0.19 0.02,-0.18 0.04,-0.19 0.04,-0.18 0.05,-0.19 0.06,-0.18 0.06,-0.18 0.07,-0.18 0.07,-0.18 0.08,-0.17 0.09,-0.18 0.1,-0.16 0.1,-0.16 0.1,-0.16 0.12,-0.16 0.12,-0.14 0.12,-0.14 0.13,-0.14 0.14,-0.13 0.15,-0.12 0.15,-0.12 0.15,-0.1 0.17,-0.1 0.17,-0.09 0.17,-0.08 0.18,-0.07 0.19,-0.06 0.19,-0.05 0.2,-0.04 0.21,-0.03 0.21,-0.02 0.21,-0.01 c 1.04,0 4.08,0.71 4.08,4.74 l 0,2.78 -1.25,0 0,-2.78 c 0,-2.89 -1.23,-3.19 -1.79,-3.19 -1.65,0 -1.85,2.23 -1.85,2.48 l 0,9.97 c 0,2.1 0,4.03 -1.78,5.88 -1.95,1.93 -4.44,2.73 -6.83,2.73 -4.09,0 -7.53,-2.33 -7.53,-5.62 0,-1.49 1,-2.35 2.3,-2.35 1.39,0 2.29,1 2.29,2.3 0,0.59 -0.25,2.23 -2.54,2.3 1.34,1.73 3.78,2.28 5.37,2.28 2.45,0 5.28,-1.94 5.28,-6.38 l 0,-1.84 0,-1.05 0,-4.98 c 0,-4.74 -3.58,-6.42 -5.83,-6.42 -2.43,0 -4.48,1.75 -4.48,4.23 0,2.73 2.1,6.88 10.31,7.17 l 0,0 0,1.05 c -2.53,-0.14 -6.01,-0.3 -9.15,-1.8 -3.74,-1.69 -4.99,-4.28 -4.99,-6.47 0,-4.03 4.83,-5.28 7.97,-5.28 3.3,0 5.58,1.99 6.53,4.33 z"
           inkscape:connector-curvature="0"
           style="fill:#000000;stroke-width:4.57875194;stroke-miterlimit:4;stroke-dasharray:none;stroke:none" /><path
           id="path6186"
           d="m 537.32,423.34 0,-13.36 c 0,-2.23 -0.55,-2.23 -3.89,-2.23 l 0,-1.55 c 1.75,0.05 4.28,0.16 5.62,0.16 1.3,0 3.9,-0.11 5.58,-0.16 l 0,1.55 c -3.33,0 -3.87,0 -3.87,2.23 l 0,9.17 c 0,5.19 3.53,7.97 6.72,7.97 3.14,0 3.68,-2.69 3.68,-5.53 l 0,-11.61 c 0,-2.23 -0.54,-2.23 -3.89,-2.23 l 0,-1.55 c 1.75,0.05 4.3,0.16 5.64,0.16 1.3,0 3.88,-0.11 5.58,-0.16 l 0,1.55 c -2.59,0 -3.84,0 -3.89,1.5 l 0,9.51 c 0,4.28 0,5.83 -1.55,7.61 -0.68,0.86 -2.34,1.84 -5.21,1.84 -3.64,0 -5.99,-2.14 -7.38,-5.21 l 0,5.21 -7.03,-0.54 0,-1.55 c 3.48,0 3.89,-0.34 3.89,-2.78 z"
           inkscape:connector-curvature="0"
           style="fill:#000000;stroke-width:4.57875194;stroke-miterlimit:4;stroke-dasharray:none;stroke:none" /><path
           id="path6188"
           d="m 569.91,415.87 0.12,-0.02 0.12,-0.02 0.14,-0.03 0.16,-0.04 0.17,-0.04 0.18,-0.04 0.19,-0.05 0.2,-0.06 0.2,-0.06 0.21,-0.07 0.22,-0.08 0.22,-0.08 0.22,-0.1 0.22,-0.1 0.22,-0.11 0.22,-0.12 0.21,-0.14 0.22,-0.14 0.2,-0.15 0.2,-0.16 0.19,-0.18 0.18,-0.19 0.17,-0.2 0.16,-0.21 0.14,-0.22 0.06,-0.12 0.07,-0.12 0.06,-0.13 0.05,-0.12 0.05,-0.14 0.04,-0.13 0.04,-0.14 0.04,-0.14 0.03,-0.15 0.03,-0.15 0.02,-0.16 0.01,-0.15 0.01,-0.17 0,-0.16 c 0,-2.53 -1.75,-4.53 -5.62,-4.53 -4.19,0 -5.99,2.84 -6.94,7.07 -0.14,0.64 -0.19,0.85 -0.69,0.85 -0.65,0 -0.65,-0.35 -0.65,-1.25 l 0,-6.58 c 0,-0.84 0,-1.19 0.54,-1.19 0.25,0 0.3,0.05 1.25,1 0.1,0.1 0.1,0.19 1,1.14 2.19,-2.09 4.44,-2.14 5.49,-2.14 5.72,0 8.01,3.35 8.01,6.92 0,2.64 -1.5,4.14 -2.09,4.74 -1.64,1.59 -3.6,2 -5.69,2.39 -2.78,0.55 -6.12,1.2 -6.12,4.09 0,1.74 1.29,3.78 5.57,3.78 5.49,0 5.74,-4.48 5.83,-6.03 0.06,-0.45 0.5,-0.45 0.61,-0.45 0.64,0 0.64,0.25 0.64,1.2 l 0,5.03 c 0,0.85 0,1.19 -0.54,1.19 -0.25,0 -0.35,0 -1,-0.59 -0.15,-0.21 -0.65,-0.64 -0.85,-0.8 -1.89,1.39 -3.94,1.39 -4.69,1.39 -6.07,0 -7.96,-3.33 -7.96,-6.12 0,-1.74 0.79,-3.14 2.14,-4.24 1.59,-1.29 3,-1.59 6.57,-2.28 z"
           inkscape:connector-curvature="0"
           style="fill:#000000;stroke-width:4.57875194;stroke-miterlimit:4;stroke-dasharray:none;stroke:none" /><path
           id="path6190"
           d="m 598.17,408.93 0,-3.28 7.31,0.55 0,1.55 c -3.48,0 -3.87,0.34 -3.87,2.78 l 0,30.25 -7.17,-0.55 0,-1.55 c 3.48,0 3.87,-0.34 3.87,-2.79 l 0,-10.75 c -1.43,1.78 -3.58,3.07 -6.28,3.07 l 0.2,-1.09 c 1.75,0 3.85,-0.75 5.39,-2.98 0.55,-0.85 0.55,-0.96 0.55,-1.85 l 0,0 0,-10.22 c 0,-0.89 0,-1 -0.55,-1.84 -1.5,-2.39 -3.74,-3.48 -5.89,-3.48 -2.23,0 -4.03,1.29 -5.21,3.18 -1.3,2.05 -1.46,4.89 -1.46,6.93 0,1.84 0.1,4.84 1.55,7.07 1.05,1.55 2.94,3.19 5.62,3.19 l -0.2,1.09 c -5.87,0 -11.11,-4.87 -11.11,-11.29 0,-6.33 4.89,-11.27 10.56,-11.27 3.19,0 5.44,1.69 6.69,3.28 z"
           inkscape:connector-curvature="0"
           style="fill:#000000;stroke-width:4.57875194;stroke-miterlimit:4;stroke-dasharray:none;stroke:none" /><path
           id="path6192"
           d="m 626.44,410.14 0,-4.49 7.17,0.55 0,1.55 c -3.49,0 -3.89,0.34 -3.89,2.78 l 0,17.68 -7.33,-0.54 0,-1.55 c 3.5,0 3.89,-0.34 3.89,-2.78 l 0,-8.88 c 0,-4.32 -2.39,-7.71 -6.03,-7.71 -4.17,0 -4.37,2.34 -4.37,4.93 l 0,16.53 -7.33,-0.54 0,-1.55 c 3.89,0 3.89,-0.14 3.89,-4.58 l 0,-7.47 c 0,-3.89 0,-8.42 7.56,-8.42 2.8,0 4.98,1.39 6.44,4.49 z"
           inkscape:connector-curvature="0"
           style="fill:#000000;stroke-width:4.57875194;stroke-miterlimit:4;stroke-dasharray:none;stroke:none" /><path
           id="path6194"
           d="m 640.5,417.06 0,0.38 0.01,0.36 0.02,0.36 0.02,0.35 0.02,0.34 0.03,0.34 0.04,0.32 0.04,0.32 0.05,0.31 0.05,0.3 0.05,0.29 0.07,0.29 0.13,0.55 0.15,0.51 0.17,0.49 0.18,0.46 0.2,0.43 0.2,0.4 0.23,0.38 0.23,0.35 0.24,0.32 0.25,0.3 0.25,0.28 0.27,0.26 0.27,0.23 0.27,0.21 0.28,0.19 0.28,0.16 0.28,0.15 0.29,0.13 0.28,0.12 0.28,0.09 0.28,0.08 0.28,0.06 0.27,0.05 0.26,0.03 0.26,0.02 0.25,0.01 c 0.44,0 3.58,-0.05 5.33,-1.85 -2.04,-0.15 -2.34,-1.64 -2.34,-2.29 0,-1.3 0.89,-2.3 2.3,-2.3 1.28,0 2.28,0.86 2.28,2.34 0,3.39 -3.78,5.33 -7.63,5.33 -6.22,0 -10.81,-5.37 -10.81,-11.55 0,-6.37 4.94,-11.31 10.72,-11.31 6.67,0 8.26,5.99 8.26,6.47 0,0.5 -0.5,0.5 -0.64,0.5 -0.45,0 -0.54,-0.19 -0.65,-0.5 -1.44,-4.62 -4.67,-5.22 -6.52,-5.22 -2.64,0 -7.03,2.14 -7.03,10.16 z"
           inkscape:connector-curvature="0"
           style="fill:#000000;stroke-width:4.57875194;stroke-miterlimit:4;stroke-dasharray:none;stroke:none" /><path
           id="path6196"
           d="m 665.38,426.12 7.12,0 0,1.55 -7.12,0 0,9.17 -1.26,0 c -0.04,-4.08 -1.54,-9.42 -6.42,-9.61 l 0,-1.11 4.24,0 0,-13.75 c 0,-6.12 4.62,-6.72 6.42,-6.72 3.53,0 4.94,3.53 4.94,6.72 l 0,2.84 -1.25,0 0,-2.73 c 0,-3.69 -1.5,-5.58 -3.35,-5.58 -3.32,0 -3.32,4.53 -3.32,5.38 z"
           inkscape:connector-curvature="0"
           style="fill:#000000;stroke-width:4.57875194;stroke-miterlimit:4;stroke-dasharray:none;stroke:none" /><path
           id="path6198"
           d="m 681.6,417.71 0.05,1.05 c 0.29,7.42 4.48,8.66 6.18,8.66 5.13,0 5.63,-6.72 5.63,-8.66 l -11.81,0 -0.05,-1.05 13.9,0 c 1.1,0 1.24,0 1.24,1.05 0,4.92 -2.69,9.75 -8.91,9.75 -5.78,0 -10.37,-5.12 -10.37,-11.36 0,-6.67 5.23,-11.5 10.97,-11.5 6.07,0 8.31,5.53 8.31,6.47 0,0.5 -0.39,0.61 -0.64,0.61 -0.45,0 -0.55,-0.3 -0.66,-0.7 -1.73,-5.13 -6.22,-5.13 -6.72,-5.13 -2.5,0 -4.48,1.49 -5.62,3.33 -1.5,2.39 -1.5,5.69 -1.5,7.48 z"
           inkscape:connector-curvature="0"
           style="fill:#000000;stroke-width:4.57875194;stroke-miterlimit:4;stroke-dasharray:none;stroke:none" /><path
           id="path6200"
           d="m 717.63,410.14 0,-4.49 7.17,0.55 0,1.55 c -3.48,0 -3.89,0.34 -3.89,2.78 l 0,17.68 -7.33,-0.54 0,-1.55 c 3.5,0 3.89,-0.34 3.89,-2.78 l 0,-8.88 c 0,-4.32 -2.39,-7.71 -6.03,-7.71 -4.17,0 -4.37,2.34 -4.37,4.93 l 0,16.53 -7.33,-0.54 0,-1.55 c 3.89,0 3.89,-0.14 3.89,-4.58 l 0,-7.47 c 0,-3.89 0,-8.42 7.56,-8.42 2.8,0 4.99,1.39 6.44,4.49 z"
           inkscape:connector-curvature="0"
           style="fill:#000000;stroke-width:4.57875194;stroke-miterlimit:4;stroke-dasharray:none;stroke:none" /><path
           id="path6202"
           d="m 734.18,422.75 0,5.46 -6.93,-0.54 0,-1.55 c 3.49,0 3.9,-0.34 3.9,-2.78 l 0,-13.36 c 0,-2.23 -0.55,-2.23 -3.9,-2.23 l 0,-1.55 c 1.96,0.05 4.28,0.16 5.69,0.16 1.99,0 4.33,0 6.33,-0.16 l 0,1.55 -1.05,0 c -3.69,0 -3.79,0.54 -3.79,2.34 l 0,7.67 c 0,4.92 2.09,9.36 5.89,9.36 0.34,0 0.43,0 0.54,-0.05 -0.15,-0.04 -1.15,-0.64 -1.15,-1.93 0,-1.41 1.04,-2.14 2.15,-2.14 0.89,0 2.14,0.59 2.14,2.18 0,1.6 -1.54,3.03 -3.68,3.03 -3.64,0 -5.44,-3.32 -6.14,-5.46 z"
           inkscape:connector-curvature="0"
           style="fill:#000000;stroke-width:4.57875194;stroke-miterlimit:4;stroke-dasharray:none;stroke:none" /></g>    </g>
  </g>
</svg>
