<?xml version="1.0" encoding="UTF-8" standalone="no"?>
<!-- Created with Inkscape (http://www.inkscape.org/) -->

<svg
   xmlns:dc="http://purl.org/dc/elements/1.1/"
   xmlns:cc="http://creativecommons.org/ns#"
   xmlns:rdf="http://www.w3.org/1999/02/22-rdf-syntax-ns#"
   xmlns:svg="http://www.w3.org/2000/svg"
   xmlns="http://www.w3.org/2000/svg"
   xmlns:sodipodi="http://sodipodi.sourceforge.net/DTD/sodipodi-0.dtd"
   xmlns:inkscape="http://www.inkscape.org/namespaces/inkscape"
   width="210mm"
   height="297mm"
   viewBox="0 0 744.09448819 1052.3622047"
   id="svg6309"
   version="1.1"
   inkscape:version="0.91 r13725"
   sodipodi:docname="dessin2.svg"
   inkscape:export-filename="/home/alice/Documents/Etudes/SPI_M2_S1/US_CND/cr_cnd/ondes_volumes/notations/dessin2.png"
   inkscape:export-xdpi="120"
   inkscape:export-ydpi="120">
  <sodipodi:namedview
     id="base"
     pagecolor="#ffffff"
     bordercolor="#666666"
     borderopacity="1.0"
     inkscape:pageopacity="0.0"
     inkscape:pageshadow="2"
     inkscape:zoom="0.7"
     inkscape:cx="290.50374"
     inkscape:cy="616.63792"
     inkscape:document-units="px"
     inkscape:current-layer="layer1"
     showgrid="false"
     showguides="true"
     inkscape:guide-bbox="true"
     inkscape:window-width="1366"
     inkscape:window-height="718"
     inkscape:window-x="0"
     inkscape:window-y="24"
     inkscape:window-maximized="1">
    <sodipodi:guide
       id="guide7023"
       orientation="0,1"
       position="557.14286,721.42859" />
    <sodipodi:guide
       id="guide7025"
       orientation="1,0"
       position="368.70568,706.09664" />
  </sodipodi:namedview>
  <defs
     id="defs6311">
    <marker
       inkscape:isstock="true"
       style="overflow:visible;"
       id="marker6423"
       refX="0.0"
       refY="0.0"
       orient="auto"
       inkscape:stockid="Arrow1Mend">
      <path
         transform="scale(0.4) rotate(180) translate(10,0)"
         style="fill-rule:evenodd;stroke:#ff0000;stroke-width:1pt;stroke-opacity:1;fill:#ff0000;fill-opacity:1"
         d="M 0.0,0.0 L 5.0,-5.0 L -12.5,0.0 L 5.0,5.0 L 0.0,0.0 z "
         id="path6425" />
    </marker>
    <marker
       inkscape:isstock="true"
       style="overflow:visible"
       id="marker6413"
       refX="0.0"
       refY="0.0"
       orient="auto"
       inkscape:stockid="Arrow1Mstart">
      <path
         transform="scale(0.4) translate(10,0)"
         style="fill-rule:evenodd;stroke:#ff0000;stroke-width:1pt;stroke-opacity:1;fill:#ff0000;fill-opacity:1"
         d="M 0.0,0.0 L 5.0,-5.0 L -12.5,0.0 L 5.0,5.0 L 0.0,0.0 z "
         id="path6415" />
    </marker>
    <marker
       inkscape:stockid="Arrow1Mend"
       orient="auto"
       refY="0.0"
       refX="0.0"
       id="marker4793"
       style="overflow:visible;"
       inkscape:isstock="true">
      <path
         id="path4375"
         d="M 0.0,0.0 L 5.0,-5.0 L -12.5,0.0 L 5.0,5.0 L 0.0,0.0 z "
         style="fill-rule:evenodd;stroke:#000000;stroke-width:1pt;stroke-opacity:1;fill:#000000;fill-opacity:1"
         transform="scale(0.4) rotate(180) translate(10,0)" />
    </marker>
    <marker
       inkscape:stockid="Arrow1Mstart"
       orient="auto"
       refY="0.0"
       refX="0.0"
       id="marker4622"
       style="overflow:visible"
       inkscape:isstock="true">
      <path
         id="path4372"
         d="M 0.0,0.0 L 5.0,-5.0 L -12.5,0.0 L 5.0,5.0 L 0.0,0.0 z "
         style="fill-rule:evenodd;stroke:#000000;stroke-width:1pt;stroke-opacity:1;fill:#000000;fill-opacity:1"
         transform="scale(0.4) translate(10,0)" />
    </marker>
    <marker
       inkscape:stockid="Arrow1Mend"
       orient="auto"
       refY="0.0"
       refX="0.0"
       id="marker10789"
       style="overflow:visible;"
       inkscape:isstock="true">
      <path
         id="path10791"
         d="M 0.0,0.0 L 5.0,-5.0 L -12.5,0.0 L 5.0,5.0 L 0.0,0.0 z "
         style="fill-rule:evenodd;stroke:#0000ff;stroke-width:1pt;stroke-opacity:1;fill:#0000ff;fill-opacity:1"
         transform="scale(0.4) rotate(180) translate(10,0)" />
    </marker>
    <marker
       inkscape:stockid="Arrow1Mstart"
       orient="auto"
       refY="0.0"
       refX="0.0"
       id="marker10741"
       style="overflow:visible"
       inkscape:isstock="true">
      <path
         id="path10743"
         d="M 0.0,0.0 L 5.0,-5.0 L -12.5,0.0 L 5.0,5.0 L 0.0,0.0 z "
         style="fill-rule:evenodd;stroke:#0000ff;stroke-width:1pt;stroke-opacity:1;fill:#0000ff;fill-opacity:1"
         transform="scale(0.4) translate(10,0)" />
    </marker>
    <marker
       inkscape:stockid="Arrow1Mend"
       orient="auto"
       refY="0.0"
       refX="0.0"
       id="Arrow1Mend"
       style="overflow:visible;"
       inkscape:isstock="true"
       inkscape:collect="always">
      <path
         id="path4418"
         d="M 0.0,0.0 L 5.0,-5.0 L -12.5,0.0 L 5.0,5.0 L 0.0,0.0 z "
         style="fill-rule:evenodd;stroke:#008000;stroke-width:1pt;stroke-opacity:1;fill:#008000;fill-opacity:1"
         transform="scale(0.4) rotate(180) translate(10,0)" />
    </marker>
    <marker
       inkscape:stockid="Arrow1Mstart"
       orient="auto"
       refY="0.0"
       refX="0.0"
       id="Arrow1Mstart"
       style="overflow:visible"
       inkscape:isstock="true"
       inkscape:collect="always">
      <path
         id="path4415"
         d="M 0.0,0.0 L 5.0,-5.0 L -12.5,0.0 L 5.0,5.0 L 0.0,0.0 z "
         style="fill-rule:evenodd;stroke:#008000;stroke-width:1pt;stroke-opacity:1;fill:#008000;fill-opacity:1"
         transform="scale(0.4) translate(10,0)" />
    </marker>
    <marker
       inkscape:isstock="true"
       style="overflow:visible;"
       id="marker9012"
       refX="0.0"
       refY="0.0"
       orient="auto"
       inkscape:stockid="Arrow1Lend">
      <path
         transform="scale(0.8) rotate(180) translate(12.5,0)"
         style="fill-rule:evenodd;stroke:#000000;stroke-width:1pt;stroke-opacity:1;fill:#000000;fill-opacity:1"
         d="M 0.0,0.0 L 5.0,-5.0 L -12.5,0.0 L 5.0,5.0 L 0.0,0.0 z "
         id="path9014" />
    </marker>
    <marker
       inkscape:isstock="true"
       style="overflow:visible"
       id="marker9002"
       refX="0.0"
       refY="0.0"
       orient="auto"
       inkscape:stockid="Arrow1Lstart">
      <path
         transform="scale(0.8) translate(12.5,0)"
         style="fill-rule:evenodd;stroke:#008000;stroke-width:1pt;stroke-opacity:1;fill:#008000;fill-opacity:1"
         d="M 0.0,0.0 L 5.0,-5.0 L -12.5,0.0 L 5.0,5.0 L 0.0,0.0 z "
         id="path9004" />
    </marker>
    <marker
       inkscape:isstock="true"
       style="overflow:visible;"
       id="marker8674"
       refX="0.0"
       refY="0.0"
       orient="auto"
       inkscape:stockid="Arrow1Lend">
      <path
         transform="scale(0.8) rotate(180) translate(12.5,0)"
         style="fill-rule:evenodd;stroke:#000000;stroke-width:1pt;stroke-opacity:1;fill:#000000;fill-opacity:1"
         d="M 0.0,0.0 L 5.0,-5.0 L -12.5,0.0 L 5.0,5.0 L 0.0,0.0 z "
         id="path8676" />
    </marker>
    <marker
       inkscape:isstock="true"
       style="overflow:visible"
       id="marker8664"
       refX="0.0"
       refY="0.0"
       orient="auto"
       inkscape:stockid="Arrow1Lstart">
      <path
         transform="scale(0.8) translate(12.5,0)"
         style="fill-rule:evenodd;stroke:#000000;stroke-width:1pt;stroke-opacity:1;fill:#000000;fill-opacity:1"
         d="M 0.0,0.0 L 5.0,-5.0 L -12.5,0.0 L 5.0,5.0 L 0.0,0.0 z "
         id="path8666" />
    </marker>
    <marker
       inkscape:stockid="Arrow2Lend"
       orient="auto"
       refY="0"
       refX="0"
       id="marker4695"
       style="overflow:visible"
       inkscape:isstock="true">
      <path
         id="path4697"
         style="fill:#008000;fill-opacity:1;fill-rule:evenodd;stroke:#008000;stroke-width:0.625;stroke-linejoin:round;stroke-opacity:1"
         d="M 8.7185878,4.0337352 -2.2072895,0.01601326 8.7185884,-4.0017078 c -1.7454984,2.3720609 -1.7354408,5.6174519 -6e-7,8.035443 z"
         transform="matrix(-1.1,0,0,-1.1,-1.1,0)"
         inkscape:connector-curvature="0" />
    </marker>
    <marker
       inkscape:isstock="true"
       style="overflow:visible"
       id="marker4695-3"
       refX="0"
       refY="0"
       orient="auto"
       inkscape:stockid="Arrow2Lend">
      <path
         inkscape:connector-curvature="0"
         transform="matrix(-1.1,0,0,-1.1,-1.1,0)"
         d="M 8.7185878,4.0337352 -2.2072895,0.01601326 8.7185884,-4.0017078 c -1.7454984,2.3720609 -1.7354408,5.6174519 -6e-7,8.035443 z"
         style="fill:#008000;fill-opacity:1;fill-rule:evenodd;stroke:#008000;stroke-width:0.625;stroke-linejoin:round;stroke-opacity:1"
         id="path4697-2" />
    </marker>
  </defs>
  <metadata
     id="metadata6314">
    <rdf:RDF>
      <cc:Work
         rdf:about="">
        <dc:format>image/svg+xml</dc:format>
        <dc:type
           rdf:resource="http://purl.org/dc/dcmitype/StillImage" />
        <dc:title />
      </cc:Work>
    </rdf:RDF>
  </metadata>
  <g
     id="layer1"
     inkscape:groupmode="layer"
     inkscape:label="Calque 1">
    <path
       inkscape:connector-curvature="0"
       id="path4146"
       d="m 93.321426,621.38192 451.428574,0"
       style="fill:none;fill-rule:evenodd;stroke:#000000;stroke-width:3.75;stroke-linecap:butt;stroke-linejoin:miter;stroke-miterlimit:4;stroke-dasharray:none;stroke-opacity:1" />
    <path
       style="fill:none;fill-rule:evenodd;stroke:#000000;stroke-width:3.75;stroke-linecap:butt;stroke-linejoin:miter;stroke-miterlimit:4;stroke-dasharray:none;stroke-opacity:1"
       d="m 93.32143,454.23905 548.40321,0"
       id="path4144"
       inkscape:connector-curvature="0" />
    <g
       style="stroke-width:3.75;stroke-miterlimit:4;stroke-dasharray:none"
       id="g4168"
       transform="matrix(0.98958183,-0.14397154,0.14397154,0.98958183,-192.47961,-122.84644)">
      <g
         id="g6991"
         style="stroke-width:3.75;stroke-miterlimit:4;stroke-dasharray:none">
        <path
           sodipodi:nodetypes="cc"
           inkscape:connector-curvature="0"
           id="path4156"
           d="M 600.91316,532.47534 629.99217,499.2349"
           style="fill:none;fill-rule:evenodd;stroke:#000000;stroke-width:3.75;stroke-linecap:butt;stroke-linejoin:miter;stroke-miterlimit:4;stroke-dasharray:none;stroke-opacity:1" />
        <path
           sodipodi:nodetypes="cc"
           style="fill:none;fill-rule:evenodd;stroke:#000000;stroke-width:3.75;stroke-linecap:butt;stroke-linejoin:miter;stroke-miterlimit:4;stroke-dasharray:none;stroke-opacity:1"
           d="m 585.17857,461.29077 44.36422,39.54866"
           id="path4158"
           inkscape:connector-curvature="0" />
        <path
           style="fill:none;fill-rule:evenodd;stroke:#000000;stroke-width:3.75;stroke-linecap:butt;stroke-linejoin:miter;stroke-miterlimit:4;stroke-dasharray:none;stroke-opacity:1"
           d="M 557.43459,493.9612 586.5136,460.72076"
           id="path7011"
           inkscape:connector-curvature="0"
           sodipodi:nodetypes="cc" />
      </g>
    </g>
    <g
       transform="translate(-222.39286,-206.18396)"
       style="stroke-width:3.75;stroke-miterlimit:4;stroke-dasharray:none"
       id="g4201">
      <path
         inkscape:connector-curvature="0"
         id="path4166"
         d="m 428.30468,482.13109 0,178.29192"
         style="fill:none;fill-rule:evenodd;stroke:#000000;stroke-width:3.75;stroke-linecap:butt;stroke-linejoin:miter;stroke-miterlimit:4;stroke-dasharray:none;stroke-opacity:1" />
      <g
         style="stroke-width:3.99088387;stroke-miterlimit:4;stroke-dasharray:none"
         transform="matrix(1,0,0,0.8829261,0,77.376835)"
         id="g4179">
        <g
           style="stroke-width:3.99088387;stroke-miterlimit:4;stroke-dasharray:none"
           id="g4173">
          <path
             style="fill:none;fill-rule:evenodd;stroke:#000000;stroke-width:3.99088387;stroke-linecap:butt;stroke-linejoin:miter;stroke-miterlimit:4;stroke-dasharray:none;stroke-opacity:1"
             d="m 428.29989,458.3925 163.11232,0"
             id="path4164"
             inkscape:connector-curvature="0" />
        </g>
        <path
           style="fill:none;fill-rule:evenodd;stroke:#000000;stroke-width:3.99088387;stroke-linecap:butt;stroke-linejoin:miter;stroke-miterlimit:4;stroke-dasharray:none;stroke-opacity:1"
           d="m 742.85714,660.42301 -314.55246,0"
           id="path4177"
           inkscape:connector-curvature="0" />
      </g>
    </g>
    <path
       style="opacity:1;fill:none;fill-opacity:1;stroke:#000000;stroke-width:3.75;stroke-miterlimit:4;stroke-dasharray:none;stroke-dashoffset:0;stroke-opacity:1"
       id="path4199"
       sodipodi:type="arc"
       sodipodi:cx="366.89291"
       sodipodi:cy="454.03546"
       sodipodi:rx="177.78883"
       sodipodi:ry="177.78883"
       sodipodi:start="4.712389"
       sodipodi:end="0"
       d="M 366.89292,276.24663 A 177.78883,177.78883 0 0 1 544.68175,454.03546"
       sodipodi:open="true" />
    <g
       id="g4240"
       transform="matrix(-1,0,0,-1,953.82149,1283.095)"
       style="stroke-width:3.75;stroke-miterlimit:4;stroke-dasharray:none">
      <path
         style="fill:none;fill-rule:evenodd;stroke:#000000;stroke-width:3.75;stroke-linecap:butt;stroke-linejoin:miter;stroke-miterlimit:4;stroke-dasharray:none;stroke-opacity:1"
         d="m 315.71429,660.42301 451.42857,0"
         id="path4242"
         inkscape:connector-curvature="0" />
      <g
         id="g4244"
         transform="translate(130.62763,13.448876)"
         style="stroke-width:3.75;stroke-miterlimit:4;stroke-dasharray:none" />
      <g
         id="g4252"
         style="stroke-width:3.75;stroke-miterlimit:4;stroke-dasharray:none">
        <path
           inkscape:connector-curvature="0"
           id="path4254"
           d="m 428.30468,482.13109 0,178.29192"
           style="fill:none;fill-rule:evenodd;stroke:#000000;stroke-width:3.75;stroke-linecap:butt;stroke-linejoin:miter;stroke-miterlimit:4;stroke-dasharray:none;stroke-opacity:1" />
        <g
           transform="matrix(1,0,0,0.8829261,0,77.376835)"
           id="g4256"
           style="stroke-width:3.99088387;stroke-miterlimit:4;stroke-dasharray:none">
          <g
             id="g4258"
             style="stroke-width:3.99088387;stroke-miterlimit:4;stroke-dasharray:none">
            <path
               style="fill:none;fill-rule:evenodd;stroke:#000000;stroke-width:3.99088387;stroke-linecap:butt;stroke-linejoin:miter;stroke-miterlimit:4;stroke-dasharray:none;stroke-opacity:1"
               d="m 428.29989,458.3925 163.11232,0"
               id="path4260"
               inkscape:connector-curvature="0" />
          </g>
          <path
             style="fill:none;fill-rule:evenodd;stroke:#000000;stroke-width:3.99088387;stroke-linecap:butt;stroke-linejoin:miter;stroke-miterlimit:4;stroke-dasharray:none;stroke-opacity:1"
             d="m 742.85714,660.42301 -314.55246,0"
             id="path4262"
             inkscape:connector-curvature="0" />
        </g>
      </g>
      <path
         style="opacity:1;fill:none;fill-opacity:1;stroke:#000000;stroke-width:3.75;stroke-miterlimit:4;stroke-dasharray:none;stroke-dashoffset:0;stroke-opacity:1"
         id="path4264"
         sodipodi:type="arc"
         sodipodi:cx="589.28577"
         sodipodi:cy="660.21942"
         sodipodi:rx="177.78883"
         sodipodi:ry="177.78883"
         sodipodi:start="4.712389"
         sodipodi:end="0"
         d="M 589.28577,482.43059 A 177.78883,177.78883 0 0 1 767.0746,660.21942"
         sodipodi:open="true" />
    </g>
    <text
       xml:space="preserve"
       style="font-style:normal;font-variant:normal;font-weight:bold;font-stretch:normal;font-size:40px;line-height:125%;font-family:Sans;-inkscape-font-specification:'Sans Bold';text-align:start;letter-spacing:0px;word-spacing:0px;writing-mode:lr-tb;text-anchor:start;fill:#000000;fill-opacity:1;stroke:none;stroke-width:3.75;stroke-linecap:butt;stroke-linejoin:miter;stroke-miterlimit:4;stroke-dasharray:none;stroke-opacity:1"
       x="399.03574"
       y="364.74969"
       id="text4276"
       sodipodi:linespacing="125%"><tspan
         sodipodi:role="line"
         id="tspan4278"
         x="399.03574"
         y="364.74969" /></text>
    <path
       inkscape:connector-curvature="0"
       id="path7027"
       d="m 114.14724,459.40266 0,155.56349"
       style="fill:none;fill-rule:evenodd;stroke:#000000;stroke-width:3.75;stroke-linecap:butt;stroke-linejoin:miter;stroke-opacity:1;marker-start:url(#marker4622);marker-end:url(#marker4793);stroke-miterlimit:4;stroke-dasharray:none" />
    <text
       sodipodi:linespacing="125%"
       id="text7089"
       y="550.31641"
       x="67.680222"
       style="font-style:normal;font-variant:normal;font-weight:normal;font-stretch:normal;font-size:40px;line-height:125%;font-family:Sans;-inkscape-font-specification:'Sans, Normal';text-align:start;letter-spacing:0px;word-spacing:0px;writing-mode:lr-tb;text-anchor:start;fill:#000000;fill-opacity:1;stroke:none;stroke-width:3.75;stroke-linecap:butt;stroke-linejoin:miter;stroke-opacity:1;stroke-miterlimit:4;stroke-dasharray:none"
       xml:space="preserve"><tspan
         y="550.31641"
         x="67.680222"
         id="tspan7091"
         sodipodi:role="line">d</tspan></text>
    <path
       inkscape:connector-curvature="0"
       id="path7112"
       d="M 459.61941,302.82902 368.70568,454.3519"
       style="fill:#0000ff;fill-rule:evenodd;stroke:#0000ff;stroke-width:3.75;stroke-linecap:butt;stroke-linejoin:miter;stroke-opacity:1;marker-start:url(#marker10741);marker-end:url(#marker10789);stroke-miterlimit:4;stroke-dasharray:none" />
    <path
       inkscape:connector-curvature="0"
       id="path4693"
       d="M 367.80383,456.06297 224.19416,617.16483"
       style="fill:#008000;fill-rule:evenodd;stroke:#008000;stroke-width:3.75;stroke-linecap:butt;stroke-linejoin:miter;stroke-miterlimit:4;stroke-dasharray:none;stroke-opacity:1;marker-end:url(#Arrow1Mend);marker-start:url(#Arrow1Mstart)" />
    <g
       transform="matrix(0.89220653,0,0,0.89220653,156.6636,81.590128)"
       id="g5090"
       style="fill:#0000ff;stroke-width:4.20306271;stroke-miterlimit:4;stroke-dasharray:none;stroke:none">
      <g
         style="font-style:normal;font-variant:normal;font-weight:normal;font-stretch:normal;letter-spacing:normal;word-spacing:normal;text-anchor:start;fill:#0000ff;fill-opacity:1;fill-rule:evenodd;stroke:none;stroke-linecap:butt;stroke-linejoin:miter;stroke-miterlimit:4;stroke-dasharray:none;stroke-dashoffset:0;stroke-opacity:1;stroke-width:3.95399243"
         id="g5092"
         transform="matrix(1.0629921,0,0,-1.0629921,-186.02362,789.27165)"
         xml:space="preserve"
         stroke-miterlimit="10.433"
         font-style="normal"
         font-variant="normal"
         font-weight="normal"
         font-stretch="normal"
         font-size-adjust="none"
         letter-spacing="normal"
         word-spacing="normal"><path
           style="fill:#0000ff;stroke-width:3.95399243;stroke-miterlimit:4;stroke-dasharray:none;stroke:none"
           inkscape:connector-curvature="0"
           d="m 475.25,425.14 -0.14,0 -0.15,0 -0.15,-0.01 -0.14,0 -0.14,-0.01 -0.14,-0.02 -0.07,-0.01 -0.07,-0.01 -0.06,-0.02 -0.07,-0.01 -0.07,-0.02 -0.07,-0.02 -0.07,-0.02 -0.06,-0.02 -0.07,-0.03 -0.07,-0.03 -0.06,-0.03 -0.07,-0.04 -0.07,-0.04 -0.06,-0.04 -0.07,-0.05 -0.07,-0.04 -0.06,-0.06 -0.07,-0.05 -0.06,-0.06 -0.07,-0.07 c -0.8,-0.75 -0.89,-1.59 -0.89,-1.93 0,-1.21 0.89,-1.75 1.84,-1.75 1.44,0 2.8,1.2 2.8,3.18 0,2.44 -2.34,4.28 -5.89,4.28 -6.72,0 -13.34,-7.12 -13.34,-14.14 0,-4.48 2.89,-8.42 8.06,-8.42 7.12,0 11.31,5.28 11.31,5.88 0,0.29 -0.3,0.65 -0.59,0.65 -0.25,0 -0.35,-0.11 -0.66,-0.5 -3.94,-4.93 -9.36,-4.93 -9.95,-4.93 -3.14,0 -4.49,2.43 -4.49,5.43 0,2.03 0.99,6.88 2.69,9.96 1.55,2.84 4.28,4.98 7.02,4.98 1.7,0 3.59,-0.64 4.29,-1.98 z"
           id="path5094" /><path
           style="fill:#0000ff;stroke-width:3.95399243;stroke-miterlimit:4;stroke-dasharray:none;stroke:none"
           inkscape:connector-curvature="0"
           d="m 479.73,394.51 -0.02,-0.09 -0.02,-0.08 -0.02,-0.09 -0.02,-0.07 -0.02,-0.08 -0.02,-0.07 -0.03,-0.07 -0.02,-0.06 -0.02,-0.06 -0.03,-0.05 -0.03,-0.06 -0.02,-0.05 -0.04,-0.04 -0.03,-0.05 -0.04,-0.04 -0.04,-0.03 -0.04,-0.04 -0.05,-0.03 -0.05,-0.03 -0.05,-0.02 -0.06,-0.03 -0.07,-0.02 -0.07,-0.01 -0.07,-0.02 -0.08,-0.02 -0.05,0 -0.04,-0.01 -0.04,0 -0.05,-0.01 -0.05,0 -0.05,0 -0.05,-0.01 -0.06,0 -0.05,0 -0.06,0 -0.06,-0.01 -0.06,0 -0.06,0 -0.06,0 c -0.46,0 -0.94,0 -0.94,-0.73 0,-0.39 0.31,-0.53 0.48,-0.53 0.91,0 2.07,0.14 3,0.14 1.19,0 2.5,-0.14 3.66,-0.14 0.31,0 0.7,0.11 0.7,0.76 0,0.5 -0.5,0.5 -0.9,0.5 -0.78,0 -1.72,0 -1.72,0.41 0,0.19 0.25,1.09 0.39,1.61 0.42,1.84 0.91,3.73 1.28,5.18 0.42,-0.68 1.5,-2.04 3.59,-2.04 l 0,0.97 c -2.46,0 -3.09,2.68 -3.09,3.03 0,0.14 0.06,0.39 0.09,0.53 l 1.75,7 c 2.02,2.69 3.77,3.2 4.88,3.2 1.36,0 2.55,-1.01 2.55,-3.37 0,-1.44 -0.77,-4.99 -1.82,-7.02 -0.87,-1.7 -2.57,-3.37 -4.36,-3.37 l 0,-0.97 c 4.25,0 8.96,4.7 8.96,9.89 0,4.08 -2.83,5.81 -5.22,5.81 -2.17,0 -4.02,-1.45 -4.95,-2.44 -0.6,1.99 -2.55,2.44 -3.6,2.44 -1.36,0 -2.19,-0.91 -2.75,-1.84 -0.7,-1.19 -1.25,-3.27 -1.25,-3.49 0,-0.45 0.49,-0.45 0.6,-0.45 0.48,0 0.51,0.11 0.76,1.05 0.52,2.03 1.19,3.76 2.55,3.76 0.9,0 1.14,-0.76 1.14,-1.7 0,-0.39 -0.06,-0.84 -0.11,-1.05 z"
           id="path5096" /><path
           style="fill:#0000ff;stroke-width:3.95399243;stroke-miterlimit:4;stroke-dasharray:none;stroke:none"
           inkscape:connector-curvature="0"
           d="m 507.47,421.9 0,0.01 0,0 0,0 0.01,0.01 0,0 0,0.01 0,0.01 0,0 0.01,0.01 0,0.01 0,0.01 0.01,0.02 0,0.02 0.01,0.02 0.01,0.02 0,0.02 0.01,0.02 0,0.03 0.01,0.02 0.01,0.05 0.01,0.04 0.01,0.03 0,0.02 0.01,0.02 0,0.02 0.01,0.02 0,0.02 0.01,0.02 0,0.01 0,0.01 0,0.01 0,0 0,0.01 0.01,0 0,0.01 0,0 0,0.01 0,0 0,0 0,0.01 0,0 c 0,0.19 -0.14,0.5 -0.56,0.5 -0.69,0 -3.6,-0.28 -4.46,-0.36 -0.25,-0.03 -0.73,-0.06 -0.73,-0.8 0,-0.48 0.48,-0.48 0.87,-0.48 1.68,0 1.68,-0.25 1.68,-0.53 0,-0.24 -0.08,-0.46 -0.14,-0.77 l -4.33,-17.2 c -0.11,-0.36 -0.14,-0.74 -0.14,-1.08 0,-2.23 1.98,-3.31 3.65,-3.31 0.85,0 1.89,0.28 2.8,1.84 0.73,1.28 1.22,3.35 1.22,3.49 0,0.45 -0.45,0.45 -0.56,0.45 -0.49,0 -0.55,-0.2 -0.69,-0.84 -0.45,-1.74 -1.13,-3.97 -2.63,-3.97 -0.93,0 -1.17,0.87 -1.17,1.7 0,0.39 0.1,1.05 0.2,1.44 z"
           id="path5098" /><path
           style="fill:#0000ff;stroke-width:3.95399243;stroke-miterlimit:4;stroke-dasharray:none;stroke:none"
           inkscape:connector-curvature="0"
           d="m 518.29,406.7 0.09,0 0.11,0 0.12,0 0.12,0 0.13,0.01 0.14,0 0.15,0.01 0.16,0 0.16,0.01 0.17,0.01 0.17,0.01 0.18,0.01 0.18,0.01 0.19,0.02 0.39,0.03 0.39,0.04 0.41,0.05 0.4,0.06 0.41,0.07 0.4,0.08 0.2,0.05 0.19,0.04 0.2,0.05 0.18,0.06 0.19,0.05 0.18,0.06 c 2.58,0.91 3.06,2.58 3.06,3.63 0,1.92 -1.92,3.06 -4.33,3.06 l 0,-0.97 c 1.53,0 2.83,-0.76 2.83,-2.09 0,-3.38 -5.89,-3.38 -7.39,-3.38 l -1.7,0 c 1.42,5.05 5.29,5.47 6.26,5.47 l 0,0.97 c -4.17,0 -9.83,-3.2 -9.83,-9.16 0,-3.51 2.21,-6.54 6.29,-6.54 5.89,0 8.64,3.44 8.64,3.94 0,0.2 -0.32,0.59 -0.6,0.59 -0.2,0 -0.28,-0.08 -0.56,-0.36 -2.72,-3.2 -6.8,-3.2 -7.42,-3.2 -2.1,0 -3.49,1.39 -3.49,4.22 0,0.48 0,1.18 0.43,3.09 z"
           id="path5100" /><path
           style="fill:#0000ff;stroke-width:3.95399243;stroke-miterlimit:4;stroke-dasharray:none;stroke:none"
           inkscape:connector-curvature="0"
           d="m 537.99,402.45 -0.04,-0.11 -0.04,-0.12 -0.04,-0.12 -0.05,-0.12 -0.05,-0.12 -0.06,-0.13 -0.06,-0.13 -0.07,-0.12 -0.07,-0.13 -0.08,-0.13 -0.08,-0.13 -0.08,-0.12 -0.09,-0.13 -0.09,-0.12 -0.1,-0.12 -0.1,-0.12 -0.11,-0.12 -0.11,-0.11 -0.11,-0.1 -0.12,-0.1 -0.12,-0.1 -0.13,-0.09 -0.13,-0.08 -0.13,-0.08 -0.14,-0.07 -0.14,-0.06 -0.14,-0.05 -0.15,-0.05 -0.16,-0.04 -0.15,-0.02 -0.16,-0.02 -0.17,0 c -0.11,0 -1.15,0 -1.89,0.48 1.44,0.45 1.53,1.72 1.53,1.92 0,0.77 -0.59,1.3 -1.39,1.3 -0.97,0 -1.98,-0.84 -1.98,-2.14 0,-1.74 1.95,-2.53 3.66,-2.53 1.6,0 3.03,1 3.9,2.47 0.83,-1.85 2.75,-2.47 4.14,-2.47 4.02,0 6.14,4.34 6.14,5.33 0,0.45 -0.45,0.45 -0.56,0.45 -0.49,0 -0.52,-0.17 -0.66,-0.59 -0.73,-2.41 -2.83,-4.22 -4.78,-4.22 -1.39,0 -2.12,0.93 -2.12,2.26 0,0.91 0.84,4.08 1.81,7.96 0.7,2.67 2.26,3.54 3.42,3.54 0.06,0 1.14,0 1.88,-0.48 -1.11,-0.31 -1.54,-1.3 -1.54,-1.92 0,-0.77 0.6,-1.29 1.4,-1.29 0.81,0 1.95,0.66 1.95,2.13 0,1.95 -2.23,2.53 -3.63,2.53 -1.73,0 -3.14,-1.14 -3.9,-2.47 -0.63,1.44 -2.22,2.47 -4.17,2.47 -3.91,0 -6.15,-4.28 -6.15,-5.33 0,-0.45 0.5,-0.45 0.6,-0.45 0.45,0 0.48,0.14 0.67,0.59 0.86,2.72 3.06,4.22 4.77,4.22 1.15,0 2.09,-0.62 2.09,-2.29 0,-0.71 -0.42,-2.44 -0.73,-3.63 z"
           id="path5102" /><path
           style="fill:#0000ff;stroke-width:3.95399243;stroke-miterlimit:4;stroke-dasharray:none;stroke:none"
           inkscape:connector-curvature="0"
           d="m 563.17,420.54 0,0.05 0,0.06 -0.01,0.05 -0.01,0.06 -0.01,0.05 -0.01,0.06 -0.02,0.05 -0.02,0.06 -0.02,0.06 -0.03,0.05 -0.02,0.06 -0.03,0.05 -0.04,0.06 -0.03,0.05 -0.04,0.05 -0.04,0.05 -0.05,0.05 -0.04,0.05 -0.05,0.04 -0.06,0.05 -0.05,0.04 -0.06,0.03 -0.06,0.04 -0.07,0.03 -0.07,0.03 -0.07,0.03 -0.07,0.02 -0.08,0.02 -0.08,0.01 -0.09,0.01 -0.08,0.01 -0.09,0 c -0.94,0 -1.96,-0.91 -1.96,-1.92 0,-0.59 0.46,-1.33 1.41,-1.33 1,0 1.95,0.99 1.95,1.92 z"
           id="path5104" /><path
           style="fill:#0000ff;stroke-width:3.95399243;stroke-miterlimit:4;stroke-dasharray:none;stroke:none"
           inkscape:connector-curvature="0"
           d="m 556.06,402.84 -0.05,-0.17 -0.06,-0.17 -0.02,-0.08 -0.03,-0.09 -0.02,-0.08 -0.03,-0.09 -0.02,-0.09 -0.02,-0.09 -0.02,-0.1 -0.01,-0.09 -0.01,-0.1 -0.01,-0.05 0,-0.05 -0.01,-0.06 0,-0.05 0,-0.05 0,-0.06 c 0,-1.64 1.39,-2.95 3.3,-2.95 3.48,0 5.03,4.79 5.03,5.33 0,0.45 -0.46,0.45 -0.56,0.45 -0.49,0 -0.54,-0.2 -0.68,-0.59 -0.79,-2.79 -2.32,-4.22 -3.68,-4.22 -0.71,0 -0.88,0.45 -0.88,1.22 0,0.79 0.25,1.46 0.56,2.23 0.35,0.94 0.74,1.87 1.11,2.78 0.32,0.84 1.58,4.02 1.72,4.44 0.1,0.34 0.21,0.76 0.21,1.11 0,1.64 -1.4,2.95 -3.32,2.95 -3.45,0 -5.04,-4.73 -5.04,-5.33 0,-0.45 0.48,-0.45 0.59,-0.45 0.48,0 0.51,0.17 0.62,0.56 0.91,3 2.44,4.25 3.72,4.25 0.57,0 0.88,-0.28 0.88,-1.22 0,-0.79 -0.21,-1.32 -1.08,-3.48 z"
           id="path5106" /><path
           style="fill:#0000ff;stroke-width:3.95399243;stroke-miterlimit:4;stroke-dasharray:none;stroke:none"
           inkscape:connector-curvature="0"
           d="m 598.98,420.04 -9.96,9.92 c -0.61,0.6 -0.7,0.71 -1.11,0.71 -0.48,0 -0.98,-0.46 -0.98,-1 0,-0.36 0.09,-0.46 0.64,-1 l 9.97,-10.02 -9.97,-10.01 c -0.55,-0.55 -0.64,-0.64 -0.64,-1 0,-0.55 0.5,-0.99 0.98,-0.99 0.41,0 0.5,0.1 1.11,0.69 l 9.91,9.92 10.31,-10.31 c 0.11,-0.05 0.46,-0.3 0.75,-0.3 0.6,0 1,0.44 1,0.99 0,0.11 0,0.31 -0.15,0.56 -0.05,0.09 -7.97,7.92 -10.46,10.45 l 9.11,9.13 c 0.25,0.29 1,0.93 1.25,1.23 0.05,0.11 0.25,0.3 0.25,0.66 0,0.54 -0.4,1 -1,1 -0.39,0 -0.59,-0.21 -1.14,-0.75 z"
           id="path5108" /><path
           style="fill:#0000ff;stroke-width:3.95399243;stroke-miterlimit:4;stroke-dasharray:none;stroke:none"
           inkscape:connector-curvature="0"
           d="m 651.41,440.98 -0.03,0.06 -0.03,0.06 -0.03,0.05 -0.03,0.05 -0.02,0.05 -0.03,0.05 -0.03,0.05 -0.02,0.04 -0.03,0.04 -0.03,0.04 -0.02,0.04 -0.03,0.03 -0.03,0.04 -0.03,0.03 -0.03,0.03 -0.03,0.03 -0.03,0.02 -0.04,0.03 -0.04,0.02 -0.04,0.02 -0.04,0.02 -0.04,0.01 -0.05,0.02 -0.05,0.01 -0.05,0.01 -0.05,0.01 -0.06,0.01 -0.06,0.01 -0.07,0 -0.07,0.01 -0.07,0 -0.04,0 -0.04,0 c -0.85,0 -0.94,-0.25 -1.28,-0.89 l -0.32,-4.09 13.41,-26.91 -26.86,0 13.45,26.91 0.32,4.09 -16.85,-33.78 c -0.25,-0.45 -0.25,-0.55 -0.25,-0.59 0,-0.41 0.3,-0.41 1.1,-0.41 l 34.57,0 c 0.8,0 1.1,0 1.1,0.41 0,0.04 0,0.14 -0.25,0.59 z"
           id="path5110" /><path
           style="fill:#0000ff;stroke-width:3.95399243;stroke-miterlimit:4;stroke-dasharray:none;stroke:none"
           inkscape:connector-curvature="0"
           d="m 681.18,426.12 4.69,0 c 0.98,0 1.48,0 1.48,1 0,0.55 -0.5,0.55 -1.38,0.55 l -4.4,0 c 1.8,7.08 2.05,8.08 2.05,8.37 0,0.85 -0.59,1.35 -1.44,1.35 -0.15,0 -1.54,-0.05 -2,-1.8 l -1.93,-7.92 -4.69,0 c -1,0 -1.5,0 -1.5,-0.94 0,-0.61 0.41,-0.61 1.41,-0.61 l 4.37,0 c -3.58,-14.14 -3.78,-14.98 -3.78,-15.89 0,-2.69 1.89,-4.58 4.58,-4.58 5.08,0 7.92,7.27 7.92,7.67 0,0.5 -0.39,0.5 -0.59,0.5 -0.46,0 -0.5,-0.15 -0.75,-0.7 -2.15,-5.17 -4.79,-6.37 -6.47,-6.37 -1.05,0 -1.55,0.65 -1.55,2.29 0,1.19 0.09,1.55 0.3,2.39 z"
           id="path5112" /><path
           style="fill:#0000ff;stroke-width:3.95399243;stroke-miterlimit:4;stroke-dasharray:none;stroke:none"
           inkscape:connector-curvature="0"
           d="m 703.94,411.86 -0.09,-0.03 -0.08,-0.02 -0.08,-0.03 -0.08,-0.02 -0.07,-0.04 -0.07,-0.03 -0.08,-0.04 -0.06,-0.04 -0.07,-0.04 -0.06,-0.04 -0.07,-0.05 -0.06,-0.05 -0.05,-0.05 -0.06,-0.05 -0.05,-0.05 -0.05,-0.06 -0.04,-0.05 -0.05,-0.06 -0.04,-0.06 -0.04,-0.06 -0.03,-0.06 -0.03,-0.06 -0.03,-0.06 -0.03,-0.06 -0.02,-0.07 -0.02,-0.06 -0.02,-0.07 -0.02,-0.06 -0.01,-0.07 0,-0.06 -0.01,-0.07 0,-0.06 c 0,-0.81 0.7,-1.12 1.15,-1.12 0.35,0 1.68,0.21 1.68,1.98 0,2.27 -2.5,3.03 -4.63,3.03 -5.44,0 -6.42,-4 -6.42,-5.08 0,-1.29 0.73,-2.12 1.22,-2.54 0.91,-0.71 1.53,-0.83 3.94,-1.25 0.73,-0.14 2.97,-0.57 2.97,-2.3 0,-0.59 -0.4,-1.92 -1.85,-2.8 -1.36,-0.76 -3.08,-0.76 -3.48,-0.76 -1.41,0 -3.39,0.31 -4.19,1.47 1.16,0.14 1.92,1 1.92,1.98 0,0.87 -0.62,1.28 -1.36,1.28 -1.01,0 -2.03,-0.8 -2.03,-2.33 0,-2.09 2.23,-3.37 5.61,-3.37 6.42,0 7.61,4.39 7.61,5.75 0,3.2 -3.53,3.83 -4.81,4.08 -0.32,0.06 -1.19,0.2 -1.39,0.26 -1.3,0.25 -1.93,0.99 -1.93,1.75 0,0.8 0.63,1.74 1.4,2.24 0.93,0.59 2.15,0.65 2.74,0.65 0.74,0 2.55,-0.11 3.32,-1.29 z"
           id="path5114" /><path
           style="fill:#0000ff;stroke-width:3.95399243;stroke-miterlimit:4;stroke-dasharray:none;stroke:none"
           inkscape:connector-curvature="0"
           d="m 722.47,412.07 -0.08,0.11 -0.07,0.11 -0.07,0.1 -0.08,0.1 -0.08,0.1 -0.09,0.1 -0.08,0.09 -0.09,0.1 -0.09,0.09 -0.1,0.08 -0.09,0.09 -0.1,0.08 -0.11,0.08 -0.1,0.08 -0.11,0.07 -0.11,0.08 -0.11,0.06 -0.12,0.07 -0.12,0.06 -0.12,0.05 -0.13,0.06 -0.12,0.05 -0.13,0.04 -0.14,0.04 -0.13,0.04 -0.14,0.03 -0.14,0.03 -0.14,0.02 -0.15,0.02 -0.15,0.01 -0.15,0.01 -0.16,0 0,-0.97 c 2.44,0 3.11,-2.64 3.11,-3.03 0,-0.14 -0.08,-0.39 -0.11,-0.48 l -1.64,-6.52 c -0.23,-0.98 -1,-1.67 -1.76,-2.34 -0.32,-0.27 -1.72,-1.39 -3.22,-1.39 -1.28,0 -2.53,0.9 -2.53,3.37 0,1.86 1,5.69 1.81,7.08 1.59,2.8 3.37,3.31 4.34,3.31 l 0,0.97 c -4.45,0 -8.98,-4.91 -8.98,-9.92 0,-3.38 2.26,-5.78 5.26,-5.78 1.88,0 3.55,1.08 4.94,2.44 0.67,-2.1 2.69,-2.44 3.59,-2.44 1.25,0 2.13,0.76 2.75,1.84 0.77,1.36 1.22,3.35 1.22,3.49 0,0.45 -0.45,0.45 -0.55,0.45 -0.5,0 -0.53,-0.14 -0.76,-1.08 -0.42,-1.67 -1.09,-3.73 -2.55,-3.73 -0.9,0 -1.15,0.76 -1.15,1.7 0,0.59 0.28,1.86 0.53,2.77 0.23,0.93 0.59,2.35 0.76,3.12 l 0.69,2.66 c 0.22,0.9 0.63,2.54 0.63,2.72 0,0.76 -0.63,1.1 -1.18,1.1 -0.59,0 -1.4,-0.42 -1.6,-1.39 z"
           id="path5116" /><path
           style="fill:#0000ff;stroke-width:3.95399243;stroke-miterlimit:4;stroke-dasharray:none;stroke:none"
           inkscape:connector-curvature="0"
           d="m 738.56,421.9 0,0.01 0.01,0 0,0 0,0.01 0,0 0,0.01 0.01,0.01 0,0 0,0.01 0,0.01 0.01,0.01 0,0.02 0.01,0.02 0,0.02 0.01,0.02 0.01,0.02 0,0.02 0.01,0.03 0,0.02 0.01,0.05 0.02,0.04 0,0.03 0.01,0.02 0,0.02 0.01,0.02 0,0.02 0.01,0.02 0,0.02 0,0.01 0,0.01 0.01,0.01 0,0 0,0.01 0,0 0,0.01 0,0 0,0.01 0,0 0,0 0,0.01 0,0 c 0,0.19 -0.14,0.5 -0.56,0.5 -0.7,0 -3.59,-0.28 -4.45,-0.36 -0.28,-0.03 -0.78,-0.06 -0.78,-0.8 0,-0.48 0.5,-0.48 0.9,-0.48 1.67,0 1.67,-0.25 1.67,-0.53 0,-0.24 -0.34,-1.63 -0.54,-2.44 l -0.8,-3.2 c -0.33,-1.19 -2.23,-8.82 -2.31,-9.27 -0.17,-0.84 -0.17,-1.3 -0.17,-1.7 0,-3.53 2.23,-5.75 5.12,-5.75 l 0.03,0.97 c -1.7,0 -2.67,1.5 -2.67,3.56 0,1.28 0.31,2.47 1.28,6.41 0.2,0.65 0.2,0.73 0.88,1.5 1.32,1.53 2.89,2.29 4.14,2.29 1.36,0 2.54,-1.01 2.54,-3.37 0,-1.44 -0.76,-4.99 -1.81,-7.02 -0.84,-1.7 -2.58,-3.37 -4.36,-3.37 l 0,0 -0.03,-0.97 c 4.36,0 8.99,4.73 8.99,9.89 0,4.08 -2.82,5.81 -5.22,5.81 -1.82,0 -3.35,-1 -4.39,-1.91 z"
           id="path5118" /><path
           style="fill:#0000ff;stroke-width:3.95399243;stroke-miterlimit:4;stroke-dasharray:none;stroke:none"
           inkscape:connector-curvature="0"
           d="m 765.38,408.03 -0.01,0.36 -0.02,0.34 -0.05,0.34 -0.05,0.33 -0.07,0.32 -0.09,0.31 -0.1,0.3 -0.12,0.28 -0.12,0.28 -0.15,0.27 -0.15,0.25 -0.17,0.25 -0.17,0.23 -0.19,0.22 -0.2,0.22 -0.21,0.2 -0.22,0.19 -0.23,0.17 -0.24,0.17 -0.25,0.15 -0.25,0.15 -0.27,0.13 -0.27,0.12 -0.28,0.1 -0.28,0.1 -0.29,0.08 -0.3,0.07 -0.3,0.06 -0.31,0.04 -0.31,0.04 -0.31,0.01 -0.32,0.01 c -5.17,0 -10.05,-4.84 -10.05,-9.61 0,-3.48 2.55,-6.09 6.35,-6.09 l 0.03,0.97 c -1.73,0 -3.48,1.12 -3.48,3.87 0,1.42 0.67,4.85 2.03,6.83 1.5,2.16 3.51,3.06 5.07,3.06 1.9,0 3.49,-1.29 3.49,-3.87 0,-0.83 -0.41,-4.28 -1.95,-6.72 -1.32,-2.05 -3.41,-3.17 -5.16,-3.17 l 0,0 -0.03,-0.97 c 4.98,0 10,4.59 10,9.61 z"
           id="path5120" /><path
           style="fill:#0000ff;stroke-width:3.95399243;stroke-miterlimit:4;stroke-dasharray:none;stroke:none"
           inkscape:connector-curvature="0"
           d="m 775.14,412.53 3.54,0 c 0.66,0 1.11,0 1.11,0.76 0,0.49 -0.45,0.49 -1.03,0.49 l -3.31,0 1.28,5.15 c 0.03,0.18 0.11,0.35 0.11,0.49 0,0.64 -0.49,1.12 -1.19,1.12 -0.87,0 -1.39,-0.59 -1.64,-1.5 -0.23,-0.87 0.22,0.8 -1.33,-5.26 l -3.54,0 c -0.66,0 -1.11,0 -1.11,-0.77 0,-0.48 0.4,-0.48 1.04,-0.48 l 3.3,0 -2.05,-8.22 c -0.22,-0.88 -0.53,-2.13 -0.53,-2.58 0,-2.06 1.75,-3.31 3.74,-3.31 3.87,0 6.06,4.87 6.06,5.33 0,0.45 -0.45,0.45 -0.56,0.45 -0.41,0 -0.46,-0.08 -0.72,-0.66 -0.99,-2.2 -2.77,-4.15 -4.67,-4.15 -0.74,0 -1.22,0.45 -1.22,1.7 0,0.36 0.14,1.09 0.2,1.44 z"
           id="path5122" /></g>    </g>
    <g
       id="g5408"
       transform="matrix(0.84945741,0,0,0.84945741,39.504138,282.88023)"
       style="fill:#008000;stroke-width:4.41458272;stroke-miterlimit:4;stroke-dasharray:none;stroke:none">
      <g
         word-spacing="normal"
         letter-spacing="normal"
         font-size-adjust="none"
         font-stretch="normal"
         font-weight="normal"
         font-variant="normal"
         font-style="normal"
         stroke-miterlimit="10.433"
         xml:space="preserve"
         transform="matrix(1.0629921,0,0,-1.0629921,-186.02362,789.27165)"
         id="g5410"
         style="font-style:normal;font-variant:normal;font-weight:normal;font-stretch:normal;letter-spacing:normal;word-spacing:normal;text-anchor:start;fill:#008000;fill-opacity:1;fill-rule:evenodd;stroke:none;stroke-linecap:butt;stroke-linejoin:miter;stroke-miterlimit:4;stroke-dasharray:none;stroke-dashoffset:0;stroke-opacity:1;stroke-width:4.15297792"><path
           id="path5412"
           d="m 475.25,425.14 -0.14,0 -0.15,0 -0.15,-0.01 -0.14,0 -0.14,-0.01 -0.14,-0.02 -0.07,-0.01 -0.07,-0.01 -0.06,-0.02 -0.07,-0.01 -0.07,-0.02 -0.07,-0.02 -0.07,-0.02 -0.06,-0.02 -0.07,-0.03 -0.07,-0.03 -0.06,-0.03 -0.07,-0.04 -0.07,-0.04 -0.06,-0.04 -0.07,-0.05 -0.07,-0.04 -0.06,-0.06 -0.07,-0.05 -0.06,-0.06 -0.07,-0.07 c -0.8,-0.75 -0.89,-1.59 -0.89,-1.93 0,-1.21 0.89,-1.75 1.84,-1.75 1.44,0 2.8,1.2 2.8,3.18 0,2.44 -2.34,4.28 -5.89,4.28 -6.72,0 -13.34,-7.12 -13.34,-14.14 0,-4.48 2.89,-8.42 8.06,-8.42 7.12,0 11.31,5.28 11.31,5.88 0,0.29 -0.3,0.65 -0.59,0.65 -0.25,0 -0.35,-0.11 -0.66,-0.5 -3.94,-4.93 -9.36,-4.93 -9.95,-4.93 -3.14,0 -4.49,2.43 -4.49,5.43 0,2.03 0.99,6.88 2.69,9.96 1.55,2.84 4.28,4.98 7.02,4.98 1.7,0 3.59,-0.64 4.29,-1.98 z"
           inkscape:connector-curvature="0"
           style="fill:#008000;stroke-width:4.15297792;stroke-miterlimit:4;stroke-dasharray:none;stroke:none" /><path
           id="path5414"
           d="m 494.06,445.28 0.01,0.04 0.01,0.05 0.01,0.04 0.01,0.05 0.01,0.04 0.01,0.04 0.01,0.04 0.01,0.04 0.02,0.07 0.02,0.07 0.02,0.06 0.02,0.06 0.02,0.06 0.02,0.05 0.02,0.05 0.02,0.04 0.02,0.04 0.03,0.04 0.02,0.04 0.03,0.03 0.03,0.03 0.03,0.02 0.03,0.03 0.03,0.02 0.04,0.02 0.03,0.02 0.05,0.01 0.04,0.02 0.04,0.01 0.05,0.01 0.06,0.01 0.05,0.01 0.06,0.01 0.06,0 0.07,0.01 0.07,0 c 0.17,0.04 1.39,0.04 2.09,0.04 2.13,0 3.03,0 3.89,-0.29 1.58,-0.48 1.64,-1.5 1.64,-2.75 0,-0.54 0,-1 -0.23,-2.81 l -0.08,-0.39 c 0,-0.34 0.25,-0.51 0.59,-0.51 0.53,0 0.6,0.31 0.67,0.86 l 0.94,6.65 c 0,0.5 -0.42,0.5 -1.04,0.5 l -21.44,0 c -0.86,0 -0.94,0 -1.17,-0.73 l -2.21,-6.17 c -0.03,-0.15 -0.17,-0.46 -0.17,-0.63 0,-0.14 0.06,-0.48 0.59,-0.48 0.46,0 0.52,0.17 0.74,0.82 2.01,5.58 3.17,5.93 8.47,5.93 l 1.45,0 c 1.05,0 1.08,-0.04 1.08,-0.35 0,-0.03 0,-0.2 -0.14,-0.73 l -4.6,-18.33 c -0.31,-1.28 -0.42,-1.64 -4.07,-1.64 -1.25,0 -1.57,0 -1.57,-0.77 0,-0.09 0.07,-0.48 0.6,-0.48 0.97,0 2.01,0.11 2.98,0.11 0.99,0 2.03,0.03 3,0.03 0.99,0 2.17,0 3.14,-0.03 0.94,-0.05 1.99,-0.11 2.92,-0.11 0.29,0 0.82,0 0.82,0.76 0,0.49 -0.36,0.49 -1.44,0.49 -0.66,0 -1.36,0.05 -2.02,0.08 -1.18,0.09 -1.25,0.23 -1.25,0.65 0,0.25 0,0.32 0.13,0.8 z"
           inkscape:connector-curvature="0"
           style="fill:#008000;stroke-width:4.15297792;stroke-miterlimit:4;stroke-dasharray:none;stroke:none" /><path
           id="path5416"
           d="m 479.73,387.79 -0.02,-0.09 -0.02,-0.09 -0.02,-0.08 -0.02,-0.08 -0.02,-0.07 -0.02,-0.07 -0.03,-0.07 -0.02,-0.06 -0.02,-0.06 -0.03,-0.06 -0.03,-0.05 -0.02,-0.05 -0.04,-0.05 -0.03,-0.04 -0.04,-0.04 -0.04,-0.04 -0.04,-0.03 -0.05,-0.03 -0.05,-0.03 -0.05,-0.02 -0.06,-0.03 -0.07,-0.02 -0.07,-0.02 -0.07,-0.01 -0.08,-0.02 -0.05,0 -0.04,-0.01 -0.04,-0.01 -0.05,0 -0.05,0 -0.05,-0.01 -0.05,0 -0.06,0 -0.05,-0.01 -0.06,0 -0.06,0 -0.06,0 -0.06,0 -0.06,0 c -0.46,0 -0.94,0 -0.94,-0.74 0,-0.39 0.31,-0.53 0.48,-0.53 0.91,0 2.07,0.14 3,0.14 1.19,0 2.5,-0.14 3.66,-0.14 0.31,0 0.7,0.11 0.7,0.77 0,0.5 -0.5,0.5 -0.9,0.5 -0.78,0 -1.72,0 -1.72,0.41 0,0.18 0.25,1.09 0.39,1.6 0.42,1.85 0.91,3.74 1.28,5.19 0.42,-0.69 1.5,-2.04 3.59,-2.04 l 0,0.96 c -2.46,0 -3.09,2.69 -3.09,3.04 0,0.14 0.06,0.39 0.09,0.53 l 1.75,7 c 2.02,2.68 3.77,3.2 4.88,3.2 1.36,0 2.55,-1.02 2.55,-3.38 0,-1.43 -0.77,-4.98 -1.82,-7.01 -0.87,-1.7 -2.57,-3.38 -4.36,-3.38 l 0,-0.96 c 4.25,0 8.96,4.7 8.96,9.89 0,4.07 -2.83,5.81 -5.22,5.81 -2.17,0 -4.02,-1.45 -4.95,-2.44 -0.6,1.99 -2.55,2.44 -3.6,2.44 -1.36,0 -2.19,-0.91 -2.75,-1.85 -0.7,-1.18 -1.25,-3.26 -1.25,-3.48 0,-0.45 0.49,-0.45 0.6,-0.45 0.48,0 0.51,0.11 0.76,1.04 0.52,2.04 1.19,3.77 2.55,3.77 0.9,0 1.14,-0.77 1.14,-1.7 0,-0.39 -0.06,-0.85 -0.11,-1.05 z"
           inkscape:connector-curvature="0"
           style="fill:#008000;stroke-width:4.15297792;stroke-miterlimit:4;stroke-dasharray:none;stroke:none" /><path
           id="path5418"
           d="m 507.47,415.18 0,0 0,0.01 0,0 0.01,0.01 0,0 0,0.01 0,0 0,0.01 0.01,0.01 0,0 0,0.02 0.01,0.02 0,0.02 0.01,0.02 0.01,0.02 0,0.02 0.01,0.02 0,0.02 0.01,0.03 0.01,0.04 0.01,0.05 0.01,0.02 0,0.03 0.01,0.02 0,0.02 0.01,0.02 0,0.02 0.01,0.01 0,0.02 0,0.01 0,0 0,0.01 0,0.01 0.01,0 0,0.01 0,0 0,0.01 0,0 0,0 0,0.01 0,0 c 0,0.18 -0.14,0.5 -0.56,0.5 -0.69,0 -3.6,-0.28 -4.46,-0.36 -0.25,-0.03 -0.73,-0.07 -0.73,-0.8 0,-0.48 0.48,-0.48 0.87,-0.48 1.68,0 1.68,-0.25 1.68,-0.54 0,-0.23 -0.08,-0.45 -0.14,-0.76 l -4.33,-17.2 c -0.11,-0.36 -0.14,-0.74 -0.14,-1.08 0,-2.24 1.98,-3.31 3.65,-3.31 0.85,0 1.89,0.28 2.8,1.84 0.73,1.28 1.22,3.34 1.22,3.48 0,0.46 -0.45,0.46 -0.56,0.46 -0.49,0 -0.55,-0.21 -0.69,-0.85 -0.45,-1.73 -1.13,-3.97 -2.63,-3.97 -0.93,0 -1.17,0.88 -1.17,1.71 0,0.39 0.1,1.04 0.2,1.43 z"
           inkscape:connector-curvature="0"
           style="fill:#008000;stroke-width:4.15297792;stroke-miterlimit:4;stroke-dasharray:none;stroke:none" /><path
           id="path5420"
           d="m 525.18,405.35 -0.07,0.11 -0.07,0.1 -0.08,0.11 -0.08,0.1 -0.08,0.1 -0.08,0.09 -0.09,0.1 -0.09,0.09 -0.09,0.09 -0.09,0.09 -0.1,0.09 -0.1,0.08 -0.1,0.08 -0.11,0.08 -0.1,0.07 -0.12,0.07 -0.11,0.07 -0.12,0.06 -0.11,0.06 -0.13,0.06 -0.12,0.05 -0.13,0.05 -0.13,0.05 -0.13,0.04 -0.14,0.03 -0.13,0.04 -0.15,0.02 -0.14,0.03 -0.15,0.01 -0.15,0.02 -0.15,0.01 -0.15,0 0,-0.97 c 2.43,0 3.11,-2.64 3.11,-3.03 0,-0.14 -0.08,-0.39 -0.11,-0.49 l -1.64,-6.51 c -0.24,-0.99 -1,-1.67 -1.77,-2.35 -0.31,-0.26 -1.72,-1.39 -3.22,-1.39 -1.28,0 -2.53,0.91 -2.53,3.38 0,1.86 1,5.69 1.81,7.08 1.6,2.79 3.38,3.31 4.35,3.31 l 0,0.97 c -4.46,0 -8.99,-4.91 -8.99,-9.92 0,-3.38 2.27,-5.78 5.27,-5.78 1.87,0 3.54,1.07 4.93,2.43 0.68,-2.09 2.69,-2.43 3.6,-2.43 1.25,0 2.12,0.76 2.75,1.84 0.76,1.36 1.22,3.34 1.22,3.48 0,0.46 -0.46,0.46 -0.55,0.46 -0.5,0 -0.53,-0.14 -0.77,-1.08 -0.42,-1.67 -1.09,-3.74 -2.54,-3.74 -0.91,0 -1.16,0.77 -1.16,1.71 0,0.59 0.28,1.86 0.53,2.76 0.24,0.94 0.6,2.36 0.77,3.13 l 0.69,2.65 c 0.21,0.91 0.62,2.55 0.62,2.72 0,0.77 -0.62,1.11 -1.17,1.11 -0.59,0 -1.41,-0.42 -1.61,-1.39 z"
           inkscape:connector-curvature="0"
           style="fill:#008000;stroke-width:4.15297792;stroke-miterlimit:4;stroke-dasharray:none;stroke:none" /><path
           id="path5422"
           d="m 549.81,406.4 0.01,0.03 0,0.02 0.01,0.03 0,0.03 0.01,0.04 0.01,0.03 0,0.03 0.01,0.03 0.01,0.04 0,0.03 0.01,0.04 0,0.03 0,0.03 0,0.04 0.01,0.03 0,0.03 c 0,0.22 -0.14,0.49 -0.46,0.49 -0.36,0 -1.81,-1.17 -2.51,-2.3 -0.35,0.7 -1.5,2.3 -3.74,2.3 l 0,-0.97 c 2.44,0 3.11,-2.69 3.11,-3.03 0,-0.17 -0.07,-0.39 -0.11,-0.52 l -1.64,-6.45 c -0.17,-0.59 -0.17,-0.66 -0.62,-1.22 -1.36,-1.61 -3,-2.55 -4.36,-2.55 -1.28,0 -2.53,0.91 -2.53,3.38 0,1.86 1,5.69 1.81,7.08 1.59,2.79 3.38,3.31 4.34,3.31 l 0,0.97 c -4.45,0 -8.98,-4.91 -8.98,-9.92 0,-3.38 2.27,-5.78 5.27,-5.78 1.98,0 3.62,1.25 4.38,1.9 -0.03,-0.09 -1.12,-4.48 -1.26,-5.08 -0.49,-1.92 -0.52,-1.95 -2.67,-1.98 -0.42,0 -0.91,0 -0.91,-0.77 0,-0.22 0.17,-0.5 0.52,-0.5 1.15,0 2.44,0.14 3.62,0.14 1.19,0 2.66,-0.14 3.74,-0.14 0.31,0 0.68,0.11 0.68,0.77 0,0.5 -0.48,0.5 -0.9,0.5 -0.77,0 -1.7,0 -1.7,0.41 0,0.1 0,0.18 0.17,0.76 z"
           inkscape:connector-curvature="0"
           style="fill:#008000;stroke-width:4.15297792;stroke-miterlimit:4;stroke-dasharray:none;stroke:none" /><path
           id="path5424"
           d="m 566.25,397.68 -0.02,-0.07 -0.02,-0.07 -0.02,-0.07 -0.01,-0.07 -0.02,-0.08 -0.02,-0.08 -0.02,-0.08 -0.02,-0.09 -0.04,-0.16 -0.05,-0.17 -0.04,-0.17 -0.02,-0.08 -0.02,-0.08 -0.02,-0.08 -0.02,-0.07 -0.02,-0.08 -0.02,-0.07 -0.01,-0.06 -0.02,-0.07 -0.02,-0.06 -0.01,-0.05 -0.02,-0.05 -0.01,-0.05 -0.01,-0.03 -0.02,-0.04 0,-0.01 -0.01,-0.02 0,-0.01 -0.01,-0.01 0,0 0,-0.01 -0.01,0 0,-0.01 c -0.67,-1.08 -2.06,-2.97 -4.22,-2.97 -2.41,0 -2.41,2.27 -2.41,2.89 0,2.07 0.97,4.54 1.96,7.08 0.28,0.71 0.48,1.22 0.48,1.78 0,1.82 -1.53,2.99 -3.31,2.99 -3.48,0 -5.05,-4.77 -5.05,-5.33 0,-0.45 0.49,-0.45 0.6,-0.45 0.48,0 0.51,0.17 0.62,0.56 0.83,2.86 2.38,4.25 3.72,4.25 0.59,0 0.88,-0.39 0.88,-1.22 0,-0.8 -0.29,-1.53 -0.63,-2.33 -1.87,-4.81 -1.87,-5.83 -1.87,-6.76 0,-0.6 0,-2.21 1.28,-3.32 1.01,-0.82 2.37,-1.1 3.59,-1.1 2.19,0 3.38,1.18 4.53,2.29 0.77,-2.23 3.1,-2.29 3.52,-2.29 1.18,0 2.09,0.68 2.75,1.84 0.76,1.36 1.25,3.37 1.25,3.48 0,0.46 -0.49,0.46 -0.58,0.46 -0.5,0 -0.53,-0.14 -0.78,-1.08 -0.41,-1.64 -1.08,-3.74 -2.53,-3.74 -0.91,0 -1.16,0.8 -1.16,1.71 0,0.59 0.28,1.86 0.53,2.76 0.23,0.94 0.58,2.36 0.77,3.13 l 0.79,3.11 c 0.21,0.87 0.6,2.4 0.6,2.58 0,0.68 -0.56,1.1 -1.16,1.1 -1.28,0 -1.53,-1.01 -1.81,-2.12 z"
           inkscape:connector-curvature="0"
           style="fill:#008000;stroke-width:4.15297792;stroke-miterlimit:4;stroke-dasharray:none;stroke:none" /><path
           id="path5426"
           d="m 582.84,399.98 0.1,0 0.11,0 0.11,0 0.13,0 0.13,0 0.14,0.01 0.15,0 0.15,0.01 0.17,0.01 0.16,0.01 0.18,0 0.18,0.02 0.18,0.01 0.19,0.01 0.38,0.04 0.4,0.04 0.4,0.05 0.41,0.06 0.41,0.07 0.4,0.08 0.19,0.04 0.2,0.05 0.19,0.05 0.19,0.05 0.18,0.06 0.18,0.06 c 2.58,0.91 3.07,2.58 3.07,3.63 0,1.92 -1.93,3.06 -4.33,3.06 l 0,-0.97 c 1.53,0 2.83,-0.77 2.83,-2.09 0,-3.38 -5.9,-3.38 -7.4,-3.38 l -1.7,0 c 1.42,5.05 5.3,5.47 6.27,5.47 l 0,0.97 c -4.17,0 -9.83,-3.2 -9.83,-9.16 0,-3.51 2.2,-6.54 6.28,-6.54 5.89,0 8.64,3.43 8.64,3.93 0,0.21 -0.31,0.6 -0.59,0.6 -0.21,0 -0.28,-0.08 -0.57,-0.36 -2.71,-3.21 -6.79,-3.21 -7.42,-3.21 -2.09,0 -3.48,1.39 -3.48,4.22 0,0.49 0,1.19 0.42,3.1 z"
           inkscape:connector-curvature="0"
           style="fill:#008000;stroke-width:4.15297792;stroke-miterlimit:4;stroke-dasharray:none;stroke:none" /><path
           id="path5428"
           d="m 626.93,420.04 -9.95,9.92 c -0.61,0.6 -0.7,0.71 -1.11,0.71 -0.48,0 -0.98,-0.46 -0.98,-1 0,-0.36 0.09,-0.46 0.64,-1 l 9.97,-10.02 -9.97,-10.01 c -0.55,-0.55 -0.64,-0.64 -0.64,-1 0,-0.55 0.5,-0.99 0.98,-0.99 0.41,0 0.5,0.1 1.11,0.69 l 9.91,9.92 10.31,-10.31 c 0.11,-0.05 0.45,-0.3 0.75,-0.3 0.59,0 1,0.44 1,0.99 0,0.11 0,0.31 -0.16,0.56 -0.04,0.09 -7.97,7.92 -10.45,10.45 l 9.11,9.13 c 0.25,0.29 1,0.93 1.25,1.23 0.05,0.11 0.25,0.3 0.25,0.66 0,0.54 -0.41,1 -1,1 -0.39,0 -0.6,-0.21 -1.14,-0.75 z"
           inkscape:connector-curvature="0"
           style="fill:#008000;stroke-width:4.15297792;stroke-miterlimit:4;stroke-dasharray:none;stroke:none" /><path
           id="path5430"
           d="m 679.38,440.98 -0.04,0.06 -0.03,0.06 -0.03,0.05 -0.02,0.05 -0.03,0.05 -0.03,0.05 -0.03,0.05 -0.02,0.04 -0.03,0.04 -0.03,0.04 -0.02,0.04 -0.03,0.03 -0.03,0.04 -0.03,0.03 -0.03,0.03 -0.03,0.03 -0.03,0.02 -0.04,0.03 -0.04,0.02 -0.03,0.02 -0.05,0.02 -0.04,0.01 -0.05,0.02 -0.04,0.01 -0.06,0.01 -0.05,0.01 -0.06,0.01 -0.06,0.01 -0.07,0 -0.07,0.01 -0.07,0 -0.04,0 -0.04,0 c -0.85,0 -0.94,-0.25 -1.28,-0.89 l -0.32,-4.09 13.41,-26.91 -26.86,0 13.45,26.91 0.32,4.09 -16.85,-33.78 c -0.25,-0.45 -0.25,-0.55 -0.25,-0.59 0,-0.41 0.3,-0.41 1.1,-0.41 l 34.58,0 c 0.79,0 1.09,0 1.09,0.41 0,0.04 0,0.14 -0.25,0.59 z"
           inkscape:connector-curvature="0"
           style="fill:#008000;stroke-width:4.15297792;stroke-miterlimit:4;stroke-dasharray:none;stroke:none" /><path
           id="path5432"
           d="m 709.15,426.12 4.68,0 c 0.99,0 1.49,0 1.49,1 0,0.55 -0.5,0.55 -1.39,0.55 l -4.4,0 c 1.8,7.08 2.05,8.08 2.05,8.37 0,0.85 -0.59,1.35 -1.43,1.35 -0.16,0 -1.55,-0.05 -2,-1.8 l -1.94,-7.92 -4.69,0 c -1,0 -1.5,0 -1.5,-0.94 0,-0.61 0.41,-0.61 1.41,-0.61 l 4.37,0 c -3.58,-14.14 -3.78,-14.98 -3.78,-15.89 0,-2.69 1.89,-4.58 4.58,-4.58 5.08,0 7.92,7.27 7.92,7.67 0,0.5 -0.39,0.5 -0.59,0.5 -0.46,0 -0.5,-0.15 -0.75,-0.7 -2.15,-5.17 -4.78,-6.37 -6.47,-6.37 -1.05,0 -1.55,0.65 -1.55,2.29 0,1.19 0.09,1.55 0.3,2.39 z"
           inkscape:connector-curvature="0"
           style="fill:#008000;stroke-width:4.15297792;stroke-miterlimit:4;stroke-dasharray:none;stroke:none" /><path
           id="path5434"
           d="m 733.82,445.28 0.01,0.04 0.01,0.05 0.01,0.04 0.01,0.05 0.01,0.04 0.01,0.04 0.01,0.04 0.01,0.04 0.02,0.07 0.02,0.07 0.02,0.06 0.02,0.06 0.02,0.06 0.02,0.05 0.02,0.05 0.02,0.04 0.02,0.04 0.03,0.04 0.02,0.04 0.03,0.03 0.02,0.03 0.03,0.02 0.04,0.03 0.03,0.02 0.03,0.02 0.04,0.02 0.04,0.01 0.05,0.02 0.04,0.01 0.05,0.01 0.05,0.01 0.06,0.01 0.06,0.01 0.06,0 0.07,0.01 0.07,0 c 0.17,0.04 1.38,0.04 2.09,0.04 2.12,0 3.03,0 3.89,-0.29 1.58,-0.48 1.64,-1.5 1.64,-2.75 0,-0.54 0,-1 -0.24,-2.81 l -0.07,-0.39 c 0,-0.34 0.25,-0.51 0.59,-0.51 0.53,0 0.6,0.31 0.67,0.86 l 0.94,6.65 c 0,0.5 -0.42,0.5 -1.05,0.5 l -21.43,0 c -0.86,0 -0.94,0 -1.18,-0.73 l -2.2,-6.17 c -0.03,-0.15 -0.17,-0.46 -0.17,-0.63 0,-0.14 0.06,-0.48 0.59,-0.48 0.46,0 0.52,0.17 0.74,0.82 2.01,5.58 3.17,5.93 8.47,5.93 l 1.45,0 c 1.05,0 1.08,-0.04 1.08,-0.35 0,-0.03 0,-0.2 -0.14,-0.73 l -4.6,-18.33 c -0.31,-1.28 -0.42,-1.64 -4.07,-1.64 -1.25,0 -1.57,0 -1.57,-0.77 0,-0.09 0.07,-0.48 0.6,-0.48 0.97,0 2.01,0.11 2.98,0.11 0.99,0 2.03,0.03 3,0.03 0.99,0 2.17,0 3.14,-0.03 0.94,-0.05 1.98,-0.11 2.92,-0.11 0.28,0 0.81,0 0.81,0.76 0,0.49 -0.35,0.49 -1.43,0.49 -0.66,0 -1.36,0.05 -2.02,0.08 -1.18,0.09 -1.25,0.23 -1.25,0.65 0,0.25 0,0.32 0.13,0.8 z"
           inkscape:connector-curvature="0"
           style="fill:#008000;stroke-width:4.15297792;stroke-miterlimit:4;stroke-dasharray:none;stroke:none" /><path
           id="path5436"
           d="m 719.49,387.79 -0.02,-0.09 -0.02,-0.09 -0.02,-0.08 -0.03,-0.08 -0.02,-0.07 -0.02,-0.07 -0.02,-0.07 -0.02,-0.06 -0.03,-0.06 -0.02,-0.06 -0.03,-0.05 -0.03,-0.05 -0.03,-0.05 -0.03,-0.04 -0.04,-0.04 -0.04,-0.04 -0.04,-0.03 -0.05,-0.03 -0.05,-0.03 -0.06,-0.02 -0.06,-0.03 -0.06,-0.02 -0.07,-0.02 -0.07,-0.01 -0.09,-0.02 -0.04,0 -0.04,-0.01 -0.05,-0.01 -0.04,0 -0.05,0 -0.05,-0.01 -0.05,0 -0.06,0 -0.05,-0.01 -0.06,0 -0.06,0 -0.06,0 -0.06,0 -0.07,0 c -0.45,0 -0.93,0 -0.93,-0.74 0,-0.39 0.31,-0.53 0.48,-0.53 0.91,0 2.07,0.14 3,0.14 1.19,0 2.5,-0.14 3.66,-0.14 0.31,0 0.7,0.11 0.7,0.77 0,0.5 -0.5,0.5 -0.91,0.5 -0.78,0 -1.71,0 -1.71,0.41 0,0.18 0.25,1.09 0.39,1.6 0.42,1.85 0.9,3.74 1.28,5.19 0.42,-0.69 1.5,-2.04 3.59,-2.04 l 0,0.96 c -2.47,0 -3.09,2.69 -3.09,3.04 0,0.14 0.06,0.39 0.09,0.53 l 1.75,7 c 2.02,2.68 3.77,3.2 4.88,3.2 1.36,0 2.54,-1.02 2.54,-3.38 0,-1.43 -0.76,-4.98 -1.81,-7.01 -0.87,-1.7 -2.58,-3.38 -4.36,-3.38 l 0,-0.96 c 4.25,0 8.95,4.7 8.95,9.89 0,4.07 -2.82,5.81 -5.21,5.81 -2.17,0 -4.02,-1.45 -4.96,-2.44 -0.59,1.99 -2.54,2.44 -3.59,2.44 -1.36,0 -2.19,-0.91 -2.75,-1.85 -0.7,-1.18 -1.25,-3.26 -1.25,-3.48 0,-0.45 0.48,-0.45 0.59,-0.45 0.49,0 0.52,0.11 0.77,1.04 0.52,2.04 1.19,3.77 2.55,3.77 0.9,0 1.14,-0.77 1.14,-1.7 0,-0.39 -0.07,-0.85 -0.11,-1.05 z"
           inkscape:connector-curvature="0"
           style="fill:#008000;stroke-width:4.15297792;stroke-miterlimit:4;stroke-dasharray:none;stroke:none" /><path
           id="path5438"
           d="m 747.23,415.18 0,0 0,0.01 0,0 0,0.01 0.01,0 0,0.01 0,0 0,0.01 0,0.01 0.01,0 0,0.02 0.01,0.02 0,0.02 0.01,0.02 0,0.02 0.01,0.02 0,0.02 0.01,0.02 0.01,0.03 0.01,0.04 0.01,0.05 0.01,0.02 0,0.03 0.01,0.02 0,0.02 0.01,0.02 0,0.02 0,0.01 0.01,0.02 0,0.01 0,0 0,0.01 0,0.01 0,0 0,0.01 0.01,0 0,0.01 0,0 0,0 0,0.01 0,0 c 0,0.18 -0.14,0.5 -0.57,0.5 -0.68,0 -3.59,-0.28 -4.45,-0.36 -0.25,-0.03 -0.73,-0.07 -0.73,-0.8 0,-0.48 0.48,-0.48 0.87,-0.48 1.67,0 1.67,-0.25 1.67,-0.54 0,-0.23 -0.07,-0.45 -0.14,-0.76 l -4.32,-17.2 c -0.11,-0.36 -0.15,-0.74 -0.15,-1.08 0,-2.24 1.99,-3.31 3.66,-3.31 0.84,0 1.89,0.28 2.8,1.84 0.73,1.28 1.22,3.34 1.22,3.48 0,0.46 -0.46,0.46 -0.57,0.46 -0.48,0 -0.54,-0.21 -0.68,-0.85 -0.46,-1.73 -1.13,-3.97 -2.63,-3.97 -0.94,0 -1.17,0.88 -1.17,1.71 0,0.39 0.09,1.04 0.2,1.43 z"
           inkscape:connector-curvature="0"
           style="fill:#008000;stroke-width:4.15297792;stroke-miterlimit:4;stroke-dasharray:none;stroke:none" /><path
           id="path5440"
           d="m 764.94,405.35 -0.07,0.11 -0.07,0.1 -0.08,0.11 -0.08,0.1 -0.08,0.1 -0.08,0.09 -0.09,0.1 -0.08,0.09 -0.1,0.09 -0.09,0.09 -0.1,0.09 -0.1,0.08 -0.1,0.08 -0.11,0.08 -0.1,0.07 -0.11,0.07 -0.12,0.07 -0.11,0.06 -0.12,0.06 -0.12,0.06 -0.13,0.05 -0.13,0.05 -0.13,0.05 -0.13,0.04 -0.13,0.03 -0.14,0.04 -0.14,0.02 -0.15,0.03 -0.14,0.01 -0.15,0.02 -0.16,0.01 -0.15,0 0,-0.97 c 2.43,0 3.11,-2.64 3.11,-3.03 0,-0.14 -0.08,-0.39 -0.11,-0.49 l -1.64,-6.51 c -0.24,-0.99 -1,-1.67 -1.77,-2.35 -0.31,-0.26 -1.72,-1.39 -3.22,-1.39 -1.28,0 -2.53,0.91 -2.53,3.38 0,1.86 1,5.69 1.81,7.08 1.6,2.79 3.38,3.31 4.35,3.31 l 0,0.97 c -4.45,0 -8.99,-4.91 -8.99,-9.92 0,-3.38 2.27,-5.78 5.27,-5.78 1.87,0 3.55,1.07 4.94,2.43 0.67,-2.09 2.68,-2.43 3.59,-2.43 1.25,0 2.12,0.76 2.75,1.84 0.77,1.36 1.22,3.34 1.22,3.48 0,0.46 -0.45,0.46 -0.55,0.46 -0.5,0 -0.53,-0.14 -0.76,-1.08 -0.42,-1.67 -1.1,-3.74 -2.55,-3.74 -0.91,0 -1.16,0.77 -1.16,1.71 0,0.59 0.29,1.86 0.54,2.76 0.23,0.94 0.59,2.36 0.76,3.13 l 0.69,2.65 c 0.22,0.91 0.62,2.55 0.62,2.72 0,0.77 -0.62,1.11 -1.17,1.11 -0.59,0 -1.4,-0.42 -1.61,-1.39 z"
           inkscape:connector-curvature="0"
           style="fill:#008000;stroke-width:4.15297792;stroke-miterlimit:4;stroke-dasharray:none;stroke:none" /><path
           id="path5442"
           d="m 789.57,406.4 0.01,0.03 0,0.02 0.01,0.03 0.01,0.03 0,0.04 0.01,0.03 0.01,0.03 0,0.03 0.01,0.04 0,0.03 0.01,0.04 0,0.03 0,0.03 0.01,0.04 0,0.03 0,0.03 c 0,0.22 -0.14,0.49 -0.45,0.49 -0.36,0 -1.82,-1.17 -2.52,-2.3 -0.34,0.7 -1.5,2.3 -3.73,2.3 l 0,-0.97 c 2.43,0 3.1,-2.69 3.1,-3.03 0,-0.17 -0.07,-0.39 -0.1,-0.52 l -1.65,-6.45 c -0.17,-0.59 -0.17,-0.66 -0.62,-1.22 -1.36,-1.61 -3,-2.55 -4.36,-2.55 -1.28,0 -2.53,0.91 -2.53,3.38 0,1.86 1,5.69 1.81,7.08 1.6,2.79 3.38,3.31 4.35,3.31 l 0,0.97 c -4.46,0 -8.99,-4.91 -8.99,-9.92 0,-3.38 2.27,-5.78 5.27,-5.78 1.98,0 3.62,1.25 4.39,1.9 -0.03,-0.09 -1.13,-4.48 -1.27,-5.08 -0.48,-1.92 -0.51,-1.95 -2.67,-1.98 -0.42,0 -0.91,0 -0.91,-0.77 0,-0.22 0.18,-0.5 0.52,-0.5 1.16,0 2.44,0.14 3.62,0.14 1.19,0 2.66,-0.14 3.74,-0.14 0.31,0 0.69,0.11 0.69,0.77 0,0.5 -0.49,0.5 -0.91,0.5 -0.77,0 -1.7,0 -1.7,0.41 0,0.1 0,0.18 0.17,0.76 z"
           inkscape:connector-curvature="0"
           style="fill:#008000;stroke-width:4.15297792;stroke-miterlimit:4;stroke-dasharray:none;stroke:none" /><path
           id="path5444"
           d="m 806.01,397.68 -0.02,-0.07 -0.02,-0.07 -0.01,-0.07 -0.02,-0.07 -0.02,-0.08 -0.02,-0.08 -0.02,-0.08 -0.02,-0.09 -0.04,-0.16 -0.04,-0.17 -0.05,-0.17 -0.02,-0.08 -0.02,-0.08 -0.02,-0.08 -0.02,-0.07 -0.02,-0.08 -0.01,-0.07 -0.02,-0.06 -0.02,-0.07 -0.02,-0.06 -0.01,-0.05 -0.02,-0.05 -0.01,-0.05 -0.01,-0.03 -0.01,-0.04 -0.01,-0.01 -0.01,-0.02 0,-0.01 0,-0.01 -0.01,0 0,-0.01 -0.01,0 0,-0.01 c -0.67,-1.08 -2.06,-2.97 -4.22,-2.97 -2.4,0 -2.4,2.27 -2.4,2.89 0,2.07 0.96,4.54 1.95,7.08 0.28,0.71 0.48,1.22 0.48,1.78 0,1.82 -1.53,2.99 -3.31,2.99 -3.48,0 -5.05,-4.77 -5.05,-5.33 0,-0.45 0.49,-0.45 0.6,-0.45 0.48,0 0.51,0.17 0.62,0.56 0.83,2.86 2.38,4.25 3.72,4.25 0.6,0 0.88,-0.39 0.88,-1.22 0,-0.8 -0.28,-1.53 -0.63,-2.33 -1.87,-4.81 -1.87,-5.83 -1.87,-6.76 0,-0.6 0,-2.21 1.28,-3.32 1.01,-0.82 2.37,-1.1 3.59,-1.1 2.19,0 3.38,1.18 4.53,2.29 0.77,-2.23 3.1,-2.29 3.52,-2.29 1.19,0 2.09,0.68 2.75,1.84 0.76,1.36 1.25,3.37 1.25,3.48 0,0.46 -0.49,0.46 -0.58,0.46 -0.5,0 -0.53,-0.14 -0.78,-1.08 -0.41,-1.64 -1.08,-3.74 -2.53,-3.74 -0.91,0 -1.16,0.8 -1.16,1.71 0,0.59 0.28,1.86 0.53,2.76 0.24,0.94 0.58,2.36 0.77,3.13 l 0.8,3.11 c 0.2,0.87 0.59,2.4 0.59,2.58 0,0.68 -0.56,1.1 -1.16,1.1 -1.28,0 -1.53,-1.01 -1.81,-2.12 z"
           inkscape:connector-curvature="0"
           style="fill:#008000;stroke-width:4.15297792;stroke-miterlimit:4;stroke-dasharray:none;stroke:none" /><path
           id="path5446"
           d="m 822.6,399.98 0.1,0 0.11,0 0.11,0 0.13,0 0.13,0 0.14,0.01 0.15,0 0.15,0.01 0.17,0.01 0.16,0.01 0.18,0 0.18,0.02 0.18,0.01 0.19,0.01 0.38,0.04 0.4,0.04 0.4,0.05 0.41,0.06 0.41,0.07 0.4,0.08 0.2,0.04 0.19,0.05 0.19,0.05 0.19,0.05 0.19,0.06 0.18,0.06 c 2.57,0.91 3.06,2.58 3.06,3.63 0,1.92 -1.93,3.06 -4.33,3.06 l 0,-0.97 c 1.53,0 2.83,-0.77 2.83,-2.09 0,-3.38 -5.89,-3.38 -7.39,-3.38 l -1.71,0 c 1.42,5.05 5.3,5.47 6.27,5.47 l 0,0.97 c -4.17,0 -9.83,-3.2 -9.83,-9.16 0,-3.51 2.2,-6.54 6.28,-6.54 5.89,0 8.64,3.43 8.64,3.93 0,0.21 -0.31,0.6 -0.59,0.6 -0.2,0 -0.28,-0.08 -0.56,-0.36 -2.72,-3.21 -6.8,-3.21 -7.42,-3.21 -2.1,0 -3.49,1.39 -3.49,4.22 0,0.49 0,1.19 0.42,3.1 z"
           inkscape:connector-curvature="0"
           style="fill:#008000;stroke-width:4.15297792;stroke-miterlimit:4;stroke-dasharray:none;stroke:none" /></g>    </g>
    <g
       id="g5772"
       transform="matrix(0.87145718,0,0,0.87145718,115.75322,187.38334)"
       style="fill:#ff0000;stroke-width:4.30313742;stroke-miterlimit:4;stroke-dasharray:none;stroke:none">
      <g
         id="g5774"
         transform="matrix(1.0629921,0,0,-1.0629921,-186.02362,789.27165)"
         xml:space="preserve"
         stroke-miterlimit="10.433"
         font-style="normal"
         font-variant="normal"
         font-weight="normal"
         font-stretch="normal"
         font-size-adjust="none"
         letter-spacing="normal"
         word-spacing="normal"
         style="font-style:normal;font-variant:normal;font-weight:normal;font-stretch:normal;letter-spacing:normal;word-spacing:normal;text-anchor:start;fill:#ff0000;fill-opacity:1;fill-rule:evenodd;stroke:none;stroke-linecap:butt;stroke-linejoin:miter;stroke-miterlimit:4;stroke-dasharray:none;stroke-dashoffset:0;stroke-opacity:1;stroke-width:4.04813678"><path
           d="m 475.25,425.14 -0.14,0 -0.15,0 -0.15,-0.01 -0.14,0 -0.14,-0.01 -0.14,-0.02 -0.07,-0.01 -0.07,-0.01 -0.06,-0.02 -0.07,-0.01 -0.07,-0.02 -0.07,-0.02 -0.07,-0.02 -0.06,-0.02 -0.07,-0.03 -0.07,-0.03 -0.06,-0.03 -0.07,-0.04 -0.07,-0.04 -0.06,-0.04 -0.07,-0.05 -0.07,-0.04 -0.06,-0.06 -0.07,-0.05 -0.06,-0.06 -0.07,-0.07 c -0.8,-0.75 -0.89,-1.59 -0.89,-1.93 0,-1.21 0.89,-1.75 1.84,-1.75 1.44,0 2.8,1.2 2.8,3.18 0,2.44 -2.34,4.28 -5.89,4.28 -6.72,0 -13.34,-7.12 -13.34,-14.14 0,-4.48 2.89,-8.42 8.06,-8.42 7.12,0 11.31,5.28 11.31,5.88 0,0.29 -0.3,0.65 -0.59,0.65 -0.25,0 -0.35,-0.11 -0.66,-0.5 -3.94,-4.93 -9.36,-4.93 -9.95,-4.93 -3.14,0 -4.49,2.43 -4.49,5.43 0,2.03 0.99,6.88 2.69,9.96 1.55,2.84 4.28,4.98 7.02,4.98 1.7,0 3.59,-0.64 4.29,-1.98 z"
           id="path5776"
           inkscape:connector-curvature="0"
           style="fill:#ff0000;stroke-width:4.04813678;stroke-miterlimit:4;stroke-dasharray:none;stroke:none" /><path
           d="m 491.48,445.14 0.03,0.11 0.03,0.11 0.03,0.11 0.02,0.1 0.03,0.09 0.04,0.1 0.03,0.08 0.04,0.08 0.04,0.08 0.04,0.07 0.05,0.07 0.06,0.06 0.06,0.06 0.07,0.06 0.08,0.05 0.08,0.05 0.09,0.04 0.1,0.04 0.11,0.04 0.12,0.03 0.07,0.02 0.06,0.01 0.07,0.01 0.08,0.02 0.07,0.01 0.08,0.01 0.09,0.01 0.08,0.01 0.09,0.01 0.09,0.01 0.1,0.01 0.1,0.01 0.1,0 0.11,0.01 0.11,0 0.11,0.01 0.12,0 0.12,0.01 0.13,0 0.13,0 0.13,0 0.14,0 0.15,0.01 0.15,0 c 1.07,0 1.42,0 1.42,0.76 0,0.03 -0.03,0.49 -0.6,0.49 -0.79,0 -1.73,-0.07 -2.57,-0.11 -0.88,-0.03 -1.91,-0.03 -2.79,-0.03 -0.73,0 -1.67,0.03 -2.4,0.03 -0.74,0 -1.56,0.11 -2.27,0.11 -0.2,0 -0.73,0 -0.73,-0.77 0,-0.48 0.42,-0.48 1.12,-0.48 0.03,0 0.69,0 1.32,-0.08 0.73,-0.06 0.81,-0.14 0.81,-0.49 0,-0.06 0,-0.23 -0.14,-0.76 l -4.64,-18.5 c -0.32,-1.19 -0.39,-1.47 -3.07,-1.47 -0.59,0 -1.04,0 -1.04,-0.74 0,-0.51 0.42,-0.51 1.04,-0.51 l 17.52,0 c 0.87,0 0.91,0.03 1.19,0.7 0.36,0.94 2.97,7.69 2.97,7.97 0,0.11 -0.08,0.5 -0.6,0.5 -0.42,0 -0.48,-0.19 -0.7,-0.73 -1.31,-3.32 -2.86,-7.19 -9.24,-7.19 l -3.93,0 c -1.08,0 -1.11,0.05 -1.11,0.36 0,0.03 0,0.2 0.14,0.72 z"
           id="path5778"
           inkscape:connector-curvature="0"
           style="fill:#ff0000;stroke-width:4.04813678;stroke-miterlimit:4;stroke-dasharray:none;stroke:none" /><path
           d="m 479.73,387.79 -0.02,-0.09 -0.02,-0.09 -0.02,-0.08 -0.02,-0.08 -0.02,-0.07 -0.02,-0.07 -0.03,-0.07 -0.02,-0.06 -0.02,-0.06 -0.03,-0.06 -0.03,-0.05 -0.02,-0.05 -0.04,-0.05 -0.03,-0.04 -0.04,-0.04 -0.04,-0.04 -0.04,-0.03 -0.05,-0.03 -0.05,-0.03 -0.05,-0.02 -0.06,-0.03 -0.07,-0.02 -0.07,-0.02 -0.07,-0.01 -0.08,-0.02 -0.05,0 -0.04,-0.01 -0.04,-0.01 -0.05,0 -0.05,0 -0.05,-0.01 -0.05,0 -0.06,0 -0.05,-0.01 -0.06,0 -0.06,0 -0.06,0 -0.06,0 -0.06,0 c -0.46,0 -0.94,0 -0.94,-0.74 0,-0.39 0.31,-0.53 0.48,-0.53 0.91,0 2.07,0.14 3,0.14 1.19,0 2.5,-0.14 3.66,-0.14 0.31,0 0.7,0.11 0.7,0.77 0,0.5 -0.5,0.5 -0.9,0.5 -0.78,0 -1.72,0 -1.72,0.41 0,0.18 0.25,1.09 0.39,1.6 0.42,1.85 0.91,3.74 1.28,5.19 0.42,-0.69 1.5,-2.04 3.59,-2.04 l 0,0.96 c -2.46,0 -3.09,2.69 -3.09,3.04 0,0.14 0.06,0.39 0.09,0.53 l 1.75,7 c 2.02,2.68 3.77,3.2 4.88,3.2 1.36,0 2.55,-1.02 2.55,-3.38 0,-1.43 -0.77,-4.98 -1.82,-7.01 -0.87,-1.7 -2.57,-3.38 -4.36,-3.38 l 0,-0.96 c 4.25,0 8.96,4.7 8.96,9.89 0,4.07 -2.83,5.81 -5.22,5.81 -2.17,0 -4.02,-1.45 -4.95,-2.44 -0.6,1.99 -2.55,2.44 -3.6,2.44 -1.36,0 -2.19,-0.91 -2.75,-1.85 -0.7,-1.18 -1.25,-3.26 -1.25,-3.48 0,-0.45 0.49,-0.45 0.6,-0.45 0.48,0 0.51,0.11 0.76,1.04 0.52,2.04 1.19,3.77 2.55,3.77 0.9,0 1.14,-0.77 1.14,-1.7 0,-0.39 -0.06,-0.85 -0.11,-1.05 z"
           id="path5780"
           inkscape:connector-curvature="0"
           style="fill:#ff0000;stroke-width:4.04813678;stroke-miterlimit:4;stroke-dasharray:none;stroke:none" /><path
           d="m 507.47,415.18 0,0 0,0.01 0,0 0.01,0.01 0,0 0,0.01 0,0 0,0.01 0.01,0.01 0,0 0,0.02 0.01,0.02 0,0.02 0.01,0.02 0.01,0.02 0,0.02 0.01,0.02 0,0.02 0.01,0.03 0.01,0.04 0.01,0.05 0.01,0.02 0,0.03 0.01,0.02 0,0.02 0.01,0.02 0,0.02 0.01,0.01 0,0.02 0,0.01 0,0 0,0.01 0,0.01 0.01,0 0,0.01 0,0 0,0.01 0,0 0,0 0,0.01 0,0 c 0,0.18 -0.14,0.5 -0.56,0.5 -0.69,0 -3.6,-0.28 -4.46,-0.36 -0.25,-0.03 -0.73,-0.07 -0.73,-0.8 0,-0.48 0.48,-0.48 0.87,-0.48 1.68,0 1.68,-0.25 1.68,-0.54 0,-0.23 -0.08,-0.45 -0.14,-0.76 l -4.33,-17.2 c -0.11,-0.36 -0.14,-0.74 -0.14,-1.08 0,-2.24 1.98,-3.31 3.65,-3.31 0.85,0 1.89,0.28 2.8,1.84 0.73,1.28 1.22,3.34 1.22,3.48 0,0.46 -0.45,0.46 -0.56,0.46 -0.49,0 -0.55,-0.21 -0.69,-0.85 -0.45,-1.73 -1.13,-3.97 -2.63,-3.97 -0.93,0 -1.17,0.88 -1.17,1.71 0,0.39 0.1,1.04 0.2,1.43 z"
           id="path5782"
           inkscape:connector-curvature="0"
           style="fill:#ff0000;stroke-width:4.04813678;stroke-miterlimit:4;stroke-dasharray:none;stroke:none" /><path
           d="m 525.18,405.35 -0.07,0.11 -0.07,0.1 -0.08,0.11 -0.08,0.1 -0.08,0.1 -0.08,0.09 -0.09,0.1 -0.09,0.09 -0.09,0.09 -0.09,0.09 -0.1,0.09 -0.1,0.08 -0.1,0.08 -0.11,0.08 -0.1,0.07 -0.12,0.07 -0.11,0.07 -0.12,0.06 -0.11,0.06 -0.13,0.06 -0.12,0.05 -0.13,0.05 -0.13,0.05 -0.13,0.04 -0.14,0.03 -0.13,0.04 -0.15,0.02 -0.14,0.03 -0.15,0.01 -0.15,0.02 -0.15,0.01 -0.15,0 0,-0.97 c 2.43,0 3.11,-2.64 3.11,-3.03 0,-0.14 -0.08,-0.39 -0.11,-0.49 l -1.64,-6.51 c -0.24,-0.99 -1,-1.67 -1.77,-2.35 -0.31,-0.26 -1.72,-1.39 -3.22,-1.39 -1.28,0 -2.53,0.91 -2.53,3.38 0,1.86 1,5.69 1.81,7.08 1.6,2.79 3.38,3.31 4.35,3.31 l 0,0.97 c -4.46,0 -8.99,-4.91 -8.99,-9.92 0,-3.38 2.27,-5.78 5.27,-5.78 1.87,0 3.54,1.07 4.93,2.43 0.68,-2.09 2.69,-2.43 3.6,-2.43 1.25,0 2.12,0.76 2.75,1.84 0.76,1.36 1.22,3.34 1.22,3.48 0,0.46 -0.46,0.46 -0.55,0.46 -0.5,0 -0.53,-0.14 -0.77,-1.08 -0.42,-1.67 -1.09,-3.74 -2.54,-3.74 -0.91,0 -1.16,0.77 -1.16,1.71 0,0.59 0.28,1.86 0.53,2.76 0.24,0.94 0.6,2.36 0.77,3.13 l 0.69,2.65 c 0.21,0.91 0.62,2.55 0.62,2.72 0,0.77 -0.62,1.11 -1.17,1.11 -0.59,0 -1.41,-0.42 -1.61,-1.39 z"
           id="path5784"
           inkscape:connector-curvature="0"
           style="fill:#ff0000;stroke-width:4.04813678;stroke-miterlimit:4;stroke-dasharray:none;stroke:none" /><path
           d="m 549.81,406.4 0.01,0.03 0,0.02 0.01,0.03 0,0.03 0.01,0.04 0.01,0.03 0,0.03 0.01,0.03 0.01,0.04 0,0.03 0.01,0.04 0,0.03 0,0.03 0,0.04 0.01,0.03 0,0.03 c 0,0.22 -0.14,0.49 -0.46,0.49 -0.36,0 -1.81,-1.17 -2.51,-2.3 -0.35,0.7 -1.5,2.3 -3.74,2.3 l 0,-0.97 c 2.44,0 3.11,-2.69 3.11,-3.03 0,-0.17 -0.07,-0.39 -0.11,-0.52 l -1.64,-6.45 c -0.17,-0.59 -0.17,-0.66 -0.62,-1.22 -1.36,-1.61 -3,-2.55 -4.36,-2.55 -1.28,0 -2.53,0.91 -2.53,3.38 0,1.86 1,5.69 1.81,7.08 1.59,2.79 3.38,3.31 4.34,3.31 l 0,0.97 c -4.45,0 -8.98,-4.91 -8.98,-9.92 0,-3.38 2.27,-5.78 5.27,-5.78 1.98,0 3.62,1.25 4.38,1.9 -0.03,-0.09 -1.12,-4.48 -1.26,-5.08 -0.49,-1.92 -0.52,-1.95 -2.67,-1.98 -0.42,0 -0.91,0 -0.91,-0.77 0,-0.22 0.17,-0.5 0.52,-0.5 1.15,0 2.44,0.14 3.62,0.14 1.19,0 2.66,-0.14 3.74,-0.14 0.31,0 0.68,0.11 0.68,0.77 0,0.5 -0.48,0.5 -0.9,0.5 -0.77,0 -1.7,0 -1.7,0.41 0,0.1 0,0.18 0.17,0.76 z"
           id="path5786"
           inkscape:connector-curvature="0"
           style="fill:#ff0000;stroke-width:4.04813678;stroke-miterlimit:4;stroke-dasharray:none;stroke:none" /><path
           d="m 566.25,397.68 -0.02,-0.07 -0.02,-0.07 -0.02,-0.07 -0.01,-0.07 -0.02,-0.08 -0.02,-0.08 -0.02,-0.08 -0.02,-0.09 -0.04,-0.16 -0.05,-0.17 -0.04,-0.17 -0.02,-0.08 -0.02,-0.08 -0.02,-0.08 -0.02,-0.07 -0.02,-0.08 -0.02,-0.07 -0.01,-0.06 -0.02,-0.07 -0.02,-0.06 -0.01,-0.05 -0.02,-0.05 -0.01,-0.05 -0.01,-0.03 -0.02,-0.04 0,-0.01 -0.01,-0.02 0,-0.01 -0.01,-0.01 0,0 0,-0.01 -0.01,0 0,-0.01 c -0.67,-1.08 -2.06,-2.97 -4.22,-2.97 -2.41,0 -2.41,2.27 -2.41,2.89 0,2.07 0.97,4.54 1.96,7.08 0.28,0.71 0.48,1.22 0.48,1.78 0,1.82 -1.53,2.99 -3.31,2.99 -3.48,0 -5.05,-4.77 -5.05,-5.33 0,-0.45 0.49,-0.45 0.6,-0.45 0.48,0 0.51,0.17 0.62,0.56 0.83,2.86 2.38,4.25 3.72,4.25 0.59,0 0.88,-0.39 0.88,-1.22 0,-0.8 -0.29,-1.53 -0.63,-2.33 -1.87,-4.81 -1.87,-5.83 -1.87,-6.76 0,-0.6 0,-2.21 1.28,-3.32 1.01,-0.82 2.37,-1.1 3.59,-1.1 2.19,0 3.38,1.18 4.53,2.29 0.77,-2.23 3.1,-2.29 3.52,-2.29 1.18,0 2.09,0.68 2.75,1.84 0.76,1.36 1.25,3.37 1.25,3.48 0,0.46 -0.49,0.46 -0.58,0.46 -0.5,0 -0.53,-0.14 -0.78,-1.08 -0.41,-1.64 -1.08,-3.74 -2.53,-3.74 -0.91,0 -1.16,0.8 -1.16,1.71 0,0.59 0.28,1.86 0.53,2.76 0.23,0.94 0.58,2.36 0.77,3.13 l 0.79,3.11 c 0.21,0.87 0.6,2.4 0.6,2.58 0,0.68 -0.56,1.1 -1.16,1.1 -1.28,0 -1.53,-1.01 -1.81,-2.12 z"
           id="path5788"
           inkscape:connector-curvature="0"
           style="fill:#ff0000;stroke-width:4.04813678;stroke-miterlimit:4;stroke-dasharray:none;stroke:none" /><path
           d="m 582.84,399.98 0.1,0 0.11,0 0.11,0 0.13,0 0.13,0 0.14,0.01 0.15,0 0.15,0.01 0.17,0.01 0.16,0.01 0.18,0 0.18,0.02 0.18,0.01 0.19,0.01 0.38,0.04 0.4,0.04 0.4,0.05 0.41,0.06 0.41,0.07 0.4,0.08 0.19,0.04 0.2,0.05 0.19,0.05 0.19,0.05 0.18,0.06 0.18,0.06 c 2.58,0.91 3.07,2.58 3.07,3.63 0,1.92 -1.93,3.06 -4.33,3.06 l 0,-0.97 c 1.53,0 2.83,-0.77 2.83,-2.09 0,-3.38 -5.9,-3.38 -7.4,-3.38 l -1.7,0 c 1.42,5.05 5.3,5.47 6.27,5.47 l 0,0.97 c -4.17,0 -9.83,-3.2 -9.83,-9.16 0,-3.51 2.2,-6.54 6.28,-6.54 5.89,0 8.64,3.43 8.64,3.93 0,0.21 -0.31,0.6 -0.59,0.6 -0.21,0 -0.28,-0.08 -0.57,-0.36 -2.71,-3.21 -6.79,-3.21 -7.42,-3.21 -2.09,0 -3.48,1.39 -3.48,4.22 0,0.49 0,1.19 0.42,3.1 z"
           id="path5790"
           inkscape:connector-curvature="0"
           style="fill:#ff0000;stroke-width:4.04813678;stroke-miterlimit:4;stroke-dasharray:none;stroke:none" /><path
           d="m 626.93,420.04 -9.95,9.92 c -0.61,0.6 -0.7,0.71 -1.11,0.71 -0.48,0 -0.98,-0.46 -0.98,-1 0,-0.36 0.09,-0.46 0.64,-1 l 9.97,-10.02 -9.97,-10.01 c -0.55,-0.55 -0.64,-0.64 -0.64,-1 0,-0.55 0.5,-0.99 0.98,-0.99 0.41,0 0.5,0.1 1.11,0.69 l 9.91,9.92 10.31,-10.31 c 0.11,-0.05 0.45,-0.3 0.75,-0.3 0.59,0 1,0.44 1,0.99 0,0.11 0,0.31 -0.16,0.56 -0.04,0.09 -7.97,7.92 -10.45,10.45 l 9.11,9.13 c 0.25,0.29 1,0.93 1.25,1.23 0.05,0.11 0.25,0.3 0.25,0.66 0,0.54 -0.41,1 -1,1 -0.39,0 -0.6,-0.21 -1.14,-0.75 z"
           id="path5792"
           inkscape:connector-curvature="0"
           style="fill:#ff0000;stroke-width:4.04813678;stroke-miterlimit:4;stroke-dasharray:none;stroke:none" /><path
           d="m 679.38,440.98 -0.04,0.06 -0.03,0.06 -0.03,0.05 -0.02,0.05 -0.03,0.05 -0.03,0.05 -0.03,0.05 -0.02,0.04 -0.03,0.04 -0.03,0.04 -0.02,0.04 -0.03,0.03 -0.03,0.04 -0.03,0.03 -0.03,0.03 -0.03,0.03 -0.03,0.02 -0.04,0.03 -0.04,0.02 -0.03,0.02 -0.05,0.02 -0.04,0.01 -0.05,0.02 -0.04,0.01 -0.06,0.01 -0.05,0.01 -0.06,0.01 -0.06,0.01 -0.07,0 -0.07,0.01 -0.07,0 -0.04,0 -0.04,0 c -0.85,0 -0.94,-0.25 -1.28,-0.89 l -0.32,-4.09 13.41,-26.91 -26.86,0 13.45,26.91 0.32,4.09 -16.85,-33.78 c -0.25,-0.45 -0.25,-0.55 -0.25,-0.59 0,-0.41 0.3,-0.41 1.1,-0.41 l 34.58,0 c 0.79,0 1.09,0 1.09,0.41 0,0.04 0,0.14 -0.25,0.59 z"
           id="path5794"
           inkscape:connector-curvature="0"
           style="fill:#ff0000;stroke-width:4.04813678;stroke-miterlimit:4;stroke-dasharray:none;stroke:none" /><path
           d="m 709.15,426.12 4.68,0 c 0.99,0 1.49,0 1.49,1 0,0.55 -0.5,0.55 -1.39,0.55 l -4.4,0 c 1.8,7.08 2.05,8.08 2.05,8.37 0,0.85 -0.59,1.35 -1.43,1.35 -0.16,0 -1.55,-0.05 -2,-1.8 l -1.94,-7.92 -4.69,0 c -1,0 -1.5,0 -1.5,-0.94 0,-0.61 0.41,-0.61 1.41,-0.61 l 4.37,0 c -3.58,-14.14 -3.78,-14.98 -3.78,-15.89 0,-2.69 1.89,-4.58 4.58,-4.58 5.08,0 7.92,7.27 7.92,7.67 0,0.5 -0.39,0.5 -0.59,0.5 -0.46,0 -0.5,-0.15 -0.75,-0.7 -2.15,-5.17 -4.78,-6.37 -6.47,-6.37 -1.05,0 -1.55,0.65 -1.55,2.29 0,1.19 0.09,1.55 0.3,2.39 z"
           id="path5796"
           inkscape:connector-curvature="0"
           style="fill:#ff0000;stroke-width:4.04813678;stroke-miterlimit:4;stroke-dasharray:none;stroke:none" /><path
           d="m 731.24,445.14 0.03,0.11 0.03,0.11 0.02,0.11 0.03,0.1 0.03,0.09 0.03,0.1 0.04,0.08 0.04,0.08 0.04,0.08 0.04,0.07 0.05,0.07 0.06,0.06 0.06,0.06 0.07,0.06 0.07,0.05 0.09,0.05 0.09,0.04 0.1,0.04 0.11,0.04 0.12,0.03 0.07,0.02 0.06,0.01 0.07,0.01 0.08,0.02 0.07,0.01 0.08,0.01 0.08,0.01 0.09,0.01 0.09,0.01 0.09,0.01 0.1,0.01 0.1,0.01 0.1,0 0.11,0.01 0.11,0 0.11,0.01 0.12,0 0.12,0.01 0.13,0 0.13,0 0.13,0 0.14,0 0.15,0.01 0.14,0 c 1.08,0 1.42,0 1.42,0.76 0,0.03 -0.03,0.49 -0.59,0.49 -0.79,0 -1.73,-0.07 -2.58,-0.11 -0.87,-0.03 -1.9,-0.03 -2.78,-0.03 -0.73,0 -1.67,0.03 -2.4,0.03 -0.74,0 -1.57,0.11 -2.27,0.11 -0.2,0 -0.73,0 -0.73,-0.77 0,-0.48 0.42,-0.48 1.12,-0.48 0.03,0 0.69,0 1.31,-0.08 0.74,-0.06 0.82,-0.14 0.82,-0.49 0,-0.06 0,-0.23 -0.15,-0.76 l -4.63,-18.5 c -0.32,-1.19 -0.4,-1.47 -3.07,-1.47 -0.59,0 -1.05,0 -1.05,-0.74 0,-0.51 0.43,-0.51 1.05,-0.51 l 17.52,0 c 0.87,0 0.9,0.03 1.18,0.7 0.37,0.94 2.97,7.69 2.97,7.97 0,0.11 -0.07,0.5 -0.59,0.5 -0.42,0 -0.48,-0.19 -0.7,-0.73 -1.31,-3.32 -2.86,-7.19 -9.24,-7.19 l -3.94,0 c -1.07,0 -1.1,0.05 -1.1,0.36 0,0.03 0,0.2 0.14,0.72 z"
           id="path5798"
           inkscape:connector-curvature="0"
           style="fill:#ff0000;stroke-width:4.04813678;stroke-miterlimit:4;stroke-dasharray:none;stroke:none" /><path
           d="m 719.49,387.79 -0.02,-0.09 -0.02,-0.09 -0.02,-0.08 -0.03,-0.08 -0.02,-0.07 -0.02,-0.07 -0.02,-0.07 -0.02,-0.06 -0.03,-0.06 -0.02,-0.06 -0.03,-0.05 -0.03,-0.05 -0.03,-0.05 -0.03,-0.04 -0.04,-0.04 -0.04,-0.04 -0.04,-0.03 -0.05,-0.03 -0.05,-0.03 -0.06,-0.02 -0.06,-0.03 -0.06,-0.02 -0.07,-0.02 -0.07,-0.01 -0.09,-0.02 -0.04,0 -0.04,-0.01 -0.05,-0.01 -0.04,0 -0.05,0 -0.05,-0.01 -0.05,0 -0.06,0 -0.05,-0.01 -0.06,0 -0.06,0 -0.06,0 -0.06,0 -0.07,0 c -0.45,0 -0.93,0 -0.93,-0.74 0,-0.39 0.31,-0.53 0.48,-0.53 0.91,0 2.07,0.14 3,0.14 1.19,0 2.5,-0.14 3.66,-0.14 0.31,0 0.7,0.11 0.7,0.77 0,0.5 -0.5,0.5 -0.91,0.5 -0.78,0 -1.71,0 -1.71,0.41 0,0.18 0.25,1.09 0.39,1.6 0.42,1.85 0.9,3.74 1.28,5.19 0.42,-0.69 1.5,-2.04 3.59,-2.04 l 0,0.96 c -2.47,0 -3.09,2.69 -3.09,3.04 0,0.14 0.06,0.39 0.09,0.53 l 1.75,7 c 2.02,2.68 3.77,3.2 4.88,3.2 1.36,0 2.54,-1.02 2.54,-3.38 0,-1.43 -0.76,-4.98 -1.81,-7.01 -0.87,-1.7 -2.58,-3.38 -4.36,-3.38 l 0,-0.96 c 4.25,0 8.95,4.7 8.95,9.89 0,4.07 -2.82,5.81 -5.21,5.81 -2.17,0 -4.02,-1.45 -4.96,-2.44 -0.59,1.99 -2.54,2.44 -3.59,2.44 -1.36,0 -2.19,-0.91 -2.75,-1.85 -0.7,-1.18 -1.25,-3.26 -1.25,-3.48 0,-0.45 0.48,-0.45 0.59,-0.45 0.49,0 0.52,0.11 0.77,1.04 0.52,2.04 1.19,3.77 2.55,3.77 0.9,0 1.14,-0.77 1.14,-1.7 0,-0.39 -0.07,-0.85 -0.11,-1.05 z"
           id="path5800"
           inkscape:connector-curvature="0"
           style="fill:#ff0000;stroke-width:4.04813678;stroke-miterlimit:4;stroke-dasharray:none;stroke:none" /><path
           d="m 747.23,415.18 0,0 0,0.01 0,0 0,0.01 0.01,0 0,0.01 0,0 0,0.01 0,0.01 0.01,0 0,0.02 0.01,0.02 0,0.02 0.01,0.02 0,0.02 0.01,0.02 0,0.02 0.01,0.02 0.01,0.03 0.01,0.04 0.01,0.05 0.01,0.02 0,0.03 0.01,0.02 0,0.02 0.01,0.02 0,0.02 0,0.01 0.01,0.02 0,0.01 0,0 0,0.01 0,0.01 0,0 0,0.01 0.01,0 0,0.01 0,0 0,0 0,0.01 0,0 c 0,0.18 -0.14,0.5 -0.57,0.5 -0.68,0 -3.59,-0.28 -4.45,-0.36 -0.25,-0.03 -0.73,-0.07 -0.73,-0.8 0,-0.48 0.48,-0.48 0.87,-0.48 1.67,0 1.67,-0.25 1.67,-0.54 0,-0.23 -0.07,-0.45 -0.14,-0.76 l -4.32,-17.2 c -0.11,-0.36 -0.15,-0.74 -0.15,-1.08 0,-2.24 1.99,-3.31 3.66,-3.31 0.84,0 1.89,0.28 2.8,1.84 0.73,1.28 1.22,3.34 1.22,3.48 0,0.46 -0.46,0.46 -0.57,0.46 -0.48,0 -0.54,-0.21 -0.68,-0.85 -0.46,-1.73 -1.13,-3.97 -2.63,-3.97 -0.94,0 -1.17,0.88 -1.17,1.71 0,0.39 0.09,1.04 0.2,1.43 z"
           id="path5802"
           inkscape:connector-curvature="0"
           style="fill:#ff0000;stroke-width:4.04813678;stroke-miterlimit:4;stroke-dasharray:none;stroke:none" /><path
           d="m 764.94,405.35 -0.07,0.11 -0.07,0.1 -0.08,0.11 -0.08,0.1 -0.08,0.1 -0.08,0.09 -0.09,0.1 -0.08,0.09 -0.1,0.09 -0.09,0.09 -0.1,0.09 -0.1,0.08 -0.1,0.08 -0.11,0.08 -0.1,0.07 -0.11,0.07 -0.12,0.07 -0.11,0.06 -0.12,0.06 -0.12,0.06 -0.13,0.05 -0.13,0.05 -0.13,0.05 -0.13,0.04 -0.13,0.03 -0.14,0.04 -0.14,0.02 -0.15,0.03 -0.14,0.01 -0.15,0.02 -0.16,0.01 -0.15,0 0,-0.97 c 2.43,0 3.11,-2.64 3.11,-3.03 0,-0.14 -0.08,-0.39 -0.11,-0.49 l -1.64,-6.51 c -0.24,-0.99 -1,-1.67 -1.77,-2.35 -0.31,-0.26 -1.72,-1.39 -3.22,-1.39 -1.28,0 -2.53,0.91 -2.53,3.38 0,1.86 1,5.69 1.81,7.08 1.6,2.79 3.38,3.31 4.35,3.31 l 0,0.97 c -4.45,0 -8.99,-4.91 -8.99,-9.92 0,-3.38 2.27,-5.78 5.27,-5.78 1.87,0 3.55,1.07 4.94,2.43 0.67,-2.09 2.68,-2.43 3.59,-2.43 1.25,0 2.12,0.76 2.75,1.84 0.77,1.36 1.22,3.34 1.22,3.48 0,0.46 -0.45,0.46 -0.55,0.46 -0.5,0 -0.53,-0.14 -0.76,-1.08 -0.42,-1.67 -1.1,-3.74 -2.55,-3.74 -0.91,0 -1.16,0.77 -1.16,1.71 0,0.59 0.29,1.86 0.54,2.76 0.23,0.94 0.59,2.36 0.76,3.13 l 0.69,2.65 c 0.22,0.91 0.62,2.55 0.62,2.72 0,0.77 -0.62,1.11 -1.17,1.11 -0.59,0 -1.4,-0.42 -1.61,-1.39 z"
           id="path5804"
           inkscape:connector-curvature="0"
           style="fill:#ff0000;stroke-width:4.04813678;stroke-miterlimit:4;stroke-dasharray:none;stroke:none" /><path
           d="m 789.57,406.4 0.01,0.03 0,0.02 0.01,0.03 0.01,0.03 0,0.04 0.01,0.03 0.01,0.03 0,0.03 0.01,0.04 0,0.03 0.01,0.04 0,0.03 0,0.03 0.01,0.04 0,0.03 0,0.03 c 0,0.22 -0.14,0.49 -0.45,0.49 -0.36,0 -1.82,-1.17 -2.52,-2.3 -0.34,0.7 -1.5,2.3 -3.73,2.3 l 0,-0.97 c 2.43,0 3.1,-2.69 3.1,-3.03 0,-0.17 -0.07,-0.39 -0.1,-0.52 l -1.65,-6.45 c -0.17,-0.59 -0.17,-0.66 -0.62,-1.22 -1.36,-1.61 -3,-2.55 -4.36,-2.55 -1.28,0 -2.53,0.91 -2.53,3.38 0,1.86 1,5.69 1.81,7.08 1.6,2.79 3.38,3.31 4.35,3.31 l 0,0.97 c -4.46,0 -8.99,-4.91 -8.99,-9.92 0,-3.38 2.27,-5.78 5.27,-5.78 1.98,0 3.62,1.25 4.39,1.9 -0.03,-0.09 -1.13,-4.48 -1.27,-5.08 -0.48,-1.92 -0.51,-1.95 -2.67,-1.98 -0.42,0 -0.91,0 -0.91,-0.77 0,-0.22 0.18,-0.5 0.52,-0.5 1.16,0 2.44,0.14 3.62,0.14 1.19,0 2.66,-0.14 3.74,-0.14 0.31,0 0.69,0.11 0.69,0.77 0,0.5 -0.49,0.5 -0.91,0.5 -0.77,0 -1.7,0 -1.7,0.41 0,0.1 0,0.18 0.17,0.76 z"
           id="path5806"
           inkscape:connector-curvature="0"
           style="fill:#ff0000;stroke-width:4.04813678;stroke-miterlimit:4;stroke-dasharray:none;stroke:none" /><path
           d="m 806.01,397.68 -0.02,-0.07 -0.02,-0.07 -0.01,-0.07 -0.02,-0.07 -0.02,-0.08 -0.02,-0.08 -0.02,-0.08 -0.02,-0.09 -0.04,-0.16 -0.04,-0.17 -0.05,-0.17 -0.02,-0.08 -0.02,-0.08 -0.02,-0.08 -0.02,-0.07 -0.02,-0.08 -0.01,-0.07 -0.02,-0.06 -0.02,-0.07 -0.02,-0.06 -0.01,-0.05 -0.02,-0.05 -0.01,-0.05 -0.01,-0.03 -0.01,-0.04 -0.01,-0.01 -0.01,-0.02 0,-0.01 0,-0.01 -0.01,0 0,-0.01 -0.01,0 0,-0.01 c -0.67,-1.08 -2.06,-2.97 -4.22,-2.97 -2.4,0 -2.4,2.27 -2.4,2.89 0,2.07 0.96,4.54 1.95,7.08 0.28,0.71 0.48,1.22 0.48,1.78 0,1.82 -1.53,2.99 -3.31,2.99 -3.48,0 -5.05,-4.77 -5.05,-5.33 0,-0.45 0.49,-0.45 0.6,-0.45 0.48,0 0.51,0.17 0.62,0.56 0.83,2.86 2.38,4.25 3.72,4.25 0.6,0 0.88,-0.39 0.88,-1.22 0,-0.8 -0.28,-1.53 -0.63,-2.33 -1.87,-4.81 -1.87,-5.83 -1.87,-6.76 0,-0.6 0,-2.21 1.28,-3.32 1.01,-0.82 2.37,-1.1 3.59,-1.1 2.19,0 3.38,1.18 4.53,2.29 0.77,-2.23 3.1,-2.29 3.52,-2.29 1.19,0 2.09,0.68 2.75,1.84 0.76,1.36 1.25,3.37 1.25,3.48 0,0.46 -0.49,0.46 -0.58,0.46 -0.5,0 -0.53,-0.14 -0.78,-1.08 -0.41,-1.64 -1.08,-3.74 -2.53,-3.74 -0.91,0 -1.16,0.8 -1.16,1.71 0,0.59 0.28,1.86 0.53,2.76 0.24,0.94 0.58,2.36 0.77,3.13 l 0.8,3.11 c 0.2,0.87 0.59,2.4 0.59,2.58 0,0.68 -0.56,1.1 -1.16,1.1 -1.28,0 -1.53,-1.01 -1.81,-2.12 z"
           id="path5808"
           inkscape:connector-curvature="0"
           style="fill:#ff0000;stroke-width:4.04813678;stroke-miterlimit:4;stroke-dasharray:none;stroke:none" /><path
           d="m 822.6,399.98 0.1,0 0.11,0 0.11,0 0.13,0 0.13,0 0.14,0.01 0.15,0 0.15,0.01 0.17,0.01 0.16,0.01 0.18,0 0.18,0.02 0.18,0.01 0.19,0.01 0.38,0.04 0.4,0.04 0.4,0.05 0.41,0.06 0.41,0.07 0.4,0.08 0.2,0.04 0.19,0.05 0.19,0.05 0.19,0.05 0.19,0.06 0.18,0.06 c 2.57,0.91 3.06,2.58 3.06,3.63 0,1.92 -1.93,3.06 -4.33,3.06 l 0,-0.97 c 1.53,0 2.83,-0.77 2.83,-2.09 0,-3.38 -5.89,-3.38 -7.39,-3.38 l -1.71,0 c 1.42,5.05 5.3,5.47 6.27,5.47 l 0,0.97 c -4.17,0 -9.83,-3.2 -9.83,-9.16 0,-3.51 2.2,-6.54 6.28,-6.54 5.89,0 8.64,3.43 8.64,3.93 0,0.21 -0.31,0.6 -0.59,0.6 -0.2,0 -0.28,-0.08 -0.56,-0.36 -2.72,-3.21 -6.8,-3.21 -7.42,-3.21 -2.1,0 -3.49,1.39 -3.49,4.22 0,0.49 0,1.19 0.42,3.1 z"
           id="path5810"
           inkscape:connector-curvature="0"
           style="fill:#ff0000;stroke-width:4.04813678;stroke-miterlimit:4;stroke-dasharray:none;stroke:none" /></g>    </g>
    <g
       id="g6176"
       transform="matrix(0.77046713,0,0,0.77046713,110.3123,-37.811424)"
       style="stroke-width:4.86717714;stroke-miterlimit:4;stroke-dasharray:none;stroke:none">
      <g
         word-spacing="normal"
         letter-spacing="normal"
         font-size-adjust="none"
         font-stretch="normal"
         font-weight="normal"
         font-variant="normal"
         font-style="normal"
         stroke-miterlimit="10.433"
         xml:space="preserve"
         transform="matrix(1.0629921,0,0,-1.0629921,-186.02362,789.27165)"
         id="g6178"
         style="font-style:normal;font-variant:normal;font-weight:normal;font-stretch:normal;letter-spacing:normal;word-spacing:normal;text-anchor:start;fill:none;fill-opacity:1;fill-rule:evenodd;stroke:none;stroke-linecap:butt;stroke-linejoin:miter;stroke-miterlimit:4;stroke-dasharray:none;stroke-dashoffset:0;stroke-opacity:1;stroke-width:4.57875194"><path
           id="path6180"
           d="m 488.71,439.93 -30.46,0 -0.93,-11.22 1.25,0 c 0.68,8.04 1.43,9.68 8.95,9.68 0.91,0 2.2,0 2.7,-0.11 1.05,-0.19 1.05,-0.74 1.05,-1.89 l 0,-26.25 c 0,-1.71 0,-2.39 -5.23,-2.39 l -2,0 0,-1.55 c 2.04,0.16 7.12,0.16 9.42,0.16 2.29,0 7.42,0 9.47,-0.16 l 0,1.55 -2,0 c -5.24,0 -5.24,0.68 -5.24,2.39 l 0,26.25 c 0,1 0,1.7 0.91,1.89 0.54,0.11 1.89,0.11 2.84,0.11 7.52,0 8.27,-1.64 8.95,-9.68 l 1.25,0 z"
           inkscape:connector-curvature="0"
           style="fill:#000000;stroke-width:4.57875194;stroke-miterlimit:4;stroke-dasharray:none;stroke:none" /><path
           id="path6182"
           d="m 495.63,422.75 0,5.46 -6.92,-0.54 0,-1.55 c 3.49,0 3.89,-0.34 3.89,-2.78 l 0,-13.36 c 0,-2.23 -0.55,-2.23 -3.89,-2.23 l 0,-1.55 c 1.95,0.05 4.28,0.16 5.69,0.16 1.98,0 4.33,0 6.33,-0.16 l 0,1.55 -1.05,0 c -3.69,0 -3.8,0.54 -3.8,2.34 l 0,7.67 c 0,4.92 2.1,9.36 5.89,9.36 0.35,0 0.44,0 0.55,-0.05 -0.16,-0.04 -1.16,-0.64 -1.16,-1.93 0,-1.41 1.05,-2.14 2.16,-2.14 0.89,0 2.14,0.59 2.14,2.18 0,1.6 -1.55,3.03 -3.69,3.03 -3.64,0 -5.43,-3.32 -6.14,-5.46 z"
           inkscape:connector-curvature="0"
           style="fill:#000000;stroke-width:4.57875194;stroke-miterlimit:4;stroke-dasharray:none;stroke:none" /><path
           id="path6184"
           d="m 523.47,409.98 0.03,-0.19 0.02,-0.18 0.04,-0.19 0.04,-0.18 0.05,-0.19 0.06,-0.18 0.06,-0.18 0.07,-0.18 0.07,-0.18 0.08,-0.17 0.09,-0.18 0.1,-0.16 0.1,-0.16 0.1,-0.16 0.12,-0.16 0.12,-0.14 0.12,-0.14 0.13,-0.14 0.14,-0.13 0.15,-0.12 0.15,-0.12 0.15,-0.1 0.17,-0.1 0.17,-0.09 0.17,-0.08 0.18,-0.07 0.19,-0.06 0.19,-0.05 0.2,-0.04 0.21,-0.03 0.21,-0.02 0.21,-0.01 c 1.04,0 4.08,0.71 4.08,4.74 l 0,2.78 -1.25,0 0,-2.78 c 0,-2.89 -1.23,-3.19 -1.79,-3.19 -1.65,0 -1.85,2.23 -1.85,2.48 l 0,9.97 c 0,2.1 0,4.03 -1.78,5.88 -1.95,1.93 -4.44,2.73 -6.83,2.73 -4.09,0 -7.53,-2.33 -7.53,-5.62 0,-1.49 1,-2.35 2.3,-2.35 1.39,0 2.29,1 2.29,2.3 0,0.59 -0.25,2.23 -2.54,2.3 1.34,1.73 3.78,2.28 5.37,2.28 2.45,0 5.28,-1.94 5.28,-6.38 l 0,-1.84 0,-1.05 0,-4.98 c 0,-4.74 -3.58,-6.42 -5.83,-6.42 -2.43,0 -4.48,1.75 -4.48,4.23 0,2.73 2.1,6.88 10.31,7.17 l 0,0 0,1.05 c -2.53,-0.14 -6.01,-0.3 -9.15,-1.8 -3.74,-1.69 -4.99,-4.28 -4.99,-6.47 0,-4.03 4.83,-5.28 7.97,-5.28 3.3,0 5.58,1.99 6.53,4.33 z"
           inkscape:connector-curvature="0"
           style="fill:#000000;stroke-width:4.57875194;stroke-miterlimit:4;stroke-dasharray:none;stroke:none" /><path
           id="path6186"
           d="m 537.32,423.34 0,-13.36 c 0,-2.23 -0.55,-2.23 -3.89,-2.23 l 0,-1.55 c 1.75,0.05 4.28,0.16 5.62,0.16 1.3,0 3.9,-0.11 5.58,-0.16 l 0,1.55 c -3.33,0 -3.87,0 -3.87,2.23 l 0,9.17 c 0,5.19 3.53,7.97 6.72,7.97 3.14,0 3.68,-2.69 3.68,-5.53 l 0,-11.61 c 0,-2.23 -0.54,-2.23 -3.89,-2.23 l 0,-1.55 c 1.75,0.05 4.3,0.16 5.64,0.16 1.3,0 3.88,-0.11 5.58,-0.16 l 0,1.55 c -2.59,0 -3.84,0 -3.89,1.5 l 0,9.51 c 0,4.28 0,5.83 -1.55,7.61 -0.68,0.86 -2.34,1.84 -5.21,1.84 -3.64,0 -5.99,-2.14 -7.38,-5.21 l 0,5.21 -7.03,-0.54 0,-1.55 c 3.48,0 3.89,-0.34 3.89,-2.78 z"
           inkscape:connector-curvature="0"
           style="fill:#000000;stroke-width:4.57875194;stroke-miterlimit:4;stroke-dasharray:none;stroke:none" /><path
           id="path6188"
           d="m 569.91,415.87 0.12,-0.02 0.12,-0.02 0.14,-0.03 0.16,-0.04 0.17,-0.04 0.18,-0.04 0.19,-0.05 0.2,-0.06 0.2,-0.06 0.21,-0.07 0.22,-0.08 0.22,-0.08 0.22,-0.1 0.22,-0.1 0.22,-0.11 0.22,-0.12 0.21,-0.14 0.22,-0.14 0.2,-0.15 0.2,-0.16 0.19,-0.18 0.18,-0.19 0.17,-0.2 0.16,-0.21 0.14,-0.22 0.06,-0.12 0.07,-0.12 0.06,-0.13 0.05,-0.12 0.05,-0.14 0.04,-0.13 0.04,-0.14 0.04,-0.14 0.03,-0.15 0.03,-0.15 0.02,-0.16 0.01,-0.15 0.01,-0.17 0,-0.16 c 0,-2.53 -1.75,-4.53 -5.62,-4.53 -4.19,0 -5.99,2.84 -6.94,7.07 -0.14,0.64 -0.19,0.85 -0.69,0.85 -0.65,0 -0.65,-0.35 -0.65,-1.25 l 0,-6.58 c 0,-0.84 0,-1.19 0.54,-1.19 0.25,0 0.3,0.05 1.25,1 0.1,0.1 0.1,0.19 1,1.14 2.19,-2.09 4.44,-2.14 5.49,-2.14 5.72,0 8.01,3.35 8.01,6.92 0,2.64 -1.5,4.14 -2.09,4.74 -1.64,1.59 -3.6,2 -5.69,2.39 -2.78,0.55 -6.12,1.2 -6.12,4.09 0,1.74 1.29,3.78 5.57,3.78 5.49,0 5.74,-4.48 5.83,-6.03 0.06,-0.45 0.5,-0.45 0.61,-0.45 0.64,0 0.64,0.25 0.64,1.2 l 0,5.03 c 0,0.85 0,1.19 -0.54,1.19 -0.25,0 -0.35,0 -1,-0.59 -0.15,-0.21 -0.65,-0.64 -0.85,-0.8 -1.89,1.39 -3.94,1.39 -4.69,1.39 -6.07,0 -7.96,-3.33 -7.96,-6.12 0,-1.74 0.79,-3.14 2.14,-4.24 1.59,-1.29 3,-1.59 6.57,-2.28 z"
           inkscape:connector-curvature="0"
           style="fill:#000000;stroke-width:4.57875194;stroke-miterlimit:4;stroke-dasharray:none;stroke:none" /><path
           id="path6190"
           d="m 598.17,408.93 0,-3.28 7.31,0.55 0,1.55 c -3.48,0 -3.87,0.34 -3.87,2.78 l 0,30.25 -7.17,-0.55 0,-1.55 c 3.48,0 3.87,-0.34 3.87,-2.79 l 0,-10.75 c -1.43,1.78 -3.58,3.07 -6.28,3.07 l 0.2,-1.09 c 1.75,0 3.85,-0.75 5.39,-2.98 0.55,-0.85 0.55,-0.96 0.55,-1.85 l 0,0 0,-10.22 c 0,-0.89 0,-1 -0.55,-1.84 -1.5,-2.39 -3.74,-3.48 -5.89,-3.48 -2.23,0 -4.03,1.29 -5.21,3.18 -1.3,2.05 -1.46,4.89 -1.46,6.93 0,1.84 0.1,4.84 1.55,7.07 1.05,1.55 2.94,3.19 5.62,3.19 l -0.2,1.09 c -5.87,0 -11.11,-4.87 -11.11,-11.29 0,-6.33 4.89,-11.27 10.56,-11.27 3.19,0 5.44,1.69 6.69,3.28 z"
           inkscape:connector-curvature="0"
           style="fill:#000000;stroke-width:4.57875194;stroke-miterlimit:4;stroke-dasharray:none;stroke:none" /><path
           id="path6192"
           d="m 626.44,410.14 0,-4.49 7.17,0.55 0,1.55 c -3.49,0 -3.89,0.34 -3.89,2.78 l 0,17.68 -7.33,-0.54 0,-1.55 c 3.5,0 3.89,-0.34 3.89,-2.78 l 0,-8.88 c 0,-4.32 -2.39,-7.71 -6.03,-7.71 -4.17,0 -4.37,2.34 -4.37,4.93 l 0,16.53 -7.33,-0.54 0,-1.55 c 3.89,0 3.89,-0.14 3.89,-4.58 l 0,-7.47 c 0,-3.89 0,-8.42 7.56,-8.42 2.8,0 4.98,1.39 6.44,4.49 z"
           inkscape:connector-curvature="0"
           style="fill:#000000;stroke-width:4.57875194;stroke-miterlimit:4;stroke-dasharray:none;stroke:none" /><path
           id="path6194"
           d="m 640.5,417.06 0,0.38 0.01,0.36 0.02,0.36 0.02,0.35 0.02,0.34 0.03,0.34 0.04,0.32 0.04,0.32 0.05,0.31 0.05,0.3 0.05,0.29 0.07,0.29 0.13,0.55 0.15,0.51 0.17,0.49 0.18,0.46 0.2,0.43 0.2,0.4 0.23,0.38 0.23,0.35 0.24,0.32 0.25,0.3 0.25,0.28 0.27,0.26 0.27,0.23 0.27,0.21 0.28,0.19 0.28,0.16 0.28,0.15 0.29,0.13 0.28,0.12 0.28,0.09 0.28,0.08 0.28,0.06 0.27,0.05 0.26,0.03 0.26,0.02 0.25,0.01 c 0.44,0 3.58,-0.05 5.33,-1.85 -2.04,-0.15 -2.34,-1.64 -2.34,-2.29 0,-1.3 0.89,-2.3 2.3,-2.3 1.28,0 2.28,0.86 2.28,2.34 0,3.39 -3.78,5.33 -7.63,5.33 -6.22,0 -10.81,-5.37 -10.81,-11.55 0,-6.37 4.94,-11.31 10.72,-11.31 6.67,0 8.26,5.99 8.26,6.47 0,0.5 -0.5,0.5 -0.64,0.5 -0.45,0 -0.54,-0.19 -0.65,-0.5 -1.44,-4.62 -4.67,-5.22 -6.52,-5.22 -2.64,0 -7.03,2.14 -7.03,10.16 z"
           inkscape:connector-curvature="0"
           style="fill:#000000;stroke-width:4.57875194;stroke-miterlimit:4;stroke-dasharray:none;stroke:none" /><path
           id="path6196"
           d="m 665.38,426.12 7.12,0 0,1.55 -7.12,0 0,9.17 -1.26,0 c -0.04,-4.08 -1.54,-9.42 -6.42,-9.61 l 0,-1.11 4.24,0 0,-13.75 c 0,-6.12 4.62,-6.72 6.42,-6.72 3.53,0 4.94,3.53 4.94,6.72 l 0,2.84 -1.25,0 0,-2.73 c 0,-3.69 -1.5,-5.58 -3.35,-5.58 -3.32,0 -3.32,4.53 -3.32,5.38 z"
           inkscape:connector-curvature="0"
           style="fill:#000000;stroke-width:4.57875194;stroke-miterlimit:4;stroke-dasharray:none;stroke:none" /><path
           id="path6198"
           d="m 681.6,417.71 0.05,1.05 c 0.29,7.42 4.48,8.66 6.18,8.66 5.13,0 5.63,-6.72 5.63,-8.66 l -11.81,0 -0.05,-1.05 13.9,0 c 1.1,0 1.24,0 1.24,1.05 0,4.92 -2.69,9.75 -8.91,9.75 -5.78,0 -10.37,-5.12 -10.37,-11.36 0,-6.67 5.23,-11.5 10.97,-11.5 6.07,0 8.31,5.53 8.31,6.47 0,0.5 -0.39,0.61 -0.64,0.61 -0.45,0 -0.55,-0.3 -0.66,-0.7 -1.73,-5.13 -6.22,-5.13 -6.72,-5.13 -2.5,0 -4.48,1.49 -5.62,3.33 -1.5,2.39 -1.5,5.69 -1.5,7.48 z"
           inkscape:connector-curvature="0"
           style="fill:#000000;stroke-width:4.57875194;stroke-miterlimit:4;stroke-dasharray:none;stroke:none" /><path
           id="path6200"
           d="m 717.63,410.14 0,-4.49 7.17,0.55 0,1.55 c -3.48,0 -3.89,0.34 -3.89,2.78 l 0,17.68 -7.33,-0.54 0,-1.55 c 3.5,0 3.89,-0.34 3.89,-2.78 l 0,-8.88 c 0,-4.32 -2.39,-7.71 -6.03,-7.71 -4.17,0 -4.37,2.34 -4.37,4.93 l 0,16.53 -7.33,-0.54 0,-1.55 c 3.89,0 3.89,-0.14 3.89,-4.58 l 0,-7.47 c 0,-3.89 0,-8.42 7.56,-8.42 2.8,0 4.99,1.39 6.44,4.49 z"
           inkscape:connector-curvature="0"
           style="fill:#000000;stroke-width:4.57875194;stroke-miterlimit:4;stroke-dasharray:none;stroke:none" /><path
           id="path6202"
           d="m 734.18,422.75 0,5.46 -6.93,-0.54 0,-1.55 c 3.49,0 3.9,-0.34 3.9,-2.78 l 0,-13.36 c 0,-2.23 -0.55,-2.23 -3.9,-2.23 l 0,-1.55 c 1.96,0.05 4.28,0.16 5.69,0.16 1.99,0 4.33,0 6.33,-0.16 l 0,1.55 -1.05,0 c -3.69,0 -3.79,0.54 -3.79,2.34 l 0,7.67 c 0,4.92 2.09,9.36 5.89,9.36 0.34,0 0.43,0 0.54,-0.05 -0.15,-0.04 -1.15,-0.64 -1.15,-1.93 0,-1.41 1.04,-2.14 2.15,-2.14 0.89,0 2.14,0.59 2.14,2.18 0,1.6 -1.54,3.03 -3.68,3.03 -3.64,0 -5.44,-3.32 -6.14,-5.46 z"
           inkscape:connector-curvature="0"
           style="fill:#000000;stroke-width:4.57875194;stroke-miterlimit:4;stroke-dasharray:none;stroke:none" /></g>    </g>
    <path
       style="fill:#ff0000;fill-rule:evenodd;stroke:#ff0000;stroke-width:3.75;stroke-linecap:butt;stroke-linejoin:miter;stroke-miterlimit:4;stroke-dasharray:none;stroke-opacity:1;marker-start:url(#marker6413);marker-end:url(#marker6423)"
       d="M 369.71607,456.11531 215.13904,537.11249"
       id="path6411"
       inkscape:connector-curvature="0" />
    <g
       transform="matrix(-0.98958183,0.14397154,-0.14397154,-0.98958183,919.01719,1198.8733)"
       id="g6969"
       style="stroke-width:3.75;stroke-miterlimit:4;stroke-dasharray:none">
      <g
         style="stroke-width:3.75;stroke-miterlimit:4;stroke-dasharray:none"
         id="g6971">
        <path
           style="fill:none;fill-rule:evenodd;stroke:#000000;stroke-width:3.75;stroke-linecap:butt;stroke-linejoin:miter;stroke-miterlimit:4;stroke-dasharray:none;stroke-opacity:1"
           d="M 600.91316,532.47534 629.99217,499.2349"
           id="path6973"
           inkscape:connector-curvature="0"
           sodipodi:nodetypes="cc" />
        <path
           inkscape:connector-curvature="0"
           id="path6975"
           d="m 585.17857,461.29077 44.36422,39.54866"
           style="fill:none;fill-rule:evenodd;stroke:#000000;stroke-width:3.75;stroke-linecap:butt;stroke-linejoin:miter;stroke-miterlimit:4;stroke-dasharray:none;stroke-opacity:1"
           sodipodi:nodetypes="cc" />
        <path
           sodipodi:nodetypes="cc"
           inkscape:connector-curvature="0"
           id="path6977"
           d="M 557.43459,493.9612 586.5136,460.72076"
           style="fill:none;fill-rule:evenodd;stroke:#000000;stroke-width:3.75;stroke-linecap:butt;stroke-linejoin:miter;stroke-miterlimit:4;stroke-dasharray:none;stroke-opacity:1" />
      </g>
    </g>
  </g>
</svg>
