<?xml version="1.0" encoding="UTF-8" standalone="no"?>
<svg
   xmlns:dc="http://purl.org/dc/elements/1.1/"
   xmlns:cc="http://creativecommons.org/ns#"
   xmlns:rdf="http://www.w3.org/1999/02/22-rdf-syntax-ns#"
   xmlns:svg="http://www.w3.org/2000/svg"
   xmlns="http://www.w3.org/2000/svg"
   xmlns:xlink="http://www.w3.org/1999/xlink"
   xmlns:sodipodi="http://sodipodi.sourceforge.net/DTD/sodipodi-0.dtd"
   xmlns:inkscape="http://www.inkscape.org/namespaces/inkscape"
   viewBox="0 0 576 432"
   id="svg2"
   version="1.1"
   inkscape:version="0.48.4 r9939"
   width="100%"
   height="100%"
   sodipodi:docname="dispercurves_aluminium.svg">
  <metadata
     id="metadata506">
    <rdf:RDF>
      <cc:Work
         rdf:about="">
        <dc:format>image/svg+xml</dc:format>
        <dc:type
           rdf:resource="http://purl.org/dc/dcmitype/StillImage" />
        <dc:title>Gnuplot</dc:title>
      </cc:Work>
    </rdf:RDF>
  </metadata>
  <defs
     id="defs504">
    <defs
       id="defs11">
      <circle
         stroke-width="0.5"
         r="0.5"
         id="gpDot" />
      <path
         d="M-1,0 h2 M0,-1 v2"
         stroke="currentColor"
         stroke-width="0.333"
         id="gpPt0" />
      <path
         d="M-1,-1 L1,1 M1,-1 L-1,1"
         stroke="currentColor"
         stroke-width="0.333"
         id="gpPt1" />
      <path
         d="M-1,0 L1,0 M0,-1 L0,1 M-1,-1 L1,1 M-1,1 L1,-1"
         stroke="currentColor"
         stroke-width="0.333"
         id="gpPt2" />
      <rect
         height="2"
         width="2"
         y="-1"
         x="-1"
         stroke="currentColor"
         stroke-width="0.333"
         id="gpPt3" />
      <rect
         height="2"
         width="2"
         y="-1"
         x="-1"
         fill="currentColor"
         stroke="currentColor"
         stroke-width="0.333"
         id="gpPt4" />
      <circle
         r="1"
         cy="0"
         cx="0"
         stroke="currentColor"
         stroke-width="0.333"
         id="gpPt5" />
      <use
         stroke="none"
         fill="currentColor"
         id="gpPt6"
         xlink:href="#gpPt5" />
      <path
         d="M0,-1.33 L-1.33,0.67 L1.33,0.67 z"
         stroke="currentColor"
         stroke-width="0.333"
         id="gpPt7" />
      <use
         stroke="none"
         fill="currentColor"
         id="gpPt8"
         xlink:href="#gpPt7" />
      <use
         transform="rotate(180)"
         stroke="currentColor"
         id="gpPt9"
         xlink:href="#gpPt7" />
      <use
         stroke="none"
         fill="currentColor"
         id="gpPt10"
         xlink:href="#gpPt9" />
      <use
         transform="rotate(45)"
         stroke="currentColor"
         id="gpPt11"
         xlink:href="#gpPt3" />
      <use
         stroke="none"
         fill="currentColor"
         id="gpPt12"
         xlink:href="#gpPt11" />
      <filter
         width="1"
         height="1"
         y="0"
         x="0"
         filterUnits="objectBoundingBox"
         id="greybox">
        <feFlood
           id="feFlood28"
           result="grey"
           flood-opacity="1"
           flood-color="lightgrey" />
        <feComposite
           id="feComposite30"
           operator="atop"
           in2="grey"
           in="SourceGraphic" />
      </filter>
    </defs>
  </defs>
  <sodipodi:namedview
     pagecolor="#ffffff"
     bordercolor="#666666"
     borderopacity="1"
     objecttolerance="10"
     gridtolerance="10"
     guidetolerance="10"
     inkscape:pageopacity="0"
     inkscape:pageshadow="2"
     inkscape:window-width="1366"
     inkscape:window-height="708"
     id="namedview502"
     showgrid="false"
     inkscape:zoom="1.5451593"
     inkscape:cx="314.40472"
     inkscape:cy="171.03286"
     inkscape:window-x="0"
     inkscape:window-y="0"
     inkscape:window-maximized="1"
     inkscape:current-layer="svg2" />
  <title
     id="title4">Gnuplot</title>
  <desc
     id="desc6">Produced by GNUPLOT 4.6 patchlevel 6 </desc>
  <path
     d="m 503.2,393.6 0,-8.4 m 0,-373.9 0,8.4"
     id="path204"
     inkscape:connector-curvature="0"
     style="color:#000000;fill:none;stroke:#000000;stroke-width:0.5;stroke-linecap:butt;stroke-linejoin:miter" />
  <g
     transform="translate(503.2,409.3)"
     style="font-size:12.5px;text-anchor:middle;color:#000000;fill:#000000;stroke:none"
     id="g206">
    <text
       id="text208">
      <tspan
         id="tspan210">5</tspan>
    </text>
  </g>
  <path
     d="m 37.2,11.3 0,382.3 521.9,0 0,-382.3 -521.9,0 z"
     id="path212"
     inkscape:connector-curvature="0"
     style="color:#000000;fill:none;stroke:#000000;stroke-width:0.5;stroke-linecap:butt;stroke-linejoin:miter" />
  <g
     transform="matrix(0,-1,1,0,14.441547,196.67536)"
     style="font-size:12.5px;text-anchor:middle;color:#000000;fill:#000000;stroke:none"
     id="g214">
    <text
       id="text216">
      <tspan
         id="tspan218"
         style="font-size:16px">v</tspan>
      <tspan
         style="font-size:16px;font-family:Symbol"
         font-size="8.0pt"
         dy="3.75"
         id="tspan220">F</tspan>
      <tspan
         style="font-size:16px"
         font-size="10.0pt"
         dy="-3.75"
         id="tspan222">(mm/µs)</tspan>
    </text>
  </g>
  <g
     transform="translate(298.1,427.3)"
     style="font-size:12.50000000000000000px;text-anchor:middle;color:#000000;fill:#000000;stroke:none"
     id="g224">
    <text
       id="text226">
      <tspan
         id="tspan228"
         style="font-size:16px">f.h en MHz.mm</tspan>
    </text>
  </g>
  <rect
     style="fill:none"
     id="rect9"
     height="432"
     width="576"
     y="0"
     x="0" />
  <g
     id="g32"
     style="color:#ffffff;fill:none;stroke:currentColor;stroke-width:1;stroke-linecap:butt;stroke-linejoin:miter" />
  <g
     id="g34"
     style="color:#000000;fill:none;stroke:currentColor;stroke-width:1;stroke-linecap:butt;stroke-linejoin:miter"
     inkscape:export-filename="/home/hilid/Desktop/cr_cnd/cr_cnd/emat/images/dispercurves_aluminium.svg.png"
     inkscape:export-xdpi="90"
     inkscape:export-ydpi="90">
    <g
       id="g36"
       style="stroke:none">
      <polygon
         style="fill:#ffffff"
         id="polygon38"
         points="559,11.4 37.2,11.4 37.2,393.6 559,393.6 " />
    </g>
    <path
       style="stroke:#000000"
       inkscape:connector-curvature="0"
       id="path40"
       d="m 37.2,393.6 0,-382.2 521.8,0 0,382.2 -521.8,0" />
  </g>
  <g
     id="g42"
     style="color:#000000;fill:none;stroke:#000000;stroke-width:0.5;stroke-linecap:butt;stroke-linejoin:miter" />
  <g
     id="g44"
     style="color:#808080;fill:none;stroke:currentColor;stroke-width:0.5;stroke-linecap:butt;stroke-linejoin:miter">
    <path
       style="stroke:#808080;stroke-dasharray:2, 4"
       inkscape:connector-curvature="0"
       id="path46"
       d="m 37.2,393.6 521.9,0"
       class="gridline" />
  </g>
  <g
     id="g48"
     style="color:#000000;fill:none;stroke:currentColor;stroke-width:0.5;stroke-linecap:butt;stroke-linejoin:miter">
    <path
       style="stroke:#000000"
       inkscape:connector-curvature="0"
       id="path50"
       d="m 37.2,393.6 8.4,0 m 513.5,0 -8.4,0" />
    <g
       id="g52"
       style="font-size:12.5px;text-anchor:end;fill:#000000;stroke:none"
       transform="translate(31.6,397.3)">
      <text
         id="text54">
        <tspan
           id="tspan56">0</tspan>
      </text>
    </g>
  </g>
  <g
     id="g58"
     style="color:#808080;fill:none;stroke:currentColor;stroke-width:0.5;stroke-linecap:butt;stroke-linejoin:miter">
    <path
       style="stroke:#808080;stroke-dasharray:2, 4"
       inkscape:connector-curvature="0"
       id="path60"
       d="m 37.2,317.1 521.9,0"
       class="gridline" />
  </g>
  <g
     id="g62"
     style="color:#000000;fill:none;stroke:currentColor;stroke-width:0.5;stroke-linecap:butt;stroke-linejoin:miter">
    <path
       style="stroke:#000000"
       inkscape:connector-curvature="0"
       id="path64"
       d="m 37.2,317.1 8.4,0 m 513.5,0 -8.4,0" />
    <g
       id="g66"
       style="font-size:12.5px;text-anchor:end;fill:#000000;stroke:none"
       transform="translate(31.6,320.8)">
      <text
         id="text68">
        <tspan
           id="tspan70">2</tspan>
      </text>
    </g>
  </g>
  <g
     id="g72"
     style="color:#808080;fill:none;stroke:currentColor;stroke-width:0.5;stroke-linecap:butt;stroke-linejoin:miter">
    <path
       style="stroke:#808080;stroke-dasharray:2, 4"
       inkscape:connector-curvature="0"
       id="path74"
       d="m 37.2,240.7 521.9,0"
       class="gridline" />
  </g>
  <g
     id="g76"
     style="color:#000000;fill:none;stroke:currentColor;stroke-width:0.5;stroke-linecap:butt;stroke-linejoin:miter">
    <path
       style="stroke:#000000"
       inkscape:connector-curvature="0"
       id="path78"
       d="m 37.2,240.7 8.4,0 m 513.5,0 -8.4,0" />
    <g
       id="g80"
       style="font-size:12.5px;text-anchor:end;fill:#000000;stroke:none"
       transform="translate(31.6,244.4)">
      <text
         id="text82">
        <tspan
           id="tspan84">4</tspan>
      </text>
    </g>
  </g>
  <g
     id="g86"
     style="color:#808080;fill:none;stroke:currentColor;stroke-width:0.5;stroke-linecap:butt;stroke-linejoin:miter">
    <path
       style="stroke:#808080;stroke-dasharray:2, 4"
       inkscape:connector-curvature="0"
       id="path88"
       d="m 37.2,164.2 521.9,0"
       class="gridline" />
  </g>
  <g
     id="g90"
     style="color:#000000;fill:none;stroke:currentColor;stroke-width:0.5;stroke-linecap:butt;stroke-linejoin:miter">
    <path
       style="stroke:#000000"
       inkscape:connector-curvature="0"
       id="path92"
       d="m 37.2,164.2 8.4,0 m 513.5,0 -8.4,0" />
    <g
       id="g94"
       style="font-size:12.5px;text-anchor:end;fill:#000000;stroke:none"
       transform="translate(31.6,167.9)">
      <text
         id="text96">
        <tspan
           id="tspan98">6</tspan>
      </text>
    </g>
  </g>
  <g
     id="g100"
     style="color:#808080;fill:none;stroke:currentColor;stroke-width:0.5;stroke-linecap:butt;stroke-linejoin:miter">
    <path
       style="stroke:#808080;stroke-dasharray:2, 4"
       inkscape:connector-curvature="0"
       id="path102"
       d="m 37.2,87.8 521.9,0"
       class="gridline" />
  </g>
  <g
     id="g104"
     style="color:#000000;fill:none;stroke:currentColor;stroke-width:0.5;stroke-linecap:butt;stroke-linejoin:miter">
    <path
       style="stroke:#000000"
       inkscape:connector-curvature="0"
       id="path106"
       d="m 37.2,87.8 8.4,0 m 513.5,0 -8.4,0" />
    <g
       id="g108"
       style="font-size:12.5px;text-anchor:end;fill:#000000;stroke:none"
       transform="translate(31.6,91.5)">
      <text
         id="text110">
        <tspan
           id="tspan112">8</tspan>
      </text>
    </g>
  </g>
  <g
     id="g114"
     style="color:#808080;fill:none;stroke:currentColor;stroke-width:0.5;stroke-linecap:butt;stroke-linejoin:miter">
    <path
       style="stroke:#808080;stroke-dasharray:2, 4"
       inkscape:connector-curvature="0"
       id="path116"
       d="m 37.2,11.3 521.9,0"
       class="gridline" />
  </g>
  <g
     id="g118"
     style="color:#000000;fill:none;stroke:currentColor;stroke-width:0.5;stroke-linecap:butt;stroke-linejoin:miter">
    <path
       style="stroke:#000000"
       inkscape:connector-curvature="0"
       id="path120"
       d="m 37.2,11.3 8.4,0 m 513.5,0 -8.4,0" />
    <g
       id="g122"
       style="font-size:12.5px;text-anchor:end;fill:#000000;stroke:none"
       transform="translate(31.6,15)">
      <text
         id="text124">
        <tspan
           id="tspan126">10</tspan>
      </text>
    </g>
  </g>
  <g
     id="g128"
     style="color:#808080;fill:none;stroke:currentColor;stroke-width:0.5;stroke-linecap:butt;stroke-linejoin:miter">
    <path
       style="stroke:#808080;stroke-dasharray:2, 4"
       inkscape:connector-curvature="0"
       id="path130"
       d="m 37.2,393.6 0,-382.3"
       class="gridline" />
  </g>
  <g
     id="g132"
     style="color:#000000;fill:none;stroke:currentColor;stroke-width:0.5;stroke-linecap:butt;stroke-linejoin:miter">
    <path
       style="stroke:#000000"
       inkscape:connector-curvature="0"
       id="path134"
       d="m 37.2,393.6 0,-8.4 m 0,-373.9 0,8.4" />
    <g
       id="g136"
       style="font-size:12.5px;text-anchor:middle;fill:#000000;stroke:none"
       transform="translate(37.2,409.3)">
      <text
         id="text138">
        <tspan
           id="tspan140">0</tspan>
      </text>
    </g>
  </g>
  <g
     id="g142"
     style="color:#808080;fill:none;stroke:currentColor;stroke-width:0.5;stroke-linecap:butt;stroke-linejoin:miter">
    <path
       style="stroke:#808080;stroke-dasharray:2, 4"
       inkscape:connector-curvature="0"
       id="path144"
       d="m 130.4,393.6 0,-382.3"
       class="gridline" />
  </g>
  <g
     id="g146"
     style="color:#000000;fill:none;stroke:currentColor;stroke-width:0.5;stroke-linecap:butt;stroke-linejoin:miter">
    <path
       style="stroke:#000000"
       inkscape:connector-curvature="0"
       id="path148"
       d="m 130.4,393.6 0,-8.4 m 0,-373.9 0,8.4" />
    <g
       id="g150"
       style="font-size:12.5px;text-anchor:middle;fill:#000000;stroke:none"
       transform="translate(130.4,409.3)">
      <text
         id="text152">
        <tspan
           id="tspan154">1</tspan>
      </text>
    </g>
  </g>
  <g
     id="g156"
     style="color:#808080;fill:none;stroke:currentColor;stroke-width:0.5;stroke-linecap:butt;stroke-linejoin:miter">
    <path
       style="stroke:#808080;stroke-dasharray:2, 4"
       inkscape:connector-curvature="0"
       id="path158"
       d="m 223.6,393.6 0,-382.3"
       class="gridline" />
  </g>
  <g
     id="g160"
     style="color:#000000;fill:none;stroke:currentColor;stroke-width:0.5;stroke-linecap:butt;stroke-linejoin:miter">
    <path
       style="stroke:#000000"
       inkscape:connector-curvature="0"
       id="path162"
       d="m 223.6,393.6 0,-8.4 m 0,-373.9 0,8.4" />
    <g
       id="g164"
       style="font-size:12.5px;text-anchor:middle;fill:#000000;stroke:none"
       transform="translate(223.6,409.3)">
      <text
         id="text166">
        <tspan
           id="tspan168">2</tspan>
      </text>
    </g>
  </g>
  <g
     id="g170"
     style="color:#808080;fill:none;stroke:currentColor;stroke-width:0.5;stroke-linecap:butt;stroke-linejoin:miter">
    <path
       style="stroke:#808080;stroke-dasharray:2, 4"
       inkscape:connector-curvature="0"
       id="path172"
       d="m 316.8,393.6 0,-382.3"
       class="gridline" />
  </g>
  <g
     id="g174"
     style="color:#000000;fill:none;stroke:currentColor;stroke-width:0.5;stroke-linecap:butt;stroke-linejoin:miter">
    <path
       style="stroke:#000000"
       inkscape:connector-curvature="0"
       id="path176"
       d="m 316.8,393.6 0,-8.4 m 0,-373.9 0,8.4" />
    <g
       id="g178"
       style="font-size:12.5px;text-anchor:middle;fill:#000000;stroke:none"
       transform="translate(316.8,409.3)">
      <text
         id="text180">
        <tspan
           id="tspan182">3</tspan>
      </text>
    </g>
  </g>
  <g
     id="g184"
     style="color:#808080;fill:none;stroke:currentColor;stroke-width:0.5;stroke-linecap:butt;stroke-linejoin:miter">
    <path
       style="stroke:#808080;stroke-dasharray:2, 4"
       inkscape:connector-curvature="0"
       id="path186"
       d="M 410,393.6 410,11.3"
       class="gridline" />
  </g>
  <g
     id="g188"
     style="color:#000000;fill:none;stroke:currentColor;stroke-width:0.5;stroke-linecap:butt;stroke-linejoin:miter">
    <path
       style="stroke:#000000"
       inkscape:connector-curvature="0"
       id="path190"
       d="m 410,393.6 0,-8.4 m 0,-373.9 0,8.4" />
    <g
       id="g192"
       style="font-size:12.5px;text-anchor:middle;fill:#000000;stroke:none"
       transform="translate(410,409.3)">
      <text
         id="text194">
        <tspan
           id="tspan196">4</tspan>
      </text>
    </g>
  </g>
  <g
     id="g198"
     style="color:#808080;fill:none;stroke:currentColor;stroke-width:0.5;stroke-linecap:butt;stroke-linejoin:miter">
    <path
       style="stroke:#808080;stroke-dasharray:2, 4"
       inkscape:connector-curvature="0"
       id="path200"
       d="m 503.2,393.6 0,-382.3"
       class="gridline" />
  </g>
  <g
     id="g230"
     style="color:#000000;fill:none;stroke:#000000;stroke-width:1;stroke-linecap:butt;stroke-linejoin:miter">
    <path
       style="stroke:#000000"
       inkscape:connector-curvature="0"
       id="path232"
       d="m 513.9,387.6 39.6,0 -39.6,0 z" />
  </g>
  <g
     id="gnuplot_plot_1a"
     style="stroke-width:4;stroke-miterlimit:4;stroke-dasharray:none">
    <title
       id="title235">gnuplot_plot_1a</title>
    <g
       id="g237"
       style="color:#ffffff;fill:none;stroke:#000000;stroke-width:4;stroke-linecap:butt;stroke-linejoin:miter;stroke-miterlimit:4;stroke-dasharray:none" />
    <g
       id="g239"
       style="color:#ff0000;fill:none;stroke:currentColor;stroke-width:4;stroke-linecap:butt;stroke-linejoin:miter;stroke-miterlimit:4;stroke-dasharray:none">
      <path
         style="stroke:#0000ff;stroke-width:4;stroke-miterlimit:4;stroke-dasharray:none"
         inkscape:connector-curvature="0"
         id="path241"
         d="m 37.2,393.6 5.2,-28.2 5.2,-12.6 0.2,2.5 5.1,-11.5 1.7,2.5 3.5,-7.1 5.2,-4.4 0.6,1 4.6,-6.2 5,-1.6 0.2,-0.3 5.3,-5 4.4,-0.7 0.8,-0.8 5.2,-3.9 4.5,-0.5 0.7,-0.7 5.2,-3.2 4.8,-0.5 0.4,-0.3 5.3,-2.8 5.2,-0.6 5.2,-2.5 5.2,-0.7 0.5,0.2 4.7,-2.1 5.3,-0.7 1,0.2 4.2,-1.7 5.2,-0.8 1.7,0.2 3.5,-1.3 5.2,-0.9 2.4,0.2 2.9,-0.9 5.2,-0.9 2.9,0.2 2.3,-0.7 5.2,-1 3.6,0.2 1.6,-0.5 5.3,-0.9 4.2,0.1 1,-0.3 5.2,-0.9 4.8,0 0.4,-0.1 5.2,-0.9 5.2,0 0.2,0 5.1,-0.8 5.2,-0.1 0.7,0.1 4.5,-0.8 5.2,-0.1 1.3,0.1 3.9,-0.7 5.3,-0.2 1.7,0.2 3.5,-0.6 5.2,-0.2 2.2,0.2 3,-0.5 5.2,-0.3 2.6,0.2 2.7,-0.4 5.2,-0.3 3,0.2 2.2,-0.3 5.2,-0.3 3.4,0.1 1.8,-0.2 5.3,-0.4 3.7,0.2 1.5,-0.2 5.2,-0.3 4,0.2 1.2,-0.2 5.2,-0.4 4.4,0.2 0.8,-0.1 5.3,-0.4 4.6,0.2 0.6,-0.1 5.2,-0.3 4.9,0.1 0.3,0 5.2,-0.4 5.2,0.2 0.1,0 5.2,-0.4 5.2,0.1 0.1,0 5.1,-0.3 5.2,0.1 0.4,0 4.9,-0.3 5.2,0.1 0.5,0 4.7,-0.3 5.2,0.1 0.7,0 4.5,-0.3 5.2,0.1 0.9,0.1 4.4,-0.3 5.2,0 1,0.1 4.2,-0.3 5.2,0.1 1.1,0.1 4.1,-0.3 5.3,0.1 1.2,0 4,-0.2 5.2,0 1.3,0.1 3.9,-0.2 5.2,0 1.4,0.1 3.9,-0.2 5.2,0 1.5,0.1 3.7,-0.2 5.2,0 1.5,0.1 3.7,-0.2 5.3,0 1.5,0.1 3.7,-0.2 5.2,0.1 1.6,0.1 3.6,-0.2 5.2,0 1.6,0.1 3.6,-0.2 5.3,0 1.6,0.1 3.6,-0.2 5.2,0.1 1.6,0 3.6,-0.1 5.2,0 1.6,0.1 3.7,-0.2 5.2,0 1.6,0.1 3.6,-0.1" />
    </g>
  </g>
  <g
     id="gnuplot_plot_2a">
    <title
       id="title244">gnuplot_plot_2a</title>
    <g
       id="g246"
       style="color:#ff0000;fill:none;stroke:currentColor;stroke-width:2;stroke-linecap:butt;stroke-linejoin:miter">
      <path
         style="stroke:#0000ff"
         inkscape:connector-curvature="0"
         id="path248"
         d="M 37.2,393.6" />
    </g>
  </g>
  <g
     id="gnuplot_plot_3a">
    <title
       id="title251">gnuplot_plot_3a</title>
    <g
       id="g253"
       style="color:#ff0000;fill:none;stroke:currentColor;stroke-width:2;stroke-linecap:butt;stroke-linejoin:miter" />
  </g>
  <g
     id="gnuplot_plot_4a"
     style="stroke-width:4;stroke-miterlimit:4;stroke-dasharray:none">
    <title
       id="title256">gnuplot_plot_4a</title>
    <g
       id="g258"
       style="color:#ff0000;fill:none;stroke:currentColor;stroke-width:4;stroke-linecap:butt;stroke-linejoin:miter;stroke-miterlimit:4;stroke-dasharray:none">
      <path
         style="stroke:#0000ff;stroke-width:4;stroke-miterlimit:4;stroke-dasharray:none"
         inkscape:connector-curvature="0"
         id="path260"
         d="m 559.1,139.2 -1,-2.3 -4.2,-2 -5.2,-3.7 -1.1,-1.1 -4.2,-2.8 -5.2,-4.6 -0.4,-0.4 -4.8,-4.3 -4.5,-4.7 -0.7,-0.9 -5.2,-6.2 -2.7,-3.4 -2.6,-4 -5,-8.2 -0.2,-0.3 -5.2,-10.5 -1.6,-3.4 -3.6,-9.8 -2.6,-6.9 -2.6,-9.9 -2.7,-9.8 -2.5,-12.9 -2.1,-10.4 -0.8,-5.4" />
    </g>
  </g>
  <g
     id="gnuplot_plot_5a">
    <title
       id="title263">gnuplot_plot_5a</title>
    <g
       id="g265"
       style="color:#ff0000;fill:none;stroke:currentColor;stroke-width:2;stroke-linecap:butt;stroke-linejoin:miter">
      <path
         style="stroke:#0000ff"
         inkscape:connector-curvature="0"
         id="path267"
         d="M 37.2,393.6" />
    </g>
  </g>
  <g
     id="gnuplot_plot_6a">
    <title
       id="title270">gnuplot_plot_6a</title>
    <g
       id="g272"
       style="color:#ff0000;fill:none;stroke:currentColor;stroke-width:2;stroke-linecap:butt;stroke-linejoin:miter" />
  </g>
  <g
     id="gnuplot_plot_7a">
    <title
       id="title275">gnuplot_plot_7a</title>
    <g
       id="g277"
       style="color:#ff0000;fill:none;stroke:currentColor;stroke-width:2;stroke-linecap:butt;stroke-linejoin:miter" />
  </g>
  <g
     id="gnuplot_plot_8a">
    <title
       id="title280">gnuplot_plot_8a</title>
    <g
       id="g282"
       style="color:#ff0000;fill:none;stroke:currentColor;stroke-width:2;stroke-linecap:butt;stroke-linejoin:miter" />
  </g>
  <g
     id="gnuplot_plot_9a">
    <title
       id="title285">gnuplot_plot_9a</title>
    <g
       id="g287"
       style="color:#ff0000;fill:none;stroke:currentColor;stroke-width:2;stroke-linecap:butt;stroke-linejoin:miter" />
  </g>
  <g
     id="gnuplot_plot_10a"
     style="stroke-width:4;stroke-miterlimit:4;stroke-dasharray:none">
    <title
       id="title290">gnuplot_plot_10a</title>
    <g
       id="g292"
       style="color:#ff0000;fill:none;stroke:currentColor;stroke-width:4;stroke-linecap:butt;stroke-linejoin:miter;stroke-miterlimit:4;stroke-dasharray:none">
      <path
         style="stroke:#0000ff;stroke-width:4;stroke-miterlimit:4;stroke-dasharray:none"
         inkscape:connector-curvature="0"
         id="path294"
         d="m 559.1,254.8 -5.2,-0.7 -1.6,-0.1 -3.6,-0.8 -4.7,-0.5 -0.6,-0.1 -5.2,-1 -2.4,-0.2 -2.8,-0.7 -5.2,-0.8 -0.1,0 -5.1,-1.2 -3,-0.4 -2.3,-0.7 -5.2,-0.9 -0.4,-0.1 -4.8,-1.3 -3.1,-0.5 -2.1,-0.7 -5.2,-1.2 -0.5,0 -4.7,-1.6 -3,-0.5 -2.3,-1 -5.2,-1.3 -0.1,0 -5.1,-1.9 -2.6,-0.5 -2.6,-1.2 -5,-1.4 -0.2,-0.1 -5.3,-2.2 -2.1,-0.5 -3.1,-1.5 -4.5,-1.4 -0.7,-0.5 -5.2,-2.2 -1.8,-0.5 -3.4,-1.9 -4.5,-1.4 -0.8,-0.6 -5.2,-2.4 -2,-0.6 -3.2,-2 -5.1,-1.7 -0.1,-0.1 -5.2,-2.9 -3.2,-1 -2.1,-1.4 -5.2,-2.3 -1.7,-0.4 -3.5,-2.3 -5.2,-1.9 -0.6,-0.1 -4.6,-2.9 -5.2,-1.6 0,-0.1 -5.3,-3.2 -5.1,-1.5 -0.1,-0.1 -5.2,-3.3 -5.2,-1.4 -0.3,-0.1 -4.9,-3.4 -5.3,-1.6 -1.1,-0.2 -4.1,-3.3 -5.2,-1.9 -2.5,-0.4 -2.7,-2.8 -5.2,-2.6 -4.3,-0.6 -1,-1.7 -5.2,-4.2 -5.2,-0.8 -1.1,0 -4.1,-9.2 -5.2,1.1 -3.3,0.3 -1.9,-1.4 -5.3,-6.6 -5.2,-1.2 -0.3,0.1 -4.9,-0.6 -5.2,-6.7 -3.9,-2.2 -1.3,-0.7 -5.3,0.3 -5.2,-10.4 -0.9,-2.3 -4.3,-3.7 -5.2,-5.7 -3.3,-6.9 -1.9,-3.2 -5.3,-7.8 -5,-10.9 -0.2,-0.3 -5.2,-11.8 -5.2,-13.7 -1.5,-3.7 -3.7,-14.9 -5.3,-20.4 -2.1,-7.9 -0.3,-2.2" />
    </g>
  </g>
  <g
     id="gnuplot_plot_11a">
    <title
       id="title297">gnuplot_plot_11a</title>
    <g
       id="g299"
       style="color:#ff0000;fill:none;stroke:currentColor;stroke-width:2;stroke-linecap:butt;stroke-linejoin:miter">
      <path
         style="stroke:#0000ff"
         inkscape:connector-curvature="0"
         id="path301"
         d="M 37.2,393.6" />
    </g>
  </g>
  <g
     id="gnuplot_plot_12a">
    <title
       id="title304">gnuplot_plot_12a</title>
    <g
       id="g306"
       style="color:#ff0000;fill:none;stroke:currentColor;stroke-width:2;stroke-linecap:butt;stroke-linejoin:miter" />
  </g>
  <g
     id="gnuplot_plot_13a">
    <title
       id="title309">gnuplot_plot_13a</title>
    <g
       id="g311"
       style="color:#ff0000;fill:none;stroke:currentColor;stroke-width:2;stroke-linecap:butt;stroke-linejoin:miter" />
  </g>
  <g
     id="gnuplot_plot_14a">
    <title
       id="title314">gnuplot_plot_14a</title>
    <g
       id="g316"
       style="color:#ff0000;fill:none;stroke:currentColor;stroke-width:2;stroke-linecap:butt;stroke-linejoin:miter" />
  </g>
  <g
     id="gnuplot_plot_15a">
    <title
       id="title319">gnuplot_plot_15a</title>
    <g
       id="g321"
       style="color:#ff0000;fill:none;stroke:currentColor;stroke-width:2;stroke-linecap:butt;stroke-linejoin:miter" />
  </g>
  <g
     id="gnuplot_plot_16a">
    <title
       id="title324">gnuplot_plot_16a</title>
    <g
       id="g326"
       style="color:#ff0000;fill:none;stroke:currentColor;stroke-width:2;stroke-linecap:butt;stroke-linejoin:miter" />
  </g>
  <g
     id="gnuplot_plot_17a">
    <title
       id="title329">gnuplot_plot_17a</title>
    <g
       id="g331"
       style="color:#ff0000;fill:none;stroke:currentColor;stroke-width:2;stroke-linecap:butt;stroke-linejoin:miter" />
  </g>
  <g
     id="gnuplot_plot_18a">
    <title
       id="title334">gnuplot_plot_18a</title>
    <g
       id="g336"
       style="color:#ff0000;fill:none;stroke:currentColor;stroke-width:2;stroke-linecap:butt;stroke-linejoin:miter" />
  </g>
  <g
     id="gnuplot_plot_19a">
    <title
       id="title339">gnuplot_plot_19a</title>
    <g
       id="g341"
       style="color:#ff0000;fill:none;stroke:currentColor;stroke-width:2;stroke-linecap:butt;stroke-linejoin:miter" />
  </g>
  <g
     id="gnuplot_plot_20a">
    <title
       id="title344">gnuplot_plot_20a</title>
    <g
       id="g346"
       style="color:#ff0000;fill:none;stroke:currentColor;stroke-width:2;stroke-linecap:butt;stroke-linejoin:miter" />
  </g>
  <g
     id="gnuplot_plot_21a"
     style="stroke-width:4;stroke-miterlimit:4;stroke-dasharray:none">
    <title
       id="title349">gnuplot_plot_21a</title>
    <g
       id="g351"
       style="color:#ff0000;fill:none;stroke:currentColor;stroke-width:4;stroke-linecap:butt;stroke-linejoin:miter;stroke-miterlimit:4;stroke-dasharray:none">
      <path
         style="stroke:#ff0000;stroke-width:4;stroke-miterlimit:4;stroke-dasharray:none"
         inkscape:connector-curvature="0"
         id="path353"
         d="m 54.9,201.9 3.2,-17.4 5.2,-17.8 5.2,-7.2 5.2,16 1.2,13.7 4.1,-7 5.2,-4.4 5.2,1.2 4.8,8.5 0.4,-0.6 5.2,-3.2 5.2,-0.9 5.3,2.5 2.4,3.7 2.8,-1.9 5.2,-1.3 5.2,0.7 5.2,3.1 0.1,0.1 5.2,-1.2 5.2,0.1 5.2,1.8 2,1.6 3.2,-0.8 5.2,0 5.3,1.3 3.3,1.9 1.9,-0.3 5.2,0.1 5.2,1.4 3.7,2 1.5,-0.1 5.3,0.6 5.2,1.8 2.8,1.7 2.4,0.2 5.2,1.4 5.2,2.9 0.4,0.3 4.8,1.3 5.3,3.1 1.4,1.3 3.8,1.4 5.2,3.7 1,1.1 4.2,2.2 4.3,4.2 0.9,0.4 5.3,4.1 1.3,1.7 3.9,2.7 2.9,3.3 2.3,1.3 4.1,4.1 1.1,0.5 5.2,4.2 0.1,0.1 5.2,3.2 1.1,1.2 4.1,2 2.3,1.8 2.9,1.1 3.7,2.2 1.5,0.5 5.2,2.3 0.2,0.1 5.1,1.7 1.8,0.9 3.4,0.9 3.8,1.3 1.4,0.3 5.2,1.3 0.9,0.3 4.3,1 3.3,0.8 1.9,0.6 5.3,0.6 0.8,0.2 4.4,1.2 3.1,0.3 2.1,0 5.2,1 1,0.1 4.2,0.2 5,0.5 0.3,-0.1 5.2,0.6 3.9,0.1 1.3,-0.2 5.2,1.1 2.7,-0.4 2.5,-0.4 4.9,1.6 0.4,0 5.2,-1.4 3.6,1.9 1.6,-0.1 5.2,-0.7 2.3,1.4 2.9,-0.3 5.2,0.3 0.8,0.5 4.5,-0.3 4.6,0.7 0.6,0 5.2,-0.3 3.6,0.7 1.6,-0.1 5.2,-0.1 2.6,0.5 2.7,-0.2 5.2,0.2 1.5,0.3 3.7,-0.2 5.2,0.4 0.5,0.1 4.7,-0.2 4.8,0.5 0.5,-0.1 5.2,-0.2 4,0.4 1.2,0 5.2,-0.1 3.3,0.3 1.9,-0.1 5.3,0 2.5,0.3 2.7,-0.2 5.2,0.1 1.8,0.3 3.4,-0.2 5.2,0.2 1.1,0.1 4.1,-0.2 5.3,0.3 0.4,0 4.8,-0.2 5,0.4 0.2,0 5.2,-0.3 4.5,0.4 0.7,-0.1 5.3,-0.2 4,0.3 1.2,0 5.2,-0.1" />
    </g>
  </g>
  <g
     id="gnuplot_plot_22a">
    <title
       id="title356">gnuplot_plot_22a</title>
    <g
       id="g358"
       style="color:#ff0000;fill:none;stroke:currentColor;stroke-width:2;stroke-linecap:butt;stroke-linejoin:miter">
      <path
         style="stroke:#ff0000"
         inkscape:connector-curvature="0"
         id="path360"
         d="M 37.2,393.6" />
    </g>
  </g>
  <g
     id="gnuplot_plot_23a"
     style="stroke-width:4;stroke-miterlimit:4;stroke-dasharray:none">
    <title
       id="title363">gnuplot_plot_23a</title>
    <g
       id="g365"
       style="color:#ff0000;fill:none;stroke:currentColor;stroke-width:4;stroke-linecap:butt;stroke-linejoin:miter;stroke-miterlimit:4;stroke-dasharray:none">
      <path
         style="stroke:#ff0000;stroke-width:4;stroke-miterlimit:4;stroke-dasharray:none"
         inkscape:connector-curvature="0"
         id="path367"
         d="m 559.1,106 -5.2,-2.5 -4.7,-2.1 -0.5,-0.3 -5.3,-3 -5.2,-2.9 -3,-1.5 -2.2,-1.5 -5.2,-3.4 -5.2,-3.3 -1.2,-0.7 -4.1,-3.1 -5.2,-3.8 -4.3,-3.1 -0.9,-0.9 -5.2,-4.5 -5.2,-4.5 -2.2,-1.7 -3,-3.3 -5.3,-5.3 -4.8,-4.8 -0.4,-0.6 -5.2,-6.3 -5.2,-6.3 -2.2,-2.5 -3,-4.7 -5.3,-7.6 -4.3,-6.2 -0.9,-1.7 -1.4,-2.6" />
    </g>
  </g>
  <g
     id="gnuplot_plot_24a">
    <title
       id="title370">gnuplot_plot_24a</title>
    <g
       id="g372"
       style="color:#ff0000;fill:none;stroke:currentColor;stroke-width:2;stroke-linecap:butt;stroke-linejoin:miter">
      <path
         style="stroke:#ff0000"
         inkscape:connector-curvature="0"
         id="path374"
         d="M 37.2,393.6" />
    </g>
  </g>
  <g
     id="gnuplot_plot_25a">
    <title
       id="title377">gnuplot_plot_25a</title>
    <g
       id="g379"
       style="color:#ff0000;fill:none;stroke:currentColor;stroke-width:2;stroke-linecap:butt;stroke-linejoin:miter" />
  </g>
  <g
     id="gnuplot_plot_26a">
    <title
       id="title382">gnuplot_plot_26a</title>
    <g
       id="g384"
       style="color:#ff0000;fill:none;stroke:currentColor;stroke-width:2;stroke-linecap:butt;stroke-linejoin:miter" />
  </g>
  <g
     id="gnuplot_plot_27a"
     style="stroke-width:4;stroke-miterlimit:4;stroke-dasharray:none">
    <title
       id="title387">gnuplot_plot_27a</title>
    <g
       id="g389"
       style="color:#ff0000;fill:none;stroke:currentColor;stroke-width:4;stroke-linecap:butt;stroke-linejoin:miter;stroke-miterlimit:4;stroke-dasharray:none">
      <path
         style="stroke:#ff0000;stroke-width:4;stroke-miterlimit:4;stroke-dasharray:none"
         inkscape:connector-curvature="0"
         id="path391"
         d="m 559.1,196.5 -5.2,-1.6 -2.3,-0.5 -2.9,-1.3 -5.3,-1.4 -2.3,-0.4 -2.9,-1.3 -5.2,-1.5 -2.9,-0.4 -2.3,-1.1 -5.2,-1.5 -4.1,-0.6 -1.2,-0.6 -5.2,-1.7 -5.2,-0.8 -0.6,-0.1 -4.6,-1.7 -5.2,-1.1 -3.1,-0.3 -2.1,-0.9 -5.3,-1.5 -5.2,-0.7 -1,0 -4.2,-1.6 -5.2,-1.1 -4.7,-0.4 -0.5,-0.2 -5.3,-1.7 -5.2,-0.9 -3.7,-0.3 -1.5,-0.6 -5.2,-1.6 -5.2,-0.8 -3.2,-0.2 -2.1,-0.8 -5.2,-1.6 -5.2,-0.7 -2.9,-0.2 -2.3,-1 -5.2,-1.6 -5.3,-0.9 -2.8,-0.2 -2.4,-1.1 -5.2,-1.8 -5.2,-1 -2.7,-0.2 -2.5,-1.4 -5.2,-2 -5.3,-1.3 -2.2,-0.3 -3,-1.9 -5.2,-2.4 -5.2,-1.6 -1.1,-0.2 -4.1,-3.2 -5.3,-3 -4.2,-1.7 -1,-1.3 -5.2,-5.1 -5.2,-3.9 -0.6,-0.3 -4.6,-7.5 -5.3,-6.6 -0.2,-0.3 -5,-13 -3.1,-6.6 -2.1,-11.2 -3.5,-15.5 -1.7,-19.2 -1.8,-17.2 -0.6,-17" />
    </g>
  </g>
  <g
     id="gnuplot_plot_28a">
    <title
       id="title394">gnuplot_plot_28a</title>
    <g
       id="g396"
       style="color:#ff0000;fill:none;stroke:currentColor;stroke-width:2;stroke-linecap:butt;stroke-linejoin:miter">
      <path
         style="stroke:#ff0000"
         inkscape:connector-curvature="0"
         id="path398"
         d="M 37.2,393.6" />
    </g>
  </g>
  <g
     id="gnuplot_plot_29a">
    <title
       id="title401">gnuplot_plot_29a</title>
    <g
       id="g403"
       style="color:#ff0000;fill:none;stroke:currentColor;stroke-width:2;stroke-linecap:butt;stroke-linejoin:miter" />
  </g>
  <g
     id="gnuplot_plot_30a">
    <title
       id="title406">gnuplot_plot_30a</title>
    <g
       id="g408"
       style="color:#ff0000;fill:none;stroke:currentColor;stroke-width:2;stroke-linecap:butt;stroke-linejoin:miter" />
  </g>
  <g
     id="gnuplot_plot_31a">
    <title
       id="title411">gnuplot_plot_31a</title>
    <g
       id="g413"
       style="color:#ff0000;fill:none;stroke:currentColor;stroke-width:2;stroke-linecap:butt;stroke-linejoin:miter" />
  </g>
  <g
     id="gnuplot_plot_32a">
    <title
       id="title416">gnuplot_plot_32a</title>
    <g
       id="g418"
       style="color:#ff0000;fill:none;stroke:currentColor;stroke-width:2;stroke-linecap:butt;stroke-linejoin:miter" />
  </g>
  <g
     id="gnuplot_plot_33a">
    <title
       id="title421">gnuplot_plot_33a</title>
    <g
       id="g423"
       style="color:#ff0000;fill:none;stroke:currentColor;stroke-width:2;stroke-linecap:butt;stroke-linejoin:miter" />
  </g>
  <g
     id="gnuplot_plot_34a">
    <title
       id="title426">gnuplot_plot_34a</title>
    <g
       id="g428"
       style="color:#ff0000;fill:none;stroke:currentColor;stroke-width:2;stroke-linecap:butt;stroke-linejoin:miter" />
  </g>
  <g
     id="gnuplot_plot_35a">
    <title
       id="title431">gnuplot_plot_35a</title>
    <g
       id="g433"
       style="color:#ff0000;fill:none;stroke:currentColor;stroke-width:2;stroke-linecap:butt;stroke-linejoin:miter" />
  </g>
  <g
     id="gnuplot_plot_36a">
    <title
       id="title436">gnuplot_plot_36a</title>
    <g
       id="g438"
       style="color:#ff0000;fill:none;stroke:currentColor;stroke-width:2;stroke-linecap:butt;stroke-linejoin:miter" />
  </g>
  <g
     id="gnuplot_plot_37a">
    <title
       id="title441">gnuplot_plot_37a</title>
    <g
       id="g443"
       style="color:#ff0000;fill:none;stroke:currentColor;stroke-width:2;stroke-linecap:butt;stroke-linejoin:miter" />
  </g>
  <g
     id="gnuplot_plot_38a">
    <title
       id="title446">gnuplot_plot_38a</title>
    <g
       id="g448"
       style="color:#ff0000;fill:none;stroke:currentColor;stroke-width:2;stroke-linecap:butt;stroke-linejoin:miter" />
  </g>
  <g
     id="gnuplot_plot_39a">
    <title
       id="title451">gnuplot_plot_39a</title>
    <g
       id="g453"
       style="color:#ff0000;fill:none;stroke:currentColor;stroke-width:2;stroke-linecap:butt;stroke-linejoin:miter" />
  </g>
  <g
     id="gnuplot_plot_40a"
     style="stroke-width:7.5;stroke-miterlimit:4;stroke-dasharray:none">
    <title
       id="title456">gnuplot_plot_40a</title>
    <g
       id="g458"
       style="color:#ffffff;fill:none;stroke:#ff0000;stroke-width:7.5;stroke-linecap:butt;stroke-linejoin:miter;stroke-miterlimit:4;stroke-dasharray:none" />
    <g
       id="g460"
       style="color:#ff0000;fill:none;stroke:currentColor;stroke-width:7.5;stroke-linecap:butt;stroke-linejoin:miter;stroke-miterlimit:4;stroke-dasharray:none">
      <use
         height="432"
         width="576"
         y="0"
         x="0"
         style="color:#000000;stroke-width:1.25;stroke-miterlimit:4;stroke-dasharray:none"
         id="use462"
         transform="matrix(6,0,0,6,74.5,325.3)"
         xlink:href="#gpPt0" />
      <use
         height="432"
         width="576"
         y="0"
         x="0"
         style="color:#000000;stroke-width:1.25;stroke-miterlimit:4;stroke-dasharray:none"
         id="use464"
         transform="matrix(6,0,0,6,91.9,329.9)"
         xlink:href="#gpPt0" />
      <use
         height="432"
         width="576"
         y="0"
         x="0"
         style="color:#000000;stroke-width:1.66666667;stroke-miterlimit:4;stroke-dasharray:none"
         id="use466"
         transform="matrix(6,0,0,6,283.5,293)"
         xlink:href="#gpPt0" />
      <use
         height="432"
         width="576"
         y="0"
         x="0"
         style="color:#000000;stroke-width:1.25;stroke-miterlimit:4;stroke-dasharray:none"
         id="use468"
         transform="matrix(6,0,0,6,361.8,291.7)"
         xlink:href="#gpPt0" />
      <use
         height="432"
         width="576"
         y="0"
         x="0"
         style="color:#000000;stroke-width:1.25;stroke-miterlimit:4;stroke-dasharray:none"
         id="use470"
         transform="matrix(6,0,0,6,407.7,291.7)"
         xlink:href="#gpPt0" />
      <use
         xlink:href="#gpPt0"
         transform="matrix(9.3288426,0,0,9.3288426,92.547182,329.9)"
         id="use4539"
         style="color:#000000;stroke-width:1.25;stroke-miterlimit:4;stroke-dasharray:none"
         x="0"
         y="0"
         width="576"
         height="432" />
      <use
         height="432"
         width="576"
         y="0"
         x="0"
         style="color:#000000;stroke-width:1.25;stroke-miterlimit:4;stroke-dasharray:none"
         id="use4541"
         transform="matrix(9.3288426,0,0,9.3288426,75.073255,325.61242)"
         xlink:href="#gpPt0" />
      <use
         height="432"
         width="576"
         y="0"
         x="0"
         style="color:#000000;stroke-width:1.25;stroke-miterlimit:4;stroke-dasharray:none"
         id="use4543"
         transform="matrix(9.3288426,0,0,9.3288426,283.14242,293.33419)"
         xlink:href="#gpPt0" />
      <use
         xlink:href="#gpPt0"
         transform="matrix(9.3288426,0,0,9.3288426,361.77509,291.06905)"
         id="use4545"
         style="color:#000000;stroke-width:1.25;stroke-miterlimit:4;stroke-dasharray:none"
         x="0"
         y="0"
         width="576"
         height="432" />
      <use
         height="432"
         width="576"
         y="0"
         x="0"
         style="color:#000000;stroke-width:1.25;stroke-miterlimit:4;stroke-dasharray:none"
         id="use4547"
         transform="matrix(9.3288426,0,0,9.3288426,408.04864,291.39264)"
         xlink:href="#gpPt0" />
    </g>
  </g>
  <g
     id="gnuplot_plot_41a"
     style="stroke-width:7.5;stroke-miterlimit:4;stroke-dasharray:none">
    <title
       id="title473">gnuplot_plot_41a</title>
    <g
       id="g475"
       style="color:#008000;fill:none;stroke:currentColor;stroke-width:7.5;stroke-linecap:butt;stroke-linejoin:miter;stroke-miterlimit:4;stroke-dasharray:none">
      <use
         height="432"
         width="576"
         y="0"
         x="0"
         style="color:#00ff00;stroke-width:1.25;stroke-miterlimit:4;stroke-dasharray:none"
         id="use477"
         transform="matrix(6,0,0,6,74.5,385.3)"
         xlink:href="#gpPt0" />
      <use
         height="432"
         width="576"
         y="0"
         x="0"
         style="color:#00ff00;stroke-width:1.25;stroke-miterlimit:4;stroke-dasharray:none"
         id="use479"
         transform="matrix(6,0,0,6,91.9,381.7)"
         xlink:href="#gpPt0" />
      <use
         height="432"
         width="576"
         y="0"
         x="0"
         style="color:#00ff00;stroke-width:1.25;stroke-miterlimit:4;stroke-dasharray:none"
         id="use481"
         transform="matrix(6,0,0,6,283.5,366.7)"
         xlink:href="#gpPt0" />
      <use
         height="432"
         width="576"
         y="0"
         x="0"
         style="color:#00ff00;stroke-width:1.25;stroke-miterlimit:4;stroke-dasharray:none"
         id="use483"
         transform="matrix(6,0,0,6,361.8,353.8)"
         xlink:href="#gpPt0" />
      <use
         height="432"
         width="576"
         y="0"
         x="0"
         style="color:#00ff00;stroke-width:1.25;stroke-miterlimit:4;stroke-dasharray:none"
         id="use485"
         transform="matrix(6,0,0,6,407.7,355.4)"
         xlink:href="#gpPt0" />
    </g>
  </g>
  <g
     id="gnuplot_plot_42a"
     style="stroke-width:7.5;stroke-miterlimit:4;stroke-dasharray:none">
    <title
       id="title488">gnuplot_plot_42a</title>
    <g
       id="g490"
       style="color:#0000ff;fill:none;stroke:currentColor;stroke-width:7.5;stroke-linecap:butt;stroke-linejoin:miter;stroke-miterlimit:4;stroke-dasharray:none">
      <use
         height="432"
         width="576"
         y="0"
         x="0"
         style="color:#ff0000;stroke-width:1.25;stroke-miterlimit:4;stroke-dasharray:none"
         id="use492"
         transform="matrix(6,0,0,6,74.5,388.9)"
         xlink:href="#gpPt0" />
      <use
         height="432"
         width="576"
         y="0"
         x="0"
         style="color:#ff0000;stroke-width:1.25;stroke-miterlimit:4;stroke-dasharray:none"
         id="use494"
         transform="matrix(6,0,0,6,283.5,380.4)"
         xlink:href="#gpPt0" />
      <use
         height="432"
         width="576"
         y="0"
         x="0"
         style="color:#ff0000;stroke-width:1.25;stroke-miterlimit:4;stroke-dasharray:none"
         id="use496"
         transform="matrix(6,0,0,6,407.7,363)"
         xlink:href="#gpPt0" />
    </g>
  </g>
  <g
     id="g498"
     style="color:#ffffff;fill:none;stroke:#ff0000;stroke-width:0.5;stroke-linecap:butt;stroke-linejoin:miter" />
  <g
     id="g500"
     style="color:#000000;fill:none;stroke:currentColor;stroke-width:0.5;stroke-linecap:butt;stroke-linejoin:miter" />
</svg>
